<?xml version="1.0" encoding="UTF-8"?>
<svg id="Layer_1" data-name="Layer 1" xmlns="http://www.w3.org/2000/svg" viewBox="0 0 1080 1080">
  <defs>
    <style>
      .cls-1, .cls-2 {
        fill: #0b3470;
      }

      .cls-2 {
        stroke: #0b3470;
        stroke-miterlimit: 10;
        stroke-width: 2px;
      }
    </style>
  </defs>
  <path class="cls-1" d="M222.18,153.41c22.66.22,43.18-.13,79.44-.13,89.97,0,230.88.26,327.87,2.01,1.51.03,5.55-.01,9.96.16,24.35.96,87.03,9.8,136.53,46.93,11.31,8.49,43.85,35.68,62.36,83.73,10.41,27.04,11.72,46.66,12.38,57.05.84,13.37.95,35.44-6.27,63-13.65,52.15-53.28,89.2-65.33,96.67-.89.55-4.58,3.1-6.77,4.63-.75.52-.68,1.66.14,2.07,2.85,1.43,8.16,4.1,9.24,4.59,14.79,6.79,24.07,14.78,31.38,20.67,9.01,7.25,14.73,12.2,20.79,18.7,4.6,4.93,15.83,17.63,25.23,38.25,19.07,41.84,13.39,77.88,13.61,93.8.11,7.98-2.21,17.9-5.73,29.2-3.71,11.91-8.25,25.31-17.25,39.7-2.26,3.61-8.93,17.11-24,29.95-7.23,6.16-15.04,12.05-24.75,18.21-15.17,9.62-30.25,14.98-43.39,19.02-16.55,5.09-29.71,6.06-39.21,7.07-16.92,1.8-41.06,3.23-89.57,3.31-.91,0-3.54,0-5.67,0-1.87,0-3.59-1.05-4.44-2.72-3.43-6.7-12.67-24.75-21.49-42.2-.62-1.23-1.27-2.5-1.9-3.73-1.96-3.85-6.74-13.23-13.39-26.28-3.65-7.17-7.82-15.35-12.57-24.55-5.16-9.99-9.34-18.45-14.31-28.22-3.59-7.05-7.16-14.68-12.01-23.57-15.22-27.91-17.35-39.83-29.93-47-7.74-4.41-15.74-8.09-31.18-8.14-14.5-.05-26.46.05-30.2.09-.68,0-1.22.56-1.22,1.24v81.58c0,21.16.04,44.03,0,63.85-.03,16.63,0,25.2,0,32.16v22.48c0,2.76-2.24,5-5,5-1.48,0-3,0-4.11,0h-227.96c-2.76,0-5-2.24-5-5v-37.08c0-11.25-.05-22.63,0-34.88.08-20.33,0-41.84,0-64.45v-35.52c0-17.54.09-35.7,0-53.52-.07-14.74,0-29.41,0-44.04v-210.15c0-2.76,2.23-5,4.99-5,3.81,0,8.78,0,11.03,0h221.1c2.76,0,5,2.24,5,5,0,6.3,0,16.53,0,18.31.02,12.96,0,14.97,0,26.77.02,33.38,0,30.13,0,71.39v43.53c0,1.32,1.79,1.73,2.35.53,4.17-8.86,12.85-27.42,17.39-37.92,15.73-36.42,42.89-57.19,44.79-58.41,21.29-13.57,43.75-22.29,79.51-16.67,8,1.26,17.06,4.24,25.32,9.83,1.19.8,18.85,12.6,23.3,29.29.48,1.81,3.79,4.24,6.51,5.58,5.63,2.79,8.78,4.32,15.24,7.47,4.59,2.24,6.4,2.87,16.37,7.92,4.2,2.12,5.61,3.01,7,3.9,1.58,1.02,3.25,2.03,8.04,6.05,4.7,3.94,6.98,6.62,8.22,8.31.76,1.04.68.91.84,1.17.12.2.36.63,1.06,2.1,0,0,1.08,2.16,1.08,2.16,0,0-.69-.14-1.54-.19-2.29-.13-10.7-.05-13.08-.07-7.12-.05-13.56-.22-23.53,1.71s-19.2,6.44-20.91,7.29c-7.88,3.94-20.38,11.31-30.78,21.7-6.76,6.76-12.28,14.54-14.95,24.43-1.37,5.06-1.85,12.21-1.27,19.13.49,5.83,1.67,11.41,3.36,18.4,1.81,7.45,5.64,15.06,9.08,23.95,4.5,11.6,14.99,30.07,26.04,49.69,6.32,11.23,12.75,22.61,19.29,33.32,3.82,6.26,9.91,15.23,17.36,24.21,3.47,4.19,7.07,8.46,11.36,12.43,1.78,1.65,3.42,3.23,4.64,4.43.8.78,2.13.16,2.05-.95-.3-4.15-1.13-12.09-3.48-21.91-3.78-15.8-12.73-35.67-22.93-55.5-10.24-19.9-11.77-21.76-25.07-48.43-18.09-36.27-13.95-46.39-12.64-52.07,4.5-19.5,26.18-27.71,30.43-29.36,3.25-1.26,5.37-2.75,42.15-7.31,21.7-2.69,26.7-4.24,32.14-8.79,3.71-3.1,6.44-6.95,6.92-11.11.65-5.54-1.93-12.08-4.35-16.1-1.37-2.27-3.04-6.96-20.57-20.57-21.02-16.31-31.64-23.47-38.57-27-2.1-1.07-8.03-4.51-9.9-5.59-.36-.21-.57-.58-.57-1,.02-2.72.11-12.97.18-15.59.62-24.14-18.85-52.52-19.93-53.68-13.36-14.34-28.81-21.52-41.14-24.43-22.68-5.34-37.6-6.23-63.51-6.43-29.36-.22-9.24.34-97.2,0-40.56-.16-59.39.77-88.5.54-43.5-.35-84,.87-130.82-.09-1.11-.02-8.69-.02-13.91,0-2.76,0-5-2.23-5-5v-30.27c0-46.53-.1-89.21,0-110.45.01-2.37.01-6.41,0-9.66,0-2.78,2.26-5.02,5.04-4.99,3.17.03,6.96.07,8.69.08Z"/>
  <g>
    <path class="cls-2" d="M250.19,910.32l-10.86-11.92h-16.05v-6.61h17.88c5.37,0,8.2-3.07,8.2-8.62s-3.07-8.26-8.2-8.26h-23.37v35.4h-7.43v-42.9h30.8c9.79,0,15.58,6.08,15.58,15.64,0,7.08-3.3,12.1-8.85,14.22l12.92,13.04h-10.62Z"/>
    <path class="cls-2" d="M283.29,910.32c-11.98,0-20.83-9.44-20.83-21.89s8.85-21.01,20.83-21.01h10.44c12.39,0,21.01,8.56,21.01,21.01s-8.79,21.89-21.01,21.89h-10.44ZM293.73,902.83c7.91,0,13.51-5.96,13.51-14.04s-5.61-13.87-13.51-13.87h-10.44c-7.67,0-13.34,5.72-13.34,13.87s5.61,14.04,13.34,14.04h10.44Z"/>
    <path class="cls-2" d="M340.4,910.32c-11.98,0-20.83-9.44-20.83-21.89s8.85-21.01,20.83-21.01h10.44c12.39,0,21.01,8.56,21.01,21.01s-8.79,21.89-21.01,21.89h-10.44ZM350.84,902.83c7.91,0,13.51-5.96,13.51-14.04s-5.61-13.87-13.51-13.87h-10.44c-7.67,0-13.34,5.72-13.34,13.87s5.61,14.04,13.34,14.04h10.44Z"/>
    <path class="cls-2" d="M377.92,910.32v-42.9h7.49v42.9h-7.49ZM413.27,910.32l-24.01-18.88c-1.3-1-1.53-1.95-1.53-3.13,0-1.3.35-2.24,1.89-3.42l22.72-17.47h11.51l-28.09,20.95,28.97,21.95h-11.45Z"/>
    <path class="cls-2" d="M429.55,910.32v-7.49h32.16c4.01,0,6.25-2.24,6.25-5.61,0-3.66-2.24-5.55-6.25-5.55h-19.71c-8.08,0-13.1-5.13-13.1-12.21s4.66-12.04,13.22-12.04h30.8v7.49h-30.8c-3.42,0-5.43,2.01-5.43,5.25s2.06,5.19,5.37,5.19h19.65c8.67,0,13.34,4.07,13.34,12.39,0,7.2-4.37,12.57-13.34,12.57h-32.16Z"/>
    <path class="cls-2" d="M531.5,910.97l-23.19-23.07c-1.38-1.38-2.46-2.61-3.25-3.69-.79-1.08-1.36-2.13-1.71-3.16-.35-1.02-.53-2.07-.53-3.13,0-1.85.46-3.47,1.39-4.87.92-1.4,2.22-2.48,3.89-3.25,1.67-.77,3.63-1.15,5.87-1.15,2.08,0,3.89.34,5.43,1.03,1.53.69,2.72,1.67,3.57,2.95.84,1.28,1.27,2.82,1.27,4.63,0,1.57-.38,3.03-1.15,4.37-.77,1.34-2,2.64-3.69,3.89-1.69,1.26-3.97,2.62-6.84,4.07-2.36,1.22-4.21,2.35-5.55,3.39-1.34,1.04-2.29,2.08-2.86,3.1-.57,1.02-.86,2.14-.86,3.36,0,1.3.38,2.45,1.15,3.45s1.85,1.78,3.25,2.33c1.4.55,3.02.83,4.87.83,2.63,0,5.01-.57,7.14-1.71,2.12-1.14,3.9-2.85,5.34-5.13,1.44-2.28,2.49-5.11,3.16-8.5l4.54,1.47c-.79,3.97-2.13,7.34-4.04,10.09-1.91,2.75-4.26,4.86-7.05,6.31-2.79,1.46-5.94,2.18-9.44,2.18-2.79,0-5.27-.45-7.43-1.36s-3.87-2.16-5.13-3.78c-1.26-1.61-1.89-3.48-1.89-5.6,0-1.85.41-3.54,1.24-5.07.83-1.53,2.14-3.02,3.95-4.46,1.81-1.43,4.19-2.92,7.14-4.45,2.4-1.26,4.28-2.36,5.63-3.3,1.36-.94,2.32-1.84,2.89-2.68.57-.85.86-1.76.86-2.74,0-1.34-.47-2.43-1.42-3.27-.94-.84-2.3-1.27-4.07-1.27s-3.29.46-4.34,1.39c-1.04.92-1.56,2.13-1.56,3.63,0,.75.13,1.47.38,2.15.26.69.73,1.46,1.42,2.3.69.85,1.68,1.92,2.98,3.22l21.83,21.71-3.19,3.78Z"/>
    <path class="cls-2" d="M555.1,910.32v-42.9h31.39c8.38,0,13.92,3.78,13.92,11.09,0,5.43-2.77,8.14-5.96,9.15,3.89,1.24,6.73,4.66,6.73,9.68,0,7.85-5.43,12.98-13.81,12.98h-32.28ZM568.02,891.67v-6.31h18.53c4.25,0,6.25-1.48,6.25-5.19,0-4.54-3.6-5.25-9.15-5.25h-21.06v27.97h21.71c5.37,0,9.26-1.48,9.26-5.67,0-3.54-2.3-5.55-6.49-5.55h-19.06Z"/>
    <path class="cls-2" d="M647.55,910.32l-10.86-11.92h-16.05v-6.61h17.88c5.37,0,8.2-3.07,8.2-8.62s-3.07-8.26-8.2-8.26h-23.37v35.4h-7.43v-42.9h30.8c9.79,0,15.58,6.08,15.58,15.64,0,7.08-3.3,12.1-8.85,14.22l12.92,13.04h-10.62Z"/>
    <path class="cls-2" d="M680.65,910.32c-11.98,0-20.83-9.44-20.83-21.89s8.85-21.01,20.83-21.01h10.44c12.39,0,21.01,8.56,21.01,21.01s-8.79,21.89-21.01,21.89h-10.44ZM691.09,902.83c7.91,0,13.51-5.96,13.51-14.04s-5.61-13.87-13.51-13.87h-10.44c-7.67,0-13.34,5.72-13.34,13.87s5.61,14.04,13.34,14.04h10.44Z"/>
    <path class="cls-2" d="M737.76,910.32c-11.98,0-20.83-9.44-20.83-21.89s8.85-21.01,20.83-21.01h10.44c12.39,0,21.01,8.56,21.01,21.01s-8.79,21.89-21.01,21.89h-10.44ZM748.21,902.83c7.91,0,13.51-5.96,13.51-14.04s-5.61-13.87-13.51-13.87h-10.44c-7.67,0-13.34,5.72-13.34,13.87s5.61,14.04,13.34,14.04h10.44Z"/>
    <path class="cls-2" d="M775.28,910.32v-42.9h7.49v42.9h-7.49ZM810.63,910.32l-24.01-18.88c-1.3-1-1.53-1.95-1.53-3.13,0-1.3.35-2.24,1.89-3.42l22.72-17.47h11.51l-28.09,20.95,28.97,21.95h-11.45Z"/>
    <path class="cls-2" d="M826.91,910.32v-7.49h32.16c4.01,0,6.25-2.24,6.25-5.61,0-3.66-2.24-5.55-6.25-5.55h-19.71c-8.08,0-13.1-5.13-13.1-12.21s4.66-12.04,13.22-12.04h30.8v7.49h-30.8c-3.42,0-5.43,2.01-5.43,5.25s2.06,5.19,5.37,5.19h19.65c8.67,0,13.34,4.07,13.34,12.39,0,7.2-4.37,12.57-13.34,12.57h-32.16Z"/>
  </g>
</svg>