<svg width="344" height="308" viewBox="0 0 344 308" fill="none" xmlns="http://www.w3.org/2000/svg">
<g filter="url(#filter1_f_344_29)">
<path d="M127.889 214.722C108.682 214.722 93.1113 199.152 93.1113 179.944C93.1113 160.737 108.682 145.167 127.889 145.167C131.056 145.167 134.123 145.59 137.038 146.383C140.725 116.298 166.364 93 197.445 93C231.057 93 258.306 120.248 258.306 153.861C258.306 154.866 258.282 155.865 258.234 156.858C263.688 162.999 267 171.085 267 179.944C267 199.152 251.431 214.722 232.222 214.722H127.889Z" fill="url(#paint0_linear_344_29)"/>
</g>
<path d="M127.889 214.722C108.682 214.722 93.1113 199.152 93.1113 179.944C93.1113 160.737 108.682 145.167 127.889 145.167C131.056 145.167 134.123 145.59 137.038 146.383C140.725 116.298 166.364 93 197.445 93C231.057 93 258.306 120.248 258.306 153.861C258.306 154.866 258.282 155.865 258.234 156.858C263.688 162.999 267 171.085 267 179.944C267 199.152 251.431 214.722 232.222 214.722H127.889Z" fill="#1A1A1A"/>
<path fill-rule="evenodd" clip-rule="evenodd" d="M58.3335 214.722C58.3335 233.929 73.9039 249.5 93.1112 249.5H197.445C216.652 249.5 232.222 233.929 232.222 214.722C232.222 205.863 228.91 197.777 223.455 191.636C223.503 190.643 223.528 189.644 223.528 188.639C223.528 155.026 196.279 127.778 162.667 127.778C131.586 127.778 105.947 151.076 102.261 181.16C99.3454 180.368 96.2778 179.944 93.1112 179.944C73.9039 179.944 58.3335 195.515 58.3335 214.722ZM147.451 171.25C147.451 166.448 151.344 162.555 156.146 162.555C160.948 162.555 164.84 166.448 164.84 171.25V204.6L167.387 202.053C170.782 198.658 176.287 198.658 179.683 202.053C183.078 205.449 183.078 210.954 179.683 214.349L162.294 231.738C158.898 235.133 153.393 235.133 149.998 231.738L132.609 214.349C129.214 210.954 129.214 205.449 132.609 202.053C136.005 198.658 141.509 198.658 144.905 202.053L147.451 204.6V171.25Z" fill="#95B1FA" fill-opacity="0.3"/>
<path d="M147.451 171.25C147.451 166.448 151.344 162.555 156.146 162.555C160.948 162.555 164.84 166.448 164.84 171.25V204.6L167.387 202.053C170.782 198.658 176.287 198.658 179.683 202.053C183.078 205.449 183.078 210.954 179.683 214.349L162.294 231.738C158.898 235.133 153.393 235.133 149.998 231.738L132.609 214.349C129.214 210.954 129.214 205.449 132.609 202.053C136.005 198.658 141.509 198.658 144.905 202.053L147.451 204.6V171.25Z" fill="white"/>
<defs>
<filter id="filter1_f_344_29" x="0.111328" y="0" width="359.889" height="307.722" filterUnits="userSpaceOnUse" color-interpolation-filters="sRGB">
<feFlood flood-opacity="0" result="BackgroundImageFix"/>
<feBlend mode="normal" in="SourceGraphic" in2="BackgroundImageFix" result="shape"/>
<feGaussianBlur stdDeviation="46.5" result="effect1_foregroundBlur_344_29"/>
</filter>
<linearGradient id="paint0_linear_344_29" x1="88.4718" y1="203.226" x2="233.079" y2="60.8425" gradientUnits="userSpaceOnUse">
<stop stop-color="#00B1FF"/>
<stop offset="1" stop-color="#114269"/>
</linearGradient>
</defs>
</svg>
