<svg width="281" height="317" viewBox="0 0 281 317" fill="none" xmlns="http://www.w3.org/2000/svg">
<g filter="url(#filter0_f_344_238)">
<g filter="url(#filter2_f_344_238)">
<path d="M132.271 138.646C132.271 135.045 135.191 132.125 138.792 132.125H197.479C201.08 132.125 204 135.045 204 138.646V216.896C204 220.497 201.08 223.417 197.479 223.417H138.792C135.191 223.417 132.271 220.497 132.271 216.896V138.646Z" fill="url(#paint0_linear_344_238)"/>
</g>
<g filter="url(#filter4_f_344_238)">
<path d="M93.146 99.5208C93.146 95.9195 96.0655 93 99.6668 93H145.313C148.914 93 151.833 95.9195 151.833 99.5208V216.896C151.833 220.497 148.914 223.417 145.313 223.417H99.6668C96.0655 223.417 93.146 220.497 93.146 216.896V99.5208Z" fill="url(#paint1_linear_344_238)"/>
</g>
</g>
<path d="M132.271 138.646C132.271 135.045 135.191 132.125 138.792 132.125H197.479C201.08 132.125 204 135.045 204 138.646V216.896C204 220.497 201.08 223.417 197.479 223.417H138.792C135.191 223.417 132.271 220.497 132.271 216.896V138.646Z" fill="#1A1A1A"/>
<path d="M93.146 99.5208C93.146 95.9195 96.0655 93 99.6668 93H145.313C148.914 93 151.833 95.9195 151.833 99.5208V216.896C151.833 220.497 148.914 223.417 145.313 223.417H99.6668C96.0655 223.417 93.146 220.497 93.146 216.896V99.5208Z" fill="#1A1A1A"/>
<path d="M67.0623 119.734H112.709C115.951 119.734 118.579 122.362 118.579 125.604V242.979C118.579 246.221 115.951 248.85 112.709 248.85H67.0623C63.8201 248.85 61.1921 246.221 61.1921 242.979V125.604C61.1923 122.362 63.8202 119.734 67.0623 119.734Z" fill="#95B1FA" fill-opacity="0.3" stroke="url(#paint2_linear_344_238)" stroke-width="1.3"/>
<path d="M70.323 192.443C70.323 189.742 72.5125 187.552 75.2136 187.552H104.557C107.258 187.552 109.448 189.742 109.448 192.443C109.448 195.144 107.258 197.333 104.557 197.333H75.2136C72.5125 197.333 70.323 195.144 70.323 192.443Z" fill="white" fill-opacity="0.9"/>
<path d="M70.323 212.005C70.323 209.304 72.5125 207.115 75.2136 207.115H104.557C107.258 207.115 109.448 209.304 109.448 212.005C109.448 214.706 107.258 216.896 104.557 216.896H75.2136C72.5125 216.896 70.323 214.706 70.323 212.005Z" fill="white" fill-opacity="0.9"/>
<path d="M70.323 231.568C70.323 228.867 72.5125 226.677 75.2136 226.677H104.557C107.258 226.677 109.448 228.867 109.448 231.568C109.448 234.269 107.258 236.458 104.557 236.458H75.2136C72.5125 236.458 70.323 234.269 70.323 231.568Z" fill="white" fill-opacity="0.9"/>
<path d="M70.323 172.88C70.323 170.179 72.5125 167.99 75.2136 167.99H104.557C107.258 167.99 109.448 170.179 109.448 172.88C109.448 175.581 107.258 177.771 104.557 177.771H75.2136C72.5125 177.771 70.323 175.581 70.323 172.88Z" fill="white" fill-opacity="0.9"/>
<path d="M70.323 153.318C70.323 150.617 72.5125 148.427 75.2136 148.427H104.557C107.258 148.427 109.448 150.617 109.448 153.318C109.448 156.019 107.258 158.208 104.557 158.208H75.2136C72.5125 158.208 70.323 156.019 70.323 153.318Z" fill="white" fill-opacity="0.9"/>
<path d="M70.323 133.755C70.323 131.054 72.5125 128.865 75.2136 128.865H104.557C107.258 128.865 109.448 131.054 109.448 133.755C109.448 136.456 107.258 138.646 104.557 138.646H75.2136C72.5125 138.646 70.323 136.456 70.323 133.755Z" fill="white" fill-opacity="0.9"/>
<path d="M109.448 158.859H136.671C137.912 158.859 139.121 159.251 140.125 159.981L171.588 182.865C173.107 183.969 174.006 185.734 174.006 187.613V242.979C174.006 246.221 171.378 248.85 168.135 248.85H109.448C106.206 248.85 103.578 246.221 103.578 242.979V164.729C103.578 161.487 106.206 158.859 109.448 158.859Z" fill="#95B1FA" fill-opacity="0.3" stroke="url(#paint3_linear_344_238)" stroke-width="1.3"/>
<path d="M151.833 198.964C151.833 196.263 154.023 194.073 156.724 194.073C159.425 194.073 161.615 196.263 161.615 198.964V228.307C161.615 231.009 159.425 233.198 156.724 233.198C154.023 233.198 151.833 231.009 151.833 228.307V198.964Z" fill="white" fill-opacity="0.9"/>
<path d="M132.271 185.922C132.271 183.221 134.461 181.031 137.162 181.031C139.863 181.031 142.052 183.221 142.052 185.922V228.307C142.052 231.009 139.863 233.198 137.162 233.198C134.461 233.198 132.271 231.009 132.271 228.307V185.922Z" fill="white" fill-opacity="0.9"/>
<path d="M112.708 172.88C112.708 170.179 114.898 167.99 117.599 167.99C120.3 167.99 122.49 170.179 122.49 172.88V228.307C122.49 231.008 120.3 233.198 117.599 233.198C114.898 233.198 112.708 231.008 112.708 228.307V172.88Z" fill="white" fill-opacity="0.9"/>
<defs>
<filter id="filter0_f_344_238" x="89.146" y="89" width="118.854" height="138.417" filterUnits="userSpaceOnUse" color-interpolation-filters="sRGB">
<feFlood flood-opacity="0" result="BackgroundImageFix"/>
<feBlend mode="normal" in="SourceGraphic" in2="BackgroundImageFix" result="shape"/>
<feGaussianBlur stdDeviation="2" result="effect1_foregroundBlur_344_238"/>
</filter>
<filter id="filter2_f_344_238" x="39.271" y="39.125" width="257.729" height="277.292" filterUnits="userSpaceOnUse" color-interpolation-filters="sRGB">
<feFlood flood-opacity="0" result="BackgroundImageFix"/>
<feBlend mode="normal" in="SourceGraphic" in2="BackgroundImageFix" result="shape"/>
<feGaussianBlur stdDeviation="46.5" result="effect1_foregroundBlur_344_238"/>
</filter>
<filter id="filter4_f_344_238" x="0.145996" y="0" width="244.688" height="316.417" filterUnits="userSpaceOnUse" color-interpolation-filters="sRGB">
<feFlood flood-opacity="0" result="BackgroundImageFix"/>
<feBlend mode="normal" in="SourceGraphic" in2="BackgroundImageFix" result="shape"/>
<feGaussianBlur stdDeviation="46.5" result="effect1_foregroundBlur_344_238"/>
</filter>
<linearGradient id="paint0_linear_344_238" x1="130.357" y1="214.794" x2="221.197" y2="165.601" gradientUnits="userSpaceOnUse">
<stop stop-color="#00B1FF"/>
<stop offset="1" stop-color="#114269"/>
</linearGradient>
<linearGradient id="paint1_linear_344_238" x1="91.5802" y1="211.099" x2="179.265" y2="183.903" gradientUnits="userSpaceOnUse">
<stop stop-color="#00B1FF"/>
<stop offset="1" stop-color="#114269"/>
</linearGradient>
<linearGradient id="paint2_linear_344_238" x1="89.8855" y1="119.083" x2="89.8855" y2="249.5" gradientUnits="userSpaceOnUse">
<stop stop-color="white" stop-opacity="0.05"/>
<stop offset="1" stop-color="white"/>
</linearGradient>
<linearGradient id="paint3_linear_344_238" x1="138.792" y1="158.208" x2="138.792" y2="249.5" gradientUnits="userSpaceOnUse">
<stop stop-color="white" stop-opacity="0.05"/>
<stop offset="1" stop-color="white"/>
</linearGradient>
</defs>
</svg>
