<svg width="109" height="157" viewBox="0 0 109 157" fill="none" xmlns="http://www.w3.org/2000/svg">
<path d="M48.4252 151.404C52.6962 148.938 52.6752 144.927 48.3772 142.446C44.0792 139.964 37.1322 139.952 32.8602 142.418C28.5892 144.884 28.6102 148.895 32.9092 151.376C37.2062 153.858 44.1532 153.87 48.4252 151.404Z" fill="#C7C7C7"/>
<path d="M59.396 154.908C63.667 152.442 63.646 148.431 59.347 145.95C55.049 143.468 48.102 143.456 43.83 145.922C39.559 148.388 39.581 152.399 43.879 154.88C48.178 157.362 55.125 157.374 59.396 154.908Z" fill="#C7C7C7"/>
<path d="M12.6181 152.173L57.9851 125.98C59.6351 125.027 59.4281 123.363 57.5231 122.263L53.1591 119.744C51.2541 118.644 48.3721 118.524 46.7221 119.477L1.35512 145.67C-0.29488 146.623 -0.0878745 148.287 1.81713 149.387L6.18114 151.907C8.08614 153.006 10.9681 153.126 12.6181 152.173Z" fill="#C7C7C7"/>
<path d="M57.0181 4.56746C56.5971 1.93646 52.018 -0.715534 49.041 0.596466L49.0431 0.601456C48.6391 0.746456 48.222 0.939455 47.7961 1.18546L9.84006 23.0995C6.54406 25.0025 3.87207 29.2165 3.87207 32.5125V143.692C3.87207 144.27 3.95904 144.781 4.11804 145.224L4.11105 145.227C4.70905 147.539 8.53804 149.374 10.506 149.07L10.799 145.79L47.9091 124.364C51.2051 122.461 53.877 118.247 53.877 114.951V6.33046L57.0181 4.56746Z" fill="url(#paint0_linear_206_8720)"/>
<path d="M7.23584 34.4555V145.635C7.23584 148.931 9.90783 150.06 13.2038 148.157L51.1599 126.243C54.4559 124.34 57.1278 120.126 57.1278 116.83V5.65049C57.1278 2.35449 54.4559 1.22548 51.1599 3.12848L13.2038 25.0425C9.90783 26.9445 7.23584 31.1595 7.23584 34.4555Z" fill="url(#paint1_linear_206_8720)"/>
<path d="M7.62988 35.2085V145.31C7.62988 148.574 10.2759 149.693 13.5399 147.809L51.0679 126.141C54.3319 124.256 56.9779 120.083 56.9779 116.819V6.7175C56.9779 3.4535 54.3319 2.33549 51.0679 4.21949L13.5399 25.8865C10.2759 27.7715 7.62988 31.9445 7.62988 35.2085Z" fill="#383838"/>
<path d="M8.7041 35.0195V144.893C8.7041 147.963 11.1931 149.014 14.2621 147.242L51.2461 125.89C54.3161 124.118 56.8041 120.193 56.8041 117.123V7.24848C56.8041 4.17848 54.3161 3.12748 51.2461 4.89948L14.2621 26.2515C11.1921 28.0245 8.7041 31.9495 8.7041 35.0195Z" fill="#7C78F0"/>
<path d="M51.053 5.34044L17.999 24.4224L14.021 26.7195C11.145 28.3815 8.81101 32.0595 8.81201 34.9345L8.81302 43.4074L8.81201 66.7484V101.2V144.799C8.81201 147.676 11.143 148.662 14.021 147.001L44.844 129.205L51.05 125.621C53.928 123.96 56.259 120.283 56.259 117.406V101.344V78.0024L56.26 53.7145V7.54245C56.261 4.66345 53.929 3.67844 51.053 5.34044Z" fill="#7C78F0"/>
<path d="M55.879 8.29149V117.788C55.879 120.289 53.852 123.486 51.35 124.931L14.322 146.311C11.821 147.755 9.79297 146.897 9.79297 144.396V34.9015C9.79297 32.4005 11.82 29.2005 14.322 27.7565L51.35 6.37949C53.852 4.93449 55.879 5.78949 55.879 8.29149Z" fill="#7C78F0"/>
<path d="M33.485 20.2755L34.159 19.8865C34.812 19.5105 35.364 18.7435 35.458 18.0875L35.837 15.4085C35.948 14.6255 36.195 13.6705 36.88 13.2755L37.736 12.7815L35.581 13.9135L31.207 16.3965L30.187 17.1405L30.775 16.8255C31.093 16.6545 31.704 17.1125 31.764 17.4685L32.189 19.9765C32.28 20.5245 32.834 20.6525 33.485 20.2755Z" fill="#383838"/>
<path d="M32.8359 18.4975C32.8359 19.1275 33.2809 19.3815 33.8299 19.0645C34.3789 18.7475 34.8239 17.9795 34.8239 17.3495C34.8239 16.7195 34.3789 16.4655 33.8299 16.7825C33.2809 17.0995 32.8359 17.8675 32.8359 18.4975Z" fill="#484A90"/>
<path d="M33.166 18.1625C33.166 18.4845 33.393 18.6135 33.674 18.4515C33.954 18.2895 34.182 17.8975 34.182 17.5755C34.182 17.2535 33.955 17.1245 33.674 17.2865C33.393 17.4485 33.166 17.8415 33.166 18.1625Z" fill="#6461AE"/>
<path d="M7.51793 141.08C6.19593 141.08 4.85891 140.257 4.11391 139.433C3.87091 139.165 3.46891 138.647 3.51891 138.206L3.91191 138.249C3.89391 138.409 4.01591 138.734 4.40691 139.168C5.09291 139.925 6.31692 140.684 7.51692 140.684C7.52792 140.684 7.53891 140.684 7.54991 140.684L7.55391 141.079C7.54191 141.079 7.52893 141.08 7.51793 141.08Z" fill="#807A93"/>
<path d="M7.51793 39.5355C6.19593 39.5355 4.85891 38.7125 4.11391 37.8895C3.87091 37.6205 3.46891 37.1035 3.51891 36.6625L3.91191 36.7055C3.89391 36.8655 4.01591 37.1905 4.40691 37.6245C5.09291 38.3815 6.31692 39.1405 7.51692 39.1405C7.52792 39.1405 7.53891 39.1405 7.54991 39.1405L7.55391 39.5355C7.54191 39.5345 7.52893 39.5355 7.51793 39.5355Z" fill="#807A93"/>
<path d="M44.396 128.946L9.79297 101.767V67.3145L55.88 101.123V117.786C55.88 120.287 53.852 123.485 51.351 124.929L44.396 128.946Z" fill="#46516E"/>
<path d="M19.048 25.0284L55.88 53.4944V77.7834L9.79297 43.9744V34.9014C9.79297 32.4004 11.821 29.2025 14.322 27.7585L19.048 25.0284Z" fill="#46516E"/>
<path d="M53.1392 8.94445L52.8811 9.09345V9.40145C52.8811 9.67545 52.6692 10.0224 52.4102 10.1724L49.2982 11.9695C49.0392 12.1195 48.8271 12.0175 48.8271 11.7425V10.3485C48.8271 10.0745 49.0392 9.72746 49.2982 9.57746L52.4102 7.78045C52.6692 7.63045 52.8811 7.73245 52.8811 8.00745V8.31545L53.1392 8.16645C53.2452 8.10545 53.3322 8.14645 53.3322 8.25945V8.62846C53.3322 8.74146 53.2452 8.88345 53.1392 8.94445Z" fill="white"/>
<path d="M16.4173 30.4835L16.3683 30.5115C16.1803 30.6195 16.0273 30.5545 16.0273 30.3675V28.4525C16.0273 28.2645 16.1813 28.0225 16.3683 27.9145L16.4173 27.8865C16.6053 27.7785 16.7583 27.8435 16.7583 28.0305V29.9455C16.7583 30.1335 16.6043 30.3755 16.4173 30.4835Z" fill="white"/>
<path d="M17.5052 29.8545L17.4562 29.8825C17.2682 29.9905 17.1152 29.9255 17.1152 29.7385V28.3215C17.1152 28.1335 17.2682 27.8915 17.4562 27.7835L17.5052 27.7555C17.6932 27.6475 17.8463 27.7125 17.8463 27.8995V29.3165C17.8463 29.5045 17.6932 29.7465 17.5052 29.8545Z" fill="white"/>
<path d="M18.5609 29.2455L18.5119 29.2735C18.3239 29.3815 18.1709 29.3165 18.1709 29.1295V28.3285C18.1709 28.1405 18.3239 27.8985 18.5119 27.7905L18.5609 27.7625C18.7489 27.6545 18.9019 27.7195 18.9019 27.9065V28.7075C18.9019 28.8945 18.7489 29.1375 18.5609 29.2455Z" fill="white"/>
<path d="M14.1504 29.7124L14.5764 29.4664V31.6704L14.1504 31.9164V29.7124Z" fill="white"/>
<path d="M13.3271 31.1834V29.9854L14.5381 29.2864V30.8444L13.3271 31.1834ZM13.6782 30.1874V30.7204L14.1881 30.5774V29.8924L13.6782 30.1874Z" fill="white"/>
<path d="M14.187 31.0974V29.4884L15.398 28.7885V30.0374L14.187 31.0974ZM14.538 29.6915V30.3254L15.048 29.8794V29.3974L14.538 29.6915Z" fill="white"/>
<path d="M14.1582 76.7195V41.8745L52.1742 19.9265V54.7704L14.1582 76.7195Z" fill="#C7CDEB"/>
<path d="M14.1582 112.906V82.3095L52.1742 60.3605V90.9575L14.1582 112.906Z" fill="#C7CDEB"/>
<path d="M14.1582 143.537V119.562L52.1742 97.6135V121.588L14.1582 143.537Z" fill="#C7CDEB"/>
<path d="M25.3103 91.4835L17.5923 95.9395V94.6465L25.3103 90.1905V91.4835Z" fill="#9790A8"/>
<path d="M30.9832 88.2085L27.4912 90.2235V88.9315L30.9832 86.9155V88.2085Z" fill="#9790A8"/>
<path d="M32.7432 85.8985L35.9712 84.0355V85.3285L32.7432 87.1915V85.8985Z" fill="#9790A8"/>
<path d="M29.6333 91.6535L35.4663 88.2865V89.5795L29.6333 92.9465V91.6535Z" fill="#9790A8"/>
<path d="M20.1033 98.4485L17.5923 99.8985V98.6055L20.1033 97.1555V98.4485Z" fill="#9790A8"/>
<path d="M27.6913 94.0685L22.1104 97.2905V95.9975L27.6913 92.7755V94.0685Z" fill="#9790A8"/>
<path d="M28.4603 81.7455L17.5923 88.0205V86.7275L28.4603 80.4535V81.7455Z" fill="#9790A8"/>
<path d="M23.3193 88.6735L17.5923 91.9805V90.6875L23.3193 87.3805V88.6735Z" fill="#9790A8"/>
<path d="M28.7065 85.5635L25.4785 87.4265V86.1335L28.7065 84.2705V85.5635Z" fill="#9790A8"/>
<path d="M25.3103 127.809L17.5923 132.265V130.972L25.3103 126.517V127.809Z" fill="#9790A8"/>
<path d="M30.9832 124.534L27.4912 126.55V125.257L30.9832 123.241V124.534Z" fill="#9790A8"/>
<path d="M32.7432 122.225L35.9712 120.361V121.654L32.7432 123.518V122.225Z" fill="#9790A8"/>
<path d="M29.6333 127.98L35.4663 124.612V125.905L29.6333 129.273V127.98Z" fill="#9790A8"/>
<path d="M20.1033 134.775L17.5923 136.225V134.932L20.1033 133.482V134.775Z" fill="#9790A8"/>
<path d="M27.6913 130.394L22.1104 133.616V132.323L27.6913 129.101V130.394Z" fill="#9790A8"/>
<path d="M28.4603 118.072L17.5923 124.346V123.054L28.4603 116.779V118.072Z" fill="#9790A8"/>
<path d="M23.3193 124.999L17.5923 128.306V127.013L23.3193 123.706V124.999Z" fill="#9790A8"/>
<path d="M28.7065 121.889L25.4785 123.752V122.459L28.7065 120.596V121.889Z" fill="#9790A8"/>
<path d="M36.8612 142.362C35.9002 142.004 35.6612 141.969 35.3812 142.356C35.1012 142.743 34.8282 143.077 34.8652 144.261C34.9032 145.446 35.0282 145.717 35.4932 146.328C35.9582 146.939 36.4982 147.665 37.6602 148.204C38.8222 148.743 39.3652 149.255 39.3652 149.255C39.3652 149.255 41.6002 151.503 43.4472 151.497C45.2932 151.491 45.6412 150.693 45.8252 150.392C46.0092 150.091 45.9662 149.528 45.8742 149.196C45.7832 148.864 44.7012 147.883 44.5002 147.624C44.3002 147.366 36.8612 142.362 36.8612 142.362Z" fill="#323142"/>
<path d="M48.7143 144.388C48.0423 144.369 47.8953 144.35 47.7073 144.713C47.5193 145.076 47.2973 145.344 47.2923 145.773C47.2873 146.201 47.3343 147.301 47.6703 147.94C48.0063 148.579 49.0783 149.537 49.2073 149.723C49.3363 149.909 50.2493 151.901 50.4543 152.74C50.6603 153.579 51.2703 154.635 52.4073 155.021C53.5443 155.407 55.2163 155.043 55.4063 154.311C55.5963 153.579 55.7153 152.906 55.5983 152.613C55.4813 152.321 55.0643 150.879 54.9143 150.69C54.7623 150.5 48.7143 144.388 48.7143 144.388Z" fill="#323142"/>
<path d="M24.1021 59.8755V42.3235L43.2531 31.2665V48.8195L24.1021 59.8755Z" fill="#383838"/>
<path d="M24.7851 42.7175L24.1021 42.3235L43.2531 31.2665L43.9361 31.6615L24.7851 42.7175Z" fill="#383838"/>
<path d="M24.1021 59.8755V42.3235L24.7851 42.7175V60.2695L24.1021 59.8755Z" fill="#383838"/>
<path d="M24.7852 60.2695V42.7175L43.9362 31.6615V49.2135L24.7852 60.2695Z" fill="#3D3C47"/>
<path d="M31.2762 50.2195L30.8012 51.0475L28.7402 49.8715L30.8012 46.3185L31.2762 46.6035L29.7032 49.3165L31.2762 50.2195Z" fill="#EBEAF8"/>
<path d="M35.5683 41.8405L36.1873 41.8315L33.1063 50.7315L32.4863 50.7385L35.5683 41.8405Z" fill="#EBEAF8"/>
<path d="M38.9242 43.9924L37.3472 43.0974L37.8262 42.2625L39.8862 43.4364L37.8262 46.9914L37.3472 46.7134L38.9242 43.9924Z" fill="#EBEAF8"/>
<path d="M52.9133 74.7325C52.9113 75.6995 52.7233 75.8495 52.3103 76.4675C52.3103 76.4675 48.7983 74.9225 48.3973 74.2465C48.1393 73.8125 47.6823 70.4595 47.3593 67.5735C47.1803 65.9805 47.0413 64.5295 46.9993 63.7915C46.8793 61.7165 44.5233 51.8755 44.5233 51.8755C44.5233 51.8755 44.4803 51.6045 44.1053 51.3685C43.7293 51.1325 43.4193 50.3185 43.3863 50.0335C43.3603 49.7975 43.2993 49.2875 43.4083 48.5805C43.4303 48.4335 43.4593 48.2785 43.4983 48.1145C43.7273 47.1665 43.9423 45.1865 43.9423 45.1865L43.8403 43.5255L43.7993 42.7485C43.7993 42.7485 44.4383 43.3595 44.5043 43.4875C44.5713 43.6155 45.0953 45.0995 45.4873 46.1105C45.8803 47.1215 46.1923 49.3175 46.2793 49.4995C46.3663 49.6805 50.0733 58.2755 50.3293 59.4195C50.5873 60.5655 51.1213 63.4375 51.4413 64.7605C51.7633 66.0835 52.9153 73.7685 52.9133 74.7325Z" fill="url(#paint2_linear_206_8720)"/>
<path d="M45.238 47.1834C44.96 46.7984 44.482 46.3254 44.288 45.9014C44.095 45.4774 43.571 44.7664 43.571 44.7664C43.571 44.7664 43.344 44.0644 43.107 44.1024C42.869 44.1404 42.725 44.2764 42.712 44.6054C42.699 44.9334 42.733 45.4204 42.874 45.6614C43.016 45.9024 43.535 46.8624 43.535 46.8624L43.599 47.4334C43.599 47.4334 43.441 48.1154 43.49 48.6844C43.539 49.2534 43.711 49.8604 44.099 50.1294C44.487 50.3984 45.435 50.1994 45.527 49.2444C45.62 48.2894 45.589 47.8514 45.238 47.1834Z" fill="url(#paint3_linear_206_8720)"/>
<path d="M48.3973 64.4885C47.6053 65.1235 47.4633 66.2555 47.3833 67.2685C47.3753 67.3705 47.3683 67.4715 47.3593 67.5745C47.1803 65.9815 47.0413 64.5305 46.9993 63.7925C46.8793 61.7175 44.5233 51.8765 44.5233 51.8765C44.5233 51.8765 44.4803 51.6055 44.1053 51.3695C43.7293 51.1335 43.4193 50.3195 43.3863 50.0345C43.3603 49.7985 43.2993 49.2885 43.4083 48.5815C43.4643 48.7765 43.4643 49.0765 43.4933 49.2205C43.5483 49.4885 43.6093 49.7565 43.7083 50.0125C43.9473 50.6325 44.4123 51.1375 44.7193 51.7265C44.9803 52.2285 45.1223 52.7815 45.2643 53.3295C45.9333 55.9335 46.6063 58.5505 46.8473 61.2295C46.9033 61.8665 46.9393 62.5135 47.1533 63.1165C47.3643 63.7185 47.7913 64.2835 48.3973 64.4885Z" fill="#FFDFD1"/>
<path d="M46.386 50.6025C46.26 50.4345 46.118 50.3225 45.959 50.3245C45.769 50.3295 45.643 50.5215 45.576 50.6985C45.288 51.4675 45.484 52.3225 45.683 53.1195C46.384 55.9235 47.085 58.7265 47.786 61.5305C47.931 62.1105 48.079 62.6985 48.377 63.2165C48.906 64.1375 50.463 64.9985 50.545 63.3445C50.627 61.6715 50.12 60.0295 49.57 58.4465C49.062 56.9835 48.511 55.5355 47.919 54.1035C47.628 53.3995 47.327 52.6995 47.017 52.0045C46.896 51.7355 46.688 51.0065 46.386 50.6025Z" fill="url(#paint4_linear_206_8720)"/>
<path d="M50.1893 62.5785C50.0273 62.2745 49.8193 61.9535 49.4873 61.8605C49.0353 61.7355 48.5723 62.1205 48.4263 62.5655C48.2793 63.0115 48.3573 63.4945 48.4063 63.9615C48.5663 65.4655 48.4223 66.9865 48.5343 68.4935C48.6693 70.2995 49.1693 72.0565 49.7063 73.7865C49.7683 73.9855 49.8333 74.1905 49.9693 74.3495C50.0943 74.4955 50.2673 74.5895 50.4403 74.6735C50.9743 74.9315 51.5433 75.1155 52.1273 75.2195C52.3553 74.7465 52.3653 74.2015 52.3533 73.6765C52.3183 72.1375 52.1273 70.6075 51.8703 69.0915C51.6283 67.6635 51.4243 66.1675 51.0533 64.7735C50.8503 64.0125 50.5603 63.2745 50.1893 62.5785Z" fill="url(#paint5_linear_206_8720)"/>
<path d="M52.311 74.7505C51.112 73.7785 50.3689 73.1365 49.0069 73.7975C47.6449 74.4585 46.7429 77.1255 46.6789 78.2555C46.6149 79.3855 50.814 86.3415 51.303 84.5515C51.792 82.7605 52.851 80.7985 53.095 78.8305C53.339 76.8625 53.171 75.8775 52.971 75.5545C52.772 75.2325 52.311 74.7505 52.311 74.7505Z" fill="#FF7F00"/>
<path d="M51.4552 144.633C50.8132 144.046 49.1402 143.663 48.1922 144.264C47.2442 144.865 47.2642 145.833 47.8642 147.167C48.4642 148.501 49.9662 150.216 50.2142 150.866C50.4622 151.516 51.1112 153.564 52.5492 153.941C53.9872 154.318 55.2572 153.904 55.2922 152.835C55.3272 151.766 55.0422 149.159 55.0422 149.159C55.0422 149.159 54.5012 147.295 53.9172 146.392C53.3322 145.489 51.4552 144.633 51.4552 144.633Z" fill="#F1F3F3"/>
<path d="M40.4442 143.131C39.9012 142.619 36.6562 141.823 36.6562 141.823C36.6562 141.823 35.5622 141.699 35.2492 142.952C34.9362 144.204 35.0132 144.664 35.4122 145.31C35.8112 145.956 36.5282 146.831 37.6812 147.262C38.8342 147.693 40.0902 148.736 40.4142 148.901C40.7392 149.066 42.0242 150.8 44.0282 150.726C46.0322 150.652 45.6472 148.935 45.6472 148.935C45.6472 148.935 45.6952 146.703 45.3482 146.262C45.0012 145.82 43.0842 144.268 43.0842 144.268L40.4442 143.131Z" fill="#F1F3F3"/>
<path d="M50.8664 144.523C50.4874 146.55 49.7454 145.9 49.7454 145.9C49.7454 145.9 48.9564 145.853 49.5914 147.448C50.2264 149.043 50.9074 150.044 52.3394 150.292C53.7704 150.539 54.9284 150.47 54.9094 149.573C54.8914 148.675 54.6524 146.776 54.6524 146.776L54.6844 143.969L50.8664 144.523Z" fill="url(#paint6_linear_206_8720)"/>
<path d="M40.3263 143.225C40.3263 143.225 40.4613 143.916 39.6923 144.274C38.9223 144.633 39.0443 145.073 39.6493 145.99C40.2543 146.907 41.9553 147.421 42.3743 147.512C42.7933 147.602 43.9523 147.604 44.1483 146.811C44.3453 146.018 43.9643 144.644 43.9643 144.644L40.3263 143.225Z" fill="url(#paint7_linear_206_8720)"/>
<path d="M39.1714 97.6014C41.8354 95.8634 47.3274 94.1665 48.6574 97.4065C49.9864 100.646 52.1914 106.582 52.3944 108.773C52.5974 110.963 52.3994 112.336 52.3094 112.948C52.2194 113.56 52.1974 119.824 52.4014 121.628C52.6054 123.432 53.4534 127.326 53.5364 127.915C53.6204 128.504 54.5804 132.346 54.9584 135.651C55.3364 138.956 56.0364 143.777 55.7194 145.437C55.4034 147.097 53.6814 147.138 52.4534 146.613C51.2254 146.088 50.6154 145.783 50.5624 145.305C50.5094 144.827 48.3764 135.787 47.6244 133.321C46.8824 131.156 46.8744 130.275 46.8064 129.924C46.7384 129.573 42.8374 117.759 42.7954 117.561C42.7534 117.363 41.0154 107.102 41.0154 107.102L39.1714 97.6014Z" fill="#424C67"/>
<path d="M50.8203 111.44C51.1353 111.03 51.2733 110.513 51.3583 110.004C51.7523 107.649 51.1582 105.221 50.1702 103.047C49.7252 102.067 49.0623 101.02 48.0013 100.835C47.4243 100.735 46.8352 100.918 46.3002 101.156C45.9912 101.294 45.6803 101.458 45.4713 101.724C45.2673 101.983 45.1792 102.315 45.1372 102.642C44.9192 104.345 45.8172 105.972 46.1332 107.659C46.3172 108.638 46.3012 109.638 46.2702 110.629C46.2542 111.128 46.2312 111.626 46.2282 112.126C46.2242 112.691 46.1442 112.976 46.7622 113.058C47.5192 113.158 48.0732 112.787 48.7672 112.567C49.5132 112.33 50.3223 112.09 50.8203 111.44Z" fill="#454F6B"/>
<path d="M44.4062 114.152C43.8712 115.059 44.2202 115.868 44.2862 116.806C44.3902 118.273 44.2822 119.777 44.6702 121.212C44.9942 122.41 45.6542 123.44 45.8842 124.656C46.2072 126.366 47.1152 127.944 47.3192 129.638C47.5432 131.497 48.6392 133.144 49.0462 134.965C50.3212 140.675 53.0742 146.258 52.4162 152.071C49.6452 150.078 47.6992 147.154 46.0102 144.188C41.8282 136.843 38.8192 128.689 38.3812 120.249C38.2782 118.268 38.3192 116.259 38.7972 114.334C39.2742 112.408 40.2152 110.559 41.6962 109.238C42.5252 108.499 44.6402 107.424 45.1212 109.045C45.5652 110.543 45.1862 112.831 44.4062 114.152Z" fill="#DEDDF5"/>
<path d="M33.2232 96.5005C33.0002 97.3335 32.4242 100.723 32.1492 102.774C31.8742 104.825 32.3613 111.725 33.2813 115.735C34.2013 119.745 37.4582 130.048 37.6402 130.906C37.8222 131.764 39.7853 144.024 39.9843 144.347C40.1843 144.67 40.2732 145.774 42.0062 146.206C43.7382 146.638 44.9503 146.174 45.1463 145.574C45.3433 144.974 45.0362 130.025 44.9732 128.494C44.9102 126.963 43.1523 117.258 43.2983 115.966C43.4443 114.673 45.4682 112.713 45.6572 110.095C45.8452 107.477 44.7513 99.6925 43.3713 98.2275C41.9913 96.7625 36.8972 94.7495 36.5422 94.4735C36.1872 94.1955 33.2232 96.5005 33.2232 96.5005Z" fill="#424C67"/>
<path d="M44.244 128.126C44.176 127.614 44.08 127.082 43.768 126.671C43.426 126.221 42.855 125.979 42.29 125.954C41.725 125.928 41.166 126.1 40.66 126.353C40.346 126.51 40.046 126.702 39.791 126.943C39.008 127.683 38.725 128.827 38.762 129.904C38.8 130.981 39.118 132.024 39.367 133.072C40.204 136.589 40.285 140.235 40.763 143.819C40.799 144.091 40.84 144.37 40.974 144.611C41.299 145.196 42.051 145.371 42.718 145.43C43.166 145.47 43.6159 145.484 44.0659 145.473C44.1879 145.47 44.32 145.461 44.414 145.383C44.542 145.277 44.552 145.087 44.547 144.922C44.47 142.041 44.42 139.159 44.427 136.277C44.434 133.561 44.602 130.824 44.244 128.126Z" fill="#454F6B"/>
<path d="M42.5071 114.78C42.4561 114.145 42.3871 113.453 41.9411 112.998C41.4831 112.53 40.7671 112.458 40.1141 112.412C39.6201 112.378 39.1251 112.343 38.6311 112.309C37.7251 112.246 36.7441 112.202 35.9871 112.702C35.3931 113.095 35.0341 113.778 34.9131 114.479C34.7921 115.181 34.8871 115.903 35.0481 116.596C35.3411 117.856 35.8511 119.054 36.2571 120.282C37.2521 123.29 37.6281 126.472 38.5821 129.493C38.7901 130.15 39.0511 130.837 39.6021 131.252C39.9071 131.482 40.2791 131.608 40.6541 131.681C41.2011 131.787 41.7921 131.78 42.2841 131.52C42.6351 131.334 42.9091 131.035 43.1771 130.742C43.5771 130.303 43.9871 129.846 44.1691 129.281C44.4831 128.305 44.0701 127.277 43.8561 126.325C43.6531 125.421 43.5451 124.494 43.4731 123.57C43.3421 121.863 43.0851 120.181 42.8801 118.481C42.7301 117.251 42.6061 116.016 42.5071 114.78Z" fill="#454F6B"/>
<path d="M44.259 104.98C44.129 104.399 43.952 103.831 43.774 103.263C43.697 103.016 43.613 102.758 43.426 102.58C43.222 102.385 42.93 102.318 42.652 102.275C40.259 101.905 37.827 102.749 35.414 102.56C34.896 102.52 34.3 102.457 33.93 102.822C33.659 103.089 33.607 103.502 33.581 103.882C33.425 106.119 33.632 108.363 33.838 110.595C33.915 111.424 33.992 112.258 34.205 113.062C34.404 113.812 34.731 114.549 35.284 115.095C35.656 115.463 36.115 115.729 36.573 115.981C36.991 116.211 37.426 116.437 37.9 116.491C38.37 116.544 38.841 116.423 39.292 116.282C40.759 115.825 42.468 114.986 43.1 113.484C43.803 111.813 44.371 110.058 44.495 108.24C44.57 107.15 44.498 106.048 44.259 104.98Z" fill="#454F6B"/>
<path d="M32.6124 99.7365C32.6124 99.7365 32.1044 100.708 37.7464 100.916C43.3884 101.124 45.8814 99.9475 47.0704 98.9225C48.2594 97.8975 48.6584 97.4065 48.6584 97.4065L48.4664 95.3035L33.1024 97.0325L32.6124 99.7365Z" fill="#323142"/>
<path d="M33.714 101.515C33.417 100.44 33.426 99.3045 33.739 98.2335L34.721 98.5205C34.465 99.3965 34.458 100.364 34.701 101.244L33.714 101.515Z" fill="#424C67"/>
<path d="M43.7853 96.9639L42.7773 97.1386L43.4529 101.035L44.4608 100.861L43.7853 96.9639Z" fill="#424C67"/>
<path d="M51.0353 85.7665C50.1353 88.5935 49.2562 88.9765 48.8222 91.6645C48.3902 94.3515 48.1802 96.0135 47.9412 96.3825C47.7002 96.7525 46.0883 98.2435 42.8023 98.8064C39.7833 99.3235 35.5682 98.9445 33.6062 97.9815C33.4322 97.8975 33.2762 97.8074 33.1402 97.7134C32.8362 97.2614 33.2873 90.7125 33.0383 89.4935C32.7903 88.2745 32.2223 87.5994 32.8063 85.2824C33.1193 84.0424 34.1332 82.3854 35.1712 81.0754C36.0722 79.9384 36.9892 79.0625 37.4812 78.9545C38.5382 78.7185 39.1593 78.3395 39.6553 78.2335C40.1503 78.1295 44.0933 77.1255 45.4143 77.4035C46.7343 77.6815 48.2572 77.8855 49.5322 79.1245C50.8082 80.3635 51.9333 82.9375 51.0353 85.7665Z" fill="#FFA600"/>
<path d="M39.928 74.9504C40.015 75.6044 40.058 76.0754 39.776 77.0094C39.493 77.9434 39.406 78.2874 39.392 78.4144C39.378 78.5414 41.792 78.6855 42.522 78.9135C43.253 79.1405 45.1549 79.2594 45.4409 79.0014C45.7279 78.7444 46.55 78.1614 46.591 77.7954C46.632 77.4294 46.4 75.2144 46.4 75.2144C46.4 75.2144 45.826 64.4784 43.936 64.6834C42.046 64.8884 40.326 66.5774 40.046 67.0604C39.766 67.5434 39.736 68.5225 39.573 68.6805C39.41 68.8395 38.749 69.4244 38.585 70.0174C38.421 70.6104 38.374 73.1644 38.552 73.7314C38.73 74.3004 39.886 74.6064 39.928 74.9504Z" fill="url(#paint8_linear_206_8720)"/>
<path d="M44.2073 79.4525C44.4253 79.7685 44.6943 80.0625 44.8113 80.4275C44.9013 80.7095 44.8932 81.0125 44.8822 81.3095C44.7672 84.3485 44.3952 87.3735 44.2602 90.4115C44.1322 93.2925 44.2172 96.1835 44.5152 99.0525C44.5242 99.1395 44.5353 99.2305 44.5823 99.3035C44.7013 99.4865 44.9982 99.4615 45.1542 99.3085C45.3102 99.1555 45.3602 98.9275 45.3992 98.7135C45.8802 96.0565 45.6962 93.3265 45.9542 90.6395C46.1352 88.7575 46.5322 86.8935 46.5622 85.0025C46.5832 83.7105 46.4312 82.4235 46.3772 81.1325C46.3402 80.2575 46.3462 79.3645 46.0852 78.5285C45.8532 77.7825 45.0472 76.4165 44.0672 76.7255C42.9532 77.0775 43.7993 78.8615 44.2073 79.4525Z" fill="#DEDDF5"/>
<path d="M41.3913 66.1355C41.3623 66.2445 40.1973 68.1575 40.1273 69.4855C40.0583 70.8135 39.9243 72.1345 39.9243 72.1345L40.1313 72.8665C40.1313 72.8665 40.6613 72.8785 40.9333 73.7455C41.2053 74.6135 41.4293 75.6205 41.7923 76.4015C42.1543 77.1825 43.3453 77.7515 43.8143 78.1595C44.2833 78.5665 45.4703 78.7485 45.8493 79.0975C46.2283 79.4465 47.0263 78.9405 47.0263 78.9405C47.0263 78.9405 47.5743 77.7955 48.7423 76.4305C49.9103 75.0655 51.1133 72.9645 50.7863 70.4485C50.4593 67.9325 48.0693 65.2325 46.1713 64.4705C44.1593 64.0015 43.6263 64.6375 43.6263 64.6375C43.6263 64.6375 42.2553 64.3415 41.3913 66.1355Z" fill="#B2686B"/>
<path d="M39.5553 74.5065C39.5553 74.5065 39.8983 74.7865 40.2903 74.3155C40.6813 73.8445 40.8183 73.3455 40.6553 72.7955C40.4923 72.2455 40.1142 72.8795 39.9412 73.1335C39.7662 73.3875 39.3303 74.0305 39.5553 74.5065Z" fill="url(#paint9_linear_206_8720)"/>
<path d="M34.7582 81.2975L32.0702 82.1545L31.6522 82.2875C30.3052 80.7185 28.4032 76.4705 27.4282 74.0855C26.4532 71.7005 25.3302 67.3945 25.1012 66.7245C24.8712 66.0555 24.0242 61.5815 23.7952 58.7715C23.5652 55.9615 23.3412 53.3765 23.2792 52.5005C23.2182 51.6245 23.1072 49.6165 23.1002 49.2465C23.0932 48.8745 23.4762 48.4675 23.4762 48.4675C23.4762 48.4675 23.4672 46.8455 23.4912 46.5385C23.5172 46.2295 23.6982 45.9495 23.7202 45.8455C23.7302 45.7995 23.7352 45.3625 23.7342 44.8685C23.7322 44.2385 23.7172 43.5125 23.6782 43.3835C23.6082 43.1495 23.3542 42.6385 23.4292 42.4425C23.5062 42.2475 23.9812 42.4185 24.0442 42.5125C24.0832 42.5675 24.1342 42.6745 24.1702 42.7515C24.1702 42.7515 24.1722 42.7515 24.1702 42.7535C24.1962 42.8045 24.2112 42.8425 24.2112 42.8425C24.2112 42.8425 24.2142 42.8445 24.2212 42.8455C24.2772 42.8655 24.5762 42.9875 24.7972 43.2625C24.9232 43.4215 25.1322 43.8755 25.3042 44.2785C25.4682 44.6595 25.5992 44.9955 25.5992 44.9955C25.5992 44.9955 26.0382 47.1915 26.1732 47.6025C26.3102 48.0155 26.4432 48.7375 26.4432 48.7375L26.7382 48.8675L26.7822 48.7325L27.2962 47.1495C27.2962 47.1495 27.8132 46.2755 28.1652 46.1115C28.5172 45.9455 28.8222 46.1845 28.6942 46.6525C28.5662 47.1215 28.1342 48.0915 28.1342 48.0915L27.8102 49.5365C27.8102 49.5365 27.6122 50.2435 27.3422 50.7385C27.0712 51.2335 26.4802 51.8215 26.4802 51.8215L26.1672 52.7745C26.1672 52.7745 26.4952 54.9035 26.6672 55.5665C26.8392 56.2305 27.8762 59.8775 28.1932 60.6755C28.5112 61.4725 29.3132 65.7705 29.5592 66.2485C29.8052 66.7265 31.4132 71.2975 31.7842 72.0145C32.1532 72.7315 34.3842 75.3985 34.6682 75.8275C34.9512 76.2555 34.7582 81.2975 34.7582 81.2975Z" fill="url(#paint10_linear_206_8720)"/>
<path d="M38.8372 113.29L34.6242 111.763L34.0942 105.107L42.2432 104.467L42.3512 111.611L38.8372 113.29ZM35.1093 111.393L38.8102 112.735L41.8333 111.29L41.7392 105.019L34.6442 105.577L35.1093 111.393Z" fill="#4F5A7A"/>
<path d="M49.575 110.223L46.624 103.144L46.87 103.049C47.927 102.644 49.688 101.777 49.918 101.178L50.397 101.362C50.063 102.23 48.04 103.127 47.298 103.43L49.888 109.641L51.564 109.313L52.064 108.052L52.541 108.242L51.938 109.763L49.575 110.223Z" fill="#4F5A7A"/>
<path d="M43.728 99.6225C43.592 99.6885 44.0589 102.015 44.0589 102.015C44.0589 102.015 45.05 106.921 45.361 108.341C45.673 109.761 45.1269 112.184 45.1269 112.184L43.728 99.6225Z" fill="#DEDDF5"/>
<path d="M39.5443 102.933C39.3273 102.933 39.1053 102.931 38.8723 102.927C33.5423 102.831 32.2063 102.181 32.1523 102.153L32.3843 101.698L32.2683 101.926L32.3823 101.696C32.3953 101.703 33.7273 102.323 38.8813 102.416C43.8263 102.509 45.1693 101.608 46.3543 100.816L46.7713 100.541C47.8853 99.8125 48.3463 99.5115 48.7723 98.2145L49.2583 98.3745C48.7763 99.8415 48.1993 100.219 47.0513 100.97L46.6383 101.242C45.4473 102.037 44.1043 102.933 39.5443 102.933Z" fill="#4F5A7A"/>
<path d="M40.3283 145.474C40.3093 145.363 38.4753 134.346 37.9783 131.619C37.4903 128.944 37.1363 127.281 35.0133 121.54C33.4163 117.225 32.5163 112.085 32.3363 106.266C32.2253 102.7 32.9852 99.3375 32.9932 99.3035L33.4913 99.4185C33.4843 99.4505 32.7383 102.751 32.8473 106.25C33.0253 112.014 33.9142 117.099 35.4932 121.362C37.6312 127.143 37.9873 128.823 38.4813 131.527C38.9783 134.259 40.8133 145.279 40.8313 145.39L40.3283 145.474Z" fill="#4F5A7A"/>
<path d="M51.5222 112.669C51.1422 112.272 50.5982 112.068 50.0552 111.982C49.0332 111.821 47.9832 112.043 47.0172 112.415C46.7812 112.506 46.5412 112.61 46.3672 112.793C46.2012 112.967 46.1082 113.197 46.0362 113.427C45.7102 114.47 45.7472 115.597 45.9472 116.671C46.1472 117.745 46.5042 118.784 46.8152 119.831C47.8602 123.348 48.4272 127.081 50.3272 130.22C50.4822 130.475 50.6502 130.731 50.8882 130.911C51.1262 131.091 51.4512 131.183 51.7302 131.076C52.0792 130.942 52.2522 130.555 52.3582 130.197C52.7362 128.922 52.7132 127.576 52.5462 126.269C52.3782 124.955 51.8572 123.586 51.8252 122.267C51.7902 120.804 51.7202 119.343 51.6682 117.88C51.6322 116.872 51.7112 115.867 51.7712 114.863C51.8182 114.063 52.1582 113.332 51.5222 112.669Z" fill="#454F6B"/>
<path d="M52.3842 126.301C52.2422 125.897 52.0552 125.445 51.6532 125.298C51.4722 125.232 51.2722 125.24 51.0832 125.275C49.9742 125.481 49.2072 126.578 49.0212 127.69C48.8352 128.803 49.1072 129.935 49.3782 131.03C50.0582 133.785 50.5422 136.693 50.9192 139.496C51.0752 140.658 51.2322 141.82 51.3882 142.983C51.5242 143.994 51.4612 144.988 51.6362 146C52.6042 146.489 53.7842 146.539 54.7902 146.132C54.9212 146.079 55.0532 146.015 55.1452 145.908C55.2472 145.79 55.2892 145.632 55.3182 145.478C55.5162 144.433 55.3112 143.369 55.1702 142.331C55.0242 141.254 54.9142 140.164 54.7562 139.081C54.1312 134.764 53.8382 130.433 52.3842 126.301Z" fill="#454F6B"/>
<path d="M33.7753 86.6185C33.4593 87.4445 33.5622 88.3654 33.6742 89.2424C33.9572 91.4554 34.2733 93.6934 34.0003 95.9064C33.9133 96.6044 33.7682 97.2944 33.6062 97.9814C33.4322 97.8974 33.2762 97.8074 33.1402 97.7134C32.8362 97.2614 33.2873 90.7125 33.0383 89.4935C32.7903 88.2745 32.2223 87.5994 32.8063 85.2824C33.1193 84.0424 34.1332 82.3854 35.1712 81.0754C35.2802 81.1554 35.3833 81.2514 35.4783 81.3624C36.2553 82.2644 35.6643 83.7445 35.1133 84.5965C34.6733 85.2745 34.0673 85.8515 33.7753 86.6185Z" fill="#FFDDCE"/>
<path d="M25.2411 53.1625C25.0261 52.8795 24.7411 52.7885 24.3481 53.1585C23.7621 53.7105 24.1431 55.0845 24.2411 55.7655C24.6791 58.8165 24.9401 61.8945 25.5181 64.9215C25.6271 65.4935 25.7521 66.0765 26.0541 66.5745C26.3561 67.0725 26.8701 67.4785 27.4531 67.4995C27.7881 67.5115 28.1481 67.3735 28.3151 67.0825C28.4101 66.9185 28.4351 66.7255 28.4521 66.5375C28.5451 65.5115 28.4391 64.4815 28.2641 63.4695C28.0681 62.3335 27.5301 61.3015 27.2321 60.2035C26.9021 58.9875 26.4651 57.8145 26.1951 56.5785C25.9501 55.4615 25.9601 54.1085 25.2411 53.1625Z" fill="url(#paint11_linear_206_8720)"/>
<path d="M32.2329 80.1854C32.3029 80.2294 32.3749 80.2504 32.4459 80.2374C32.5739 80.2144 32.6919 79.9515 32.7879 79.8705C32.9579 79.7275 33.1809 79.6484 33.3619 79.5194C33.7469 79.2444 34.0909 78.8985 34.3309 78.5145C34.4789 78.2775 34.6049 78.0174 34.6329 77.7394C34.7089 76.9764 34.0619 76.3644 33.5459 75.7974C32.5119 74.6634 31.8409 73.2685 31.1529 71.9125C30.4989 70.6235 29.6799 69.4554 29.2779 68.0584C29.1579 67.6424 28.987 67.2404 28.768 66.8664C28.708 66.7634 28.6419 66.6604 28.5469 66.5884C28.3809 66.4624 28.153 66.4525 27.949 66.4975C27.346 66.6295 26.9049 67.1844 26.7389 67.7784C26.4349 68.8714 27.1819 70.0654 27.5769 71.0694C28.0479 72.2664 28.5369 73.4555 29.0449 74.6375C29.2689 75.1585 29.4959 75.6774 29.7479 76.1854C30.2699 77.2364 30.8949 78.2314 31.5369 79.2114C31.6699 79.4124 31.9389 80.0014 32.2329 80.1854Z" fill="url(#paint12_linear_206_8720)"/>
<path d="M24.0411 43.4635C23.9951 43.1905 24.1062 42.9805 24.1692 42.7535C24.1952 42.8045 24.2101 42.8425 24.2101 42.8425C24.2101 42.8425 24.2132 42.8445 24.2202 42.8455C24.1712 43.0505 24.1261 43.2605 24.1541 43.4685C24.1801 43.6585 24.2602 43.8335 24.3282 44.0115C24.7962 45.2015 24.7981 46.5185 24.7261 47.7935C24.6751 47.4825 24.6242 47.1705 24.6002 46.8565C24.5642 46.4145 24.5811 45.9665 24.5201 45.5275C24.4841 45.2805 24.4261 45.0375 24.3681 44.7965C24.2591 44.3555 24.1181 43.9105 24.0411 43.4635Z" fill="#FFDFD1"/>
<path d="M26.43 49.0515C26.43 49.0515 26.432 49.0615 26.433 49.0665C26.424 49.0635 26.424 49.0565 26.43 49.0515Z" fill="#FFDFD1"/>
<path d="M25.7573 46.6075C25.5323 45.9175 25.2983 45.1255 25.3013 44.3945C25.3013 44.3555 25.3013 44.3175 25.3033 44.2765C25.4673 44.6575 25.5983 44.9935 25.5983 44.9935C25.5983 44.9935 26.0373 47.1895 26.1723 47.6005C26.3093 48.0135 26.4423 48.7355 26.4423 48.7355L26.7373 48.8655L26.7813 48.7305C26.7613 48.8315 26.7373 48.9305 26.7063 49.0275C26.6873 49.0855 26.6623 49.1455 26.6103 49.1765C26.5573 49.2055 26.4733 49.1815 26.4683 49.1215C26.4663 49.0955 26.4783 49.0665 26.4653 49.0465C26.4573 49.0345 26.4383 49.0415 26.4293 49.0495C26.2773 48.4845 26.1343 47.9155 25.9923 47.3485C25.9283 47.0995 25.8373 46.8535 25.7573 46.6075Z" fill="#FFDFD1"/>
<path d="M32.0712 82.1555L31.6532 82.2885C30.3062 80.7195 28.4042 76.4715 27.4292 74.0865C26.4542 71.7015 25.3312 67.3955 25.1022 66.7255C24.8722 66.0565 24.0252 61.5825 23.7962 58.7725C23.5662 55.9625 23.3422 53.3775 23.2802 52.5015C23.2192 51.6255 23.1082 49.6175 23.1012 49.2475C23.0942 48.8755 23.4772 48.4685 23.4772 48.4685C23.4772 48.4685 23.4682 46.8465 23.4922 46.5395C23.5182 46.2305 23.6992 45.9505 23.7212 45.8465C23.7312 45.8005 23.7362 45.3635 23.7352 44.8695C23.7932 45.4445 23.8312 46.0235 23.8562 46.6005C23.8882 47.3045 23.9822 48.0635 23.9192 48.7655C23.8702 49.3225 23.8542 49.9625 23.5402 50.4475C23.3642 50.7175 23.3662 50.8145 23.3932 51.1105C23.4172 51.3935 23.2702 51.7255 23.3282 52.0015C23.3892 52.4935 23.4512 52.9855 23.5122 53.4765C23.5612 53.8745 23.5612 54.3135 23.6622 54.6975C23.8412 55.3885 23.8452 56.0925 23.8892 56.7995C23.9382 57.6105 24.0622 58.4165 24.1832 59.2185C24.5192 61.4275 25.2622 63.3945 25.2432 65.6295C25.2332 66.8895 25.5082 68.1515 26.0422 69.2915C26.2022 69.6325 26.3852 69.9625 26.5122 70.3175C26.6742 70.7695 26.7372 71.2515 26.8532 71.7195C26.9832 72.2385 27.1742 72.7405 27.3702 73.2395C28.3642 75.7875 29.4392 78.3225 30.9332 80.6125C31.2652 81.1205 31.6802 81.6275 32.0712 82.1555Z" fill="#FFDFD1"/>
<path d="M45.6944 78.7905C45.2404 79.2205 44.9374 80.6185 45.0954 82.0685C45.2534 83.5185 44.3554 87.5375 44.4714 89.6105C44.5884 91.6835 43.9404 99.2025 43.9404 99.2025C43.9404 99.2025 44.4864 101.849 45.9704 102.768C47.4544 103.687 48.6574 97.4065 48.6574 97.4065C48.6574 97.4065 49.2654 93.5485 48.4614 90.0235C47.6584 86.4995 47.8534 82.4865 47.5184 81.4625C47.1834 80.4375 47.2614 79.1805 47.2614 79.1805L45.6944 78.7905Z" fill="#B2686B"/>
<path d="M38.3584 79.4405C38.3584 79.4405 38.0474 81.3365 36.5604 83.1005C35.0734 84.8635 32.7394 85.5625 32.7394 85.5625C32.7394 85.5625 32.6004 83.3935 31.4754 82.5265C31.2254 80.1805 34.8044 75.8535 35.0054 75.7795C35.2074 75.7045 38.3584 79.4405 38.3584 79.4405Z" fill="#FF7F00"/>
<path d="M103.683 135.791C109.556 132.4 109.526 126.885 103.616 123.473C97.7057 120.061 88.1537 120.043 82.2797 123.434C76.4067 126.825 76.4367 132.34 82.3467 135.752C88.2567 139.164 97.8087 139.182 103.683 135.791Z" fill="#C7C7C7"/>
<path d="M90.5242 122.942C90.5242 122.942 91.4002 123.535 91.5172 123.902C91.6352 124.268 91.6832 125.026 91.5992 125.207C91.5162 125.388 90.5202 126.113 89.9652 126.314C89.4102 126.515 88.7632 126.769 88.5162 126.974C88.2692 127.179 87.1632 128.412 86.4992 128.76C85.8352 129.108 84.3582 130.278 83.0082 130.257C81.6582 130.236 81.1632 129.155 80.9792 128.87C80.7952 128.586 80.7912 127.77 81.0932 127.301C81.3942 126.833 90.5242 122.942 90.5242 122.942Z" fill="#323142"/>
<path d="M101.725 127.386C102.369 127.582 102.64 127.881 102.64 127.881C102.64 127.881 102.722 128.679 102.712 129.02C102.702 129.36 101.947 130.891 101.877 131.543C101.807 132.195 101.517 134.09 100.281 135.005C99.045 135.919 97.475 135.798 96.411 135.691C95.347 135.585 95.168 134.996 95.11 134.826C95.052 134.656 95.161 133.876 95.253 133.586C95.345 133.296 96.433 131.034 96.433 131.034L101.725 127.386Z" fill="#323142"/>
<path d="M90.7329 122.361C91.0499 122.507 91.378 123.575 91.363 124.096C91.349 124.618 90.2059 125.258 89.8609 125.422C89.5159 125.586 87.5629 126.893 86.8509 127.6C86.1379 128.308 84.088 129.952 82.596 129.549C81.103 129.146 80.9239 128.566 81.0619 127.752C81.1999 126.939 81.5119 126.256 82.0109 125.917C82.5099 125.578 85.0179 123.692 85.3359 123.482C85.6539 123.273 86.5069 122.911 86.7059 122.307C86.9039 121.703 89.4929 121.468 89.4929 121.468L90.7329 122.361Z" fill="#F1F3F3"/>
<path d="M102.368 126.093C102.496 126.848 102.491 127.574 102.493 128.079C102.495 128.584 101.87 129.933 101.699 130.717C101.528 131.501 101.323 133.25 99.9129 134.159C98.5029 135.069 96.9549 135.04 96.1979 134.804C95.4409 134.568 95.3599 134.273 95.3769 133.799C95.3939 133.325 95.4989 132.734 95.8639 132.017C96.2289 131.3 97.1129 129.303 97.1789 129.109C97.2459 128.915 97.744 127.558 98.001 127.132C98.258 126.705 100.83 124.965 100.83 124.965L102.368 126.093Z" fill="#F1F3F3"/>
<path d="M86.5138 71.0485C86.2528 72.1545 85.9198 72.8855 84.9178 73.8725C83.9138 74.8575 82.9698 76.3855 82.7408 76.8725C82.5098 77.3605 81.0418 79.5835 79.4148 81.5575C77.7878 83.5295 75.1768 86.7875 74.9128 87.0875C74.6478 87.3885 75.0528 87.8045 75.0908 88.1645C75.1298 88.5245 75.5588 90.3125 75.5898 90.5635C75.6218 90.8125 75.6918 90.9205 75.6918 90.9205L76.7058 91.9915L77.2418 92.4865C77.2418 92.4865 77.3678 92.7955 77.3318 92.9185C77.3288 92.9305 77.3228 92.9385 77.3178 92.9475C77.2448 93.0375 77.0598 93.1285 77.0598 93.1285L77.0118 93.1135L76.8748 93.0705C76.8748 93.0705 76.7158 93.1905 76.4788 93.0395C76.3388 92.9525 76.1118 92.8295 75.9478 92.7425C75.8298 92.6805 75.7428 92.6365 75.7428 92.6365C75.7428 92.6365 75.6458 92.6945 75.5158 92.7235C75.4258 92.7455 75.3198 92.7525 75.2188 92.7165C74.9778 92.6295 73.6568 92.2075 73.4278 92.0795C73.2078 91.9585 72.0908 91.4055 71.7478 90.8965C71.7338 90.8745 71.7208 90.8535 71.7088 90.8315C71.4218 90.3055 71.4048 89.2655 71.4048 89.2655C71.4048 89.2655 71.4408 88.9425 71.4868 88.5415C71.5568 87.9265 71.6558 87.1275 71.6968 87.0285C71.7648 86.8665 72.0088 86.2205 72.0088 86.2205C72.0088 86.2205 72.2508 85.5735 72.3738 85.4005C72.4968 85.2265 77.0148 76.9405 77.4088 76.3165C77.8028 75.6915 79.8268 73.1015 80.2278 72.7205C80.6288 72.3415 81.8618 70.4805 82.0768 70.2685C82.2918 70.0585 85.1928 66.6315 85.8028 67.3045C86.4148 67.9785 86.5138 71.0485 86.5138 71.0485Z" fill="url(#paint13_linear_206_8720)"/>
<path d="M74.0018 88.0404C73.8878 88.5404 73.4058 88.8134 72.9228 88.7914C72.8098 88.7864 72.6938 88.7714 72.5878 88.8084C72.4498 88.8584 72.3588 88.9914 72.2518 89.0914C72.1118 89.2244 71.9288 89.3134 71.8228 89.4734C71.7038 89.6564 71.7098 89.8914 71.7208 90.1104C71.7328 90.3254 71.7428 90.5404 71.7548 90.7554C71.7568 90.8014 71.7578 90.8514 71.7478 90.8954C71.7338 90.8734 71.7208 90.8524 71.7088 90.8304C71.4218 90.3044 71.4048 89.2644 71.4048 89.2644C71.4048 89.2644 71.4408 88.9414 71.4868 88.5404C71.6878 88.1984 71.9838 87.9124 72.3408 87.7444C72.5238 87.6594 72.7198 87.6064 72.9158 87.5604C73.2578 87.4834 74.1348 87.4514 74.0018 88.0404Z" fill="#FFDFD1"/>
<path d="M72.364 88.5344C72.197 88.5214 71.4859 89.4304 71.3289 89.5704C71.1719 89.7104 70.919 89.8214 70.689 89.8294C70.459 89.8384 69.681 89.8044 69.585 89.3044C69.646 89.0494 69.849 88.9004 69.985 88.8914C70.121 88.8824 70.585 88.8414 70.657 88.7604C70.729 88.6794 71.589 87.4114 71.589 87.4114C71.589 87.4114 71.9269 86.5734 72.1479 86.4294C72.3699 86.2854 72.989 86.3464 73.534 86.5434C74.079 86.7394 74.295 87.1634 74.257 87.5924C74.219 88.0204 73.92 88.4364 73.588 88.5284C73.257 88.6204 72.685 88.7454 72.364 88.5344Z" fill="url(#paint14_linear_206_8720)"/>
<path d="M75.8221 92.4405C75.8461 92.5485 75.8902 92.6475 75.9482 92.7425C75.8302 92.6805 75.7431 92.6365 75.7431 92.6365C75.7431 92.6365 75.6461 92.6945 75.5161 92.7235C75.5281 92.7145 75.5381 92.7045 75.5501 92.6945C75.6051 92.6435 75.6511 92.5785 75.6591 92.5055C75.6681 92.4135 75.6151 92.3275 75.5501 92.2635C75.3661 92.0805 75.0941 92.0245 74.8431 91.9505C74.3041 91.7885 73.8011 91.4995 73.3901 91.1135C73.6671 91.1275 73.9001 91.3045 74.1401 91.4425C74.5791 91.6955 75.0761 91.8305 75.5381 92.0385C75.6151 92.0745 75.6951 92.1135 75.7431 92.1835C75.7951 92.2575 75.8031 92.3515 75.8221 92.4405Z" fill="#FFDFD1"/>
<path d="M77.3307 92.9184C77.3277 92.9304 77.3217 92.9384 77.3167 92.9474C77.2437 93.0374 77.0587 93.1284 77.0587 93.1284L77.0107 93.1134C77.0297 93.0584 77.0397 92.9994 77.0367 92.9404C77.0267 92.7154 76.8797 92.5204 76.7087 92.3754C76.5537 92.2434 76.3777 92.1434 76.2017 92.0444C75.9877 91.9234 75.7767 91.8024 75.5627 91.6804C75.4367 91.6084 75.3047 91.5324 75.2277 91.4094C75.1797 91.3344 75.1137 91.0494 75.2657 91.0834C75.3357 91.1004 75.4707 91.3714 75.5317 91.4334C75.7537 91.6554 76.0407 91.8024 76.3087 91.9574C76.5287 92.0874 76.7427 92.2274 76.9457 92.3794C77.0597 92.4664 77.1758 92.5584 77.2498 92.6834C77.2938 92.7564 77.3187 92.8344 77.3307 92.9184Z" fill="#FFDFD1"/>
<path d="M74.3208 86.6424C74.5138 86.5594 74.7478 86.7044 74.9428 86.6264C75.0208 86.5954 75.0808 86.5324 75.1378 86.4714C76.3258 85.2054 77.3718 83.7604 78.4348 82.3834C79.0898 81.5344 79.7328 80.6754 80.3528 79.7994C80.6668 79.3564 80.9468 78.8774 81.2808 78.4494C81.5448 78.1104 81.9688 77.9144 81.8588 77.3904C81.7678 76.9604 81.3068 76.6964 81.1718 76.2774C81.1658 76.2594 81.1608 76.2394 81.1688 76.2224C81.1758 76.2064 81.1928 76.1964 81.2088 76.1894C81.3718 76.1144 81.5648 76.1724 81.7248 76.2534C81.8848 76.3344 82.0378 76.4414 82.2158 76.4664C82.7488 76.5424 83.1278 75.4284 83.3238 75.0624C83.6688 74.4184 83.9948 73.7644 84.2968 73.0984C84.3518 72.9764 84.4078 72.8444 84.3828 72.7124C84.3548 72.5644 84.2338 72.4554 84.1248 72.3524C83.5648 71.8214 83.1538 71.1354 82.9498 70.3904C82.9188 70.2774 82.8928 70.1594 82.9118 70.0434C82.9578 69.7754 83.2298 69.6094 83.4888 69.5254C84.4368 69.2174 85.4618 69.5264 86.4098 69.8344C86.7158 69.9344 87.0298 70.0374 87.2808 70.2384C87.5048 70.4184 87.6648 70.6644 87.8058 70.9154C88.3268 71.8404 88.6388 72.8824 88.7118 73.9414C88.7998 75.1984 88.5558 76.4564 88.2318 77.6734C87.9348 78.7894 87.5648 79.8944 87.0018 80.9034C86.4728 81.8524 85.7828 82.6994 85.1298 83.5684C84.4448 84.4794 83.7888 85.4264 82.9398 86.1864C82.2928 86.7654 81.5478 87.2234 80.8068 87.6754C79.7698 88.3074 78.6978 88.9454 77.5008 89.1524C76.8248 89.2694 75.9018 89.2264 75.4138 88.6624C75.2228 88.4424 75.1678 88.1224 75.0488 87.8614C74.8498 87.4304 74.5838 87.0344 74.3208 86.6424Z" fill="#FFDFD1"/>
<path d="M82.7929 74.4155C82.6879 74.6425 82.5559 74.8655 82.3569 75.0165C82.1309 75.1885 81.8429 75.2505 81.5639 75.3025C80.8579 75.4345 80.1449 75.5275 79.4299 75.5825C79.3169 75.4335 79.3779 75.2215 79.4469 75.0485C80.1129 73.3835 81.3149 71.7045 82.4729 70.3245C82.5409 70.9415 83.0099 71.5125 83.1059 72.1645C83.2159 72.9245 83.1169 73.7175 82.7929 74.4155Z" fill="url(#paint15_linear_206_8720)"/>
<path d="M79.3408 74.8084C79.6588 74.6994 80.0668 74.6904 80.2698 74.9584C80.3518 75.0674 80.3858 75.2044 80.4158 75.3374C80.5158 75.7704 80.6088 76.2044 80.6968 76.6404C80.7338 76.8254 80.7698 77.0174 80.7288 77.2024C80.6908 77.3724 80.5908 77.5204 80.4928 77.6634C79.0078 79.8354 77.5138 82.0174 75.6968 83.9214C75.2208 84.4204 74.7208 84.9024 74.3208 85.4644C74.1598 85.6914 74.0088 85.9364 73.7758 86.0884C73.4258 86.3164 72.9738 86.2844 72.5588 86.2444C72.4768 86.2364 72.3888 86.2264 72.3258 86.1734C72.2128 86.0804 72.2278 85.9044 72.2678 85.7644C72.3948 85.3154 72.6688 84.9254 72.9328 84.5404C73.9008 83.1344 74.8108 81.6874 75.6598 80.2074C76.3578 78.9904 76.9038 77.6984 77.5898 76.4804C77.9908 75.7664 78.5388 75.0824 79.3408 74.8084Z" fill="url(#paint16_linear_206_8720)"/>
<path d="M87.6508 60.8734C86.2128 61.1744 85.4568 62.9494 84.9368 64.0714C84.4158 65.1934 82.1418 69.2894 81.9128 69.7774C81.6838 70.2654 85.9058 73.7854 86.6568 72.5544C87.4068 71.3234 89.7008 61.0074 87.6508 60.8734Z" fill="#FF7F00"/>
<path d="M94.036 95.5964C93.941 97.0934 92.979 103.592 92.979 103.592C92.979 103.592 92.017 109.712 92.008 110.328C92 110.944 91.562 122.38 91.349 123.127C91.136 123.874 89.1 124.24 88.018 123.977C86.936 123.714 86.319 123.303 86.29 122.855C86.262 122.407 85.715 111.885 85.762 110.746C85.808 109.607 84.509 93.1684 84.701 91.7124C84.893 90.2564 85.411 86.8394 86.918 84.4714C88.425 82.1044 93.752 84.3714 94.421 86.3404C95.09 88.3104 94.036 95.5964 94.036 95.5964Z" fill="#424C67"/>
<path d="M102.959 84.7365C103.295 85.8045 104.19 92.2325 104.327 94.4015C104.464 96.5705 103.817 101.913 103.487 103.685C103.156 105.457 102.904 107.84 102.952 108.216C102.999 108.592 103.536 111.09 103.64 114.989C103.744 118.888 102.705 126.788 102.705 126.788C102.705 126.788 102.225 127.812 99.9359 127.91C97.6459 128.007 97.4729 127.521 97.3859 127.266C97.2989 127.011 97.0779 123.143 97.1789 121.741C97.2799 120.339 96.6569 112.401 96.2129 109.281C95.7689 106.161 93.7819 97.5775 93.3219 97.0385C92.8619 96.4995 91.9369 96.4635 91.5769 95.6345C91.2169 94.8055 91.3309 90.9875 91.4229 90.5795C91.5159 90.1715 91.1579 87.1405 92.6339 86.1475C94.1099 85.1545 98.7529 83.7255 98.7529 83.7255L102.959 84.7365Z" fill="#424C67"/>
<path d="M102.446 127.277L102.069 127.24C102.079 127.139 103.045 117.138 103.016 115.209C102.994 113.831 102.704 111.046 102.512 109.203C102.431 108.434 102.373 107.879 102.36 107.66C102.343 107.395 102.489 106.525 102.769 104.882C103.207 102.316 103.868 98.4384 103.838 96.3844C103.789 92.9884 103.154 89.1295 103 88.3575L103.371 88.2834C103.526 89.0624 104.166 92.9544 104.215 96.3794C104.245 98.4684 103.581 102.366 103.141 104.946C102.916 106.264 102.722 107.404 102.737 107.637C102.751 107.848 102.811 108.429 102.888 109.164C103.08 111.014 103.372 113.809 103.393 115.203C103.422 117.154 102.485 126.864 102.446 127.277Z" fill="#4F5A7A"/>
<path d="M103.638 88.5964C103.258 89.4084 100.945 90.3074 96.88 90.7774C95.61 90.9244 94.542 91.0164 93.605 91.0244C91.544 91.0424 89.776 90.2764 88.566 89.5494C86.193 88.1234 85.942 87.4334 85.761 86.9544C85.579 86.4744 86.303 84.4414 86.519 84.4984C86.735 84.5554 103.24 86.0654 103.24 86.0654C103.24 86.0654 103.833 88.1784 103.638 88.5964Z" fill="#323142"/>
<path d="M90.7637 123.767L90.3867 123.753C90.4017 123.317 90.7677 113.05 91.0957 110.796C91.1717 110.273 91.2517 109.692 91.3367 109.072C91.6157 107.048 91.9637 104.529 92.4087 102.346L92.5447 101.687C93.0697 99.1414 93.4847 97.1305 93.4747 94.5795L93.8537 94.5775C93.8637 97.1695 93.4447 99.1964 92.9147 101.765L92.7797 102.423C92.3367 104.593 91.9897 107.106 91.7107 109.124C91.6257 109.744 91.5457 110.325 91.4687 110.851C91.1447 113.084 90.7677 123.66 90.7637 123.767Z" fill="#4F5A7A"/>
<path d="M92.2571 93.4884C92.0401 93.8374 91.892 94.2344 91.829 94.5744C91.634 95.6194 91.8811 96.7614 92.1291 97.7774C92.3211 98.5614 92.1971 99.4094 92.2451 100.223C92.3331 101.697 91.9391 103.258 91.7411 104.72C91.5181 106.355 91.2961 107.991 91.0731 109.626C91.0841 109.548 91.0761 109.462 91.0691 109.383C91.0961 109.804 90.9771 110.37 90.9741 110.819C90.9701 111.337 90.9001 111.871 90.8711 112.391C90.8031 113.599 90.7351 114.807 90.6681 116.015C90.5531 118.106 90.3451 120.198 90.3541 122.307C90.3551 122.615 89.8531 125.346 90.0421 125.45C90.4531 125.67 91.148 126.019 91.605 125.781C92.001 125.575 92.3611 124.918 92.5951 124.555C93.2301 123.57 93.6641 122.474 94.1851 121.429C95.2981 119.198 96.3291 116.96 96.7971 114.501C97.2751 111.988 97.4491 109.386 97.5141 106.833C97.5951 103.644 97.8171 100.421 96.9451 97.3144C96.6451 96.2454 96.4791 94.4984 95.6511 93.6944C95.2531 93.3074 94.4191 92.7524 93.8961 92.6214C93.1921 92.4444 92.6241 92.8994 92.2571 93.4884Z" fill="#DEDDF5"/>
<path d="M86.7188 110.093C86.6048 110.038 86.5098 109.977 86.4458 109.912C85.9868 109.447 85.9678 108.718 85.9618 108.065C85.9338 104.808 85.3688 101.594 85.2848 98.3655C85.2518 97.1215 85.2198 95.8765 85.1868 94.6325C85.1668 93.8845 85.1478 93.1335 85.2188 92.3885C85.2908 91.6405 85.5148 89.3525 86.4088 89.1025C87.2978 88.8535 88.7888 90.0115 89.3858 90.5525C89.5438 90.6955 89.6968 90.8495 89.8038 91.0345C89.9378 91.2675 89.9908 91.5365 90.0388 91.8005C90.4138 93.8465 90.6308 95.9215 90.6858 98.0015C90.7148 99.0755 90.7008 100.15 90.6868 101.224C90.6778 101.939 90.6678 102.655 90.6048 103.367C90.4518 105.082 89.9858 106.749 89.4478 108.379C89.2828 108.878 89.1288 110.015 88.6488 110.271C88.2598 110.48 87.2618 110.354 86.7188 110.093Z" fill="#454F6B"/>
<path d="M99.912 111.549C97.628 112.255 96.841 109.265 96.434 107.676C95.771 105.088 95.108 102.499 94.445 99.9114C94.248 99.1414 94.05 98.3694 93.785 97.6194C93.608 97.1194 93.4 96.6244 93.088 96.1954C92.862 95.8844 92.585 95.6114 92.372 95.2914C92.117 94.9074 91.961 94.4664 91.83 94.0244C91.502 92.9174 91.313 91.7684 91.27 90.6144C92.14 90.8314 93.102 91.2104 93.994 91.2664C94.922 91.3254 95.935 91.0684 96.842 90.8954C98.506 90.5784 100.17 90.2614 101.835 89.9454C102.092 89.8964 102.236 94.0554 102.223 94.4254C102.176 95.7234 101.84 97.0544 101.865 98.3434C101.889 99.6034 101.911 100.875 101.886 102.146C101.861 103.428 101.826 104.709 101.781 105.99C101.739 107.198 101.833 108.534 101.601 109.722C101.428 110.607 100.718 111.3 99.912 111.549Z" fill="#454F6B"/>
<path d="M100.435 93.2305C100.198 93.2305 99.9629 93.2084 99.7409 93.1564C98.9809 92.9834 98.0309 92.4074 97.8149 90.6534L98.1899 90.6064C98.3399 91.8294 98.8809 92.5614 99.7989 92.7824C101.388 93.1624 103.486 91.9414 103.627 91.7294L103.945 91.9344C103.731 92.2694 101.987 93.2305 100.435 93.2305Z" fill="#4F5A7A"/>
<path d="M99.3219 107.198C99.9749 107.239 100.637 107.477 101.083 107.957C101.32 108.212 101.488 108.524 101.624 108.845C102.312 110.467 102.218 112.298 102.158 114.059C102.068 116.701 102.081 119.346 101.936 121.985C101.849 123.558 101.706 125.126 101.563 126.695C101.549 126.852 101.528 127.022 101.417 127.133C101.347 127.204 101.249 127.24 101.155 127.271C100.571 127.465 98.0679 128.018 98.1459 126.825C98.1409 126.904 98.1359 126.983 98.1299 127.062C97.7299 123.935 97.5709 120.866 97.4839 117.71C97.4449 116.277 97.1439 114.983 97.0239 113.564C96.8729 111.778 96.7229 109.991 96.5719 108.205C96.5879 108.331 96.6039 108.457 96.6209 108.583C96.5489 108.293 96.5039 107.924 96.7499 107.754C96.8389 107.692 96.9499 107.672 97.0549 107.645C97.4039 107.555 97.6729 107.316 98.0159 107.228C98.4139 107.127 98.9149 107.172 99.3219 107.198Z" fill="#454F6B"/>
<path d="M85.9897 110.663C86.0037 109.87 86.0168 109.078 86.0308 108.285C86.0398 107.785 86.0498 107.277 86.2068 106.803C86.3638 106.329 86.6928 105.885 87.1628 105.716C87.8498 105.469 88.6338 105.889 89.0338 106.5C89.4338 107.11 89.5357 107.863 89.6107 108.588C89.9427 111.803 89.9298 115.043 89.9178 118.276C89.9118 119.804 89.9057 121.333 89.8997 122.861C89.8987 123.045 89.8967 123.237 89.8087 123.399C89.6537 123.688 89.2767 123.784 88.9507 123.748C88.6247 123.711 88.3188 123.573 87.9968 123.514C87.7188 123.464 87.1038 123.527 86.9008 123.291C86.6808 123.035 86.7847 122.008 86.7597 121.665C86.6747 120.49 86.5907 119.315 86.5057 118.139C86.3367 115.789 86.1667 113.438 85.9977 111.088L85.9897 110.663Z" fill="#454F6B"/>
<path d="M100.147 59.4415C101.423 60.6545 106.426 64.9145 106.719 65.5585C107.012 66.2025 106.645 68.8765 106.063 71.1545C105.481 73.4315 104.144 78.2505 103.668 79.1955C103.191 80.1405 102.988 86.9075 102.701 87.8725C102.415 88.8375 95.7302 89.4175 91.7002 88.5675C87.6702 87.7175 86.4412 86.2485 86.4542 84.9545C86.4672 83.6595 86.9312 76.0245 86.4462 72.8365C85.9602 69.6485 85.9562 62.5795 87.0352 61.1855C88.3072 60.3475 93.2012 59.3755 94.0452 59.2595C94.8892 59.1435 100.147 59.4415 100.147 59.4415Z" fill="#FFA600"/>
<path d="M102.143 73.7935C102.177 74.4335 102.211 75.0765 102.351 75.7025C102.485 76.3005 102.716 76.8745 102.823 77.4775C102.986 78.3915 102.863 79.3305 102.739 80.2505C102.389 82.8505 102.04 85.4725 102.223 88.0905C102.297 89.1445 102.468 90.2245 103.018 91.1265C105.125 87.3225 105.95 82.9425 106.373 78.6145C106.5 77.3155 106.593 76.0035 106.439 74.7085C106.319 73.7065 106.052 72.7235 105.647 71.7995C105.451 71.3515 105.195 70.8895 104.757 70.6715C104.117 70.3535 102.978 70.5795 102.569 71.1855C102.064 71.9335 102.098 72.9295 102.143 73.7935Z" fill="#DEDDF5"/>
<path d="M101.714 52.7784C100.58 55.3114 100.194 57.1974 100.173 57.8624C100.152 58.5264 100.799 60.2844 100.88 60.5634C100.961 60.8424 98.5441 63.5514 95.2001 63.0684C93.4041 62.6134 93.0501 62.1394 92.8081 61.4794C92.5651 60.8204 92.7002 60.1484 92.9872 59.8114C93.2742 59.4744 93.6612 59.2484 93.8062 59.1084C93.9512 58.9694 93.9891 58.2644 93.9891 58.2644L95.0512 54.6504L99.3511 50.2244L101.551 51.5174L101.714 52.7784Z" fill="url(#paint17_linear_206_8720)"/>
<path d="M97.4292 59.5494C97.1362 59.7604 96.7862 59.8764 96.4362 59.9634C96.0532 60.0584 95.6622 60.1224 95.2682 60.1544C95.1592 60.1634 95.0462 60.1694 94.9462 60.1254C94.7712 60.0494 94.6912 59.8494 94.6372 59.6674C94.4752 59.1184 94.3952 58.5454 94.4012 57.9734C94.4032 57.7674 94.4182 57.5554 94.5092 57.3704C94.6942 56.9944 95.1342 56.8304 95.5342 56.7064C96.2752 56.4764 98.4572 55.8384 98.8552 56.9464C99.0132 57.3854 98.5622 57.9194 98.3682 58.2814C98.1202 58.7464 97.8672 59.2334 97.4292 59.5494Z" fill="#FFDFD1"/>
<path d="M102.116 50.9024C101.995 51.4194 100.248 56.5474 99.9071 56.9604C99.5671 57.3714 96.4091 59.3764 95.2131 59.2364C94.8431 59.1934 94.5501 59.1344 94.3201 59.0704C93.8041 58.9284 93.5911 58.7644 93.4951 58.6894C93.3581 58.5804 92.6231 55.5374 92.6481 55.2164C92.6701 54.9624 92.8911 52.4574 93.0821 51.0574C93.1311 50.6904 93.1811 50.4004 93.2221 50.2464C93.4241 49.4984 94.2961 46.8164 94.2961 46.8164C94.2961 46.8164 94.9051 45.5954 95.6911 45.6644C96.4771 45.7324 99.7331 45.9524 100.245 46.5604C100.756 47.1664 101.886 48.3854 101.886 48.3854L102.116 50.9024Z" fill="url(#paint18_linear_206_8720)"/>
<path d="M100.34 51.8194C100.143 51.6894 100.036 51.3185 100.036 51.3185C100.036 51.3185 100.214 49.8274 100.222 49.5784C100.23 49.3294 100.082 49.2324 99.9929 49.1314C99.9039 49.0304 98.6309 48.9214 97.2869 48.4504C95.9439 47.9794 94.8659 47.4135 94.5569 47.1915C94.2479 46.9685 93.0889 51.0224 93.0889 51.0224C93.0889 51.0224 93.0189 50.0234 93.0099 49.7804C93.0009 49.5374 93.5889 47.2284 93.7889 46.8374C93.9889 46.4464 94.2699 45.2685 96.7789 44.7195C99.2889 44.1705 100.435 44.7134 101.446 45.3474C102.456 45.9814 103.282 47.0535 103.733 48.1975C104.184 49.3415 103.51 50.8504 103.47 50.9594C103.43 51.0684 102.889 53.1855 102.664 53.5665C102.44 53.9475 101.424 54.1774 101.424 54.1774C101.424 54.1774 101.706 52.8115 101.493 52.8244C101.28 52.8374 100.899 53.7374 100.899 53.7374L100.483 53.7045C100.483 53.7045 100.644 52.3214 100.34 51.8194Z" fill="#B2686B"/>
<path d="M101.012 54.2035C101.119 53.9035 101.304 53.4885 101.333 53.2905C101.362 53.0925 102.191 52.4425 102.573 52.5075C102.956 52.5725 102.925 53.2955 102.694 53.8605C102.463 54.4255 101.43 55.7685 101.069 55.7735C100.708 55.7785 100.666 55.4795 100.687 55.3485C100.709 55.2165 101.012 54.2035 101.012 54.2035Z" fill="url(#paint19_linear_206_8720)"/>
<path d="M108.767 85.1374C108.658 85.5074 108.345 87.2934 107.036 90.0424C105.726 92.7934 104.099 96.4934 103.824 96.8894C103.549 97.2854 101.966 98.2054 101.966 98.2054C101.966 98.2054 98.973 99.6684 98.223 99.7864C97.474 99.9054 95.838 100.435 94.76 100.431C94.697 100.431 94.637 100.431 94.579 100.429C93.664 100.417 93.522 100.332 93.498 100.132C93.474 99.9204 94.087 99.5264 94.087 99.5264C94.087 99.5264 93.312 99.4224 93.139 99.3144C92.967 99.2064 92.962 98.7694 93.156 98.6624C93.351 98.5564 93.776 98.5294 93.776 98.5294C93.776 98.5294 93.493 98.1694 93.578 98.0204C93.663 97.8734 94.218 97.6724 94.218 97.6724L95.256 97.9864L95.439 97.8804L95.958 97.8464C95.958 97.8464 96.854 98.0034 97.356 97.8894C97.858 97.7754 98.729 97.1274 98.729 97.1274L101.722 95.0684C101.722 95.0684 101.973 94.7214 102.135 94.1074C102.297 93.4944 104.669 84.0184 104.855 83.5934C105.041 83.1664 104.456 80.4464 104.394 80.2264C104.333 80.0044 103.545 77.8534 103.619 77.1494C103.694 76.4474 104.189 74.1904 104.189 74.1904L105.83 73.9224L107.763 74.7864L108.132 74.9524C108.118 75.4734 108.33 76.5964 108.445 77.4094C108.559 78.2234 108.882 81.8164 108.974 82.7874C109.069 83.7614 108.876 84.7674 108.767 85.1374Z" fill="url(#paint20_linear_206_8720)"/>
<path d="M108.069 81.0075C108.139 81.7135 108.184 82.4645 107.852 83.0915C107.668 83.4385 107.315 83.7464 106.925 83.6984C106.708 83.6714 106.519 83.5405 106.353 83.3995C106.044 83.1365 105.778 82.8224 105.57 82.4745C105.144 81.7625 104.967 80.9345 104.797 80.1225C104.563 79.0055 104.329 77.8875 104.094 76.7705C104.012 76.3805 103.936 75.9505 104.134 75.6055C104.285 75.3415 104.566 75.1845 104.834 75.0415C105.173 74.8605 105.535 74.6755 105.92 74.6955C107.228 74.7635 107.327 76.1405 107.51 77.1135C107.753 78.4025 107.939 79.7025 108.069 81.0075Z" fill="url(#paint21_linear_206_8720)"/>
<path d="M105.442 82.9845C105.598 82.5045 105.823 81.9805 106.29 81.7905C106.482 81.7125 106.693 81.7015 106.9 81.6915C107.026 81.6855 107.158 81.6805 107.273 81.7335C107.477 81.8275 107.561 82.0685 107.617 82.2865C107.989 83.7355 108.01 85.2735 107.679 86.7325C107.148 89.0735 105.755 91.1195 104.927 93.3725C104.778 93.7785 104.647 94.1914 104.475 94.5884C104.333 94.9164 104.164 95.2325 103.995 95.5485C103.823 95.8695 103.643 96.2005 103.356 96.4255C103.077 96.6435 102.708 96.7425 102.357 96.6925C102.291 96.6835 102.223 96.6675 102.172 96.6235C102.124 96.5815 102.099 96.5205 102.078 96.4605C101.821 95.7155 102.016 94.8975 102.245 94.1435C102.705 92.6295 103.295 91.1595 103.826 89.6695C104.603 87.4935 104.734 85.1625 105.442 82.9845Z" fill="url(#paint22_linear_206_8720)"/>
<path d="M108.767 85.1374C108.658 85.5074 108.345 87.2934 107.036 90.0424C105.726 92.7934 104.099 96.4934 103.824 96.8894C103.549 97.2854 101.966 98.2054 101.966 98.2054C101.966 98.2054 98.9731 99.6684 98.2231 99.7864C97.4741 99.9054 95.8381 100.435 94.7601 100.431C94.6971 100.431 94.6371 100.431 94.5791 100.429C97.1981 99.9374 99.8191 99.2804 102.028 97.8174C102.615 97.4284 103.213 97.0284 103.659 96.4824C104.595 95.3344 104.718 93.7284 105.426 92.4274C105.636 92.0434 105.896 91.6884 106.102 91.3024C106.292 90.9504 106.433 90.5754 106.575 90.2024C107.272 88.3734 108.241 86.4704 108.552 84.5274C108.646 83.9414 108.741 83.3524 108.747 82.7584C108.754 82.1184 108.658 81.4834 108.564 80.8514C108.335 79.3264 108.106 77.8024 107.878 76.2754C107.805 75.7944 107.73 75.2694 107.764 74.7864L108.133 74.9524C108.119 75.4734 108.331 76.5964 108.446 77.4094C108.56 78.2234 108.883 81.8164 108.975 82.7874C109.069 83.7614 108.876 84.7674 108.767 85.1374Z" fill="#FFDFD1"/>
<path d="M98.7681 98.2155C98.6851 98.3825 98.6331 98.5665 98.5261 98.7195C98.3361 98.9905 98.0081 99.1225 97.6981 99.2395C97.6051 99.0255 97.6351 98.7775 97.7041 98.5555C97.7731 98.3325 97.8781 98.1225 97.9361 97.8965C97.9841 97.7085 98.0022 97.5065 98.1092 97.3455C98.2042 97.2025 98.3581 97.1095 98.5151 97.0395C98.8041 96.9115 99.1171 96.8495 99.4271 96.7875C99.6161 96.7505 99.9891 96.6705 100.103 96.8955C100.211 97.1095 99.8851 97.1975 99.7451 97.2795C99.3551 97.5095 98.9741 97.7975 98.7681 98.2155Z" fill="#FFDFD1"/>
<path d="M91.864 98.8055C91.818 99.0445 91.8381 99.2895 91.8571 99.5315C91.9031 100.101 91.9671 100.714 92.3461 101.142C92.3741 101.173 92.404 101.204 92.442 101.22C92.484 101.238 92.531 101.237 92.576 101.231C92.81 101.2 93.0161 101.018 93.0771 100.791C93.1101 100.67 93.104 100.54 93.145 100.421C93.246 100.129 93.6041 99.9785 93.8671 99.8685C93.9641 99.8285 94.0721 99.8225 94.1771 99.8175C94.5941 99.7975 95.0111 99.7775 95.4281 99.7565C95.4071 99.7695 95.3861 99.7825 95.3661 99.7955C95.8901 99.5105 96.3861 99.2445 96.9441 99.0425C96.5221 99.0445 96.2081 99.1475 95.8141 99.3055C95.6731 99.3625 95.531 99.4185 95.385 99.4605C95.032 99.5615 94.6541 99.5725 94.2961 99.4935C94.1501 99.4615 94.0041 99.4135 93.8541 99.4205C93.6301 99.4305 93.4371 99.5585 93.2641 99.7095C93.1071 99.8465 93.0671 99.8025 92.8591 99.7545C92.6521 99.7065 92.446 99.6525 92.243 99.5885C92.287 99.5285 92.2611 99.4445 92.2451 99.3715C92.1981 99.1605 92.2561 98.9285 92.3961 98.7635C92.4841 98.6605 92.7851 98.5225 92.7231 98.3675C92.7421 98.3895 92.757 98.4135 92.774 98.4375C92.766 98.4255 93.4311 98.3575 93.5081 98.3895C93.5541 98.4085 93.5961 98.4345 93.6381 98.4605C93.8471 98.5895 94.049 98.7575 94.291 98.7975C94.55 98.8405 94.83 98.8355 95.092 98.8375C95.626 98.8415 96.161 98.7995 96.688 98.7125C96.101 98.6675 95.5151 98.6225 94.9321 98.5425C94.6111 98.4985 94.288 98.4435 93.989 98.3175C93.69 98.1915 93.4151 97.9875 93.2581 97.7035C93.2261 97.6455 93.198 97.5835 93.148 97.5405C93.058 97.4625 92.9221 97.4675 92.8071 97.5005C92.5211 97.5835 92.3661 97.7795 92.2461 98.0335C92.1201 98.3015 91.923 98.5015 91.864 98.8055Z" fill="#FFDFD1"/>
<path d="M94.1601 54.0604C94.0921 54.3864 94.2861 54.7464 94.5971 54.8694C94.6991 54.9104 94.8411 54.9684 94.8191 55.0774C94.8111 55.1214 94.7751 55.1544 94.7411 55.1844C94.5481 55.3564 94.3651 55.5634 94.3161 55.8174C94.2651 56.0714 94.3981 56.3754 94.6511 56.4354C94.4891 56.3894 94.3591 56.5944 94.3711 56.7634C94.3851 56.9304 94.4731 57.0874 94.4731 57.2554C94.4731 57.3684 94.4321 57.4754 94.3961 57.5814C94.2701 57.9484 94.1841 58.3374 94.2171 58.7254C94.2261 58.8194 94.2731 58.9424 94.3211 59.0684C93.8051 58.9264 93.5921 58.7624 93.4961 58.6874C93.3591 58.5784 92.6241 55.5354 92.6491 55.2144C92.6711 54.9604 92.8921 52.4554 93.0831 51.0554C93.6741 51.3104 95.2741 51.8614 95.1111 52.2314C94.9271 52.6534 94.7421 53.0744 94.4841 53.4554C94.3561 53.6494 94.2061 53.8354 94.1601 54.0604Z" fill="#FFDFD1"/>
<path d="M86.2391 90.9225C85.7641 90.9225 85.2911 90.6595 84.8281 90.1405L85.1111 89.8885C85.5491 90.3815 85.9811 90.5945 86.3881 90.5325C87.2361 90.3945 87.7921 89.1185 87.7981 89.1055L88.1461 89.2535C88.1211 89.3145 87.5031 90.7335 86.4501 90.9045C86.3791 90.9165 86.3091 90.9225 86.2391 90.9225Z" fill="#4F5A7A"/>
<path d="M92.6091 96.7224C91.9571 95.4584 92.0451 91.3844 92.1921 90.3214L92.5671 90.3744C92.4191 91.4434 92.3651 95.4254 92.9451 96.5494L92.6091 96.7224Z" fill="#4F5A7A"/>
<path d="M92.4948 95.9965C92.4338 95.9885 90.9928 95.8035 90.6498 95.0225C90.2848 94.1935 90.7238 90.4555 90.7288 90.4175L91.1038 90.4625C90.9618 91.6575 90.7488 94.3085 90.9958 94.8705C91.2098 95.3565 92.1838 95.5775 92.5418 95.6215L92.4948 95.9965Z" fill="#4F5A7A"/>
<path d="M99.9268 97.4045C99.9268 97.4045 98.8087 97.4435 98.6697 97.4835C98.5307 97.5235 97.9398 98.4135 97.4748 98.0485C97.0098 97.6835 97.1387 97.2335 97.2837 97.0195C97.4277 96.8055 97.8787 96.4455 98.0677 96.4335C98.2567 96.4215 98.5747 96.2125 98.5747 96.2125C98.5747 96.2125 99.2117 95.6835 99.8037 95.4405C100.396 95.1985 101.137 95.1425 101.364 95.1525C101.591 95.1625 101.775 95.0475 101.913 95.3465C102.05 95.6455 102.269 95.9865 101.863 96.4225C101.457 96.8585 100.286 97.3425 99.9268 97.4045Z" fill="url(#paint23_linear_206_8720)"/>
<path d="M106.719 65.5584C105.874 65.1704 104.543 67.0845 103.984 68.2245C103.425 69.3644 102.552 71.0285 102.446 71.8565C102.341 72.6835 103.291 77.7365 103.291 77.7365L108.446 77.4105L108.615 77.0845C108.615 77.0845 107.962 66.8744 106.719 65.5584Z" fill="#FF7F00"/>
<path d="M85.3679 75.1164L73.8279 81.7784L73.3159 81.4824L84.8549 74.8204L85.3679 75.1164Z" fill="#FFDFD1"/>
<path d="M85.3681 84.1535L73.8281 90.8155V81.7785L85.3681 75.1165V84.1535Z" fill="#E5BDA0"/>
<path d="M103.24 94.4724L84.855 83.8574V74.8204L103.24 85.4354V94.4724Z" fill="#E8BA9C"/>
<path d="M84.855 74.8204L103.24 85.4354L103.752 85.1395L85.368 74.5255L84.855 74.8204Z" fill="#FFDFD1"/>
<path d="M100.612 94.6334V77.0804L81.4609 66.0244V83.5764L100.612 94.6334Z" fill="#383838"/>
<path d="M99.9288 77.4754L100.612 77.0804L81.4608 66.0244L80.7778 66.4184L99.9288 77.4754Z" fill="#383838"/>
<path d="M100.612 94.6335V77.0804L99.9287 77.4754V95.0275L100.612 94.6335Z" fill="#383838"/>
<path d="M99.9288 95.0274V77.4754L80.7778 66.4184V83.9714L99.9288 95.0274Z" fill="#3D3C47"/>
<path d="M87.3089 81.4814L86.8339 81.7614L84.7739 78.2084L86.8339 77.0324L87.3089 77.8654L85.7369 78.7624L87.3089 81.4814Z" fill="#EBEAF8"/>
<path d="M91.602 78.0604L92.222 78.7684L89.14 84.1084L88.52 83.4004L91.602 78.0604Z" fill="#EBEAF8"/>
<path d="M94.9579 84.0884L93.3809 81.3714L93.8599 81.0904L95.9199 84.6434L93.8599 85.8174L93.3809 84.9874L94.9579 84.0884Z" fill="#EBEAF8"/>
<path d="M99.587 95.2245V77.6725L80.437 66.6155V84.1685L99.587 95.2245Z" fill="#383838"/>
<path d="M98.9039 78.0665L99.5869 77.6725L80.4369 66.6155L79.7539 67.0105L98.9039 78.0665Z" fill="#383838"/>
<path d="M99.5868 95.2245V77.6725L98.9038 78.0665V95.6195L99.5868 95.2245Z" fill="#383838"/>
<path d="M98.9039 95.6195V78.0665L79.7539 67.0105V84.5625L98.9039 95.6195Z" fill="#3D3C47"/>
<path d="M86.285 82.0745L85.811 82.3535L83.75 78.8005L85.811 77.6265L86.285 78.4585L84.713 79.3555L86.285 82.0745Z" fill="#EBEAF8"/>
<path d="M90.5781 78.6525L91.1981 79.3615L88.1161 84.7015L87.4971 83.9925L90.5781 78.6525Z" fill="#EBEAF8"/>
<path d="M93.9349 84.6815L92.3579 81.9655L92.8359 81.6825L94.8959 85.2375L92.8359 86.4115L92.3579 85.5815L93.9349 84.6815Z" fill="#EBEAF8"/>
<path d="M98.5631 95.8165V78.2635L79.4121 67.2075V84.7595L98.5631 95.8165Z" fill="#383838"/>
<path d="M97.88 78.6585L98.563 78.2635L79.412 67.2075L78.729 67.6015L97.88 78.6585Z" fill="#383838"/>
<path d="M98.5629 95.8164V78.2634L97.8799 78.6584V96.2104L98.5629 95.8164Z" fill="#383838"/>
<path d="M97.88 96.2104V78.6584L78.729 67.6014V85.1544L97.88 96.2104Z" fill="#3D3C47"/>
<path d="M85.2601 82.6644L84.7851 82.9444L82.7241 79.3914L84.7851 78.2164L85.2601 79.0484L83.6871 79.9464L85.2601 82.6644Z" fill="#EBEAF8"/>
<path d="M89.5532 79.2424L90.1732 79.9514L87.0912 85.2914L86.4712 84.5824L89.5532 79.2424Z" fill="#EBEAF8"/>
<path d="M92.9081 85.2715L91.3311 82.5545L91.8091 82.2725L93.8701 85.8265L91.8091 87.0005L91.3311 86.1705L92.9081 85.2715Z" fill="#EBEAF8"/>
<path d="M97.5382 96.4075V78.8555L78.3882 67.7985V85.3515L97.5382 96.4075Z" fill="#383838"/>
<path d="M96.8551 79.2495L97.5381 78.8555L78.3881 67.7985L77.7051 68.1935L96.8551 79.2495Z" fill="#383838"/>
<path d="M97.538 96.4075V78.8555L96.855 79.2495V96.8025L97.538 96.4075Z" fill="#383838"/>
<path d="M96.8551 96.8025V79.2495L77.7051 68.1935V85.7455L96.8551 96.8025Z" fill="#3D3C47"/>
<path d="M84.2362 83.2565L83.7612 83.5355L81.7012 79.9825L83.7612 78.8085L84.2362 79.6405L82.6632 80.5375L84.2362 83.2565Z" fill="#EBEAF8"/>
<path d="M88.5293 79.8345L89.1493 80.5435L86.0673 85.8835L85.4473 85.1745L88.5293 79.8345Z" fill="#EBEAF8"/>
<path d="M91.8851 85.8625L90.3071 83.1465L90.7861 82.8635L92.8461 86.4185L90.7861 87.5925L90.3071 86.7625L91.8851 85.8625Z" fill="#EBEAF8"/>
<path d="M94.4991 98.8265L96.7961 81.1315L77.6461 70.0745L75.3481 87.7695L94.4991 98.8265Z" fill="#383838"/>
<path d="M96.15 81.1985L96.796 81.1315L77.646 70.0745L77 70.1415L96.15 81.1985Z" fill="#383838"/>
<path d="M94.4989 98.8265L96.7959 81.1315L96.1499 81.1985L93.8159 99.2205L94.4989 98.8265Z" fill="#383838"/>
<path d="M93.816 99.2205L96.15 81.1985L77 70.1415L74.665 88.1645L93.816 99.2205Z" fill="#3D3C47"/>
<path d="M83.5311 85.2054L83.0561 85.4854L80.9961 81.9324L83.0561 80.7574L83.5311 81.5894L81.9581 82.4874L83.5311 85.2054Z" fill="#EBEAF8"/>
<path d="M87.8242 81.7834L88.4442 82.4924L85.3622 87.8324L84.7422 87.1234L87.8242 81.7834Z" fill="#EBEAF8"/>
<path d="M91.18 87.8125L89.603 85.0955L90.082 84.8135L92.143 88.3675L90.082 89.5415L89.603 88.7115L91.18 87.8125Z" fill="#EBEAF8"/>
<path d="M103.24 85.4355L91.701 92.0975L91.189 91.8015L102.728 85.1395L103.24 85.4355Z" fill="#FFDFD1"/>
<path d="M103.752 94.1765L91.189 101.429V92.3925L103.752 85.1395V94.1765Z" fill="#E5BDA0"/>
<path d="M91.1887 101.429L72.8037 90.8154V81.7784L91.1887 92.3924V101.429Z" fill="#FFDFD1"/>
<path d="M72.8037 81.7784L91.1887 92.3924L91.7007 92.0974L73.3157 81.4824L72.8037 81.7784Z" fill="#FFDFD1"/>
<defs>
<linearGradient id="paint0_linear_206_8720" x1="3.87257" y1="74.6778" x2="57.0185" y2="74.6778" gradientUnits="userSpaceOnUse">
<stop stop-color="#A8A4B5"/>
<stop offset="0.0043" stop-color="#ADA9B9"/>
<stop offset="0.0261" stop-color="#C1BBCB"/>
<stop offset="0.0508" stop-color="#D0C9D8"/>
<stop offset="0.0804" stop-color="#D8D1E0"/>
<stop offset="0.1282" stop-color="#DBD3E2"/>
</linearGradient>
<linearGradient id="paint1_linear_206_8720" x1="58.8375" y1="121.811" x2="5.52684" y2="29.4744" gradientUnits="userSpaceOnUse">
<stop stop-color="#A8A4B5"/>
<stop offset="0.0043" stop-color="#ADA9B9"/>
<stop offset="0.0261" stop-color="#C1BBCB"/>
<stop offset="0.0508" stop-color="#D0C9D8"/>
<stop offset="0.0804" stop-color="#D8D1E0"/>
<stop offset="0.1282" stop-color="#DBD3E2"/>
</linearGradient>
<linearGradient id="paint2_linear_206_8720" x1="43.3458" y1="59.6076" x2="52.9138" y2="59.6076" gradientUnits="userSpaceOnUse">
<stop stop-color="#FFDBA7"/>
<stop offset="1" stop-color="#FFC5A4"/>
</linearGradient>
<linearGradient id="paint3_linear_206_8720" x1="42.7099" y1="47.1699" x2="45.5721" y2="47.1699" gradientUnits="userSpaceOnUse">
<stop stop-color="#FFDBA7"/>
<stop offset="1" stop-color="#FFC5A4"/>
</linearGradient>
<linearGradient id="paint4_linear_206_8720" x1="45.4298" y1="57.3027" x2="50.5526" y2="57.3027" gradientUnits="userSpaceOnUse">
<stop stop-color="#FFDFB0"/>
<stop offset="1" stop-color="#FFCBAD"/>
</linearGradient>
<linearGradient id="paint5_linear_206_8720" x1="48.3408" y1="68.5286" x2="52.356" y2="68.5286" gradientUnits="userSpaceOnUse">
<stop stop-color="#FFDFB0"/>
<stop offset="1" stop-color="#FFCBAD"/>
</linearGradient>
<linearGradient id="paint6_linear_206_8720" x1="49.3444" y1="147.192" x2="54.9099" y2="147.192" gradientUnits="userSpaceOnUse">
<stop stop-color="#FFDBA7"/>
<stop offset="1" stop-color="#FFC5A4"/>
</linearGradient>
<linearGradient id="paint7_linear_206_8720" x1="39.1547" y1="145.39" x2="44.2049" y2="145.39" gradientUnits="userSpaceOnUse">
<stop stop-color="#FFDBA7"/>
<stop offset="1" stop-color="#FFC5A4"/>
</linearGradient>
<linearGradient id="paint8_linear_206_8720" x1="38.4396" y1="71.9142" x2="46.5964" y2="71.9142" gradientUnits="userSpaceOnUse">
<stop stop-color="#FFDBA7"/>
<stop offset="1" stop-color="#FFC5A4"/>
</linearGradient>
<linearGradient id="paint9_linear_206_8720" x1="39.4922" y1="73.5832" x2="40.722" y2="73.5832" gradientUnits="userSpaceOnUse">
<stop stop-color="#FFDFB0"/>
<stop offset="1" stop-color="#FFCBAD"/>
</linearGradient>
<linearGradient id="paint10_linear_206_8720" x1="23.1002" y1="62.3204" x2="34.8227" y2="62.3204" gradientUnits="userSpaceOnUse">
<stop stop-color="#FFDBA7"/>
<stop offset="1" stop-color="#FFC5A4"/>
</linearGradient>
<linearGradient id="paint11_linear_206_8720" x1="24.029" y1="60.2075" x2="28.4868" y2="60.2075" gradientUnits="userSpaceOnUse">
<stop stop-color="#FFDFB0"/>
<stop offset="1" stop-color="#FFCBAD"/>
</linearGradient>
<linearGradient id="paint12_linear_206_8720" x1="26.6699" y1="73.357" x2="34.6399" y2="73.357" gradientUnits="userSpaceOnUse">
<stop stop-color="#FFDFB0"/>
<stop offset="1" stop-color="#FFCBAD"/>
</linearGradient>
<linearGradient id="paint13_linear_206_8720" x1="71.4047" y1="80.1742" x2="86.5137" y2="80.1742" gradientUnits="userSpaceOnUse">
<stop stop-color="#FFDBA7"/>
<stop offset="1" stop-color="#FFC5A4"/>
</linearGradient>
<linearGradient id="paint14_linear_206_8720" x1="74.2416" y1="88.1714" x2="69.6228" y2="88.0314" gradientUnits="userSpaceOnUse">
<stop stop-color="#FFDFB0"/>
<stop offset="1" stop-color="#FFCBAD"/>
</linearGradient>
<linearGradient id="paint15_linear_206_8720" x1="83.1432" y1="73.0204" x2="79.4413" y2="72.9081" gradientUnits="userSpaceOnUse">
<stop stop-color="#FFDFB0"/>
<stop offset="1" stop-color="#FFCBAD"/>
</linearGradient>
<linearGradient id="paint16_linear_206_8720" x1="80.6384" y1="80.6342" x2="72.4059" y2="80.3846" gradientUnits="userSpaceOnUse">
<stop stop-color="#FFDFB0"/>
<stop offset="1" stop-color="#FFCBAD"/>
</linearGradient>
<linearGradient id="paint17_linear_206_8720" x1="101.593" y1="56.7954" x2="92.8107" y2="56.5292" gradientUnits="userSpaceOnUse">
<stop stop-color="#FFDBA7"/>
<stop offset="1" stop-color="#FFC5A4"/>
</linearGradient>
<linearGradient id="paint18_linear_206_8720" x1="92.6481" y1="52.4521" x2="102.117" y2="52.4521" gradientUnits="userSpaceOnUse">
<stop stop-color="#FFDBA7"/>
<stop offset="1" stop-color="#FFC5A4"/>
</linearGradient>
<linearGradient id="paint19_linear_206_8720" x1="102.832" y1="54.17" x2="100.722" y2="54.106" gradientUnits="userSpaceOnUse">
<stop stop-color="#FFDFB0"/>
<stop offset="1" stop-color="#FFCBAD"/>
</linearGradient>
<linearGradient id="paint20_linear_206_8720" x1="93.0113" y1="87.1782" x2="109" y2="87.1782" gradientUnits="userSpaceOnUse">
<stop stop-color="#FFDBA7"/>
<stop offset="1" stop-color="#FFC5A4"/>
</linearGradient>
<linearGradient id="paint21_linear_206_8720" x1="108.199" y1="79.2517" x2="103.919" y2="79.122" gradientUnits="userSpaceOnUse">
<stop stop-color="#FFDFB0"/>
<stop offset="1" stop-color="#FFCBAD"/>
</linearGradient>
<linearGradient id="paint22_linear_206_8720" x1="107.776" y1="89.2883" x2="102.155" y2="89.1179" gradientUnits="userSpaceOnUse">
<stop stop-color="#FFDFB0"/>
<stop offset="1" stop-color="#FFCBAD"/>
</linearGradient>
<linearGradient id="paint23_linear_206_8720" x1="102.07" y1="96.7103" x2="97.1759" y2="96.5619" gradientUnits="userSpaceOnUse">
<stop stop-color="#FFDFB0"/>
<stop offset="1" stop-color="#FFCBAD"/>
</linearGradient>
</defs>
</svg>
