<svg width="142" height="119" viewBox="0 0 142 119" fill="none" xmlns="http://www.w3.org/2000/svg">
<path d="M118.278 18.5374C121.805 16.5016 124.672 20.6051 124.672 25.4498L126.027 24.6695C126.027 18.9612 122.55 14.5066 118.278 16.9751C114.002 19.4418 110.527 27.9112 110.528 33.6177L111.88 32.8357C111.88 27.991 114.749 20.5732 118.278 18.5374Z" fill="#FAFBFD"/>
<path d="M111.978 43.2717L100.905 36.8363L130.294 19.8674L141.369 26.3045L111.978 43.2717Z" fill="#FFD93A"/>
<path d="M102.352 36.8382L130.292 20.7081L139.922 26.3012L111.978 42.4348L102.352 36.8382Z" fill="#C9880F"/>
<path d="M141.369 26.3044L141.5 73.1804L112.111 90.1476L111.978 43.2716L141.369 26.3044Z" fill="#FEC111"/>
<path d="M100.905 36.8363L101.038 83.7141L105.952 86.5709V39.7694L100.905 36.8363Z" fill="#FEA311"/>
<path d="M111.978 43.2719L105.953 39.7696V86.5711L112.111 90.1479L111.978 43.2719Z" fill="#D99310"/>
<path d="M127.094 25.0117C130.621 22.976 133.49 27.0812 133.49 31.9259L134.843 31.1457C134.843 25.4373 131.367 20.9845 127.094 23.4494C122.82 25.9179 119.344 34.3855 119.344 40.0938L120.696 39.3136C120.696 34.4671 123.567 27.0493 127.094 25.0117Z" fill="#FAFBFD"/>
<path d="M121.905 39.6273C121.905 38.6874 121.246 38.3079 120.43 38.7779C119.618 39.2478 118.958 40.3898 118.958 41.3297C118.958 42.2678 119.618 42.6508 120.43 42.1791C121.246 41.711 121.905 40.5672 121.905 39.6273Z" fill="#C9880F"/>
<path d="M135.742 31.7205C135.742 30.7824 135.082 30.3993 134.27 30.8693C133.456 31.3392 132.795 32.4812 132.795 33.4211C132.795 34.3609 133.456 34.7422 134.27 34.2705C135.084 33.8023 135.742 32.6603 135.742 31.7205Z" fill="#C9880F"/>
<path d="M21.56 37.9855C25.6067 35.6483 28.8998 38.2728 28.8998 43.8321L30.4532 42.9348C30.4532 36.386 26.465 33.3607 21.56 36.1909C16.6532 39.0211 12.665 46.6553 12.665 53.2059L14.2185 52.3086C14.2185 46.7475 17.5097 40.3227 21.56 37.9855Z" fill="#FAFBFD"/>
<path d="M3.82118 58.0116L0.728516 111.559L6.94399 115.169L9.92139 61.5547L3.82118 58.0116Z" fill="#90DB9F"/>
<path d="M16.0286 65.1049L9.92125 61.5547L6.94385 115.169L12.9341 118.652L16.0286 65.1049Z" fill="#79B885"/>
<path d="M16.0293 65.1048L3.82178 58.0115L36.2221 39.3048L48.4296 46.3998L16.0293 65.1048Z" fill="#D9FFE1"/>
<path d="M5.41699 58.0134L36.2195 40.2288L46.8346 46.3964L16.0303 64.181L5.41699 58.0134Z" fill="#79B885"/>
<path d="M48.4283 46.3998L51.8154 96.2053L12.9336 118.652L16.028 65.1048L48.4283 46.3998Z" fill="#A7FFB9"/>
<path d="M32.4412 46.3573C36.4879 44.0218 39.7809 46.6445 39.7809 52.2057L41.3344 51.3101C41.3344 44.7595 37.3444 41.7342 32.4394 44.5644C27.5344 47.3946 23.5444 55.0288 23.5444 61.5795L25.0961 60.6822C25.0979 55.1228 28.3927 48.6945 32.4412 46.3573Z" fill="#FAFBFD"/>
<path d="M25.8828 61.6186C25.8828 60.6787 25.2231 60.2975 24.4092 60.7692C23.5952 61.2391 22.9355 62.3811 22.9355 63.3192C22.9355 64.2591 23.5952 64.6403 24.4092 64.1704C25.2231 63.7005 25.8828 62.5567 25.8828 61.6186Z" fill="#79B885"/>
<path d="M41.9406 52.3584C41.9406 51.4168 41.2809 51.0373 40.467 51.5054C39.653 51.9771 38.9951 53.1191 38.9951 54.0572C38.9951 54.9971 39.653 55.3784 40.467 54.9084C41.2809 54.4403 41.9406 53.2983 41.9406 52.3584Z" fill="#79B885"/>
<path d="M93.8491 8.00921L88.5788 4.94846C88.577 4.48385 88.405 4.15224 88.1372 3.99619L93.4075 7.06049C93.6788 7.21477 93.8491 7.5446 93.8491 8.00921Z" fill="#BFBFBF"/>
<path d="M92.365 7.14903L87.0947 4.08473C87.2437 4.00138 87.3873 3.94286 87.5239 3.91449L92.7959 6.97879C92.6576 7.00716 92.514 7.06391 92.365 7.14903Z" fill="#00D9D0"/>
<path d="M92.7965 6.98078L87.5244 3.91648C87.7585 3.8686 87.9677 3.89698 88.138 3.99629L93.4101 7.06059C93.238 6.95773 93.0288 6.92936 92.7965 6.98078Z" fill="#00A39C"/>
<path d="M90.9695 4.04257L85.6992 0.978264C86.3252 0.61828 86.9281 0.380657 87.4974 0.260071L92.7659 3.32437C92.2002 3.44318 91.5955 3.67903 90.9695 4.04257Z" fill="#D7E7F7"/>
<path d="M92.7661 3.32411L87.4976 0.259816C88.4286 0.0647501 89.262 0.180013 89.9376 0.57369L95.2044 3.63622C94.5341 3.24432 93.6989 3.12727 92.7661 3.32411Z" fill="#D7E7F7"/>
<path d="M35.6009 118.432L30.3289 115.366C29.2631 114.749 28.5963 113.431 28.5928 111.564L33.8613 114.628C33.8702 116.494 34.5316 117.81 35.6009 118.432Z" fill="#D7E7F7"/>
<path d="M67.8916 94.7053C69.1791 93.9605 70.2324 94.5493 70.2378 96.0424C70.2431 97.5231 69.195 99.3354 67.9058 100.08L63.1303 102.836C61.8429 103.579 60.7895 102.981 60.7842 101.499C60.7806 100.004 61.8269 98.2041 63.1161 97.4593L67.8916 94.7053Z" fill="#9CB5CC"/>
<path d="M90.9699 4.04201C94.2417 2.15342 96.9318 3.67493 96.9443 7.4326L97.15 80.4899C97.1624 84.2476 94.4793 86.4696 91.2076 88.3581L39.8257 118.024C36.5575 119.911 33.8727 118.384 33.862 114.626L33.6616 43.9666C33.6545 40.2071 36.3163 35.5947 39.5881 33.7044L90.9699 4.04201ZM94.0449 76.2144L93.8516 8.00893C93.8498 7.07794 93.1671 6.6878 92.3673 7.15064L38.2368 38.3983C37.4282 38.8683 36.749 40.0422 36.7525 40.975L36.944 109.179C36.9458 110.097 37.6303 110.486 38.4425 110.019L92.5677 78.768C93.3657 78.307 94.0484 77.1312 94.0449 76.2144ZM67.9062 100.082C69.1954 99.3368 70.2416 97.5244 70.2381 96.0437C70.2345 94.5488 69.1794 93.9618 67.892 94.7066L63.1164 97.4624C61.8272 98.2072 60.781 100.009 60.7845 101.502C60.7881 102.983 61.8432 103.582 63.1306 102.839L67.9062 100.082Z" fill="#F8F9FC"/>
<path d="M92.3645 7.14929C93.166 6.68822 93.8488 7.07658 93.8488 8.00758L94.042 76.2131C94.0456 77.1299 93.3646 78.3074 92.5649 78.7667L38.4414 110.02C37.6293 110.488 36.9448 110.098 36.943 109.179L36.7515 40.9772C36.7497 40.0444 37.4271 38.8705 38.2357 38.4005L92.3645 7.14929Z" fill="#0DD9D4"/>
<path d="M39.6782 56.2167L53.159 48.4318V33.2415L39.6782 41.0246V56.2167Z" fill="#60B0CF"/>
<path d="M56.8955 46.2759L91.3458 26.3881V11.1961L56.8955 31.0857V46.2759Z" fill="#60B0CF"/>
<path d="M39.6782 74.2497L53.159 66.4666V51.2746L39.6782 59.0577V74.2497Z" fill="#60B0CF"/>
<path d="M56.8955 64.3103L91.3458 44.4207V29.2304L56.8955 49.1165V64.3103Z" fill="#60B0CF"/>
<path d="M39.6782 92.2897L53.159 84.5084V69.3163L39.6782 77.1012V92.2897Z" fill="#60B0CF"/>
<path d="M56.8955 82.3504L91.3458 62.4644V47.2724L56.8955 67.1602V82.3504Z" fill="#60B0CF"/>
<path d="M33.8615 114.627L28.593 111.562L28.3926 40.9043L33.6611 43.9686L33.8615 114.627Z" fill="#D7E7F7"/>
<path d="M39.5875 33.7047L34.3154 30.6422L85.6991 0.978088L90.9694 4.04239L39.5875 33.7047Z" fill="#D7E7F7"/>
<path d="M33.6611 43.9691L28.3926 40.9066C28.3855 38.3459 29.6215 35.3862 31.4427 33.166L36.7112 36.2286C34.8883 38.4505 33.6558 41.4102 33.6611 43.9691Z" fill="#D7E7F7"/>
<path d="M36.7119 36.2266L31.4434 33.1641C32.2928 32.1249 33.2752 31.2436 34.3161 30.6424L39.5882 33.7067C38.5455 34.3079 37.5649 35.1874 36.7119 36.2266Z" fill="#D7E7F7"/>
<path d="M41.0785 79.7155L42.811 78.7171C42.8181 78.71 42.8252 78.71 42.8341 78.7083C42.9494 78.6267 43.0646 78.6285 43.1143 78.7313L43.9814 80.5117L51.7291 76.0394C51.8426 75.9738 51.9472 75.9791 52.0075 76.0536C52.0695 76.1228 52.0802 76.2558 52.0358 76.3994L50.4541 81.5154C50.4026 81.6839 50.282 81.8435 50.1508 81.9197L45.3575 84.6879C45.2245 84.7677 45.1022 84.7393 45.0525 84.6258L43.9336 82.0421L43.7722 81.6662L42.7082 79.4797L41.0821 80.4195C40.9136 80.517 40.7788 80.4355 40.7788 80.2422C40.7771 80.0436 40.9118 79.8095 41.0785 79.7155Z" fill="#F8F9FC"/>
<path d="M49.9487 82.2087C50.3584 81.9711 50.6935 82.1644 50.6935 82.6396C50.6935 83.1131 50.3584 83.6947 49.9487 83.9324C49.5355 84.1682 49.2021 83.9749 49.2021 83.4997C49.2039 83.0227 49.5373 82.4463 49.9487 82.2087Z" fill="#F8F9FC"/>
<path d="M45.7568 84.629C46.1682 84.3914 46.5016 84.5864 46.5016 85.0581C46.5016 85.5334 46.1682 86.1133 45.7568 86.3509C45.3436 86.5903 45.0103 86.3952 45.0103 85.92C45.0103 85.4465 45.3436 84.8666 45.7568 84.629Z" fill="#F8F9FC"/>
<path d="M41.0785 62.0334L42.811 61.035C42.8181 61.0314 42.8252 61.0297 42.8341 61.0279C42.9494 60.9463 43.0646 60.9463 43.1143 61.0492L43.9814 62.8314L51.7291 58.3573C51.8426 58.2934 51.9472 58.297 52.0075 58.3715C52.0695 58.4406 52.0802 58.5736 52.0358 58.7155L50.4541 63.8315C50.4026 64 50.282 64.1614 50.1508 64.2376L45.3575 67.004C45.2245 67.082 45.1022 67.0572 45.0525 66.9402L43.9336 64.3582L43.7722 63.9823L42.7082 61.7975L41.0821 62.7356C40.9136 62.8331 40.7788 62.7516 40.7788 62.5565C40.7771 62.3632 40.9118 62.1309 41.0785 62.0334Z" fill="#F8F9FC"/>
<path d="M49.9487 64.5267C50.3584 64.2908 50.6935 64.4806 50.6935 64.9558C50.6935 65.4311 50.3584 66.0109 49.9487 66.2486C49.5355 66.4862 49.2021 66.2911 49.2021 65.8159C49.2039 65.3442 49.5373 64.7643 49.9487 64.5267Z" fill="#F8F9FC"/>
<path d="M45.7568 66.9475C46.1682 66.7116 46.5016 66.9049 46.5016 67.3784C46.5016 67.8519 46.1682 68.4335 45.7568 68.6711C45.3436 68.9088 45.0103 68.7137 45.0103 68.2384C45.0103 67.765 45.3436 67.1851 45.7568 66.9475Z" fill="#F8F9FC"/>
<path d="M41.0785 43.222L42.811 42.2236C42.8181 42.2183 42.8252 42.2165 42.8341 42.2148C42.9494 42.1332 43.0646 42.135 43.1143 42.2378L43.9814 44.0182L51.7291 39.5441C51.8426 39.4785 51.9472 39.4856 52.0075 39.5583C52.0695 39.6293 52.0802 39.7623 52.0358 39.9041L50.4541 45.0184C50.4026 45.1886 50.282 45.3482 50.1508 45.4245L45.3575 48.1926C45.2245 48.2689 45.1022 48.2458 45.0525 48.1288L43.9336 45.5451L43.7722 45.1691L42.7082 42.9862L41.0821 43.9225C40.9136 44.0182 40.7788 43.9384 40.7788 43.7451C40.7771 43.5501 40.9118 43.316 41.0785 43.222Z" fill="#F8F9FC"/>
<path d="M49.9487 45.7138C50.3584 45.4762 50.6935 45.6677 50.6935 46.143C50.6935 46.6182 50.3584 47.1981 49.9487 47.4357C49.5355 47.6733 49.2021 47.4801 49.2021 47.003C49.2039 46.5296 49.5373 45.9515 49.9487 45.7138Z" fill="#F8F9FC"/>
<path d="M45.7568 48.1341C46.1682 47.8982 46.5016 48.0897 46.5016 48.5632C46.5016 49.0384 46.1682 49.6201 45.7568 49.856C45.3436 50.0936 45.0103 49.9003 45.0103 49.425C45.0103 48.9515 45.3436 48.3735 45.7568 48.1341Z" fill="#F8F9FC"/>
<path d="M87.9684 9.57495L87.9648 11.9725L100.86 33.1388L100.859 30.6757L87.9684 9.57495Z" fill="#CDCED0"/>
<path d="M100.858 30.6752L100.86 33.1384L107.306 29.4268L107.301 26.9513L100.858 30.6752Z" fill="#A0A0A1"/>
<path d="M87.9683 9.57484L100.859 30.6756L107.301 26.9516L93.4301 6.42188L87.9683 9.57484Z" fill="#FAFBFD"/>
<path d="M81.5225 13.2953V15.6982L94.4234 36.861L94.418 34.3961L81.5225 13.2953Z" fill="#C7391C"/>
<path d="M94.4185 34.3962L94.4238 36.8611L100.861 33.1389L100.859 30.6758L94.4185 34.3962Z" fill="#C2556D"/>
<path d="M81.5225 13.2956L94.418 34.3963L100.859 30.6759L87.9685 9.57513L81.5225 13.2956Z" fill="#FF708F"/>
<path d="M75.084 17.0211V19.4222L87.9813 40.5797L87.9778 38.1148L75.084 17.0211Z" fill="#CDCED0"/>
<path d="M87.978 38.1146L87.9816 40.5795L94.424 36.8609L94.4187 34.3959L87.978 38.1146Z" fill="#A0A0A1"/>
<path d="M75.084 17.0211L87.9778 38.1148L94.4185 34.3961L81.5229 13.2953L75.084 17.0211Z" fill="#FAFBFD"/>
<path d="M68.645 20.7326L81.5317 41.8352L87.9777 38.1148L75.0839 17.0211L68.645 20.7326Z" fill="#FF708F"/>
<path d="M68.6448 20.7328L68.6377 23.1356L81.5386 44.302L81.5315 41.8353L68.6448 20.7328Z" fill="#C7391C"/>
<path d="M81.5308 41.8351L81.5379 44.3018L87.9803 40.5796L87.9768 38.1147L81.5308 41.8351Z" fill="#C2556D"/>
<path d="M62.2343 24.4317L62.1953 26.863L75.0997 48.0205L75.0909 45.5555L62.2343 24.4317Z" fill="#CDCED0"/>
<path d="M75.0913 45.5555L75.1002 48.0204L81.5391 44.3018L81.532 41.8351L75.0913 45.5555Z" fill="#A0A0A1"/>
<path d="M62.2344 24.4319L75.0909 45.5557L81.5316 41.8353L68.6449 20.7328L62.2344 24.4319Z" fill="#FAFBFD"/>
<path d="M55.7734 28.1576L55.7539 30.5764L68.653 51.7392L68.6459 49.269L55.7734 28.1576Z" fill="#C7391C"/>
<path d="M68.6465 49.2691L68.6536 51.7393L75.0996 48.0207L75.0907 45.5558L68.6465 49.2691Z" fill="#C2556D"/>
<path d="M55.7739 28.1574L68.6464 49.2688L75.0907 45.5555L62.2341 24.4316L55.7739 28.1574Z" fill="#FF708F"/>
<path d="M49.3057 31.8905L49.3128 34.2951L62.2101 55.4579L62.2048 52.9877L49.3057 31.8905Z" fill="#CDCED0"/>
<path d="M62.2041 52.9876L62.2094 55.4578L68.6537 51.7392L68.6466 49.2689L62.2041 52.9876Z" fill="#A0A0A1"/>
<path d="M49.3057 31.8904L62.2048 52.9876L68.6472 49.269L55.7747 28.1576L49.3057 31.8904Z" fill="#FAFBFD"/>
<path d="M42.8623 35.6124L42.8659 38.0153L55.765 59.1763L55.7614 56.7132L42.8623 35.6124Z" fill="#C7391C"/>
<path d="M55.7612 56.7132L55.7648 59.1763L62.209 55.4577L62.2037 52.9875L55.7612 56.7132Z" fill="#C2556D"/>
<path d="M42.8623 35.6126L55.7614 56.7133L62.2039 52.9876L49.3048 31.8904L42.8623 35.6126Z" fill="#FF708F"/>
<path d="M36.4204 39.3308L36.4257 41.7355L49.3266 62.9036L49.3195 60.4316L36.4204 39.3308Z" fill="#CDCED0"/>
<path d="M49.3188 60.4318L49.3259 62.9038L55.7649 59.1762L55.7613 56.7131L49.3188 60.4318Z" fill="#A0A0A1"/>
<path d="M36.4204 39.3311L49.3195 60.4318L55.762 56.7132L42.8629 35.6124L36.4204 39.3311Z" fill="#FAFBFD"/>
<path d="M78.0614 73.9485L80.1735 75.1774C79.4712 74.7696 78.4977 74.8263 77.423 75.4452L75.311 74.2181C76.3874 73.5974 77.3592 73.5407 78.0614 73.9485Z" fill="#FD9B13"/>
<mask id="mask0_206_8012" style="mask-type:luminance" maskUnits="userSpaceOnUse" x="75" y="73" width="6" height="3">
<path d="M78.0614 73.9485L80.1735 75.1774C79.4712 74.7696 78.4977 74.8263 77.423 75.4452L75.311 74.2181C76.3874 73.5974 77.3592 73.5407 78.0614 73.9485Z" fill="white"/>
</mask>
<g mask="url(#mask0_206_8012)">
<path d="M77.4245 75.4451L75.3125 74.218C76.3854 73.5973 77.3589 73.5388 78.0611 73.9484L80.1732 75.1774C79.4727 74.7695 78.4974 74.8262 77.4245 75.4451Z" fill="#FD9B13"/>
</g>
<path d="M58.0667 95.4395C57.3645 95.0298 56.6587 94.6202 55.9564 94.2123C55.2613 93.808 54.8322 92.9515 54.8286 91.735L56.9406 92.9621C56.946 94.1786 57.3751 95.0369 58.0667 95.4395Z" fill="#FD9B13"/>
<mask id="mask1_206_8012" style="mask-type:luminance" maskUnits="userSpaceOnUse" x="54" y="91" width="5" height="5">
<path d="M58.0667 95.4395C57.3645 95.0298 56.6587 94.6202 55.9564 94.2123C55.2613 93.808 54.8322 92.9515 54.8286 91.735L56.9406 92.9621C56.946 94.1786 57.3751 95.0369 58.0667 95.4395Z" fill="white"/>
</mask>
<g mask="url(#mask1_206_8012)">
<path d="M58.0667 95.4395L55.9564 94.2123C55.2613 93.808 54.8322 92.9515 54.8286 91.735L56.9406 92.9621C56.946 94.1786 57.3751 95.0369 58.0667 95.4395Z" fill="#FD9B13"/>
</g>
<path d="M56.9406 92.9623L54.8286 91.7351L54.8232 90.4938L56.937 91.7227L56.9406 92.9623Z" fill="#FD9B13"/>
<path d="M60.7888 85.0496L58.6768 83.8224L75.3123 74.2199L77.4243 75.4452L60.7888 85.0496Z" fill="#FD9B13"/>
<path d="M56.9371 91.7226L54.8233 90.4937C54.8162 88.0412 56.5398 85.0549 58.6749 83.8224L60.7869 85.0496C58.6554 86.2838 56.93 89.2701 56.9371 91.7226Z" fill="#FD9B13"/>
<mask id="mask2_206_8012" style="mask-type:luminance" maskUnits="userSpaceOnUse" x="54" y="83" width="7" height="9">
<path d="M56.9371 91.7226L54.8233 90.4937C54.8162 88.0412 56.5398 85.0549 58.6749 83.8224L60.7869 85.0496C58.6554 86.2838 56.93 89.2701 56.9371 91.7226Z" fill="white"/>
</mask>
<g mask="url(#mask2_206_8012)">
<path d="M56.9371 91.7226L54.8233 90.4937C54.8162 88.0412 56.5398 85.0549 58.6749 83.8224L60.7869 85.0496C58.6554 86.2838 56.93 89.2701 56.9371 91.7226Z" fill="#FD9B13"/>
</g>
<path d="M77.4242 75.4451C79.5592 74.2144 81.2953 75.2022 81.3006 77.6529L81.3024 78.8942C81.3113 81.3467 79.5859 84.3348 77.4526 85.5655L60.8153 95.1715C58.6838 96.404 56.9477 95.4145 56.9388 92.962L56.937 91.7224C56.9299 89.2699 58.6536 86.2837 60.7869 85.0494L77.4242 75.4451Z" fill="#FEC111"/>
<path d="M63.0444 86.1665L65.2841 84.8738C66.3836 84.2389 66.834 84.5971 66.834 85.6062C66.834 86.1116 66.5858 86.9361 66.0804 87.2784C66.6088 87.0709 66.9599 87.4203 66.9599 88.0392C66.9599 89.3727 66.4049 90.1813 65.3196 90.8073L63.0444 92.1213V86.1665ZM65.1813 87.1472C65.3923 87.0266 65.4969 86.7783 65.4969 86.5496C65.4969 86.1914 65.3356 86.1789 65.1813 86.2694L64.4117 86.7127V87.5905L65.1813 87.1472ZM65.2504 89.5146C65.5182 89.3585 65.5945 89.1032 65.5945 88.7432C65.5945 88.4435 65.5235 88.1988 65.2504 88.3584L64.4117 88.8425V89.9969L65.2504 89.5146Z" fill="#FAFBFD"/>
<path d="M67.3504 83.682L68.7159 82.8929V86.2445C68.7159 87.0088 68.7301 87.4645 69.3986 87.0797C70.0246 86.7162 70.0388 86.2125 70.0388 85.4802V82.1286L71.4131 81.3359V84.6857C71.4131 87.312 70.2498 88.0001 69.3986 88.4913C68.441 89.0445 67.3486 89.7397 67.3486 87.0318L67.3504 83.682Z" fill="#FAFBFD"/>
<path d="M73.3088 80.2417L74.0483 82.4513L74.8445 79.3551L76.3305 78.495L74.7044 83.7636V85.3897L73.3372 86.1788V84.5527L71.8228 81.1L73.3088 80.2417Z" fill="#FAFBFD"/>
<path d="M91.6642 64.0621V53.3157C91.6642 51.2002 93.1537 48.6164 94.9873 47.5578L99.2664 45.0875C101.098 44.0271 102.59 44.8889 102.59 47.0063V57.7526L104.084 56.889V46.1444C104.084 43.0766 101.923 41.8282 99.2664 43.3638L94.9873 45.8341C92.3291 47.368 90.1675 51.1115 90.1675 54.1793V64.9239L91.6642 64.0621Z" fill="#D7E7F7"/>
<path d="M86.8722 112.938L75.3208 106.224L81.1142 62.3596L92.6638 69.0716L86.8722 112.938Z" fill="#808182"/>
<path d="M81.1142 62.3596L75.3208 106.224L81.0593 109.558L87.1825 65.8849L81.1142 62.3596Z" fill="#FF577B"/>
<path d="M92.6642 69.0717L87.1828 65.8851L81.0596 109.558L86.8725 112.938L92.6642 69.0717Z" fill="#CF4664"/>
<path d="M92.6644 69.0714L81.1147 62.3594L110.642 45.3107L122.192 52.0227L92.6644 69.0714Z" fill="#FA87A0"/>
<path d="M83.0068 62.3047L110.467 46.4494L119.956 51.9627L92.4941 67.8162L83.0068 62.3047Z" fill="#CF4664"/>
<path d="M122.192 52.0227L128.214 89.0692L86.873 112.938L92.6647 69.0714L122.192 52.0227Z" fill="#FF708F"/>
<path d="M101.843 70.1002V59.3556C101.843 57.2383 103.332 54.6563 105.166 53.5976L109.445 51.1274C111.278 50.0687 112.77 50.9306 112.77 53.0479V63.7925L114.263 62.9289V52.1825C114.263 49.1147 112.103 47.8663 109.447 49.402L105.168 51.8722C102.509 53.4061 100.348 57.1514 100.348 60.2157V70.962L101.843 70.1002Z" fill="#D7E7F7"/>
<path d="M102.891 68.967C102.891 68.0271 102.231 67.6458 101.417 68.1158C100.603 68.5857 99.9434 69.7277 99.9434 70.6676C99.9434 71.6057 100.603 71.9887 101.417 71.517C102.233 71.0488 102.891 69.9068 102.891 68.967Z" fill="#CF4664"/>
<path d="M115.344 62.3418C115.344 61.4019 114.686 61.0207 113.87 61.4924C113.056 61.9623 112.396 63.1061 112.396 64.0424C112.396 64.9823 113.056 65.3635 113.87 64.8936C114.684 64.4237 115.344 63.2799 115.344 62.3418Z" fill="#CF4664"/>
</svg>
