<svg width="412" height="360" viewBox="0 0 412 360" fill="none" xmlns="http://www.w3.org/2000/svg">
<g filter="url(#filter0_d_130_1078)">
<mask id="path-1-inside-1_130_1078" fill="white">
<path d="M70 16C42.3858 16 20 38.3858 20 66V212C20 225.255 30.7452 236 44 236H161.356C168.04 236 174.422 238.787 178.964 243.691L257.339 328.309C261.881 333.212 268.262 336 274.947 336H339C366.614 336 389 313.614 389 286V66C389 38.3858 366.614 16 339 16H70Z"/>
</mask>
<path d="M70 16C42.3858 16 20 38.3858 20 66V212C20 225.255 30.7452 236 44 236H161.356C168.04 236 174.422 238.787 178.964 243.691L257.339 328.309C261.881 333.212 268.262 336 274.947 336H339C366.614 336 389 313.614 389 286V66C389 38.3858 366.614 16 339 16H70Z" fill="white" fill-opacity="0.1" shape-rendering="crispEdges"/>
<path d="M70 16V15V16ZM339 336V337V336ZM389 66H390H389ZM257.339 328.309L258.073 327.629L257.339 328.309ZM178.964 243.691L179.697 243.012L178.964 243.691ZM70 16V17C42.938 17 21 38.9381 21 66H20H19C19 37.8335 41.8335 15 70 15V16ZM20 66H21V212H20H19V66H20ZM44 236V235H161.356V236V237H44V236ZM178.964 243.691L179.697 243.012L258.073 327.629L257.339 328.309L256.605 328.988L178.23 244.371L178.964 243.691ZM274.947 336V335H339V336V337H274.947V336ZM339 336V335C366.062 335 388 313.062 388 286H389H390C390 314.167 367.167 337 339 337V336ZM389 286H388V66H389H390V286H389ZM389 66H388C388 38.938 366.062 17 339 17V16V15C367.167 15 390 37.8335 390 66H389ZM339 16V17H70V16V15H339V16ZM257.339 328.309L258.073 327.629C262.425 332.329 268.541 335 274.947 335V336V337C267.984 337 261.337 334.096 256.605 328.988L257.339 328.309ZM161.356 236V235C168.319 235 174.966 237.904 179.697 243.012L178.964 243.691L178.23 244.371C173.877 239.671 167.762 237 161.356 237V236ZM20 212H21C21 224.703 31.2975 235 44 235V236V237C30.1929 237 19 225.807 19 212H20Z" fill="white" fill-opacity="0.35" mask="url(#path-1-inside-1_130_1078)"/>
</g>
<g filter="url(#filter1_d_130_1078)">
<path d="M171.866 251.713C169.778 249.352 166.778 248 163.626 248H31.0001C24.925 248 20.0001 252.925 20.0001 259V325C20.0001 331.075 24.925 336 31.0001 336H221.996C231.474 336 236.515 324.813 230.236 317.713L171.866 251.713Z" fill="white" fill-opacity="0.1" shape-rendering="crispEdges"/>
<path d="M163.625 248.5H31.0005C25.2015 248.5 20.5005 253.201 20.5005 259V325C20.5005 330.799 25.2015 335.5 31.0005 335.5H221.996C231.043 335.5 235.855 324.821 229.861 318.044L171.491 252.044C169.498 249.791 166.634 248.5 163.625 248.5Z" stroke="white" stroke-opacity="0.35" shape-rendering="crispEdges"/>
</g>
<path d="M47.5635 299H45.5315V287.368H47.5635V299ZM55.4451 299H53.4131V289.4H48.9971V287.368H59.8611V289.4H55.4451V299ZM74.6239 299H65.9039V296.968H74.6239C75.7119 296.968 76.3199 296.36 76.3199 295.448C76.3199 294.456 75.7119 293.944 74.6239 293.944H69.2799C67.0879 293.944 65.7279 292.552 65.7279 290.632C65.7279 288.76 66.9919 287.368 69.3119 287.368H77.6639V289.4H69.3119C68.3839 289.4 67.8399 289.944 67.8399 290.824C67.8399 291.704 68.3999 292.232 69.2959 292.232H74.6239C76.9759 292.232 78.2399 293.336 78.2399 295.592C78.2399 297.544 77.0559 299 74.6239 299ZM90.382 299H79.982V287.368H90.366V289.4H81.998V296.968H90.382V299ZM89.934 293.944H83.486V292.232H89.934V293.944ZM105.803 299H102.923L99.9786 295.768H95.6266V293.976H100.475C101.931 293.976 102.699 293.144 102.699 291.64C102.699 290.136 101.867 289.4 100.475 289.4H94.1386V299H92.1226V287.368H100.475C103.131 287.368 104.699 289.016 104.699 291.608C104.699 293.528 103.803 294.888 102.299 295.464L105.803 299ZM111.402 298.504L104.714 287.368H107.194L112.474 296.328L117.738 287.368H120.074L113.37 298.504C113.13 298.904 112.81 299.16 112.394 299.16C111.946 299.16 111.642 298.904 111.402 298.504ZM123.47 299H121.438V287.368H123.47V299ZM137.207 299H130.903C127.655 299 125.255 296.44 125.255 293.064C125.255 289.64 127.655 287.368 130.903 287.368H137.207V289.4H130.903C128.823 289.4 127.287 290.952 127.287 293.16C127.287 295.352 128.807 296.968 130.903 296.968H137.207V299ZM149.257 299H138.857V287.368H149.241V289.4H140.873V296.968H149.257V299ZM148.809 293.944H142.361V292.232H148.809V293.944ZM159.718 299H150.998V296.968H159.718C160.806 296.968 161.414 296.36 161.414 295.448C161.414 294.456 160.806 293.944 159.718 293.944H154.374C152.182 293.944 150.822 292.552 150.822 290.632C150.822 288.76 152.086 287.368 154.406 287.368H162.758V289.4H154.406C153.478 289.4 152.934 289.944 152.934 290.824C152.934 291.704 153.494 292.232 154.39 292.232H159.718C162.07 292.232 163.334 293.336 163.334 295.592C163.334 297.544 162.15 299 159.718 299Z" fill="#F5F7FA"/>
<g filter="url(#filter2_d_130_1078)">
<rect x="100" y="52" width="213" height="44" rx="22" fill="white" fill-opacity="0.2" shape-rendering="crispEdges"/>
<rect x="100.5" y="52.5" width="212" height="43" rx="21.5" stroke="white" stroke-opacity="0.2" shape-rendering="crispEdges"/>
<path d="M145.044 68.928V80H143.588V71.744L139.908 80H138.884L135.188 71.728V80H133.732V68.928H135.3L139.396 78.08L143.492 68.928H145.044ZM146.969 75.584C146.969 74.688 147.151 73.904 147.513 73.232C147.876 72.5493 148.372 72.0213 149.001 71.648C149.641 71.2747 150.351 71.088 151.129 71.088C151.897 71.088 152.564 71.2533 153.129 71.584C153.695 71.9147 154.116 72.3307 154.393 72.832V71.232H155.865V80H154.393V78.368C154.105 78.88 153.673 79.3067 153.097 79.648C152.532 79.9787 151.871 80.144 151.113 80.144C150.335 80.144 149.631 79.952 149.001 79.568C148.372 79.184 147.876 78.6453 147.513 77.952C147.151 77.2587 146.969 76.4693 146.969 75.584ZM154.393 75.6C154.393 74.9387 154.26 74.3627 153.993 73.872C153.727 73.3813 153.364 73.008 152.905 72.752C152.457 72.4853 151.961 72.352 151.417 72.352C150.873 72.352 150.377 72.48 149.929 72.736C149.481 72.992 149.124 73.3653 148.857 73.856C148.591 74.3467 148.457 74.9227 148.457 75.584C148.457 76.256 148.591 76.8427 148.857 77.344C149.124 77.8347 149.481 78.2133 149.929 78.48C150.377 78.736 150.873 78.864 151.417 78.864C151.961 78.864 152.457 78.736 152.905 78.48C153.364 78.2133 153.727 77.8347 153.993 77.344C154.26 76.8427 154.393 76.2613 154.393 75.6ZM162.598 71.072C163.664 71.072 164.528 71.3973 165.19 72.048C165.851 72.688 166.182 73.616 166.182 74.832V80H164.742V75.04C164.742 74.1653 164.523 73.4987 164.086 73.04C163.648 72.5707 163.051 72.336 162.294 72.336C161.526 72.336 160.912 72.576 160.454 73.056C160.006 73.536 159.782 74.2347 159.782 75.152V80H158.326V71.232H159.782V72.48C160.07 72.032 160.459 71.6853 160.95 71.44C161.451 71.1947 162 71.072 162.598 71.072ZM168.016 75.584C168.016 74.688 168.197 73.904 168.56 73.232C168.923 72.5493 169.419 72.0213 170.048 71.648C170.688 71.2747 171.397 71.088 172.176 71.088C172.944 71.088 173.611 71.2533 174.176 71.584C174.741 71.9147 175.163 72.3307 175.44 72.832V71.232H176.912V80H175.44V78.368C175.152 78.88 174.72 79.3067 174.144 79.648C173.579 79.9787 172.917 80.144 172.16 80.144C171.381 80.144 170.677 79.952 170.048 79.568C169.419 79.184 168.923 78.6453 168.56 77.952C168.197 77.2587 168.016 76.4693 168.016 75.584ZM175.44 75.6C175.44 74.9387 175.307 74.3627 175.04 73.872C174.773 73.3813 174.411 73.008 173.952 72.752C173.504 72.4853 173.008 72.352 172.464 72.352C171.92 72.352 171.424 72.48 170.976 72.736C170.528 72.992 170.171 73.3653 169.904 73.856C169.637 74.3467 169.504 74.9227 169.504 75.584C169.504 76.256 169.637 76.8427 169.904 77.344C170.171 77.8347 170.528 78.2133 170.976 78.48C171.424 78.736 171.92 78.864 172.464 78.864C173.008 78.864 173.504 78.736 173.952 78.48C174.411 78.2133 174.773 77.8347 175.04 77.344C175.307 76.8427 175.44 76.2613 175.44 75.6ZM182.989 71.088C183.746 71.088 184.407 71.2533 184.973 71.584C185.549 71.9147 185.975 72.3307 186.253 72.832V71.232H187.725V80.192C187.725 80.992 187.554 81.7013 187.213 82.32C186.871 82.9493 186.381 83.44 185.741 83.792C185.111 84.144 184.375 84.32 183.533 84.32C182.381 84.32 181.421 84.048 180.653 83.504C179.885 82.96 179.431 82.2187 179.293 81.28H180.733C180.893 81.8133 181.223 82.24 181.725 82.56C182.226 82.8907 182.829 83.056 183.533 83.056C184.333 83.056 184.983 82.8053 185.485 82.304C185.997 81.8027 186.253 81.0987 186.253 80.192V78.352C185.965 78.864 185.538 79.2907 184.973 79.632C184.407 79.9733 183.746 80.144 182.989 80.144C182.21 80.144 181.501 79.952 180.861 79.568C180.231 79.184 179.735 78.6453 179.373 77.952C179.01 77.2587 178.829 76.4693 178.829 75.584C178.829 74.688 179.01 73.904 179.373 73.232C179.735 72.5493 180.231 72.0213 180.861 71.648C181.501 71.2747 182.21 71.088 182.989 71.088ZM186.253 75.6C186.253 74.9387 186.119 74.3627 185.853 73.872C185.586 73.3813 185.223 73.008 184.765 72.752C184.317 72.4853 183.821 72.352 183.277 72.352C182.733 72.352 182.237 72.48 181.789 72.736C181.341 72.992 180.983 73.3653 180.717 73.856C180.45 74.3467 180.317 74.9227 180.317 75.584C180.317 76.256 180.45 76.8427 180.717 77.344C180.983 77.8347 181.341 78.2133 181.789 78.48C182.237 78.736 182.733 78.864 183.277 78.864C183.821 78.864 184.317 78.736 184.765 78.48C185.223 78.2133 185.586 77.8347 185.853 77.344C186.119 76.8427 186.253 76.2613 186.253 75.6ZM198.185 75.28C198.185 75.5573 198.169 75.8507 198.137 76.16H191.129C191.182 77.024 191.476 77.7013 192.009 78.192C192.553 78.672 193.209 78.912 193.977 78.912C194.606 78.912 195.129 78.768 195.545 78.48C195.972 78.1813 196.27 77.7867 196.441 77.296H198.009C197.774 78.1387 197.305 78.8267 196.601 79.36C195.897 79.8827 195.022 80.144 193.977 80.144C193.145 80.144 192.398 79.9573 191.737 79.584C191.086 79.2107 190.574 78.6827 190.201 78C189.828 77.3067 189.641 76.5067 189.641 75.6C189.641 74.6933 189.822 73.8987 190.185 73.216C190.548 72.5333 191.054 72.0107 191.705 71.648C192.366 71.2747 193.124 71.088 193.977 71.088C194.809 71.088 195.545 71.2693 196.185 71.632C196.825 71.9947 197.316 72.496 197.657 73.136C198.009 73.7653 198.185 74.48 198.185 75.28ZM196.681 74.976C196.681 74.4213 196.558 73.9467 196.313 73.552C196.068 73.1467 195.732 72.8427 195.305 72.64C194.889 72.4267 194.425 72.32 193.913 72.32C193.177 72.32 192.548 72.5547 192.025 73.024C191.513 73.4933 191.22 74.144 191.145 74.976H196.681ZM199.563 75.584C199.563 74.688 199.744 73.904 200.107 73.232C200.47 72.5493 200.966 72.0213 201.595 71.648C202.235 71.2747 202.95 71.088 203.739 71.088C204.422 71.088 205.056 71.248 205.643 71.568C206.23 71.8773 206.678 72.288 206.987 72.8V68.16H208.459V80H206.987V78.352C206.699 78.8747 206.272 79.3067 205.707 79.648C205.142 79.9787 204.48 80.144 203.723 80.144C202.944 80.144 202.235 79.952 201.595 79.568C200.966 79.184 200.47 78.6453 200.107 77.952C199.744 77.2587 199.563 76.4693 199.563 75.584ZM206.987 75.6C206.987 74.9387 206.854 74.3627 206.587 73.872C206.32 73.3813 205.958 73.008 205.499 72.752C205.051 72.4853 204.555 72.352 204.011 72.352C203.467 72.352 202.971 72.48 202.523 72.736C202.075 72.992 201.718 73.3653 201.451 73.856C201.184 74.3467 201.051 74.9227 201.051 75.584C201.051 76.256 201.184 76.8427 201.451 77.344C201.718 77.8347 202.075 78.2133 202.523 78.48C202.971 78.736 203.467 78.864 204.011 78.864C204.555 78.864 205.051 78.736 205.499 78.48C205.958 78.2133 206.32 77.8347 206.587 77.344C206.854 76.8427 206.987 76.2613 206.987 75.6ZM218.721 80.112C217.985 80.112 217.324 79.984 216.737 79.728C216.161 79.4613 215.708 79.0987 215.377 78.64C215.046 78.1707 214.876 77.632 214.865 77.024H216.417C216.47 77.5467 216.684 77.9893 217.057 78.352C217.441 78.704 217.996 78.88 218.721 78.88C219.414 78.88 219.958 78.7093 220.353 78.368C220.758 78.016 220.961 77.568 220.961 77.024C220.961 76.5973 220.844 76.2507 220.609 75.984C220.374 75.7173 220.081 75.5147 219.729 75.376C219.377 75.2373 218.902 75.088 218.305 74.928C217.569 74.736 216.977 74.544 216.529 74.352C216.092 74.16 215.713 73.8613 215.393 73.456C215.084 73.04 214.929 72.4853 214.929 71.792C214.929 71.184 215.084 70.6453 215.393 70.176C215.702 69.7067 216.134 69.344 216.689 69.088C217.254 68.832 217.9 68.704 218.625 68.704C219.67 68.704 220.524 68.9653 221.185 69.488C221.857 70.0107 222.236 70.704 222.321 71.568H220.721C220.668 71.1413 220.444 70.768 220.049 70.448C219.654 70.1173 219.132 69.952 218.481 69.952C217.873 69.952 217.377 70.112 216.993 70.432C216.609 70.7413 216.417 71.1787 216.417 71.744C216.417 72.1493 216.529 72.48 216.753 72.736C216.988 72.992 217.27 73.1893 217.601 73.328C217.942 73.456 218.417 73.6053 219.025 73.776C219.761 73.9787 220.353 74.1813 220.801 74.384C221.249 74.576 221.633 74.88 221.953 75.296C222.273 75.7013 222.433 76.256 222.433 76.96C222.433 77.504 222.289 78.016 222.001 78.496C221.713 78.976 221.286 79.3653 220.721 79.664C220.156 79.9627 219.489 80.112 218.721 80.112ZM232.576 75.28C232.576 75.5573 232.56 75.8507 232.528 76.16H225.52C225.573 77.024 225.866 77.7013 226.4 78.192C226.944 78.672 227.6 78.912 228.368 78.912C228.997 78.912 229.52 78.768 229.936 78.48C230.362 78.1813 230.661 77.7867 230.832 77.296H232.4C232.165 78.1387 231.696 78.8267 230.992 79.36C230.288 79.8827 229.413 80.144 228.368 80.144C227.536 80.144 226.789 79.9573 226.128 79.584C225.477 79.2107 224.965 78.6827 224.592 78C224.218 77.3067 224.032 76.5067 224.032 75.6C224.032 74.6933 224.213 73.8987 224.576 73.216C224.938 72.5333 225.445 72.0107 226.096 71.648C226.757 71.2747 227.514 71.088 228.368 71.088C229.2 71.088 229.936 71.2693 230.576 71.632C231.216 71.9947 231.706 72.496 232.048 73.136C232.4 73.7653 232.576 74.48 232.576 75.28ZM231.072 74.976C231.072 74.4213 230.949 73.9467 230.704 73.552C230.458 73.1467 230.122 72.8427 229.696 72.64C229.28 72.4267 228.816 72.32 228.304 72.32C227.568 72.32 226.938 72.5547 226.416 73.024C225.904 73.4933 225.61 74.144 225.536 74.976H231.072ZM235.954 72.656C236.21 72.1547 236.572 71.7653 237.042 71.488C237.522 71.2107 238.103 71.072 238.786 71.072V72.576H238.402C236.77 72.576 235.954 73.4613 235.954 75.232V80H234.498V71.232H235.954V72.656ZM243.73 78.656L246.45 71.232H248.002L244.562 80H242.866L239.426 71.232H240.994L243.73 78.656ZM250.187 69.808C249.91 69.808 249.675 69.712 249.483 69.52C249.291 69.328 249.195 69.0933 249.195 68.816C249.195 68.5387 249.291 68.304 249.483 68.112C249.675 67.92 249.91 67.824 250.187 67.824C250.454 67.824 250.678 67.92 250.859 68.112C251.051 68.304 251.147 68.5387 251.147 68.816C251.147 69.0933 251.051 69.328 250.859 69.52C250.678 69.712 250.454 69.808 250.187 69.808ZM250.891 71.232V80H249.435V71.232H250.891ZM252.829 75.6C252.829 74.6933 253.01 73.904 253.373 73.232C253.735 72.5493 254.237 72.0213 254.877 71.648C255.527 71.2747 256.269 71.088 257.101 71.088C258.178 71.088 259.063 71.3493 259.757 71.872C260.461 72.3947 260.925 73.12 261.149 74.048H259.581C259.431 73.5147 259.138 73.0933 258.701 72.784C258.274 72.4747 257.741 72.32 257.101 72.32C256.269 72.32 255.597 72.608 255.085 73.184C254.573 73.7493 254.317 74.5547 254.317 75.6C254.317 76.656 254.573 77.472 255.085 78.048C255.597 78.624 256.269 78.912 257.101 78.912C257.741 78.912 258.274 78.7627 258.701 78.464C259.127 78.1653 259.421 77.7387 259.581 77.184H261.149C260.914 78.08 260.445 78.8 259.741 79.344C259.037 79.8773 258.157 80.144 257.101 80.144C256.269 80.144 255.527 79.9573 254.877 79.584C254.237 79.2107 253.735 78.6827 253.373 78C253.01 77.3173 252.829 76.5173 252.829 75.6ZM271.091 75.28C271.091 75.5573 271.075 75.8507 271.043 76.16H264.035C264.089 77.024 264.382 77.7013 264.915 78.192C265.459 78.672 266.115 78.912 266.883 78.912C267.513 78.912 268.035 78.768 268.451 78.48C268.878 78.1813 269.177 77.7867 269.347 77.296H270.915C270.681 78.1387 270.211 78.8267 269.507 79.36C268.803 79.8827 267.929 80.144 266.883 80.144C266.051 80.144 265.305 79.9573 264.643 79.584C263.993 79.2107 263.481 78.6827 263.107 78C262.734 77.3067 262.547 76.5067 262.547 75.6C262.547 74.6933 262.729 73.8987 263.091 73.216C263.454 72.5333 263.961 72.0107 264.611 71.648C265.273 71.2747 266.03 71.088 266.883 71.088C267.715 71.088 268.451 71.2693 269.091 71.632C269.731 71.9947 270.222 72.496 270.563 73.136C270.915 73.7653 271.091 74.48 271.091 75.28ZM269.587 74.976C269.587 74.4213 269.465 73.9467 269.219 73.552C268.974 73.1467 268.638 72.8427 268.211 72.64C267.795 72.4267 267.331 72.32 266.819 72.32C266.083 72.32 265.454 72.5547 264.931 73.024C264.419 73.4933 264.126 74.144 264.051 74.976H269.587ZM276.117 80.144C275.445 80.144 274.843 80.032 274.309 79.808C273.776 79.5733 273.355 79.2533 273.045 78.848C272.736 78.432 272.565 77.9573 272.533 77.424H274.037C274.08 77.8613 274.283 78.2187 274.645 78.496C275.019 78.7733 275.504 78.912 276.101 78.912C276.656 78.912 277.093 78.7893 277.413 78.544C277.733 78.2987 277.893 77.9893 277.893 77.616C277.893 77.232 277.723 76.9493 277.381 76.768C277.04 76.576 276.512 76.3893 275.797 76.208C275.147 76.0373 274.613 75.8667 274.197 75.696C273.792 75.5147 273.44 75.2533 273.141 74.912C272.853 74.56 272.709 74.1013 272.709 73.536C272.709 73.088 272.843 72.6773 273.109 72.304C273.376 71.9307 273.755 71.6373 274.245 71.424C274.736 71.2 275.296 71.088 275.925 71.088C276.896 71.088 277.68 71.3333 278.277 71.824C278.875 72.3147 279.195 72.9867 279.237 73.84H277.781C277.749 73.3813 277.563 73.0133 277.221 72.736C276.891 72.4587 276.443 72.32 275.877 72.32C275.355 72.32 274.939 72.432 274.629 72.656C274.32 72.88 274.165 73.1733 274.165 73.536C274.165 73.824 274.256 74.064 274.437 74.256C274.629 74.4373 274.864 74.5867 275.141 74.704C275.429 74.8107 275.824 74.9333 276.325 75.072C276.955 75.2427 277.467 75.4133 277.861 75.584C278.256 75.744 278.592 75.9893 278.869 76.32C279.157 76.6507 279.307 77.0827 279.317 77.616C279.317 78.096 279.184 78.528 278.917 78.912C278.651 79.296 278.272 79.6 277.781 79.824C277.301 80.0373 276.747 80.144 276.117 80.144Z" fill="#F5F7FA"/>
</g>
<g filter="url(#filter3_d_130_1078)">
<rect x="30" y="116" width="165" height="44" rx="22" fill="white" fill-opacity="0.2" shape-rendering="crispEdges"/>
<rect x="30.5" y="116.5" width="164" height="43" rx="21.5" stroke="white" stroke-opacity="0.2" shape-rendering="crispEdges"/>
<path d="M44.768 144.112C44.032 144.112 43.3707 143.984 42.784 143.728C42.208 143.461 41.7547 143.099 41.424 142.64C41.0933 142.171 40.9227 141.632 40.912 141.024H42.464C42.5173 141.547 42.7307 141.989 43.104 142.352C43.488 142.704 44.0427 142.88 44.768 142.88C45.4613 142.88 46.0053 142.709 46.4 142.368C46.8053 142.016 47.008 141.568 47.008 141.024C47.008 140.597 46.8907 140.251 46.656 139.984C46.4213 139.717 46.128 139.515 45.776 139.376C45.424 139.237 44.9493 139.088 44.352 138.928C43.616 138.736 43.024 138.544 42.576 138.352C42.1387 138.16 41.76 137.861 41.44 137.456C41.1307 137.04 40.976 136.485 40.976 135.792C40.976 135.184 41.1307 134.645 41.44 134.176C41.7493 133.707 42.1813 133.344 42.736 133.088C43.3013 132.832 43.9467 132.704 44.672 132.704C45.7173 132.704 46.5707 132.965 47.232 133.488C47.904 134.011 48.2827 134.704 48.368 135.568H46.768C46.7147 135.141 46.4907 134.768 46.096 134.448C45.7013 134.117 45.1787 133.952 44.528 133.952C43.92 133.952 43.424 134.112 43.04 134.432C42.656 134.741 42.464 135.179 42.464 135.744C42.464 136.149 42.576 136.48 42.8 136.736C43.0347 136.992 43.3173 137.189 43.648 137.328C43.9893 137.456 44.464 137.605 45.072 137.776C45.808 137.979 46.4 138.181 46.848 138.384C47.296 138.576 47.68 138.88 48 139.296C48.32 139.701 48.48 140.256 48.48 140.96C48.48 141.504 48.336 142.016 48.048 142.496C47.76 142.976 47.3333 143.365 46.768 143.664C46.2027 143.963 45.536 144.112 44.768 144.112ZM58.6226 139.28C58.6226 139.557 58.6066 139.851 58.5746 140.16H51.5666C51.62 141.024 51.9133 141.701 52.4466 142.192C52.9906 142.672 53.6466 142.912 54.4146 142.912C55.044 142.912 55.5666 142.768 55.9826 142.48C56.4093 142.181 56.708 141.787 56.8786 141.296H58.4466C58.212 142.139 57.7426 142.827 57.0386 143.36C56.3346 143.883 55.46 144.144 54.4146 144.144C53.5826 144.144 52.836 143.957 52.1746 143.584C51.524 143.211 51.012 142.683 50.6386 142C50.2653 141.307 50.0786 140.507 50.0786 139.6C50.0786 138.693 50.26 137.899 50.6226 137.216C50.9853 136.533 51.492 136.011 52.1426 135.648C52.804 135.275 53.5613 135.088 54.4146 135.088C55.2466 135.088 55.9826 135.269 56.6226 135.632C57.2626 135.995 57.7533 136.496 58.0946 137.136C58.4466 137.765 58.6226 138.48 58.6226 139.28ZM57.1186 138.976C57.1186 138.421 56.996 137.947 56.7506 137.552C56.5053 137.147 56.1693 136.843 55.7426 136.64C55.3266 136.427 54.8626 136.32 54.3506 136.32C53.6146 136.32 52.9853 136.555 52.4626 137.024C51.9506 137.493 51.6573 138.144 51.5826 138.976H57.1186ZM60.0005 139.6C60.0005 138.693 60.1818 137.904 60.5445 137.232C60.9072 136.549 61.4085 136.021 62.0485 135.648C62.6992 135.275 63.4405 135.088 64.2725 135.088C65.3498 135.088 66.2352 135.349 66.9285 135.872C67.6325 136.395 68.0965 137.12 68.3205 138.048H66.7525C66.6032 137.515 66.3098 137.093 65.8725 136.784C65.4458 136.475 64.9125 136.32 64.2725 136.32C63.4405 136.32 62.7685 136.608 62.2565 137.184C61.7445 137.749 61.4885 138.555 61.4885 139.6C61.4885 140.656 61.7445 141.472 62.2565 142.048C62.7685 142.624 63.4405 142.912 64.2725 142.912C64.9125 142.912 65.4458 142.763 65.8725 142.464C66.2992 142.165 66.5925 141.739 66.7525 141.184H68.3205C68.0858 142.08 67.6165 142.8 66.9125 143.344C66.2085 143.877 65.3285 144.144 64.2725 144.144C63.4405 144.144 62.6992 143.957 62.0485 143.584C61.4085 143.211 60.9072 142.683 60.5445 142C60.1818 141.317 60.0005 140.517 60.0005 139.6ZM78.0393 135.232V144H76.5833V142.704C76.3059 143.152 75.9166 143.504 75.4153 143.76C74.9246 144.005 74.3806 144.128 73.7833 144.128C73.1006 144.128 72.4873 143.989 71.9433 143.712C71.3993 143.424 70.9673 142.997 70.6473 142.432C70.3379 141.867 70.1833 141.179 70.1833 140.368V135.232H71.6233V140.176C71.6233 141.04 71.8419 141.707 72.2793 142.176C72.7166 142.635 73.3139 142.864 74.0713 142.864C74.8499 142.864 75.4633 142.624 75.9113 142.144C76.3593 141.664 76.5833 140.965 76.5833 140.048V135.232H78.0393ZM81.9536 136.656C82.2096 136.155 82.5723 135.765 83.0416 135.488C83.5216 135.211 84.103 135.072 84.7856 135.072V136.576H84.4016C82.7696 136.576 81.9536 137.461 81.9536 139.232V144H80.4976V135.232H81.9536V136.656ZM87.2184 133.808C86.941 133.808 86.7064 133.712 86.5144 133.52C86.3224 133.328 86.2264 133.093 86.2264 132.816C86.2264 132.539 86.3224 132.304 86.5144 132.112C86.7064 131.92 86.941 131.824 87.2184 131.824C87.485 131.824 87.709 131.92 87.8904 132.112C88.0824 132.304 88.1784 132.539 88.1784 132.816C88.1784 133.093 88.0824 133.328 87.8904 133.52C87.709 133.712 87.485 133.808 87.2184 133.808ZM87.9224 135.232V144H86.4664V135.232H87.9224ZM92.1799 136.432V141.6C92.1799 142.027 92.2705 142.331 92.4519 142.512C92.6332 142.683 92.9479 142.768 93.3959 142.768H94.4679V144H93.1559C92.3452 144 91.7372 143.813 91.3319 143.44C90.9265 143.067 90.7239 142.453 90.7239 141.6V136.432H89.5879V135.232H90.7239V133.024H92.1799V135.232H94.4679V136.432H92.1799ZM103.784 135.232L98.504 148.128H97L98.728 143.904L95.192 135.232H96.808L99.56 142.336L102.28 135.232H103.784ZM118.073 144L116.617 142.528C116.073 143.093 115.492 143.515 114.873 143.792C114.255 144.059 113.556 144.192 112.777 144.192C112.009 144.192 111.327 144.053 110.729 143.776C110.143 143.499 109.684 143.104 109.353 142.592C109.033 142.08 108.873 141.483 108.873 140.8C108.873 140.021 109.092 139.339 109.529 138.752C109.977 138.155 110.633 137.685 111.497 137.344C111.156 136.939 110.911 136.565 110.761 136.224C110.612 135.883 110.537 135.509 110.537 135.104C110.537 134.635 110.655 134.213 110.889 133.84C111.135 133.456 111.481 133.157 111.929 132.944C112.377 132.731 112.895 132.624 113.481 132.624C114.057 132.624 114.559 132.736 114.985 132.96C115.412 133.184 115.732 133.499 115.945 133.904C116.159 134.299 116.255 134.741 116.233 135.232H114.777C114.788 134.795 114.665 134.453 114.409 134.208C114.153 133.952 113.823 133.824 113.417 133.824C112.991 133.824 112.644 133.947 112.377 134.192C112.121 134.427 111.993 134.731 111.993 135.104C111.993 135.424 112.079 135.733 112.249 136.032C112.431 136.331 112.729 136.699 113.145 137.136L116.473 140.48L116.761 140.032L117.849 138.208H119.417L118.105 140.48C117.924 140.8 117.711 141.136 117.465 141.488L119.977 144H118.073ZM112.777 142.944C113.353 142.944 113.871 142.832 114.329 142.608C114.799 142.384 115.241 142.037 115.657 141.568L112.377 138.272C111.012 138.795 110.329 139.621 110.329 140.752C110.329 141.381 110.553 141.904 111.001 142.32C111.46 142.736 112.052 142.944 112.777 142.944ZM131.911 132.848V134.032H127.063V137.792H130.999V138.976H127.063V144H125.607V132.848H131.911ZM134.422 133.808C134.144 133.808 133.91 133.712 133.718 133.52C133.526 133.328 133.43 133.093 133.43 132.816C133.43 132.539 133.526 132.304 133.718 132.112C133.91 131.92 134.144 131.824 134.422 131.824C134.688 131.824 134.912 131.92 135.094 132.112C135.286 132.304 135.382 132.539 135.382 132.816C135.382 133.093 135.286 133.328 135.094 133.52C134.912 133.712 134.688 133.808 134.422 133.808ZM135.126 135.232V144H133.67V135.232H135.126ZM139.063 136.656C139.319 136.155 139.682 135.765 140.151 135.488C140.631 135.211 141.212 135.072 141.895 135.072V136.576H141.511C139.879 136.576 139.063 137.461 139.063 139.232V144H137.607V135.232H139.063V136.656ZM151.576 139.28C151.576 139.557 151.56 139.851 151.528 140.16H144.52C144.573 141.024 144.866 141.701 145.4 142.192C145.944 142.672 146.6 142.912 147.368 142.912C147.997 142.912 148.52 142.768 148.936 142.48C149.362 142.181 149.661 141.787 149.832 141.296H151.4C151.165 142.139 150.696 142.827 149.992 143.36C149.288 143.883 148.413 144.144 147.368 144.144C146.536 144.144 145.789 143.957 145.128 143.584C144.477 143.211 143.965 142.683 143.592 142C143.218 141.307 143.032 140.507 143.032 139.6C143.032 138.693 143.213 137.899 143.576 137.216C143.938 136.533 144.445 136.011 145.096 135.648C145.757 135.275 146.514 135.088 147.368 135.088C148.2 135.088 148.936 135.269 149.576 135.632C150.216 135.995 150.706 136.496 151.048 137.136C151.4 137.765 151.576 138.48 151.576 139.28ZM150.072 138.976C150.072 138.421 149.949 137.947 149.704 137.552C149.458 137.147 149.122 136.843 148.696 136.64C148.28 136.427 147.816 136.32 147.304 136.32C146.568 136.32 145.938 136.555 145.416 137.024C144.904 137.493 144.61 138.144 144.536 138.976H150.072ZM165.178 135.232L162.442 144H160.938L158.826 137.04L156.714 144H155.21L152.458 135.232H153.946L155.962 142.592L158.138 135.232H159.626L161.754 142.608L163.738 135.232H165.178ZM166.079 139.584C166.079 138.688 166.26 137.904 166.623 137.232C166.985 136.549 167.481 136.021 168.111 135.648C168.751 135.275 169.46 135.088 170.239 135.088C171.007 135.088 171.673 135.253 172.239 135.584C172.804 135.915 173.225 136.331 173.503 136.832V135.232H174.975V144H173.503V142.368C173.215 142.88 172.783 143.307 172.207 143.648C171.641 143.979 170.98 144.144 170.223 144.144C169.444 144.144 168.74 143.952 168.111 143.568C167.481 143.184 166.985 142.645 166.623 141.952C166.26 141.259 166.079 140.469 166.079 139.584ZM173.503 139.6C173.503 138.939 173.369 138.363 173.103 137.872C172.836 137.381 172.473 137.008 172.015 136.752C171.567 136.485 171.071 136.352 170.527 136.352C169.983 136.352 169.487 136.48 169.039 136.736C168.591 136.992 168.233 137.365 167.967 137.856C167.7 138.347 167.567 138.923 167.567 139.584C167.567 140.256 167.7 140.843 167.967 141.344C168.233 141.835 168.591 142.213 169.039 142.48C169.487 142.736 169.983 142.864 170.527 142.864C171.071 142.864 171.567 142.736 172.015 142.48C172.473 142.213 172.836 141.835 173.103 141.344C173.369 140.843 173.503 140.261 173.503 139.6ZM178.891 132.16V144H177.435V132.16H178.891ZM182.829 132.16V144H181.373V132.16H182.829Z" fill="#F5F7FA"/>
</g>
<g filter="url(#filter4_d_130_1078)">
<rect x="200" y="116" width="174" height="44" rx="22" fill="white" fill-opacity="0.2" shape-rendering="crispEdges"/>
<rect x="200.5" y="116.5" width="173" height="43" rx="21.5" stroke="white" stroke-opacity="0.2" shape-rendering="crispEdges"/>
<path d="M216.816 138.256C217.221 138.32 217.589 138.485 217.92 138.752C218.261 139.019 218.528 139.349 218.72 139.744C218.923 140.139 219.024 140.56 219.024 141.008C219.024 141.573 218.88 142.085 218.592 142.544C218.304 142.992 217.883 143.349 217.328 143.616C216.784 143.872 216.139 144 215.392 144H211.232V132.848H215.232C215.989 132.848 216.635 132.976 217.168 133.232C217.701 133.477 218.101 133.813 218.368 134.24C218.635 134.667 218.768 135.147 218.768 135.68C218.768 136.341 218.587 136.891 218.224 137.328C217.872 137.755 217.403 138.064 216.816 138.256ZM212.688 137.664H215.136C215.819 137.664 216.347 137.504 216.72 137.184C217.093 136.864 217.28 136.421 217.28 135.856C217.28 135.291 217.093 134.848 216.72 134.528C216.347 134.208 215.808 134.048 215.104 134.048H212.688V137.664ZM215.264 142.8C215.989 142.8 216.555 142.629 216.96 142.288C217.365 141.947 217.568 141.472 217.568 140.864C217.568 140.245 217.355 139.76 216.928 139.408C216.501 139.045 215.931 138.864 215.216 138.864H212.688V142.8H215.264ZM220.501 139.584C220.501 138.688 220.682 137.904 221.045 137.232C221.407 136.549 221.903 136.021 222.533 135.648C223.173 135.275 223.882 135.088 224.661 135.088C225.429 135.088 226.095 135.253 226.661 135.584C227.226 135.915 227.647 136.331 227.925 136.832V135.232H229.397V144H227.925V142.368C227.637 142.88 227.205 143.307 226.629 143.648C226.063 143.979 225.402 144.144 224.645 144.144C223.866 144.144 223.162 143.952 222.533 143.568C221.903 143.184 221.407 142.645 221.045 141.952C220.682 141.259 220.501 140.469 220.501 139.584ZM227.925 139.6C227.925 138.939 227.791 138.363 227.525 137.872C227.258 137.381 226.895 137.008 226.437 136.752C225.989 136.485 225.493 136.352 224.949 136.352C224.405 136.352 223.909 136.48 223.461 136.736C223.013 136.992 222.655 137.365 222.389 137.856C222.122 138.347 221.989 138.923 221.989 139.584C221.989 140.256 222.122 140.843 222.389 141.344C222.655 141.835 223.013 142.213 223.461 142.48C223.909 142.736 224.405 142.864 224.949 142.864C225.493 142.864 225.989 142.736 226.437 142.48C226.895 142.213 227.258 141.835 227.525 141.344C227.791 140.843 227.925 140.261 227.925 139.6ZM231.313 139.6C231.313 138.693 231.494 137.904 231.857 137.232C232.22 136.549 232.721 136.021 233.361 135.648C234.012 135.275 234.753 135.088 235.585 135.088C236.662 135.088 237.548 135.349 238.241 135.872C238.945 136.395 239.409 137.12 239.633 138.048H238.065C237.916 137.515 237.622 137.093 237.185 136.784C236.758 136.475 236.225 136.32 235.585 136.32C234.753 136.32 234.081 136.608 233.569 137.184C233.057 137.749 232.801 138.555 232.801 139.6C232.801 140.656 233.057 141.472 233.569 142.048C234.081 142.624 234.753 142.912 235.585 142.912C236.225 142.912 236.758 142.763 237.185 142.464C237.612 142.165 237.905 141.739 238.065 141.184H239.633C239.398 142.08 238.929 142.8 238.225 143.344C237.521 143.877 236.641 144.144 235.585 144.144C234.753 144.144 234.012 143.957 233.361 143.584C232.721 143.211 232.22 142.683 231.857 142C231.494 141.317 231.313 140.517 231.313 139.6ZM246.472 144L243.032 140.128V144H241.576V132.16H243.032V139.12L246.408 135.232H248.44L244.312 139.6L248.456 144H246.472ZM257.586 135.232V144H256.13V142.704C255.853 143.152 255.463 143.504 254.962 143.76C254.471 144.005 253.927 144.128 253.33 144.128C252.647 144.128 252.034 143.989 251.49 143.712C250.946 143.424 250.514 142.997 250.194 142.432C249.885 141.867 249.73 141.179 249.73 140.368V135.232H251.17V140.176C251.17 141.04 251.389 141.707 251.826 142.176C252.263 142.635 252.861 142.864 253.618 142.864C254.397 142.864 255.01 142.624 255.458 142.144C255.906 141.664 256.13 140.965 256.13 140.048V135.232H257.586ZM261.501 136.848C261.789 136.347 262.215 135.931 262.781 135.6C263.357 135.259 264.023 135.088 264.781 135.088C265.559 135.088 266.263 135.275 266.892 135.648C267.532 136.021 268.034 136.549 268.397 137.232C268.759 137.904 268.941 138.688 268.941 139.584C268.941 140.469 268.759 141.259 268.397 141.952C268.034 142.645 267.532 143.184 266.892 143.568C266.263 143.952 265.559 144.144 264.781 144.144C264.034 144.144 263.373 143.979 262.797 143.648C262.231 143.307 261.799 142.885 261.501 142.384V148.16H260.045V135.232H261.501V136.848ZM267.453 139.584C267.453 138.923 267.319 138.347 267.053 137.856C266.786 137.365 266.423 136.992 265.965 136.736C265.517 136.48 265.021 136.352 264.477 136.352C263.943 136.352 263.447 136.485 262.989 136.752C262.541 137.008 262.178 137.387 261.901 137.888C261.634 138.379 261.501 138.949 261.501 139.6C261.501 140.261 261.634 140.843 261.901 141.344C262.178 141.835 262.541 142.213 262.989 142.48C263.447 142.736 263.943 142.864 264.477 142.864C265.021 142.864 265.517 142.736 265.965 142.48C266.423 142.213 266.786 141.835 267.053 141.344C267.319 140.843 267.453 140.256 267.453 139.584ZM283.683 144L282.227 142.528C281.683 143.093 281.101 143.515 280.483 143.792C279.864 144.059 279.165 144.192 278.387 144.192C277.619 144.192 276.936 144.053 276.339 143.776C275.752 143.499 275.293 143.104 274.963 142.592C274.643 142.08 274.483 141.483 274.483 140.8C274.483 140.021 274.701 139.339 275.139 138.752C275.587 138.155 276.243 137.685 277.107 137.344C276.765 136.939 276.52 136.565 276.371 136.224C276.221 135.883 276.147 135.509 276.147 135.104C276.147 134.635 276.264 134.213 276.499 133.84C276.744 133.456 277.091 133.157 277.539 132.944C277.987 132.731 278.504 132.624 279.091 132.624C279.667 132.624 280.168 132.736 280.595 132.96C281.021 133.184 281.341 133.499 281.555 133.904C281.768 134.299 281.864 134.741 281.843 135.232H280.387C280.397 134.795 280.275 134.453 280.019 134.208C279.763 133.952 279.432 133.824 279.027 133.824C278.6 133.824 278.253 133.947 277.987 134.192C277.731 134.427 277.603 134.731 277.603 135.104C277.603 135.424 277.688 135.733 277.859 136.032C278.04 136.331 278.339 136.699 278.755 137.136L282.083 140.48L282.371 140.032L283.459 138.208H285.027L283.715 140.48C283.533 140.8 283.32 141.136 283.075 141.488L285.587 144H283.683ZM278.387 142.944C278.963 142.944 279.48 142.832 279.939 142.608C280.408 142.384 280.851 142.037 281.267 141.568L277.987 138.272C276.621 138.795 275.939 139.621 275.939 140.752C275.939 141.381 276.163 141.904 276.611 142.32C277.069 142.736 277.661 142.944 278.387 142.944ZM297.088 144L294.432 139.44H292.672V144H291.216V132.848H294.816C295.659 132.848 296.368 132.992 296.944 133.28C297.531 133.568 297.968 133.957 298.256 134.448C298.544 134.939 298.688 135.499 298.688 136.128C298.688 136.896 298.464 137.573 298.016 138.16C297.579 138.747 296.918 139.136 296.032 139.328L298.832 144H297.088ZM292.672 138.272H294.816C295.606 138.272 296.198 138.08 296.592 137.696C296.987 137.301 297.184 136.779 297.184 136.128C297.184 135.467 296.987 134.955 296.592 134.592C296.208 134.229 295.616 134.048 294.816 134.048H292.672V138.272ZM308.951 139.28C308.951 139.557 308.935 139.851 308.903 140.16H301.895C301.948 141.024 302.241 141.701 302.775 142.192C303.319 142.672 303.975 142.912 304.743 142.912C305.372 142.912 305.895 142.768 306.311 142.48C306.737 142.181 307.036 141.787 307.207 141.296H308.775C308.54 142.139 308.071 142.827 307.367 143.36C306.663 143.883 305.788 144.144 304.743 144.144C303.911 144.144 303.164 143.957 302.503 143.584C301.852 143.211 301.34 142.683 300.967 142C300.593 141.307 300.407 140.507 300.407 139.6C300.407 138.693 300.588 137.899 300.951 137.216C301.313 136.533 301.82 136.011 302.471 135.648C303.132 135.275 303.889 135.088 304.743 135.088C305.575 135.088 306.311 135.269 306.951 135.632C307.591 135.995 308.081 136.496 308.423 137.136C308.775 137.765 308.951 138.48 308.951 139.28ZM307.447 138.976C307.447 138.421 307.324 137.947 307.079 137.552C306.833 137.147 306.497 136.843 306.071 136.64C305.655 136.427 305.191 136.32 304.679 136.32C303.943 136.32 303.313 136.555 302.791 137.024C302.279 137.493 301.985 138.144 301.911 138.976H307.447ZM310.329 139.6C310.329 138.693 310.51 137.904 310.873 137.232C311.235 136.549 311.737 136.021 312.377 135.648C313.027 135.275 313.769 135.088 314.601 135.088C315.678 135.088 316.563 135.349 317.257 135.872C317.961 136.395 318.425 137.12 318.649 138.048H317.081C316.931 137.515 316.638 137.093 316.201 136.784C315.774 136.475 315.241 136.32 314.601 136.32C313.769 136.32 313.097 136.608 312.585 137.184C312.073 137.749 311.817 138.555 311.817 139.6C311.817 140.656 312.073 141.472 312.585 142.048C313.097 142.624 313.769 142.912 314.601 142.912C315.241 142.912 315.774 142.763 316.201 142.464C316.627 142.165 316.921 141.739 317.081 141.184H318.649C318.414 142.08 317.945 142.8 317.241 143.344C316.537 143.877 315.657 144.144 314.601 144.144C313.769 144.144 313.027 143.957 312.377 143.584C311.737 143.211 311.235 142.683 310.873 142C310.51 141.317 310.329 140.517 310.329 139.6ZM324.415 144.144C323.594 144.144 322.847 143.957 322.175 143.584C321.514 143.211 320.991 142.683 320.607 142C320.234 141.307 320.047 140.507 320.047 139.6C320.047 138.704 320.239 137.915 320.623 137.232C321.018 136.539 321.551 136.011 322.223 135.648C322.895 135.275 323.647 135.088 324.479 135.088C325.311 135.088 326.063 135.275 326.735 135.648C327.407 136.011 327.935 136.533 328.319 137.216C328.714 137.899 328.911 138.693 328.911 139.6C328.911 140.507 328.709 141.307 328.303 142C327.909 142.683 327.37 143.211 326.687 143.584C326.005 143.957 325.247 144.144 324.415 144.144ZM324.415 142.864C324.938 142.864 325.429 142.741 325.887 142.496C326.346 142.251 326.714 141.883 326.991 141.392C327.279 140.901 327.423 140.304 327.423 139.6C327.423 138.896 327.285 138.299 327.007 137.808C326.73 137.317 326.367 136.955 325.919 136.72C325.471 136.475 324.986 136.352 324.463 136.352C323.93 136.352 323.439 136.475 322.991 136.72C322.554 136.955 322.202 137.317 321.935 137.808C321.669 138.299 321.535 138.896 321.535 139.6C321.535 140.315 321.663 140.917 321.919 141.408C322.186 141.899 322.538 142.267 322.975 142.512C323.413 142.747 323.893 142.864 324.415 142.864ZM334.09 142.656L336.81 135.232H338.362L334.922 144H333.226L329.786 135.232H331.354L334.09 142.656ZM347.795 139.28C347.795 139.557 347.779 139.851 347.747 140.16H340.739C340.792 141.024 341.085 141.701 341.619 142.192C342.163 142.672 342.819 142.912 343.587 142.912C344.216 142.912 344.739 142.768 345.155 142.48C345.581 142.181 345.88 141.787 346.051 141.296H347.619C347.384 142.139 346.915 142.827 346.211 143.36C345.507 143.883 344.632 144.144 343.587 144.144C342.755 144.144 342.008 143.957 341.347 143.584C340.696 143.211 340.184 142.683 339.811 142C339.437 141.307 339.251 140.507 339.251 139.6C339.251 138.693 339.432 137.899 339.795 137.216C340.157 136.533 340.664 136.011 341.315 135.648C341.976 135.275 342.733 135.088 343.587 135.088C344.419 135.088 345.155 135.269 345.795 135.632C346.435 135.995 346.925 136.496 347.267 137.136C347.619 137.765 347.795 138.48 347.795 139.28ZM346.291 138.976C346.291 138.421 346.168 137.947 345.923 137.552C345.677 137.147 345.341 136.843 344.915 136.64C344.499 136.427 344.035 136.32 343.523 136.32C342.787 136.32 342.157 136.555 341.635 137.024C341.123 137.493 340.829 138.144 340.755 138.976H346.291ZM351.172 136.656C351.428 136.155 351.791 135.765 352.26 135.488C352.74 135.211 353.322 135.072 354.004 135.072V136.576H353.62C351.988 136.576 351.172 137.461 351.172 139.232V144H349.716V135.232H351.172V136.656ZM363.237 135.232L357.957 148.128H356.453L358.181 143.904L354.645 135.232H356.261L359.013 142.336L361.733 135.232H363.237Z" fill="#F5F7FA"/>
</g>
<g filter="url(#filter5_d_130_1078)">
<rect x="30" y="180" width="162" height="44" rx="22" fill="white" fill-opacity="0.2" shape-rendering="crispEdges"/>
<rect x="30.5" y="180.5" width="161" height="43" rx="21.5" stroke="white" stroke-opacity="0.2" shape-rendering="crispEdges"/>
<path d="M44.768 208.112C44.032 208.112 43.3707 207.984 42.784 207.728C42.208 207.461 41.7547 207.099 41.424 206.64C41.0933 206.171 40.9227 205.632 40.912 205.024H42.464C42.5173 205.547 42.7307 205.989 43.104 206.352C43.488 206.704 44.0427 206.88 44.768 206.88C45.4613 206.88 46.0053 206.709 46.4 206.368C46.8053 206.016 47.008 205.568 47.008 205.024C47.008 204.597 46.8907 204.251 46.656 203.984C46.4213 203.717 46.128 203.515 45.776 203.376C45.424 203.237 44.9493 203.088 44.352 202.928C43.616 202.736 43.024 202.544 42.576 202.352C42.1387 202.16 41.76 201.861 41.44 201.456C41.1307 201.04 40.976 200.485 40.976 199.792C40.976 199.184 41.1307 198.645 41.44 198.176C41.7493 197.707 42.1813 197.344 42.736 197.088C43.3013 196.832 43.9467 196.704 44.672 196.704C45.7173 196.704 46.5707 196.965 47.232 197.488C47.904 198.011 48.2827 198.704 48.368 199.568H46.768C46.7147 199.141 46.4907 198.768 46.096 198.448C45.7013 198.117 45.1787 197.952 44.528 197.952C43.92 197.952 43.424 198.112 43.04 198.432C42.656 198.741 42.464 199.179 42.464 199.744C42.464 200.149 42.576 200.48 42.8 200.736C43.0347 200.992 43.3173 201.189 43.648 201.328C43.9893 201.456 44.464 201.605 45.072 201.776C45.808 201.979 46.4 202.181 46.848 202.384C47.296 202.576 47.68 202.88 48 203.296C48.32 203.701 48.48 204.256 48.48 204.96C48.48 205.504 48.336 206.016 48.048 206.496C47.76 206.976 47.3333 207.365 46.768 207.664C46.2027 207.963 45.536 208.112 44.768 208.112ZM58.6226 203.28C58.6226 203.557 58.6066 203.851 58.5746 204.16H51.5666C51.62 205.024 51.9133 205.701 52.4466 206.192C52.9906 206.672 53.6466 206.912 54.4146 206.912C55.044 206.912 55.5666 206.768 55.9826 206.48C56.4093 206.181 56.708 205.787 56.8786 205.296H58.4466C58.212 206.139 57.7426 206.827 57.0386 207.36C56.3346 207.883 55.46 208.144 54.4146 208.144C53.5826 208.144 52.836 207.957 52.1746 207.584C51.524 207.211 51.012 206.683 50.6386 206C50.2653 205.307 50.0786 204.507 50.0786 203.6C50.0786 202.693 50.26 201.899 50.6226 201.216C50.9853 200.533 51.492 200.011 52.1426 199.648C52.804 199.275 53.5613 199.088 54.4146 199.088C55.2466 199.088 55.9826 199.269 56.6226 199.632C57.2626 199.995 57.7533 200.496 58.0946 201.136C58.4466 201.765 58.6226 202.48 58.6226 203.28ZM57.1186 202.976C57.1186 202.421 56.996 201.947 56.7506 201.552C56.5053 201.147 56.1693 200.843 55.7426 200.64C55.3266 200.427 54.8626 200.32 54.3506 200.32C53.6146 200.32 52.9853 200.555 52.4626 201.024C51.9506 201.493 51.6573 202.144 51.5826 202.976H57.1186ZM62.0005 200.656C62.2565 200.155 62.6192 199.765 63.0885 199.488C63.5685 199.211 64.1498 199.072 64.8325 199.072V200.576H64.4485C62.8165 200.576 62.0005 201.461 62.0005 203.232V208H60.5445V199.232H62.0005V200.656ZM69.7773 206.656L72.4973 199.232H74.0493L70.6093 208H68.9133L65.4733 199.232H67.0413L69.7773 206.656ZM83.482 203.28C83.482 203.557 83.466 203.851 83.434 204.16H76.426C76.4793 205.024 76.7727 205.701 77.306 206.192C77.85 206.672 78.506 206.912 79.274 206.912C79.9033 206.912 80.426 206.768 80.842 206.48C81.2687 206.181 81.5673 205.787 81.738 205.296H83.306C83.0713 206.139 82.602 206.827 81.898 207.36C81.194 207.883 80.3193 208.144 79.274 208.144C78.442 208.144 77.6953 207.957 77.034 207.584C76.3833 207.211 75.8713 206.683 75.498 206C75.1247 205.307 74.938 204.507 74.938 203.6C74.938 202.693 75.1193 201.899 75.482 201.216C75.8447 200.533 76.3513 200.011 77.002 199.648C77.6633 199.275 78.4207 199.088 79.274 199.088C80.106 199.088 80.842 199.269 81.482 199.632C82.122 199.995 82.6127 200.496 82.954 201.136C83.306 201.765 83.482 202.48 83.482 203.28ZM81.978 202.976C81.978 202.421 81.8553 201.947 81.61 201.552C81.3647 201.147 81.0287 200.843 80.602 200.64C80.186 200.427 79.722 200.32 79.21 200.32C78.474 200.32 77.8447 200.555 77.322 201.024C76.81 201.493 76.5167 202.144 76.442 202.976H81.978ZM86.8599 200.656C87.1159 200.155 87.4785 199.765 87.9479 199.488C88.4279 199.211 89.0092 199.072 89.6919 199.072V200.576H89.3079C87.6759 200.576 86.8599 201.461 86.8599 203.232V208H85.4039V199.232H86.8599V200.656ZM94.4766 208.144C93.8046 208.144 93.202 208.032 92.6686 207.808C92.1353 207.573 91.714 207.253 91.4046 206.848C91.0953 206.432 90.9246 205.957 90.8926 205.424H92.3966C92.4393 205.861 92.642 206.219 93.0046 206.496C93.378 206.773 93.8633 206.912 94.4606 206.912C95.0153 206.912 95.4526 206.789 95.7726 206.544C96.0926 206.299 96.2526 205.989 96.2526 205.616C96.2526 205.232 96.082 204.949 95.7406 204.768C95.3993 204.576 94.8713 204.389 94.1566 204.208C93.506 204.037 92.9726 203.867 92.5566 203.696C92.1513 203.515 91.7993 203.253 91.5006 202.912C91.2126 202.56 91.0686 202.101 91.0686 201.536C91.0686 201.088 91.202 200.677 91.4686 200.304C91.7353 199.931 92.114 199.637 92.6046 199.424C93.0953 199.2 93.6553 199.088 94.2846 199.088C95.2553 199.088 96.0393 199.333 96.6366 199.824C97.234 200.315 97.554 200.987 97.5966 201.84H96.1406C96.1086 201.381 95.922 201.013 95.5806 200.736C95.25 200.459 94.802 200.32 94.2366 200.32C93.714 200.32 93.298 200.432 92.9886 200.656C92.6793 200.88 92.5246 201.173 92.5246 201.536C92.5246 201.824 92.6153 202.064 92.7966 202.256C92.9886 202.437 93.2233 202.587 93.5006 202.704C93.7886 202.811 94.1833 202.933 94.6846 203.072C95.314 203.243 95.826 203.413 96.2206 203.584C96.6153 203.744 96.9513 203.989 97.2286 204.32C97.5166 204.651 97.666 205.083 97.6766 205.616C97.6766 206.096 97.5433 206.528 97.2766 206.912C97.01 207.296 96.6313 207.6 96.1406 207.824C95.6606 208.037 95.106 208.144 94.4766 208.144ZM112.558 208L111.102 206.528C110.558 207.093 109.976 207.515 109.358 207.792C108.739 208.059 108.04 208.192 107.262 208.192C106.494 208.192 105.811 208.053 105.214 207.776C104.627 207.499 104.168 207.104 103.838 206.592C103.518 206.08 103.358 205.483 103.358 204.8C103.358 204.021 103.576 203.339 104.014 202.752C104.462 202.155 105.118 201.685 105.982 201.344C105.64 200.939 105.395 200.565 105.246 200.224C105.096 199.883 105.022 199.509 105.022 199.104C105.022 198.635 105.139 198.213 105.374 197.84C105.619 197.456 105.966 197.157 106.414 196.944C106.862 196.731 107.379 196.624 107.966 196.624C108.542 196.624 109.043 196.736 109.47 196.96C109.896 197.184 110.216 197.499 110.43 197.904C110.643 198.299 110.739 198.741 110.718 199.232H109.262C109.272 198.795 109.15 198.453 108.894 198.208C108.638 197.952 108.307 197.824 107.902 197.824C107.475 197.824 107.128 197.947 106.862 198.192C106.606 198.427 106.478 198.731 106.478 199.104C106.478 199.424 106.563 199.733 106.734 200.032C106.915 200.331 107.214 200.699 107.63 201.136L110.958 204.48L111.246 204.032L112.334 202.208H113.902L112.59 204.48C112.408 204.8 112.195 205.136 111.95 205.488L114.462 208H112.558ZM107.262 206.944C107.838 206.944 108.355 206.832 108.814 206.608C109.283 206.384 109.726 206.037 110.142 205.568L106.862 202.272C105.496 202.795 104.814 203.621 104.814 204.752C104.814 205.381 105.038 205.904 105.486 206.32C105.944 206.736 106.536 206.944 107.262 206.944ZM123.627 208.112C122.891 208.112 122.23 207.984 121.643 207.728C121.067 207.461 120.614 207.099 120.283 206.64C119.953 206.171 119.782 205.632 119.771 205.024H121.323C121.377 205.547 121.59 205.989 121.963 206.352C122.347 206.704 122.902 206.88 123.627 206.88C124.321 206.88 124.865 206.709 125.259 206.368C125.665 206.016 125.867 205.568 125.867 205.024C125.867 204.597 125.75 204.251 125.515 203.984C125.281 203.717 124.987 203.515 124.635 203.376C124.283 203.237 123.809 203.088 123.211 202.928C122.475 202.736 121.883 202.544 121.435 202.352C120.998 202.16 120.619 201.861 120.299 201.456C119.99 201.04 119.835 200.485 119.835 199.792C119.835 199.184 119.99 198.645 120.299 198.176C120.609 197.707 121.041 197.344 121.595 197.088C122.161 196.832 122.806 196.704 123.531 196.704C124.577 196.704 125.43 196.965 126.091 197.488C126.763 198.011 127.142 198.704 127.227 199.568H125.627C125.574 199.141 125.35 198.768 124.955 198.448C124.561 198.117 124.038 197.952 123.387 197.952C122.779 197.952 122.283 198.112 121.899 198.432C121.515 198.741 121.323 199.179 121.323 199.744C121.323 200.149 121.435 200.48 121.659 200.736C121.894 200.992 122.177 201.189 122.507 201.328C122.849 201.456 123.323 201.605 123.931 201.776C124.667 201.979 125.259 202.181 125.707 202.384C126.155 202.576 126.539 202.88 126.859 203.296C127.179 203.701 127.339 204.256 127.339 204.96C127.339 205.504 127.195 206.016 126.907 206.496C126.619 206.976 126.193 207.365 125.627 207.664C125.062 207.963 124.395 208.112 123.627 208.112ZM131.258 200.432V205.6C131.258 206.027 131.349 206.331 131.53 206.512C131.711 206.683 132.026 206.768 132.474 206.768H133.546V208H132.234C131.423 208 130.815 207.813 130.41 207.44C130.005 207.067 129.802 206.453 129.802 205.6V200.432H128.666V199.232H129.802V197.024H131.258V199.232H133.546V200.432H131.258ZM139.134 208.144C138.313 208.144 137.566 207.957 136.894 207.584C136.233 207.211 135.71 206.683 135.326 206C134.953 205.307 134.766 204.507 134.766 203.6C134.766 202.704 134.958 201.915 135.342 201.232C135.737 200.539 136.27 200.011 136.942 199.648C137.614 199.275 138.366 199.088 139.198 199.088C140.03 199.088 140.782 199.275 141.454 199.648C142.126 200.011 142.654 200.533 143.038 201.216C143.433 201.899 143.63 202.693 143.63 203.6C143.63 204.507 143.427 205.307 143.022 206C142.627 206.683 142.089 207.211 141.406 207.584C140.723 207.957 139.966 208.144 139.134 208.144ZM139.134 206.864C139.657 206.864 140.147 206.741 140.606 206.496C141.065 206.251 141.433 205.883 141.71 205.392C141.998 204.901 142.142 204.304 142.142 203.6C142.142 202.896 142.003 202.299 141.726 201.808C141.449 201.317 141.086 200.955 140.638 200.72C140.19 200.475 139.705 200.352 139.182 200.352C138.649 200.352 138.158 200.475 137.71 200.72C137.273 200.955 136.921 201.317 136.654 201.808C136.387 202.299 136.254 202.896 136.254 203.6C136.254 204.315 136.382 204.917 136.638 205.408C136.905 205.899 137.257 206.267 137.694 206.512C138.131 206.747 138.611 206.864 139.134 206.864ZM147.001 200.656C147.257 200.155 147.619 199.765 148.089 199.488C148.569 199.211 149.15 199.072 149.833 199.072V200.576H149.449C147.817 200.576 147.001 201.461 147.001 203.232V208H145.545V199.232H147.001V200.656ZM150.969 203.584C150.969 202.688 151.151 201.904 151.513 201.232C151.876 200.549 152.372 200.021 153.001 199.648C153.641 199.275 154.351 199.088 155.129 199.088C155.897 199.088 156.564 199.253 157.129 199.584C157.695 199.915 158.116 200.331 158.393 200.832V199.232H159.865V208H158.393V206.368C158.105 206.88 157.673 207.307 157.097 207.648C156.532 207.979 155.871 208.144 155.113 208.144C154.335 208.144 153.631 207.952 153.001 207.568C152.372 207.184 151.876 206.645 151.513 205.952C151.151 205.259 150.969 204.469 150.969 203.584ZM158.393 203.6C158.393 202.939 158.26 202.363 157.993 201.872C157.727 201.381 157.364 201.008 156.905 200.752C156.457 200.485 155.961 200.352 155.417 200.352C154.873 200.352 154.377 200.48 153.929 200.736C153.481 200.992 153.124 201.365 152.857 201.856C152.591 202.347 152.457 202.923 152.457 203.584C152.457 204.256 152.591 204.843 152.857 205.344C153.124 205.835 153.481 206.213 153.929 206.48C154.377 206.736 154.873 206.864 155.417 206.864C155.961 206.864 156.457 206.736 156.905 206.48C157.364 206.213 157.727 205.835 157.993 205.344C158.26 204.843 158.393 204.261 158.393 203.6ZM165.942 199.088C166.699 199.088 167.36 199.253 167.926 199.584C168.502 199.915 168.928 200.331 169.206 200.832V199.232H170.678V208.192C170.678 208.992 170.507 209.701 170.166 210.32C169.824 210.949 169.334 211.44 168.694 211.792C168.064 212.144 167.328 212.32 166.486 212.32C165.334 212.32 164.374 212.048 163.606 211.504C162.838 210.96 162.384 210.219 162.246 209.28H163.686C163.846 209.813 164.176 210.24 164.678 210.56C165.179 210.891 165.782 211.056 166.486 211.056C167.286 211.056 167.936 210.805 168.438 210.304C168.95 209.803 169.206 209.099 169.206 208.192V206.352C168.918 206.864 168.491 207.291 167.926 207.632C167.36 207.973 166.699 208.144 165.942 208.144C165.163 208.144 164.454 207.952 163.814 207.568C163.184 207.184 162.688 206.645 162.326 205.952C161.963 205.259 161.782 204.469 161.782 203.584C161.782 202.688 161.963 201.904 162.326 201.232C162.688 200.549 163.184 200.021 163.814 199.648C164.454 199.275 165.163 199.088 165.942 199.088ZM169.206 203.6C169.206 202.939 169.072 202.363 168.806 201.872C168.539 201.381 168.176 201.008 167.718 200.752C167.27 200.485 166.774 200.352 166.23 200.352C165.686 200.352 165.19 200.48 164.742 200.736C164.294 200.992 163.936 201.365 163.67 201.856C163.403 202.347 163.27 202.923 163.27 203.584C163.27 204.256 163.403 204.843 163.67 205.344C163.936 205.835 164.294 206.213 164.742 206.48C165.19 206.736 165.686 206.864 166.23 206.864C166.774 206.864 167.27 206.736 167.718 206.48C168.176 206.213 168.539 205.835 168.806 205.344C169.072 204.843 169.206 204.261 169.206 203.6ZM181.138 203.28C181.138 203.557 181.122 203.851 181.09 204.16H174.082C174.136 205.024 174.429 205.701 174.962 206.192C175.506 206.672 176.162 206.912 176.93 206.912C177.56 206.912 178.082 206.768 178.498 206.48C178.925 206.181 179.224 205.787 179.394 205.296H180.962C180.728 206.139 180.258 206.827 179.554 207.36C178.85 207.883 177.976 208.144 176.93 208.144C176.098 208.144 175.352 207.957 174.69 207.584C174.04 207.211 173.528 206.683 173.154 206C172.781 205.307 172.594 204.507 172.594 203.6C172.594 202.693 172.776 201.899 173.138 201.216C173.501 200.533 174.008 200.011 174.658 199.648C175.32 199.275 176.077 199.088 176.93 199.088C177.762 199.088 178.498 199.269 179.138 199.632C179.778 199.995 180.269 200.496 180.61 201.136C180.962 201.765 181.138 202.48 181.138 203.28ZM179.634 202.976C179.634 202.421 179.512 201.947 179.266 201.552C179.021 201.147 178.685 200.843 178.258 200.64C177.842 200.427 177.378 200.32 176.866 200.32C176.13 200.32 175.501 200.555 174.978 201.024C174.466 201.493 174.173 202.144 174.098 202.976H179.634Z" fill="#F5F7FA"/>
</g>
<g filter="url(#filter6_d_130_1078)">
<rect x="197" y="180" width="186" height="44" rx="22" fill="white" fill-opacity="0.2" shape-rendering="crispEdges"/>
<rect x="197.5" y="180.5" width="185" height="43" rx="21.5" stroke="white" stroke-opacity="0.2" shape-rendering="crispEdges"/>
<path d="M223.688 202.416C223.688 201.328 223.933 200.352 224.424 199.488C224.915 198.613 225.581 197.931 226.424 197.44C227.277 196.949 228.221 196.704 229.256 196.704C230.472 196.704 231.533 196.997 232.44 197.584C233.347 198.171 234.008 199.003 234.424 200.08H232.68C232.371 199.408 231.923 198.891 231.336 198.528C230.76 198.165 230.067 197.984 229.256 197.984C228.477 197.984 227.779 198.165 227.16 198.528C226.541 198.891 226.056 199.408 225.704 200.08C225.352 200.741 225.176 201.52 225.176 202.416C225.176 203.301 225.352 204.08 225.704 204.752C226.056 205.413 226.541 205.925 227.16 206.288C227.779 206.651 228.477 206.832 229.256 206.832C230.067 206.832 230.76 206.656 231.336 206.304C231.923 205.941 232.371 205.424 232.68 204.752H234.424C234.008 205.819 233.347 206.645 232.44 207.232C231.533 207.808 230.472 208.096 229.256 208.096C228.221 208.096 227.277 207.856 226.424 207.376C225.581 206.885 224.915 206.208 224.424 205.344C223.933 204.48 223.688 203.504 223.688 202.416ZM238.047 196.16V208H236.591V196.16H238.047ZM244.353 208.144C243.532 208.144 242.785 207.957 242.113 207.584C241.452 207.211 240.929 206.683 240.545 206C240.172 205.307 239.985 204.507 239.985 203.6C239.985 202.704 240.177 201.915 240.561 201.232C240.956 200.539 241.489 200.011 242.161 199.648C242.833 199.275 243.585 199.088 244.417 199.088C245.249 199.088 246.001 199.275 246.673 199.648C247.345 200.011 247.873 200.533 248.257 201.216C248.652 201.899 248.849 202.693 248.849 203.6C248.849 204.507 248.646 205.307 248.241 206C247.846 206.683 247.308 207.211 246.625 207.584C245.942 207.957 245.185 208.144 244.353 208.144ZM244.353 206.864C244.876 206.864 245.366 206.741 245.825 206.496C246.284 206.251 246.652 205.883 246.929 205.392C247.217 204.901 247.361 204.304 247.361 203.6C247.361 202.896 247.222 202.299 246.945 201.808C246.668 201.317 246.305 200.955 245.857 200.72C245.409 200.475 244.924 200.352 244.401 200.352C243.868 200.352 243.377 200.475 242.929 200.72C242.492 200.955 242.14 201.317 241.873 201.808C241.606 202.299 241.473 202.896 241.473 203.6C241.473 204.315 241.601 204.917 241.857 205.408C242.124 205.899 242.476 206.267 242.913 206.512C243.35 206.747 243.83 206.864 244.353 206.864ZM258.539 199.232V208H257.083V206.704C256.806 207.152 256.417 207.504 255.915 207.76C255.425 208.005 254.881 208.128 254.283 208.128C253.601 208.128 252.987 207.989 252.443 207.712C251.899 207.424 251.467 206.997 251.147 206.432C250.838 205.867 250.683 205.179 250.683 204.368V199.232H252.123V204.176C252.123 205.04 252.342 205.707 252.779 206.176C253.217 206.635 253.814 206.864 254.571 206.864C255.35 206.864 255.963 206.624 256.411 206.144C256.859 205.664 257.083 204.965 257.083 204.048V199.232H258.539ZM260.454 203.584C260.454 202.688 260.635 201.904 260.998 201.232C261.36 200.549 261.856 200.021 262.486 199.648C263.126 199.275 263.84 199.088 264.63 199.088C265.312 199.088 265.947 199.248 266.534 199.568C267.12 199.877 267.568 200.288 267.878 200.8V196.16H269.35V208H267.878V206.352C267.59 206.875 267.163 207.307 266.598 207.648C266.032 207.979 265.371 208.144 264.614 208.144C263.835 208.144 263.126 207.952 262.486 207.568C261.856 207.184 261.36 206.645 260.998 205.952C260.635 205.259 260.454 204.469 260.454 203.584ZM267.878 203.6C267.878 202.939 267.744 202.363 267.478 201.872C267.211 201.381 266.848 201.008 266.39 200.752C265.942 200.485 265.446 200.352 264.902 200.352C264.358 200.352 263.862 200.48 263.414 200.736C262.966 200.992 262.608 201.365 262.342 201.856C262.075 202.347 261.942 202.923 261.942 203.584C261.942 204.256 262.075 204.843 262.342 205.344C262.608 205.835 262.966 206.213 263.414 206.48C263.862 206.736 264.358 206.864 264.902 206.864C265.446 206.864 265.942 206.736 266.39 206.48C266.848 206.213 267.211 205.835 267.478 205.344C267.744 204.843 267.878 204.261 267.878 203.6ZM284.636 208L283.18 206.528C282.636 207.093 282.054 207.515 281.436 207.792C280.817 208.059 280.118 208.192 279.34 208.192C278.572 208.192 277.889 208.053 277.292 207.776C276.705 207.499 276.246 207.104 275.916 206.592C275.596 206.08 275.436 205.483 275.436 204.8C275.436 204.021 275.654 203.339 276.092 202.752C276.54 202.155 277.196 201.685 278.06 201.344C277.718 200.939 277.473 200.565 277.324 200.224C277.174 199.883 277.1 199.509 277.1 199.104C277.1 198.635 277.217 198.213 277.452 197.84C277.697 197.456 278.044 197.157 278.492 196.944C278.94 196.731 279.457 196.624 280.044 196.624C280.62 196.624 281.121 196.736 281.548 196.96C281.974 197.184 282.294 197.499 282.508 197.904C282.721 198.299 282.817 198.741 282.796 199.232H281.34C281.35 198.795 281.228 198.453 280.972 198.208C280.716 197.952 280.385 197.824 279.98 197.824C279.553 197.824 279.206 197.947 278.94 198.192C278.684 198.427 278.556 198.731 278.556 199.104C278.556 199.424 278.641 199.733 278.812 200.032C278.993 200.331 279.292 200.699 279.708 201.136L283.036 204.48L283.324 204.032L284.412 202.208H285.98L284.668 204.48C284.486 204.8 284.273 205.136 284.028 205.488L286.54 208H284.636ZM279.34 206.944C279.916 206.944 280.433 206.832 280.892 206.608C281.361 206.384 281.804 206.037 282.22 205.568L278.94 202.272C277.574 202.795 276.892 203.621 276.892 204.752C276.892 205.381 277.116 205.904 277.564 206.32C278.022 206.736 278.614 206.944 279.34 206.944ZM306.186 196.848L302.954 208H301.322L298.73 199.024L296.042 208L294.426 208.016L291.306 196.848H292.858L295.29 206.304L297.978 196.848H299.61L302.17 206.272L304.618 196.848H306.186ZM308.531 197.808C308.254 197.808 308.019 197.712 307.827 197.52C307.635 197.328 307.539 197.093 307.539 196.816C307.539 196.539 307.635 196.304 307.827 196.112C308.019 195.92 308.254 195.824 308.531 195.824C308.798 195.824 309.022 195.92 309.203 196.112C309.395 196.304 309.491 196.539 309.491 196.816C309.491 197.093 309.395 197.328 309.203 197.52C309.022 197.712 308.798 197.808 308.531 197.808ZM309.235 199.232V208H307.779V199.232H309.235ZM313.172 200.656C313.428 200.155 313.791 199.765 314.26 199.488C314.74 199.211 315.322 199.072 316.004 199.072V200.576H315.62C313.988 200.576 313.172 201.461 313.172 203.232V208H311.716V199.232H313.172V200.656ZM325.685 203.28C325.685 203.557 325.669 203.851 325.637 204.16H318.629C318.682 205.024 318.976 205.701 319.509 206.192C320.053 206.672 320.709 206.912 321.477 206.912C322.106 206.912 322.629 206.768 323.045 206.48C323.472 206.181 323.77 205.787 323.941 205.296H325.509C325.274 206.139 324.805 206.827 324.101 207.36C323.397 207.883 322.522 208.144 321.477 208.144C320.645 208.144 319.898 207.957 319.237 207.584C318.586 207.211 318.074 206.683 317.701 206C317.328 205.307 317.141 204.507 317.141 203.6C317.141 202.693 317.322 201.899 317.685 201.216C318.048 200.533 318.554 200.011 319.205 199.648C319.866 199.275 320.624 199.088 321.477 199.088C322.309 199.088 323.045 199.269 323.685 199.632C324.325 199.995 324.816 200.496 325.157 201.136C325.509 201.765 325.685 202.48 325.685 203.28ZM324.181 202.976C324.181 202.421 324.058 201.947 323.813 201.552C323.568 201.147 323.232 200.843 322.805 200.64C322.389 200.427 321.925 200.32 321.413 200.32C320.677 200.32 320.048 200.555 319.525 201.024C319.013 201.493 318.72 202.144 318.645 202.976H324.181ZM329.063 196.16V208H327.607V196.16H329.063ZM339.545 203.28C339.545 203.557 339.529 203.851 339.497 204.16H332.489C332.542 205.024 332.835 205.701 333.369 206.192C333.913 206.672 334.569 206.912 335.337 206.912C335.966 206.912 336.489 206.768 336.905 206.48C337.331 206.181 337.63 205.787 337.801 205.296H339.369C339.134 206.139 338.665 206.827 337.961 207.36C337.257 207.883 336.382 208.144 335.337 208.144C334.505 208.144 333.758 207.957 333.097 207.584C332.446 207.211 331.934 206.683 331.561 206C331.187 205.307 331.001 204.507 331.001 203.6C331.001 202.693 331.182 201.899 331.545 201.216C331.907 200.533 332.414 200.011 333.065 199.648C333.726 199.275 334.483 199.088 335.337 199.088C336.169 199.088 336.905 199.269 337.545 199.632C338.185 199.995 338.675 200.496 339.017 201.136C339.369 201.765 339.545 202.48 339.545 203.28ZM338.041 202.976C338.041 202.421 337.918 201.947 337.673 201.552C337.427 201.147 337.091 200.843 336.665 200.64C336.249 200.427 335.785 200.32 335.273 200.32C334.537 200.32 333.907 200.555 333.385 201.024C332.873 201.493 332.579 202.144 332.505 202.976H338.041ZM344.57 208.144C343.898 208.144 343.296 208.032 342.762 207.808C342.229 207.573 341.808 207.253 341.498 206.848C341.189 206.432 341.018 205.957 340.986 205.424H342.49C342.533 205.861 342.736 206.219 343.098 206.496C343.472 206.773 343.957 206.912 344.554 206.912C345.109 206.912 345.546 206.789 345.866 206.544C346.186 206.299 346.346 205.989 346.346 205.616C346.346 205.232 346.176 204.949 345.834 204.768C345.493 204.576 344.965 204.389 344.25 204.208C343.6 204.037 343.066 203.867 342.65 203.696C342.245 203.515 341.893 203.253 341.594 202.912C341.306 202.56 341.162 202.101 341.162 201.536C341.162 201.088 341.296 200.677 341.562 200.304C341.829 199.931 342.208 199.637 342.698 199.424C343.189 199.2 343.749 199.088 344.378 199.088C345.349 199.088 346.133 199.333 346.73 199.824C347.328 200.315 347.648 200.987 347.69 201.84H346.234C346.202 201.381 346.016 201.013 345.674 200.736C345.344 200.459 344.896 200.32 344.33 200.32C343.808 200.32 343.392 200.432 343.082 200.656C342.773 200.88 342.618 201.173 342.618 201.536C342.618 201.824 342.709 202.064 342.89 202.256C343.082 202.437 343.317 202.587 343.594 202.704C343.882 202.811 344.277 202.933 344.778 203.072C345.408 203.243 345.92 203.413 346.314 203.584C346.709 203.744 347.045 203.989 347.322 204.32C347.61 204.651 347.76 205.083 347.77 205.616C347.77 206.096 347.637 206.528 347.37 206.912C347.104 207.296 346.725 207.6 346.234 207.824C345.754 208.037 345.2 208.144 344.57 208.144ZM352.93 208.144C352.258 208.144 351.655 208.032 351.122 207.808C350.588 207.573 350.167 207.253 349.858 206.848C349.548 206.432 349.378 205.957 349.346 205.424H350.85C350.892 205.861 351.095 206.219 351.458 206.496C351.831 206.773 352.316 206.912 352.914 206.912C353.468 206.912 353.906 206.789 354.226 206.544C354.546 206.299 354.706 205.989 354.706 205.616C354.706 205.232 354.535 204.949 354.194 204.768C353.852 204.576 353.324 204.389 352.61 204.208C351.959 204.037 351.426 203.867 351.01 203.696C350.604 203.515 350.252 203.253 349.954 202.912C349.666 202.56 349.522 202.101 349.522 201.536C349.522 201.088 349.655 200.677 349.922 200.304C350.188 199.931 350.567 199.637 351.058 199.424C351.548 199.2 352.108 199.088 352.738 199.088C353.708 199.088 354.492 199.333 355.09 199.824C355.687 200.315 356.007 200.987 356.05 201.84H354.594C354.562 201.381 354.375 201.013 354.034 200.736C353.703 200.459 353.255 200.32 352.69 200.32C352.167 200.32 351.751 200.432 351.442 200.656C351.132 200.88 350.978 201.173 350.978 201.536C350.978 201.824 351.068 202.064 351.25 202.256C351.442 202.437 351.676 202.587 351.954 202.704C352.242 202.811 352.636 202.933 353.138 203.072C353.767 203.243 354.279 203.413 354.674 203.584C355.068 203.744 355.404 203.989 355.682 204.32C355.97 204.651 356.119 205.083 356.13 205.616C356.13 206.096 355.996 206.528 355.73 206.912C355.463 207.296 355.084 207.6 354.594 207.824C354.114 208.037 353.559 208.144 352.93 208.144Z" fill="#F5F7FA"/>
</g>
<g filter="url(#filter7_d_130_1078)">
<rect x="230" y="244" width="150" height="44" rx="22" fill="white" fill-opacity="0.2" shape-rendering="crispEdges"/>
<rect x="230.5" y="244.5" width="149" height="43" rx="21.5" stroke="white" stroke-opacity="0.2" shape-rendering="crispEdges"/>
<path d="M247.104 272L244.448 267.44H242.688V272H241.232V260.848H244.832C245.675 260.848 246.384 260.992 246.96 261.28C247.547 261.568 247.984 261.957 248.272 262.448C248.56 262.939 248.704 263.499 248.704 264.128C248.704 264.896 248.48 265.573 248.032 266.16C247.595 266.747 246.933 267.136 246.048 267.328L248.848 272H247.104ZM242.688 266.272H244.832C245.621 266.272 246.213 266.08 246.608 265.696C247.003 265.301 247.2 264.779 247.2 264.128C247.2 263.467 247.003 262.955 246.608 262.592C246.224 262.229 245.632 262.048 244.832 262.048H242.688V266.272ZM258.966 267.28C258.966 267.557 258.95 267.851 258.918 268.16H251.91C251.964 269.024 252.257 269.701 252.79 270.192C253.334 270.672 253.99 270.912 254.758 270.912C255.388 270.912 255.91 270.768 256.326 270.48C256.753 270.181 257.052 269.787 257.222 269.296H258.79C258.556 270.139 258.086 270.827 257.382 271.36C256.678 271.883 255.804 272.144 254.758 272.144C253.926 272.144 253.18 271.957 252.518 271.584C251.868 271.211 251.356 270.683 250.982 270C250.609 269.307 250.422 268.507 250.422 267.6C250.422 266.693 250.604 265.899 250.966 265.216C251.329 264.533 251.836 264.011 252.486 263.648C253.148 263.275 253.905 263.088 254.758 263.088C255.59 263.088 256.326 263.269 256.966 263.632C257.606 263.995 258.097 264.496 258.438 265.136C258.79 265.765 258.966 266.48 258.966 267.28ZM257.462 266.976C257.462 266.421 257.34 265.947 257.094 265.552C256.849 265.147 256.513 264.843 256.086 264.64C255.67 264.427 255.206 264.32 254.694 264.32C253.958 264.32 253.329 264.555 252.806 265.024C252.294 265.493 252.001 266.144 251.926 266.976H257.462ZM271.432 263.072C272.115 263.072 272.723 263.216 273.256 263.504C273.79 263.781 274.211 264.203 274.52 264.768C274.83 265.333 274.984 266.021 274.984 266.832V272H273.544V267.04C273.544 266.165 273.326 265.499 272.888 265.04C272.462 264.571 271.88 264.336 271.144 264.336C270.387 264.336 269.784 264.581 269.336 265.072C268.888 265.552 268.664 266.251 268.664 267.168V272H267.224V267.04C267.224 266.165 267.006 265.499 266.568 265.04C266.142 264.571 265.56 264.336 264.824 264.336C264.067 264.336 263.464 264.581 263.016 265.072C262.568 265.552 262.344 266.251 262.344 267.168V272H260.888V263.232H262.344V264.496C262.632 264.037 263.016 263.685 263.496 263.44C263.987 263.195 264.526 263.072 265.112 263.072C265.848 263.072 266.499 263.237 267.064 263.568C267.63 263.899 268.051 264.384 268.328 265.024C268.574 264.405 268.979 263.925 269.544 263.584C270.11 263.243 270.739 263.072 271.432 263.072ZM281.197 272.144C280.375 272.144 279.629 271.957 278.957 271.584C278.295 271.211 277.773 270.683 277.389 270C277.015 269.307 276.829 268.507 276.829 267.6C276.829 266.704 277.021 265.915 277.405 265.232C277.799 264.539 278.333 264.011 279.005 263.648C279.677 263.275 280.429 263.088 281.261 263.088C282.093 263.088 282.845 263.275 283.517 263.648C284.189 264.011 284.717 264.533 285.101 265.216C285.495 265.899 285.693 266.693 285.693 267.6C285.693 268.507 285.49 269.307 285.085 270C284.69 270.683 284.151 271.211 283.469 271.584C282.786 271.957 282.029 272.144 281.197 272.144ZM281.197 270.864C281.719 270.864 282.21 270.741 282.669 270.496C283.127 270.251 283.495 269.883 283.773 269.392C284.061 268.901 284.205 268.304 284.205 267.6C284.205 266.896 284.066 266.299 283.789 265.808C283.511 265.317 283.149 264.955 282.701 264.72C282.253 264.475 281.767 264.352 281.245 264.352C280.711 264.352 280.221 264.475 279.773 264.72C279.335 264.955 278.983 265.317 278.717 265.808C278.45 266.299 278.317 266.896 278.317 267.6C278.317 268.315 278.445 268.917 278.701 269.408C278.967 269.899 279.319 270.267 279.757 270.512C280.194 270.747 280.674 270.864 281.197 270.864ZM289.383 264.432V269.6C289.383 270.027 289.474 270.331 289.655 270.512C289.836 270.683 290.151 270.768 290.599 270.768H291.671V272H290.359C289.548 272 288.94 271.813 288.535 271.44C288.13 271.067 287.927 270.453 287.927 269.6V264.432H286.791V263.232H287.927V261.024H289.383V263.232H291.671V264.432H289.383ZM301.435 267.28C301.435 267.557 301.419 267.851 301.387 268.16H294.379C294.432 269.024 294.726 269.701 295.259 270.192C295.803 270.672 296.459 270.912 297.227 270.912C297.856 270.912 298.379 270.768 298.795 270.48C299.222 270.181 299.52 269.787 299.691 269.296H301.259C301.024 270.139 300.555 270.827 299.851 271.36C299.147 271.883 298.272 272.144 297.227 272.144C296.395 272.144 295.648 271.957 294.987 271.584C294.336 271.211 293.824 270.683 293.451 270C293.078 269.307 292.891 268.507 292.891 267.6C292.891 266.693 293.072 265.899 293.435 265.216C293.798 264.533 294.304 264.011 294.955 263.648C295.616 263.275 296.374 263.088 297.227 263.088C298.059 263.088 298.795 263.269 299.435 263.632C300.075 263.995 300.566 264.496 300.907 265.136C301.259 265.765 301.435 266.48 301.435 267.28ZM299.931 266.976C299.931 266.421 299.808 265.947 299.563 265.552C299.318 265.147 298.982 264.843 298.555 264.64C298.139 264.427 297.675 264.32 297.163 264.32C296.427 264.32 295.798 264.555 295.275 265.024C294.763 265.493 294.47 266.144 294.395 266.976H299.931ZM311.159 272.112C310.423 272.112 309.761 271.984 309.175 271.728C308.599 271.461 308.145 271.099 307.815 270.64C307.484 270.171 307.313 269.632 307.303 269.024H308.855C308.908 269.547 309.121 269.989 309.495 270.352C309.879 270.704 310.433 270.88 311.159 270.88C311.852 270.88 312.396 270.709 312.791 270.368C313.196 270.016 313.399 269.568 313.399 269.024C313.399 268.597 313.281 268.251 313.047 267.984C312.812 267.717 312.519 267.515 312.167 267.376C311.815 267.237 311.34 267.088 310.743 266.928C310.007 266.736 309.415 266.544 308.967 266.352C308.529 266.16 308.151 265.861 307.831 265.456C307.521 265.04 307.367 264.485 307.367 263.792C307.367 263.184 307.521 262.645 307.831 262.176C308.14 261.707 308.572 261.344 309.127 261.088C309.692 260.832 310.337 260.704 311.063 260.704C312.108 260.704 312.961 260.965 313.623 261.488C314.295 262.011 314.673 262.704 314.759 263.568H313.159C313.105 263.141 312.881 262.768 312.487 262.448C312.092 262.117 311.569 261.952 310.919 261.952C310.311 261.952 309.815 262.112 309.431 262.432C309.047 262.741 308.855 263.179 308.855 263.744C308.855 264.149 308.967 264.48 309.191 264.736C309.425 264.992 309.708 265.189 310.039 265.328C310.38 265.456 310.855 265.605 311.463 265.776C312.199 265.979 312.791 266.181 313.239 266.384C313.687 266.576 314.071 266.88 314.391 267.296C314.711 267.701 314.871 268.256 314.871 268.96C314.871 269.504 314.727 270.016 314.439 270.496C314.151 270.976 313.724 271.365 313.159 271.664C312.593 271.963 311.927 272.112 311.159 272.112ZM324.789 263.232V272H323.333V270.704C323.056 271.152 322.667 271.504 322.165 271.76C321.675 272.005 321.131 272.128 320.533 272.128C319.851 272.128 319.237 271.989 318.693 271.712C318.149 271.424 317.717 270.997 317.397 270.432C317.088 269.867 316.933 269.179 316.933 268.368V263.232H318.373V268.176C318.373 269.04 318.592 269.707 319.029 270.176C319.467 270.635 320.064 270.864 320.821 270.864C321.6 270.864 322.213 270.624 322.661 270.144C323.109 269.664 323.333 268.965 323.333 268.048V263.232H324.789ZM328.704 264.848C328.992 264.347 329.418 263.931 329.984 263.6C330.56 263.259 331.226 263.088 331.984 263.088C332.762 263.088 333.466 263.275 334.096 263.648C334.736 264.021 335.237 264.549 335.6 265.232C335.962 265.904 336.144 266.688 336.144 267.584C336.144 268.469 335.962 269.259 335.6 269.952C335.237 270.645 334.736 271.184 334.096 271.568C333.466 271.952 332.762 272.144 331.984 272.144C331.237 272.144 330.576 271.979 330 271.648C329.434 271.307 329.002 270.885 328.704 270.384V276.16H327.248V263.232H328.704V264.848ZM334.656 267.584C334.656 266.923 334.522 266.347 334.256 265.856C333.989 265.365 333.626 264.992 333.168 264.736C332.72 264.48 332.224 264.352 331.68 264.352C331.146 264.352 330.65 264.485 330.192 264.752C329.744 265.008 329.381 265.387 329.104 265.888C328.837 266.379 328.704 266.949 328.704 267.6C328.704 268.261 328.837 268.843 329.104 269.344C329.381 269.835 329.744 270.213 330.192 270.48C330.65 270.736 331.146 270.864 331.68 270.864C332.224 270.864 332.72 270.736 333.168 270.48C333.626 270.213 333.989 269.835 334.256 269.344C334.522 268.843 334.656 268.256 334.656 267.584ZM339.516 264.848C339.804 264.347 340.231 263.931 340.796 263.6C341.372 263.259 342.039 263.088 342.796 263.088C343.575 263.088 344.279 263.275 344.908 263.648C345.548 264.021 346.049 264.549 346.412 265.232C346.775 265.904 346.956 266.688 346.956 267.584C346.956 268.469 346.775 269.259 346.412 269.952C346.049 270.645 345.548 271.184 344.908 271.568C344.279 271.952 343.575 272.144 342.796 272.144C342.049 272.144 341.388 271.979 340.812 271.648C340.247 271.307 339.815 270.885 339.516 270.384V276.16H338.06V263.232H339.516V264.848ZM345.468 267.584C345.468 266.923 345.335 266.347 345.068 265.856C344.801 265.365 344.439 264.992 343.98 264.736C343.532 264.48 343.036 264.352 342.492 264.352C341.959 264.352 341.463 264.485 341.004 264.752C340.556 265.008 340.193 265.387 339.916 265.888C339.649 266.379 339.516 266.949 339.516 267.6C339.516 268.261 339.649 268.843 339.916 269.344C340.193 269.835 340.556 270.213 341.004 270.48C341.463 270.736 341.959 270.864 342.492 270.864C343.036 270.864 343.532 270.736 343.98 270.48C344.439 270.213 344.801 269.835 345.068 269.344C345.335 268.843 345.468 268.256 345.468 267.584ZM352.697 272.144C351.875 272.144 351.129 271.957 350.457 271.584C349.795 271.211 349.273 270.683 348.889 270C348.515 269.307 348.329 268.507 348.329 267.6C348.329 266.704 348.521 265.915 348.905 265.232C349.299 264.539 349.833 264.011 350.505 263.648C351.177 263.275 351.929 263.088 352.761 263.088C353.593 263.088 354.345 263.275 355.017 263.648C355.689 264.011 356.217 264.533 356.601 265.216C356.995 265.899 357.193 266.693 357.193 267.6C357.193 268.507 356.99 269.307 356.585 270C356.19 270.683 355.651 271.211 354.969 271.584C354.286 271.957 353.529 272.144 352.697 272.144ZM352.697 270.864C353.219 270.864 353.71 270.741 354.169 270.496C354.627 270.251 354.995 269.883 355.273 269.392C355.561 268.901 355.705 268.304 355.705 267.6C355.705 266.896 355.566 266.299 355.289 265.808C355.011 265.317 354.649 264.955 354.201 264.72C353.753 264.475 353.267 264.352 352.745 264.352C352.211 264.352 351.721 264.475 351.273 264.72C350.835 264.955 350.483 265.317 350.217 265.808C349.95 266.299 349.817 266.896 349.817 267.6C349.817 268.315 349.945 268.917 350.201 269.408C350.467 269.899 350.819 270.267 351.257 270.512C351.694 270.747 352.174 270.864 352.697 270.864ZM360.563 264.656C360.819 264.155 361.182 263.765 361.651 263.488C362.131 263.211 362.712 263.072 363.395 263.072V264.576H363.011C361.379 264.576 360.563 265.461 360.563 267.232V272H359.107V263.232H360.563V264.656ZM366.852 264.432V269.6C366.852 270.027 366.942 270.331 367.124 270.512C367.305 270.683 367.62 270.768 368.068 270.768H369.14V272H367.828C367.017 272 366.409 271.813 366.004 271.44C365.598 271.067 365.396 270.453 365.396 269.6V264.432H364.26V263.232H365.396V261.024H366.852V263.232H369.14V264.432H366.852Z" fill="#F5F7FA"/>
</g>
<defs>
<filter id="filter0_d_130_1078" x="0" y="0" width="409" height="360" filterUnits="userSpaceOnUse" color-interpolation-filters="sRGB">
<feFlood flood-opacity="0" result="BackgroundImageFix"/>
<feColorMatrix in="SourceAlpha" type="matrix" values="0 0 0 0 0 0 0 0 0 0 0 0 0 0 0 0 0 0 127 0" result="hardAlpha"/>
<feOffset dy="4"/>
<feGaussianBlur stdDeviation="10"/>
<feComposite in2="hardAlpha" operator="out"/>
<feColorMatrix type="matrix" values="0 0 0 0 0 0 0 0 0 0 0 0 0 0 0 0 0 0 0.1 0"/>
<feBlend mode="normal" in2="BackgroundImageFix" result="effect1_dropShadow_130_1078"/>
<feBlend mode="normal" in="SourceGraphic" in2="effect1_dropShadow_130_1078" result="shape"/>
</filter>
<filter id="filter1_d_130_1078" x="0" y="232" width="253.017" height="128" filterUnits="userSpaceOnUse" color-interpolation-filters="sRGB">
<feFlood flood-opacity="0" result="BackgroundImageFix"/>
<feColorMatrix in="SourceAlpha" type="matrix" values="0 0 0 0 0 0 0 0 0 0 0 0 0 0 0 0 0 0 127 0" result="hardAlpha"/>
<feOffset dy="4"/>
<feGaussianBlur stdDeviation="10"/>
<feComposite in2="hardAlpha" operator="out"/>
<feColorMatrix type="matrix" values="0 0 0 0 0 0 0 0 0 0 0 0 0 0 0 0 0 0 0.1 0"/>
<feBlend mode="normal" in2="BackgroundImageFix" result="effect1_dropShadow_130_1078"/>
<feBlend mode="normal" in="SourceGraphic" in2="effect1_dropShadow_130_1078" result="shape"/>
</filter>
<filter id="filter2_d_130_1078" x="71" y="27" width="271" height="102" filterUnits="userSpaceOnUse" color-interpolation-filters="sRGB">
<feFlood flood-opacity="0" result="BackgroundImageFix"/>
<feColorMatrix in="SourceAlpha" type="matrix" values="0 0 0 0 0 0 0 0 0 0 0 0 0 0 0 0 0 0 127 0" result="hardAlpha"/>
<feOffset dy="4"/>
<feGaussianBlur stdDeviation="14.5"/>
<feComposite in2="hardAlpha" operator="out"/>
<feColorMatrix type="matrix" values="0 0 0 0 0 0 0 0 0 0 0 0 0 0 0 0 0 0 0.1 0"/>
<feBlend mode="normal" in2="BackgroundImageFix" result="effect1_dropShadow_130_1078"/>
<feBlend mode="normal" in="BackgroundImageFix" in2="effect1_dropShadow_130_1078" result="BackgroundImageFix"/>
<feBlend mode="normal" in="SourceGraphic" in2="BackgroundImageFix" result="shape"/>
</filter>
<filter id="filter3_d_130_1078" x="1" y="91" width="223" height="102" filterUnits="userSpaceOnUse" color-interpolation-filters="sRGB">
<feFlood flood-opacity="0" result="BackgroundImageFix"/>
<feColorMatrix in="SourceAlpha" type="matrix" values="0 0 0 0 0 0 0 0 0 0 0 0 0 0 0 0 0 0 127 0" result="hardAlpha"/>
<feOffset dy="4"/>
<feGaussianBlur stdDeviation="14.5"/>
<feComposite in2="hardAlpha" operator="out"/>
<feColorMatrix type="matrix" values="0 0 0 0 0 0 0 0 0 0 0 0 0 0 0 0 0 0 0.1 0"/>
<feBlend mode="normal" in2="BackgroundImageFix" result="effect1_dropShadow_130_1078"/>
<feBlend mode="normal" in="BackgroundImageFix" in2="effect1_dropShadow_130_1078" result="BackgroundImageFix"/>
<feBlend mode="normal" in="SourceGraphic" in2="BackgroundImageFix" result="shape"/>
</filter>
<filter id="filter4_d_130_1078" x="171" y="91" width="232" height="102" filterUnits="userSpaceOnUse" color-interpolation-filters="sRGB">
<feFlood flood-opacity="0" result="BackgroundImageFix"/>
<feColorMatrix in="SourceAlpha" type="matrix" values="0 0 0 0 0 0 0 0 0 0 0 0 0 0 0 0 0 0 127 0" result="hardAlpha"/>
<feOffset dy="4"/>
<feGaussianBlur stdDeviation="14.5"/>
<feComposite in2="hardAlpha" operator="out"/>
<feColorMatrix type="matrix" values="0 0 0 0 0 0 0 0 0 0 0 0 0 0 0 0 0 0 0.1 0"/>
<feBlend mode="normal" in2="BackgroundImageFix" result="effect1_dropShadow_130_1078"/>
<feBlend mode="normal" in="BackgroundImageFix" in2="effect1_dropShadow_130_1078" result="BackgroundImageFix"/>
<feBlend mode="normal" in="SourceGraphic" in2="BackgroundImageFix" result="shape"/>
</filter>
<filter id="filter5_d_130_1078" x="1" y="155" width="220" height="102" filterUnits="userSpaceOnUse" color-interpolation-filters="sRGB">
<feFlood flood-opacity="0" result="BackgroundImageFix"/>
<feColorMatrix in="SourceAlpha" type="matrix" values="0 0 0 0 0 0 0 0 0 0 0 0 0 0 0 0 0 0 127 0" result="hardAlpha"/>
<feOffset dy="4"/>
<feGaussianBlur stdDeviation="14.5"/>
<feComposite in2="hardAlpha" operator="out"/>
<feColorMatrix type="matrix" values="0 0 0 0 0 0 0 0 0 0 0 0 0 0 0 0 0 0 0.1 0"/>
<feBlend mode="normal" in2="BackgroundImageFix" result="effect1_dropShadow_130_1078"/>
<feBlend mode="normal" in="BackgroundImageFix" in2="effect1_dropShadow_130_1078" result="BackgroundImageFix"/>
<feBlend mode="normal" in="SourceGraphic" in2="BackgroundImageFix" result="shape"/>
</filter>
<filter id="filter6_d_130_1078" x="168" y="155" width="244" height="102" filterUnits="userSpaceOnUse" color-interpolation-filters="sRGB">
<feFlood flood-opacity="0" result="BackgroundImageFix"/>
<feColorMatrix in="SourceAlpha" type="matrix" values="0 0 0 0 0 0 0 0 0 0 0 0 0 0 0 0 0 0 127 0" result="hardAlpha"/>
<feOffset dy="4"/>
<feGaussianBlur stdDeviation="14.5"/>
<feComposite in2="hardAlpha" operator="out"/>
<feColorMatrix type="matrix" values="0 0 0 0 0 0 0 0 0 0 0 0 0 0 0 0 0 0 0.1 0"/>
<feBlend mode="normal" in2="BackgroundImageFix" result="effect1_dropShadow_130_1078"/>
<feBlend mode="normal" in="BackgroundImageFix" in2="effect1_dropShadow_130_1078" result="BackgroundImageFix"/>
<feBlend mode="normal" in="SourceGraphic" in2="BackgroundImageFix" result="shape"/>
</filter>
<filter id="filter7_d_130_1078" x="201" y="219" width="208" height="102" filterUnits="userSpaceOnUse" color-interpolation-filters="sRGB">
<feFlood flood-opacity="0" result="BackgroundImageFix"/>
<feColorMatrix in="SourceAlpha" type="matrix" values="0 0 0 0 0 0 0 0 0 0 0 0 0 0 0 0 0 0 127 0" result="hardAlpha"/>
<feOffset dy="4"/>
<feGaussianBlur stdDeviation="14.5"/>
<feComposite in2="hardAlpha" operator="out"/>
<feColorMatrix type="matrix" values="0 0 0 0 0 0 0 0 0 0 0 0 0 0 0 0 0 0 0.1 0"/>
<feBlend mode="normal" in2="BackgroundImageFix" result="effect1_dropShadow_130_1078"/>
<feBlend mode="normal" in="BackgroundImageFix" in2="effect1_dropShadow_130_1078" result="BackgroundImageFix"/>
<feBlend mode="normal" in="SourceGraphic" in2="BackgroundImageFix" result="shape"/>
</filter>
</defs>
</svg>
