<svg width="411" height="360" viewBox="0 0 411 360" fill="none" xmlns="http://www.w3.org/2000/svg">
<g filter="url(#filter0_d_130_1077)">
<mask id="path-1-inside-1_130_1077" fill="white">
<path d="M340 16C367.614 16 390 38.3858 390 66V212C390 225.255 379.255 236 366 236H248.644C241.96 236 235.578 238.787 231.036 243.691L152.661 328.309C148.119 333.212 141.738 336 135.053 336H71C43.3858 336 21 313.614 21 286V66C21 38.3858 43.3858 16 71 16H340Z"/>
</mask>
<path d="M340 16C367.614 16 390 38.3858 390 66V212C390 225.255 379.255 236 366 236H248.644C241.96 236 235.578 238.787 231.036 243.691L152.661 328.309C148.119 333.212 141.738 336 135.053 336H71C43.3858 336 21 313.614 21 286V66C21 38.3858 43.3858 16 71 16H340Z" fill="white" fill-opacity="0.1" shape-rendering="crispEdges"/>
<path d="M340 16V15V16ZM71 336V337V336ZM21 66H20H21ZM152.661 328.309L151.927 327.629L152.661 328.309ZM231.036 243.691L230.303 243.012L231.036 243.691ZM340 16V17C367.062 17 389 38.9381 389 66H390H391C391 37.8335 368.167 15 340 15V16ZM390 66H389V212H390H391V66H390ZM366 236V235H248.644V236V237H366V236ZM231.036 243.691L230.303 243.012L151.927 327.629L152.661 328.309L153.395 328.988L231.77 244.371L231.036 243.691ZM135.053 336V335H71V336V337H135.053V336ZM71 336V335C43.9381 335 22 313.062 22 286H21H20C20 314.167 42.8335 337 71 337V336ZM21 286H22V66H21H20V286H21ZM21 66H22C22 38.938 43.938 17 71 17V16V15C42.8335 15 20 37.8335 20 66H21ZM71 16V17H340V16V15H71V16ZM152.661 328.309L151.927 327.629C147.575 332.329 141.459 335 135.053 335V336V337C142.016 337 148.663 334.096 153.395 328.988L152.661 328.309ZM248.644 236V235C241.681 235 235.034 237.904 230.303 243.012L231.036 243.691L231.77 244.371C236.123 239.671 242.238 237 248.644 237V236ZM390 212H389C389 224.703 378.703 235 366 235V236V237C379.807 237 391 225.807 391 212H390Z" fill="white" fill-opacity="0.35" mask="url(#path-1-inside-1_130_1077)"/>
</g>
<g filter="url(#filter1_d_130_1077)">
<path d="M237.624 251.713C239.711 249.352 242.712 248 245.863 248H378.489C384.564 248 389.489 252.925 389.489 259V325C389.489 331.075 384.564 336 378.489 336H187.494C178.015 336 172.975 324.813 179.254 317.713L237.624 251.713Z" fill="white" fill-opacity="0.1" shape-rendering="crispEdges"/>
<path d="M245.864 248.5H378.489C384.288 248.5 388.989 253.201 388.989 259V325C388.989 330.799 384.288 335.5 378.489 335.5H187.494C178.446 335.5 173.635 324.821 179.628 318.044L237.999 252.044C239.992 249.791 242.855 248.5 245.864 248.5Z" stroke="white" stroke-opacity="0.35" shape-rendering="crispEdges"/>
</g>
<path d="M233.72 292H231.688V282.4H227.272V280.368H238.136V282.4H233.72V292ZM249.875 292H239.475V280.368H249.859V282.4H241.491V289.968H249.875V292ZM249.427 286.944H242.979V285.232H249.427V286.944ZM263.232 292H256.928C253.68 292 251.28 289.44 251.28 286.064C251.28 282.64 253.68 280.368 256.928 280.368H263.232V282.4H256.928C254.848 282.4 253.312 283.952 253.312 286.16C253.312 288.352 254.832 289.968 256.928 289.968H263.232V292ZM276.273 292.048H274.241V286.992H268.385V285.184H274.241V280.368H276.273V292.048ZM266.913 292.048H264.881V280.368H266.913V292.048ZM291.167 288.768H286.495V286.8H291.167C292.591 286.8 293.439 285.904 293.439 284.592C293.439 283.248 292.591 282.4 291.167 282.4H285.007V292H282.991V280.368H291.167C293.855 280.368 295.423 281.984 295.423 284.528C295.423 287.04 293.855 288.768 291.167 288.768ZM310.546 292H307.666L304.722 288.768H300.37V286.976H305.218C306.674 286.976 307.442 286.144 307.442 284.64C307.442 283.136 306.61 282.4 305.218 282.4H298.882V292H296.866V280.368H305.218C307.874 280.368 309.442 282.016 309.442 284.608C309.442 286.528 308.546 287.888 307.042 288.464L310.546 292ZM319.479 292H316.647C313.399 292 310.999 289.44 310.999 286.064C310.999 282.64 313.399 280.368 316.647 280.368H319.479C322.839 280.368 325.175 282.688 325.175 286.064C325.175 289.44 322.791 292 319.479 292ZM316.647 289.968H319.479C321.623 289.968 323.143 288.352 323.143 286.16C323.143 283.968 321.623 282.4 319.479 282.4H316.647C314.567 282.4 313.031 283.952 313.031 286.16C313.031 288.352 314.551 289.968 316.647 289.968ZM333.555 292H326.819V280.368H333.555C336.835 280.368 339.219 282.688 339.219 286.064C339.219 289.44 336.835 292 333.555 292ZM328.835 289.968H333.555C335.651 289.968 337.187 288.352 337.187 286.16C337.187 283.968 335.651 282.4 333.555 282.4H328.835V289.968ZM351.281 286.864V280.368H353.265V286.864C353.265 290.464 351.489 292.16 346.977 292.16C342.497 292.16 340.705 290.464 340.705 286.864V280.368H342.801V286.864C342.801 289.2 343.841 290.16 347.041 290.16C350.241 290.16 351.281 289.2 351.281 286.864ZM366.716 292H360.412C357.164 292 354.764 289.44 354.764 286.064C354.764 282.64 357.164 280.368 360.412 280.368H366.716V282.4H360.412C358.332 282.4 356.796 283.952 356.796 286.16C356.796 288.352 358.316 289.968 360.412 289.968H366.716V292ZM374.126 292H372.094V282.4H367.678V280.368H378.542V282.4H374.126V292ZM233.539 311H226.803V299.368H233.539C236.819 299.368 239.203 301.688 239.203 305.064C239.203 308.44 236.819 311 233.539 311ZM228.819 308.968H233.539C235.635 308.968 237.171 307.352 237.171 305.16C237.171 302.968 235.635 301.4 233.539 301.4H228.819V308.968ZM251.266 311H240.866V299.368H251.25V301.4H242.882V308.968H251.266V311ZM250.818 305.944H244.37V304.232H250.818V305.944ZM258.91 310.504L252.222 299.368H254.702L259.982 308.328L265.246 299.368H267.582L260.878 310.504C260.638 310.904 260.318 311.16 259.902 311.16C259.454 311.16 259.15 310.904 258.91 310.504ZM279.235 311H268.835V299.368H279.219V301.4H270.851V308.968H279.235V311ZM278.787 305.944H272.339V304.232H278.787V305.944ZM290.831 311H280.975V299.368H283.007V308.968H290.831V311ZM300.432 311H297.6C294.352 311 291.952 308.44 291.952 305.064C291.952 301.64 294.352 299.368 297.6 299.368H300.432C303.792 299.368 306.128 301.688 306.128 305.064C306.128 308.44 303.744 311 300.432 311ZM297.6 308.968H300.432C302.576 308.968 304.096 307.352 304.096 305.16C304.096 302.968 302.576 301.4 300.432 301.4H297.6C295.52 301.4 293.984 302.952 293.984 305.16C293.984 307.352 295.504 308.968 297.6 308.968ZM315.948 307.768H311.276V305.8H315.948C317.372 305.8 318.22 304.904 318.22 303.592C318.22 302.248 317.372 301.4 315.948 301.4H309.788V311H307.772V299.368H315.948C318.636 299.368 320.204 300.984 320.204 303.528C320.204 306.04 318.636 307.768 315.948 307.768ZM337.362 311H335.346L333.122 302.824L329.826 310.392C329.602 310.888 329.282 311.16 328.786 311.16C328.306 311.16 327.954 310.888 327.746 310.392L324.466 302.824L322.242 311H320.242L323.234 300.056C323.378 299.496 323.698 299.224 324.242 299.224C324.674 299.224 325.074 299.464 325.266 299.912L328.85 308.136L332.434 299.912C332.626 299.464 332.978 299.224 333.41 299.224C333.906 299.224 334.226 299.496 334.386 300.056L337.362 311ZM349.11 311H338.71V299.368H349.094V301.4H340.726V308.968H349.11V311ZM348.662 305.944H342.214V304.232H348.662V305.944ZM360.914 310.712L352.738 302.488V311H350.802V300.44C350.802 299.688 351.202 299.224 351.842 299.224C352.146 299.224 352.402 299.336 352.706 299.64L360.914 307.784V299.272H362.85V309.928C362.85 310.696 362.434 311.144 361.842 311.144C361.506 311.144 361.202 311 360.914 310.712ZM370.579 311H368.547V301.4H364.131V299.368H374.995V301.4H370.579V311Z" fill="#F5F7FA"/>
<g filter="url(#filter2_d_130_1077)">
<rect x="99" y="52" width="213" height="44" rx="22" fill="white" fill-opacity="0.2" shape-rendering="crispEdges"/>
<rect x="99.5" y="52.5" width="212" height="43" rx="21.5" stroke="white" stroke-opacity="0.2" shape-rendering="crispEdges"/>
<path d="M123.044 68.928V80H121.588V71.744L117.908 80H116.884L113.188 71.728V80H111.732V68.928H113.3L117.396 78.08L121.492 68.928H123.044ZM124.969 75.584C124.969 74.688 125.151 73.904 125.513 73.232C125.876 72.5493 126.372 72.0213 127.001 71.648C127.641 71.2747 128.351 71.088 129.129 71.088C129.897 71.088 130.564 71.2533 131.129 71.584C131.695 71.9147 132.116 72.3307 132.393 72.832V71.232H133.865V80H132.393V78.368C132.105 78.88 131.673 79.3067 131.097 79.648C130.532 79.9787 129.871 80.144 129.113 80.144C128.335 80.144 127.631 79.952 127.001 79.568C126.372 79.184 125.876 78.6453 125.513 77.952C125.151 77.2587 124.969 76.4693 124.969 75.584ZM132.393 75.6C132.393 74.9387 132.26 74.3627 131.993 73.872C131.727 73.3813 131.364 73.008 130.905 72.752C130.457 72.4853 129.961 72.352 129.417 72.352C128.873 72.352 128.377 72.48 127.929 72.736C127.481 72.992 127.124 73.3653 126.857 73.856C126.591 74.3467 126.457 74.9227 126.457 75.584C126.457 76.256 126.591 76.8427 126.857 77.344C127.124 77.8347 127.481 78.2133 127.929 78.48C128.377 78.736 128.873 78.864 129.417 78.864C129.961 78.864 130.457 78.736 130.905 78.48C131.364 78.2133 131.727 77.8347 131.993 77.344C132.26 76.8427 132.393 76.2613 132.393 75.6ZM137.078 69.808C136.8 69.808 136.566 69.712 136.374 69.52C136.182 69.328 136.086 69.0933 136.086 68.816C136.086 68.5387 136.182 68.304 136.374 68.112C136.566 67.92 136.8 67.824 137.078 67.824C137.344 67.824 137.568 67.92 137.75 68.112C137.942 68.304 138.038 68.5387 138.038 68.816C138.038 69.0933 137.942 69.328 137.75 69.52C137.568 69.712 137.344 69.808 137.078 69.808ZM137.782 71.232V80H136.326V71.232H137.782ZM144.535 71.072C145.602 71.072 146.466 71.3973 147.127 72.048C147.789 72.688 148.119 73.616 148.119 74.832V80H146.679V75.04C146.679 74.1653 146.461 73.4987 146.023 73.04C145.586 72.5707 144.989 72.336 144.231 72.336C143.463 72.336 142.85 72.576 142.391 73.056C141.943 73.536 141.719 74.2347 141.719 75.152V80H140.263V71.232H141.719V72.48C142.007 72.032 142.397 71.6853 142.887 71.44C143.389 71.1947 143.938 71.072 144.535 71.072ZM152.274 72.432V77.6C152.274 78.0267 152.364 78.3307 152.546 78.512C152.727 78.6827 153.042 78.768 153.49 78.768H154.562V80H153.25C152.439 80 151.831 79.8133 151.426 79.44C151.02 79.0667 150.818 78.4533 150.818 77.6V72.432H149.682V71.232H150.818V69.024H152.274V71.232H154.562V72.432H152.274ZM164.326 75.28C164.326 75.5573 164.31 75.8507 164.278 76.16H157.27C157.323 77.024 157.616 77.7013 158.15 78.192C158.694 78.672 159.35 78.912 160.118 78.912C160.747 78.912 161.27 78.768 161.686 78.48C162.112 78.1813 162.411 77.7867 162.582 77.296H164.15C163.915 78.1387 163.446 78.8267 162.742 79.36C162.038 79.8827 161.163 80.144 160.118 80.144C159.286 80.144 158.539 79.9573 157.878 79.584C157.227 79.2107 156.715 78.6827 156.342 78C155.968 77.3067 155.782 76.5067 155.782 75.6C155.782 74.6933 155.963 73.8987 156.326 73.216C156.688 72.5333 157.195 72.0107 157.846 71.648C158.507 71.2747 159.264 71.088 160.118 71.088C160.95 71.088 161.686 71.2693 162.326 71.632C162.966 71.9947 163.456 72.496 163.798 73.136C164.15 73.7653 164.326 74.48 164.326 75.28ZM162.822 74.976C162.822 74.4213 162.699 73.9467 162.454 73.552C162.208 73.1467 161.872 72.8427 161.446 72.64C161.03 72.4267 160.566 72.32 160.054 72.32C159.318 72.32 158.688 72.5547 158.166 73.024C157.654 73.4933 157.36 74.144 157.286 74.976H162.822ZM170.52 71.072C171.586 71.072 172.45 71.3973 173.112 72.048C173.773 72.688 174.104 73.616 174.104 74.832V80H172.664V75.04C172.664 74.1653 172.445 73.4987 172.008 73.04C171.57 72.5707 170.973 72.336 170.216 72.336C169.448 72.336 168.834 72.576 168.376 73.056C167.928 73.536 167.704 74.2347 167.704 75.152V80H166.248V71.232H167.704V72.48C167.992 72.032 168.381 71.6853 168.872 71.44C169.373 71.1947 169.922 71.072 170.52 71.072ZM175.938 75.584C175.938 74.688 176.119 73.904 176.482 73.232C176.845 72.5493 177.341 72.0213 177.97 71.648C178.61 71.2747 179.319 71.088 180.098 71.088C180.866 71.088 181.533 71.2533 182.098 71.584C182.663 71.9147 183.085 72.3307 183.362 72.832V71.232H184.834V80H183.362V78.368C183.074 78.88 182.642 79.3067 182.066 79.648C181.501 79.9787 180.839 80.144 180.082 80.144C179.303 80.144 178.599 79.952 177.97 79.568C177.341 79.184 176.845 78.6453 176.482 77.952C176.119 77.2587 175.938 76.4693 175.938 75.584ZM183.362 75.6C183.362 74.9387 183.229 74.3627 182.962 73.872C182.695 73.3813 182.333 73.008 181.874 72.752C181.426 72.4853 180.93 72.352 180.386 72.352C179.842 72.352 179.346 72.48 178.898 72.736C178.45 72.992 178.093 73.3653 177.826 73.856C177.559 74.3467 177.426 74.9227 177.426 75.584C177.426 76.256 177.559 76.8427 177.826 77.344C178.093 77.8347 178.45 78.2133 178.898 78.48C179.346 78.736 179.842 78.864 180.386 78.864C180.93 78.864 181.426 78.736 181.874 78.48C182.333 78.2133 182.695 77.8347 182.962 77.344C183.229 76.8427 183.362 76.2613 183.362 75.6ZM191.567 71.072C192.633 71.072 193.497 71.3973 194.159 72.048C194.82 72.688 195.151 73.616 195.151 74.832V80H193.711V75.04C193.711 74.1653 193.492 73.4987 193.055 73.04C192.617 72.5707 192.02 72.336 191.263 72.336C190.495 72.336 189.881 72.576 189.423 73.056C188.975 73.536 188.751 74.2347 188.751 75.152V80H187.295V71.232H188.751V72.48C189.039 72.032 189.428 71.6853 189.919 71.44C190.42 71.1947 190.969 71.072 191.567 71.072ZM196.985 75.6C196.985 74.6933 197.166 73.904 197.529 73.232C197.892 72.5493 198.393 72.0213 199.033 71.648C199.684 71.2747 200.425 71.088 201.257 71.088C202.334 71.088 203.22 71.3493 203.913 71.872C204.617 72.3947 205.081 73.12 205.305 74.048H203.737C203.588 73.5147 203.294 73.0933 202.857 72.784C202.43 72.4747 201.897 72.32 201.257 72.32C200.425 72.32 199.753 72.608 199.241 73.184C198.729 73.7493 198.473 74.5547 198.473 75.6C198.473 76.656 198.729 77.472 199.241 78.048C199.753 78.624 200.425 78.912 201.257 78.912C201.897 78.912 202.43 78.7627 202.857 78.464C203.284 78.1653 203.577 77.7387 203.737 77.184H205.305C205.07 78.08 204.601 78.8 203.897 79.344C203.193 79.8773 202.313 80.144 201.257 80.144C200.425 80.144 199.684 79.9573 199.033 79.584C198.393 79.2107 197.892 78.6827 197.529 78C197.166 77.3173 196.985 76.5173 196.985 75.6ZM215.248 75.28C215.248 75.5573 215.232 75.8507 215.2 76.16H208.192C208.245 77.024 208.538 77.7013 209.072 78.192C209.616 78.672 210.272 78.912 211.04 78.912C211.669 78.912 212.192 78.768 212.608 78.48C213.034 78.1813 213.333 77.7867 213.504 77.296H215.072C214.837 78.1387 214.368 78.8267 213.664 79.36C212.96 79.8827 212.085 80.144 211.04 80.144C210.208 80.144 209.461 79.9573 208.8 79.584C208.149 79.2107 207.637 78.6827 207.264 78C206.89 77.3067 206.704 76.5067 206.704 75.6C206.704 74.6933 206.885 73.8987 207.248 73.216C207.61 72.5333 208.117 72.0107 208.768 71.648C209.429 71.2747 210.186 71.088 211.04 71.088C211.872 71.088 212.608 71.2693 213.248 71.632C213.888 71.9947 214.378 72.496 214.72 73.136C215.072 73.7653 215.248 74.48 215.248 75.28ZM213.744 74.976C213.744 74.4213 213.621 73.9467 213.376 73.552C213.13 73.1467 212.794 72.8427 212.368 72.64C211.952 72.4267 211.488 72.32 210.976 72.32C210.24 72.32 209.61 72.5547 209.088 73.024C208.576 73.4933 208.282 74.144 208.208 74.976H213.744ZM229.995 80L228.539 78.528C227.995 79.0933 227.414 79.5147 226.795 79.792C226.176 80.0587 225.478 80.192 224.699 80.192C223.931 80.192 223.248 80.0533 222.651 79.776C222.064 79.4987 221.606 79.104 221.275 78.592C220.955 78.08 220.795 77.4827 220.795 76.8C220.795 76.0213 221.014 75.3387 221.451 74.752C221.899 74.1547 222.555 73.6853 223.419 73.344C223.078 72.9387 222.832 72.5653 222.683 72.224C222.534 71.8827 222.459 71.5093 222.459 71.104C222.459 70.6347 222.576 70.2133 222.811 69.84C223.056 69.456 223.403 69.1573 223.851 68.944C224.299 68.7307 224.816 68.624 225.403 68.624C225.979 68.624 226.48 68.736 226.907 68.96C227.334 69.184 227.654 69.4987 227.867 69.904C228.08 70.2987 228.176 70.7413 228.155 71.232H226.699C226.71 70.7947 226.587 70.4533 226.331 70.208C226.075 69.952 225.744 69.824 225.339 69.824C224.912 69.824 224.566 69.9467 224.299 70.192C224.043 70.4267 223.915 70.7307 223.915 71.104C223.915 71.424 224 71.7333 224.171 72.032C224.352 72.3307 224.651 72.6987 225.067 73.136L228.395 76.48L228.683 76.032L229.771 74.208H231.339L230.027 76.48C229.846 76.8 229.632 77.136 229.387 77.488L231.899 80H229.995ZM224.699 78.944C225.275 78.944 225.792 78.832 226.251 78.608C226.72 78.384 227.163 78.0373 227.579 77.568L224.299 74.272C222.934 74.7947 222.251 75.6213 222.251 76.752C222.251 77.3813 222.475 77.904 222.923 78.32C223.382 78.736 223.974 78.944 224.699 78.944ZM241.065 80.112C240.329 80.112 239.668 79.984 239.081 79.728C238.505 79.4613 238.052 79.0987 237.721 78.64C237.39 78.1707 237.22 77.632 237.209 77.024H238.761C238.814 77.5467 239.028 77.9893 239.401 78.352C239.785 78.704 240.34 78.88 241.065 78.88C241.758 78.88 242.302 78.7093 242.697 78.368C243.102 78.016 243.305 77.568 243.305 77.024C243.305 76.5973 243.188 76.2507 242.953 75.984C242.718 75.7173 242.425 75.5147 242.073 75.376C241.721 75.2373 241.246 75.088 240.649 74.928C239.913 74.736 239.321 74.544 238.873 74.352C238.436 74.16 238.057 73.8613 237.737 73.456C237.428 73.04 237.273 72.4853 237.273 71.792C237.273 71.184 237.428 70.6453 237.737 70.176C238.046 69.7067 238.478 69.344 239.033 69.088C239.598 68.832 240.244 68.704 240.969 68.704C242.014 68.704 242.868 68.9653 243.529 69.488C244.201 70.0107 244.58 70.704 244.665 71.568H243.065C243.012 71.1413 242.788 70.768 242.393 70.448C241.998 70.1173 241.476 69.952 240.825 69.952C240.217 69.952 239.721 70.112 239.337 70.432C238.953 70.7413 238.761 71.1787 238.761 71.744C238.761 72.1493 238.873 72.48 239.097 72.736C239.332 72.992 239.614 73.1893 239.945 73.328C240.286 73.456 240.761 73.6053 241.369 73.776C242.105 73.9787 242.697 74.1813 243.145 74.384C243.593 74.576 243.977 74.88 244.297 75.296C244.617 75.7013 244.777 76.256 244.777 76.96C244.777 77.504 244.633 78.016 244.345 78.496C244.057 78.976 243.63 79.3653 243.065 79.664C242.5 79.9627 241.833 80.112 241.065 80.112ZM254.696 71.232V80H253.24V78.704C252.962 79.152 252.573 79.504 252.072 79.76C251.581 80.0053 251.037 80.128 250.44 80.128C249.757 80.128 249.144 79.9893 248.6 79.712C248.056 79.424 247.624 78.9973 247.304 78.432C246.994 77.8667 246.84 77.1787 246.84 76.368V71.232H248.28V76.176C248.28 77.04 248.498 77.7067 248.936 78.176C249.373 78.6347 249.97 78.864 250.728 78.864C251.506 78.864 252.12 78.624 252.568 78.144C253.016 77.664 253.24 76.9653 253.24 76.048V71.232H254.696ZM258.61 72.848C258.898 72.3467 259.325 71.9307 259.89 71.6C260.466 71.2587 261.133 71.088 261.89 71.088C262.669 71.088 263.373 71.2747 264.002 71.648C264.642 72.0213 265.143 72.5493 265.506 73.232C265.869 73.904 266.05 74.688 266.05 75.584C266.05 76.4693 265.869 77.2587 265.506 77.952C265.143 78.6453 264.642 79.184 264.002 79.568C263.373 79.952 262.669 80.144 261.89 80.144C261.143 80.144 260.482 79.9787 259.906 79.648C259.341 79.3067 258.909 78.8853 258.61 78.384V84.16H257.154V71.232H258.61V72.848ZM264.562 75.584C264.562 74.9227 264.429 74.3467 264.162 73.856C263.895 73.3653 263.533 72.992 263.074 72.736C262.626 72.48 262.13 72.352 261.586 72.352C261.053 72.352 260.557 72.4853 260.098 72.752C259.65 73.008 259.287 73.3867 259.01 73.888C258.743 74.3787 258.61 74.9493 258.61 75.6C258.61 76.2613 258.743 76.8427 259.01 77.344C259.287 77.8347 259.65 78.2133 260.098 78.48C260.557 78.736 261.053 78.864 261.586 78.864C262.13 78.864 262.626 78.736 263.074 78.48C263.533 78.2133 263.895 77.8347 264.162 77.344C264.429 76.8427 264.562 76.256 264.562 75.584ZM269.422 72.848C269.71 72.3467 270.137 71.9307 270.702 71.6C271.278 71.2587 271.945 71.088 272.702 71.088C273.481 71.088 274.185 71.2747 274.814 71.648C275.454 72.0213 275.956 72.5493 276.318 73.232C276.681 73.904 276.862 74.688 276.862 75.584C276.862 76.4693 276.681 77.2587 276.318 77.952C275.956 78.6453 275.454 79.184 274.814 79.568C274.185 79.952 273.481 80.144 272.702 80.144C271.956 80.144 271.294 79.9787 270.718 79.648C270.153 79.3067 269.721 78.8853 269.422 78.384V84.16H267.966V71.232H269.422V72.848ZM275.374 75.584C275.374 74.9227 275.241 74.3467 274.974 73.856C274.708 73.3653 274.345 72.992 273.886 72.736C273.438 72.48 272.942 72.352 272.398 72.352C271.865 72.352 271.369 72.4853 270.91 72.752C270.462 73.008 270.1 73.3867 269.822 73.888C269.556 74.3787 269.422 74.9493 269.422 75.6C269.422 76.2613 269.556 76.8427 269.822 77.344C270.1 77.8347 270.462 78.2133 270.91 78.48C271.369 78.736 271.865 78.864 272.398 78.864C272.942 78.864 273.438 78.736 273.886 78.48C274.345 78.2133 274.708 77.8347 274.974 77.344C275.241 76.8427 275.374 76.256 275.374 75.584ZM282.603 80.144C281.782 80.144 281.035 79.9573 280.363 79.584C279.702 79.2107 279.179 78.6827 278.795 78C278.422 77.3067 278.235 76.5067 278.235 75.6C278.235 74.704 278.427 73.9147 278.811 73.232C279.206 72.5387 279.739 72.0107 280.411 71.648C281.083 71.2747 281.835 71.088 282.667 71.088C283.499 71.088 284.251 71.2747 284.923 71.648C285.595 72.0107 286.123 72.5333 286.507 73.216C286.902 73.8987 287.099 74.6933 287.099 75.6C287.099 76.5067 286.896 77.3067 286.491 78C286.096 78.6827 285.558 79.2107 284.875 79.584C284.192 79.9573 283.435 80.144 282.603 80.144ZM282.603 78.864C283.126 78.864 283.616 78.7413 284.075 78.496C284.534 78.2507 284.902 77.8827 285.179 77.392C285.467 76.9013 285.611 76.304 285.611 75.6C285.611 74.896 285.472 74.2987 285.195 73.808C284.918 73.3173 284.555 72.9547 284.107 72.72C283.659 72.4747 283.174 72.352 282.651 72.352C282.118 72.352 281.627 72.4747 281.179 72.72C280.742 72.9547 280.39 73.3173 280.123 73.808C279.856 74.2987 279.723 74.896 279.723 75.6C279.723 76.3147 279.851 76.9173 280.107 77.408C280.374 77.8987 280.726 78.2667 281.163 78.512C281.6 78.7467 282.08 78.864 282.603 78.864ZM290.469 72.656C290.725 72.1547 291.088 71.7653 291.557 71.488C292.037 71.2107 292.619 71.072 293.301 71.072V72.576H292.917C291.285 72.576 290.469 73.4613 290.469 75.232V80H289.013V71.232H290.469V72.656ZM296.758 72.432V77.6C296.758 78.0267 296.849 78.3307 297.03 78.512C297.211 78.6827 297.526 78.768 297.974 78.768H299.046V80H297.734C296.923 80 296.315 79.8133 295.91 79.44C295.505 79.0667 295.302 78.4533 295.302 77.6V72.432H294.166V71.232H295.302V69.024H296.758V71.232H299.046V72.432H296.758Z" fill="#F5F7FA"/>
</g>
<g filter="url(#filter3_d_130_1077)">
<rect x="29" y="116" width="195" height="44" rx="22" fill="white" fill-opacity="0.2" shape-rendering="crispEdges"/>
<rect x="29.5" y="116.5" width="194" height="43" rx="21.5" stroke="white" stroke-opacity="0.2" shape-rendering="crispEdges"/>
<path d="M54.248 132.848L51.016 144H49.384L46.792 135.024L44.104 144L42.488 144.016L39.368 132.848H40.92L43.352 142.304L46.04 132.848H47.672L50.232 142.272L52.68 132.848H54.248ZM63.8414 139.28C63.8414 139.557 63.8254 139.851 63.7934 140.16H56.7854C56.8387 141.024 57.132 141.701 57.6654 142.192C58.2094 142.672 58.8654 142.912 59.6334 142.912C60.2627 142.912 60.7854 142.768 61.2014 142.48C61.628 142.181 61.9267 141.787 62.0974 141.296H63.6654C63.4307 142.139 62.9614 142.827 62.2574 143.36C61.5534 143.883 60.6787 144.144 59.6334 144.144C58.8014 144.144 58.0547 143.957 57.3934 143.584C56.7427 143.211 56.2307 142.683 55.8574 142C55.484 141.307 55.2974 140.507 55.2974 139.6C55.2974 138.693 55.4787 137.899 55.8414 137.216C56.204 136.533 56.7107 136.011 57.3614 135.648C58.0227 135.275 58.78 135.088 59.6334 135.088C60.4654 135.088 61.2014 135.269 61.8414 135.632C62.4814 135.995 62.972 136.496 63.3134 137.136C63.6654 137.765 63.8414 138.48 63.8414 139.28ZM62.3374 138.976C62.3374 138.421 62.2147 137.947 61.9694 137.552C61.724 137.147 61.388 136.843 60.9614 136.64C60.5454 136.427 60.0814 136.32 59.5694 136.32C58.8334 136.32 58.204 136.555 57.6814 137.024C57.1694 137.493 56.876 138.144 56.8014 138.976H62.3374ZM67.2193 136.864C67.5179 136.341 67.9553 135.915 68.5312 135.584C69.1073 135.253 69.7633 135.088 70.4993 135.088C71.2886 135.088 71.9979 135.275 72.6273 135.648C73.2566 136.021 73.7526 136.549 74.1153 137.232C74.4779 137.904 74.6593 138.688 74.6593 139.584C74.6593 140.469 74.4779 141.259 74.1153 141.952C73.7526 142.645 73.2512 143.184 72.6112 143.568C71.9819 143.952 71.2779 144.144 70.4993 144.144C69.7419 144.144 69.0753 143.979 68.4993 143.648C67.9339 143.317 67.5073 142.896 67.2193 142.384V144H65.7633V132.16H67.2193V136.864ZM73.1713 139.584C73.1713 138.923 73.0379 138.347 72.7713 137.856C72.5046 137.365 72.1419 136.992 71.6833 136.736C71.2353 136.48 70.7393 136.352 70.1953 136.352C69.6619 136.352 69.1659 136.485 68.7073 136.752C68.2593 137.008 67.8966 137.387 67.6193 137.888C67.3526 138.379 67.2193 138.949 67.2193 139.6C67.2193 140.261 67.3526 140.843 67.6193 141.344C67.8966 141.835 68.2593 142.213 68.7073 142.48C69.1659 142.736 69.6619 142.864 70.1953 142.864C70.7393 142.864 71.2353 142.736 71.6833 142.48C72.1419 142.213 72.5046 141.835 72.7713 141.344C73.0379 140.843 73.1713 140.256 73.1713 139.584ZM79.6798 144.144C79.0078 144.144 78.4051 144.032 77.8718 143.808C77.3384 143.573 76.9171 143.253 76.6078 142.848C76.2984 142.432 76.1278 141.957 76.0958 141.424H77.5998C77.6424 141.861 77.8451 142.219 78.2078 142.496C78.5811 142.773 79.0664 142.912 79.6638 142.912C80.2184 142.912 80.6558 142.789 80.9758 142.544C81.2958 142.299 81.4558 141.989 81.4558 141.616C81.4558 141.232 81.2851 140.949 80.9438 140.768C80.6024 140.576 80.0744 140.389 79.3598 140.208C78.7091 140.037 78.1758 139.867 77.7598 139.696C77.3544 139.515 77.0024 139.253 76.7038 138.912C76.4158 138.56 76.2718 138.101 76.2718 137.536C76.2718 137.088 76.4051 136.677 76.6718 136.304C76.9384 135.931 77.3171 135.637 77.8078 135.424C78.2984 135.2 78.8584 135.088 79.4878 135.088C80.4584 135.088 81.2424 135.333 81.8398 135.824C82.4371 136.315 82.7571 136.987 82.7998 137.84H81.3438C81.3118 137.381 81.1251 137.013 80.7838 136.736C80.4531 136.459 80.0051 136.32 79.4398 136.32C78.9171 136.32 78.5011 136.432 78.1918 136.656C77.8824 136.88 77.7278 137.173 77.7278 137.536C77.7278 137.824 77.8184 138.064 77.9998 138.256C78.1918 138.437 78.4264 138.587 78.7038 138.704C78.9918 138.811 79.3864 138.933 79.8878 139.072C80.5171 139.243 81.0291 139.413 81.4238 139.584C81.8184 139.744 82.1544 139.989 82.4318 140.32C82.7198 140.651 82.8691 141.083 82.8798 141.616C82.8798 142.096 82.7464 142.528 82.4798 142.912C82.2131 143.296 81.8344 143.6 81.3438 143.824C80.8638 144.037 80.3091 144.144 79.6798 144.144ZM85.6871 133.808C85.4098 133.808 85.1751 133.712 84.9831 133.52C84.7911 133.328 84.6951 133.093 84.6951 132.816C84.6951 132.539 84.7911 132.304 84.9831 132.112C85.1751 131.92 85.4098 131.824 85.6871 131.824C85.9538 131.824 86.1778 131.92 86.3591 132.112C86.5511 132.304 86.6471 132.539 86.6471 132.816C86.6471 133.093 86.5511 133.328 86.3591 133.52C86.1778 133.712 85.9538 133.808 85.6871 133.808ZM86.3911 135.232V144H84.9351V135.232H86.3911ZM90.6486 136.432V141.6C90.6486 142.027 90.7393 142.331 90.9206 142.512C91.102 142.683 91.4166 142.768 91.8646 142.768H92.9366V144H91.6246C90.814 144 90.206 143.813 89.8006 143.44C89.3953 143.067 89.1926 142.453 89.1926 141.6V136.432H88.0566V135.232H89.1926V133.024H90.6486V135.232H92.9366V136.432H90.6486ZM102.701 139.28C102.701 139.557 102.685 139.851 102.653 140.16H95.6448C95.6981 141.024 95.9914 141.701 96.5248 142.192C97.0688 142.672 97.7248 142.912 98.4928 142.912C99.1221 142.912 99.6448 142.768 100.061 142.48C100.487 142.181 100.786 141.787 100.957 141.296H102.525C102.29 142.139 101.821 142.827 101.117 143.36C100.413 143.883 99.5381 144.144 98.4928 144.144C97.6608 144.144 96.9141 143.957 96.2528 143.584C95.6021 143.211 95.0901 142.683 94.7168 142C94.3434 141.307 94.1568 140.507 94.1568 139.6C94.1568 138.693 94.3381 137.899 94.7008 137.216C95.0634 136.533 95.5701 136.011 96.2208 135.648C96.8821 135.275 97.6394 135.088 98.4928 135.088C99.3248 135.088 100.061 135.269 100.701 135.632C101.341 135.995 101.831 136.496 102.173 137.136C102.525 137.765 102.701 138.48 102.701 139.28ZM101.197 138.976C101.197 138.421 101.074 137.947 100.829 137.552C100.583 137.147 100.247 136.843 99.8208 136.64C99.4048 136.427 98.9408 136.32 98.4288 136.32C97.6928 136.32 97.0634 136.555 96.5408 137.024C96.0288 137.493 95.7354 138.144 95.6608 138.976H101.197ZM107.727 144.144C107.055 144.144 106.452 144.032 105.919 143.808C105.385 143.573 104.964 143.253 104.655 142.848C104.345 142.432 104.175 141.957 104.143 141.424H105.647C105.689 141.861 105.892 142.219 106.255 142.496C106.628 142.773 107.113 142.912 107.711 142.912C108.265 142.912 108.703 142.789 109.023 142.544C109.343 142.299 109.503 141.989 109.503 141.616C109.503 141.232 109.332 140.949 108.991 140.768C108.649 140.576 108.121 140.389 107.407 140.208C106.756 140.037 106.223 139.867 105.807 139.696C105.401 139.515 105.049 139.253 104.751 138.912C104.463 138.56 104.319 138.101 104.319 137.536C104.319 137.088 104.452 136.677 104.719 136.304C104.985 135.931 105.364 135.637 105.855 135.424C106.345 135.2 106.905 135.088 107.535 135.088C108.505 135.088 109.289 135.333 109.887 135.824C110.484 136.315 110.804 136.987 110.847 137.84H109.391C109.359 137.381 109.172 137.013 108.831 136.736C108.5 136.459 108.052 136.32 107.487 136.32C106.964 136.32 106.548 136.432 106.239 136.656C105.929 136.88 105.775 137.173 105.775 137.536C105.775 137.824 105.865 138.064 106.047 138.256C106.239 138.437 106.473 138.587 106.751 138.704C107.039 138.811 107.433 138.933 107.935 139.072C108.564 139.243 109.076 139.413 109.471 139.584C109.865 139.744 110.201 139.989 110.479 140.32C110.767 140.651 110.916 141.083 110.927 141.616C110.927 142.096 110.793 142.528 110.527 142.912C110.26 143.296 109.881 143.6 109.391 143.824C108.911 144.037 108.356 144.144 107.727 144.144ZM125.808 144L124.352 142.528C123.808 143.093 123.226 143.515 122.608 143.792C121.989 144.059 121.29 144.192 120.512 144.192C119.744 144.192 119.061 144.053 118.464 143.776C117.877 143.499 117.418 143.104 117.088 142.592C116.768 142.08 116.608 141.483 116.608 140.8C116.608 140.021 116.826 139.339 117.264 138.752C117.712 138.155 118.368 137.685 119.232 137.344C118.89 136.939 118.645 136.565 118.496 136.224C118.346 135.883 118.272 135.509 118.272 135.104C118.272 134.635 118.389 134.213 118.624 133.84C118.869 133.456 119.216 133.157 119.664 132.944C120.112 132.731 120.629 132.624 121.216 132.624C121.792 132.624 122.293 132.736 122.72 132.96C123.146 133.184 123.466 133.499 123.68 133.904C123.893 134.299 123.989 134.741 123.968 135.232H122.512C122.522 134.795 122.4 134.453 122.144 134.208C121.888 133.952 121.557 133.824 121.152 133.824C120.725 133.824 120.378 133.947 120.112 134.192C119.856 134.427 119.728 134.731 119.728 135.104C119.728 135.424 119.813 135.733 119.984 136.032C120.165 136.331 120.464 136.699 120.88 137.136L124.208 140.48L124.496 140.032L125.584 138.208H127.152L125.84 140.48C125.658 140.8 125.445 141.136 125.2 141.488L127.712 144H125.808ZM120.512 142.944C121.088 142.944 121.605 142.832 122.064 142.608C122.533 142.384 122.976 142.037 123.392 141.568L120.112 138.272C118.746 138.795 118.064 139.621 118.064 140.752C118.064 141.381 118.288 141.904 118.736 142.32C119.194 142.736 119.786 142.944 120.512 142.944ZM147.357 132.848L144.125 144H142.493L139.901 135.024L137.213 144L135.597 144.016L132.477 132.848H134.029L136.461 142.304L139.149 132.848H140.781L143.341 142.272L145.789 132.848H147.357ZM156.951 139.28C156.951 139.557 156.935 139.851 156.903 140.16H149.895C149.948 141.024 150.241 141.701 150.775 142.192C151.319 142.672 151.975 142.912 152.743 142.912C153.372 142.912 153.895 142.768 154.311 142.48C154.737 142.181 155.036 141.787 155.207 141.296H156.775C156.54 142.139 156.071 142.827 155.367 143.36C154.663 143.883 153.788 144.144 152.743 144.144C151.911 144.144 151.164 143.957 150.503 143.584C149.852 143.211 149.34 142.683 148.967 142C148.593 141.307 148.407 140.507 148.407 139.6C148.407 138.693 148.588 137.899 148.951 137.216C149.313 136.533 149.82 136.011 150.471 135.648C151.132 135.275 151.889 135.088 152.743 135.088C153.575 135.088 154.311 135.269 154.951 135.632C155.591 135.995 156.081 136.496 156.423 137.136C156.775 137.765 156.951 138.48 156.951 139.28ZM155.447 138.976C155.447 138.421 155.324 137.947 155.079 137.552C154.833 137.147 154.497 136.843 154.071 136.64C153.655 136.427 153.191 136.32 152.679 136.32C151.943 136.32 151.313 136.555 150.791 137.024C150.279 137.493 149.985 138.144 149.911 138.976H155.447ZM160.329 136.864C160.627 136.341 161.065 135.915 161.641 135.584C162.217 135.253 162.873 135.088 163.609 135.088C164.398 135.088 165.107 135.275 165.737 135.648C166.366 136.021 166.862 136.549 167.225 137.232C167.587 137.904 167.769 138.688 167.769 139.584C167.769 140.469 167.587 141.259 167.225 141.952C166.862 142.645 166.361 143.184 165.721 143.568C165.091 143.952 164.387 144.144 163.609 144.144C162.851 144.144 162.185 143.979 161.609 143.648C161.043 143.317 160.617 142.896 160.329 142.384V144H158.873V132.16H160.329V136.864ZM166.281 139.584C166.281 138.923 166.147 138.347 165.881 137.856C165.614 137.365 165.251 136.992 164.793 136.736C164.345 136.48 163.849 136.352 163.305 136.352C162.771 136.352 162.275 136.485 161.817 136.752C161.369 137.008 161.006 137.387 160.729 137.888C160.462 138.379 160.329 138.949 160.329 139.6C160.329 140.261 160.462 140.843 160.729 141.344C161.006 141.835 161.369 142.213 161.817 142.48C162.275 142.736 162.771 142.864 163.305 142.864C163.849 142.864 164.345 142.736 164.793 142.48C165.251 142.213 165.614 141.835 165.881 141.344C166.147 140.843 166.281 140.256 166.281 139.584ZM180.543 141.52H175.679L174.783 144H173.247L177.279 132.912H178.959L182.975 144H181.439L180.543 141.52ZM180.127 140.336L178.111 134.704L176.095 140.336H180.127ZM186.188 136.848C186.476 136.347 186.903 135.931 187.468 135.6C188.044 135.259 188.711 135.088 189.468 135.088C190.247 135.088 190.951 135.275 191.58 135.648C192.22 136.021 192.721 136.549 193.084 137.232C193.447 137.904 193.628 138.688 193.628 139.584C193.628 140.469 193.447 141.259 193.084 141.952C192.721 142.645 192.22 143.184 191.58 143.568C190.951 143.952 190.247 144.144 189.468 144.144C188.721 144.144 188.06 143.979 187.484 143.648C186.919 143.307 186.487 142.885 186.188 142.384V148.16H184.732V135.232H186.188V136.848ZM192.14 139.584C192.14 138.923 192.007 138.347 191.74 137.856C191.473 137.365 191.111 136.992 190.652 136.736C190.204 136.48 189.708 136.352 189.164 136.352C188.631 136.352 188.135 136.485 187.676 136.752C187.228 137.008 186.865 137.387 186.588 137.888C186.321 138.379 186.188 138.949 186.188 139.6C186.188 140.261 186.321 140.843 186.588 141.344C186.865 141.835 187.228 142.213 187.676 142.48C188.135 142.736 188.631 142.864 189.164 142.864C189.708 142.864 190.204 142.736 190.652 142.48C191.111 142.213 191.473 141.835 191.74 141.344C192.007 140.843 192.14 140.256 192.14 139.584ZM197.001 136.848C197.289 136.347 197.715 135.931 198.281 135.6C198.857 135.259 199.523 135.088 200.281 135.088C201.059 135.088 201.763 135.275 202.392 135.648C203.032 136.021 203.534 136.549 203.897 137.232C204.259 137.904 204.441 138.688 204.441 139.584C204.441 140.469 204.259 141.259 203.897 141.952C203.534 142.645 203.032 143.184 202.392 143.568C201.763 143.952 201.059 144.144 200.281 144.144C199.534 144.144 198.873 143.979 198.297 143.648C197.731 143.307 197.299 142.885 197.001 142.384V148.16H195.545V135.232H197.001V136.848ZM202.953 139.584C202.953 138.923 202.819 138.347 202.553 137.856C202.286 137.365 201.923 136.992 201.465 136.736C201.017 136.48 200.521 136.352 199.977 136.352C199.443 136.352 198.947 136.485 198.489 136.752C198.041 137.008 197.678 137.387 197.401 137.888C197.134 138.379 197.001 138.949 197.001 139.6C197.001 140.261 197.134 140.843 197.401 141.344C197.678 141.835 198.041 142.213 198.489 142.48C198.947 142.736 199.443 142.864 199.977 142.864C200.521 142.864 201.017 142.736 201.465 142.48C201.923 142.213 202.286 141.835 202.553 141.344C202.819 140.843 202.953 140.256 202.953 139.584ZM209.461 144.144C208.789 144.144 208.186 144.032 207.653 143.808C207.12 143.573 206.698 143.253 206.389 142.848C206.08 142.432 205.909 141.957 205.877 141.424H207.381C207.424 141.861 207.626 142.219 207.989 142.496C208.362 142.773 208.848 142.912 209.445 142.912C210 142.912 210.437 142.789 210.757 142.544C211.077 142.299 211.237 141.989 211.237 141.616C211.237 141.232 211.066 140.949 210.725 140.768C210.384 140.576 209.856 140.389 209.141 140.208C208.49 140.037 207.957 139.867 207.541 139.696C207.136 139.515 206.784 139.253 206.485 138.912C206.197 138.56 206.053 138.101 206.053 137.536C206.053 137.088 206.186 136.677 206.453 136.304C206.72 135.931 207.098 135.637 207.589 135.424C208.08 135.2 208.64 135.088 209.269 135.088C210.24 135.088 211.024 135.333 211.621 135.824C212.218 136.315 212.538 136.987 212.581 137.84H211.125C211.093 137.381 210.906 137.013 210.565 136.736C210.234 136.459 209.786 136.32 209.221 136.32C208.698 136.32 208.282 136.432 207.973 136.656C207.664 136.88 207.509 137.173 207.509 137.536C207.509 137.824 207.6 138.064 207.781 138.256C207.973 138.437 208.208 138.587 208.485 138.704C208.773 138.811 209.168 138.933 209.669 139.072C210.298 139.243 210.81 139.413 211.205 139.584C211.6 139.744 211.936 139.989 212.213 140.32C212.501 140.651 212.65 141.083 212.661 141.616C212.661 142.096 212.528 142.528 212.261 142.912C211.994 143.296 211.616 143.6 211.125 143.824C210.645 144.037 210.09 144.144 209.461 144.144Z" fill="#F5F7FA"/>
</g>
<g filter="url(#filter4_d_130_1077)">
<rect x="229" y="116" width="153" height="44" rx="22" fill="white" fill-opacity="0.2" shape-rendering="crispEdges"/>
<rect x="229.5" y="116.5" width="152" height="43" rx="21.5" stroke="white" stroke-opacity="0.2" shape-rendering="crispEdges"/>
<path d="M246.824 141.52H241.96L241.064 144H239.528L243.56 132.912H245.24L249.256 144H247.72L246.824 141.52ZM246.408 140.336L244.392 134.704L242.376 140.336H246.408ZM252.469 132.848V144H251.013V132.848H252.469ZM267.776 144L266.32 142.528C265.776 143.093 265.195 143.515 264.576 143.792C263.958 144.059 263.259 144.192 262.48 144.192C261.712 144.192 261.03 144.053 260.432 143.776C259.846 143.499 259.387 143.104 259.056 142.592C258.736 142.08 258.576 141.483 258.576 140.8C258.576 140.021 258.795 139.339 259.232 138.752C259.68 138.155 260.336 137.685 261.2 137.344C260.859 136.939 260.614 136.565 260.464 136.224C260.315 135.883 260.24 135.509 260.24 135.104C260.24 134.635 260.358 134.213 260.592 133.84C260.838 133.456 261.184 133.157 261.632 132.944C262.08 132.731 262.598 132.624 263.184 132.624C263.76 132.624 264.262 132.736 264.688 132.96C265.115 133.184 265.435 133.499 265.648 133.904C265.862 134.299 265.958 134.741 265.936 135.232H264.48C264.491 134.795 264.368 134.453 264.112 134.208C263.856 133.952 263.526 133.824 263.12 133.824C262.694 133.824 262.347 133.947 262.08 134.192C261.824 134.427 261.696 134.731 261.696 135.104C261.696 135.424 261.782 135.733 261.952 136.032C262.134 136.331 262.432 136.699 262.848 137.136L266.176 140.48L266.464 140.032L267.552 138.208H269.12L267.808 140.48C267.627 140.8 267.414 141.136 267.168 141.488L269.68 144H267.776ZM262.48 142.944C263.056 142.944 263.574 142.832 264.032 142.608C264.502 142.384 264.944 142.037 265.36 141.568L262.08 138.272C260.715 138.795 260.032 139.621 260.032 140.752C260.032 141.381 260.256 141.904 260.704 142.32C261.163 142.736 261.755 142.944 262.48 142.944ZM286.622 132.928V144H285.166V135.744L281.486 144H280.462L276.766 135.728V144H275.31V132.928H276.878L280.974 142.08L285.07 132.928H286.622ZM290.547 142.816H294.451V144H289.091V132.848H290.547V142.816ZM303.799 144.112C303.063 144.112 302.402 143.984 301.815 143.728C301.239 143.461 300.786 143.099 300.455 142.64C300.125 142.171 299.954 141.632 299.943 141.024H301.495C301.549 141.547 301.762 141.989 302.135 142.352C302.519 142.704 303.074 142.88 303.799 142.88C304.493 142.88 305.037 142.709 305.431 142.368C305.837 142.016 306.039 141.568 306.039 141.024C306.039 140.597 305.922 140.251 305.687 139.984C305.453 139.717 305.159 139.515 304.807 139.376C304.455 139.237 303.981 139.088 303.383 138.928C302.647 138.736 302.055 138.544 301.607 138.352C301.17 138.16 300.791 137.861 300.471 137.456C300.162 137.04 300.007 136.485 300.007 135.792C300.007 135.184 300.162 134.645 300.471 134.176C300.781 133.707 301.213 133.344 301.767 133.088C302.333 132.832 302.978 132.704 303.703 132.704C304.749 132.704 305.602 132.965 306.263 133.488C306.935 134.011 307.314 134.704 307.399 135.568H305.799C305.746 135.141 305.522 134.768 305.127 134.448C304.733 134.117 304.21 133.952 303.559 133.952C302.951 133.952 302.455 134.112 302.071 134.432C301.687 134.741 301.495 135.179 301.495 135.744C301.495 136.149 301.607 136.48 301.831 136.736C302.066 136.992 302.349 137.189 302.679 137.328C303.021 137.456 303.495 137.605 304.103 137.776C304.839 137.979 305.431 138.181 305.879 138.384C306.327 138.576 306.711 138.88 307.031 139.296C307.351 139.701 307.511 140.256 307.511 140.96C307.511 141.504 307.367 142.016 307.079 142.496C306.791 142.976 306.365 143.365 305.799 143.664C305.234 143.963 304.567 144.112 303.799 144.112ZM313.478 144.144C312.657 144.144 311.91 143.957 311.238 143.584C310.577 143.211 310.054 142.683 309.67 142C309.297 141.307 309.11 140.507 309.11 139.6C309.11 138.704 309.302 137.915 309.686 137.232C310.081 136.539 310.614 136.011 311.286 135.648C311.958 135.275 312.71 135.088 313.542 135.088C314.374 135.088 315.126 135.275 315.798 135.648C316.47 136.011 316.998 136.533 317.382 137.216C317.777 137.899 317.974 138.693 317.974 139.6C317.974 140.507 317.771 141.307 317.366 142C316.971 142.683 316.433 143.211 315.75 143.584C315.067 143.957 314.31 144.144 313.478 144.144ZM313.478 142.864C314.001 142.864 314.491 142.741 314.95 142.496C315.409 142.251 315.777 141.883 316.054 141.392C316.342 140.901 316.486 140.304 316.486 139.6C316.486 138.896 316.347 138.299 316.07 137.808C315.793 137.317 315.43 136.955 314.982 136.72C314.534 136.475 314.049 136.352 313.526 136.352C312.993 136.352 312.502 136.475 312.054 136.72C311.617 136.955 311.265 137.317 310.998 137.808C310.731 138.299 310.598 138.896 310.598 139.6C310.598 140.315 310.726 140.917 310.982 141.408C311.249 141.899 311.601 142.267 312.038 142.512C312.475 142.747 312.955 142.864 313.478 142.864ZM321.344 132.16V144H319.888V132.16H321.344ZM331.602 135.232V144H330.146V142.704C329.868 143.152 329.479 143.504 328.978 143.76C328.487 144.005 327.943 144.128 327.346 144.128C326.663 144.128 326.05 143.989 325.506 143.712C324.962 143.424 324.53 142.997 324.21 142.432C323.9 141.867 323.746 141.179 323.746 140.368V135.232H325.186V140.176C325.186 141.04 325.404 141.707 325.842 142.176C326.279 142.635 326.876 142.864 327.634 142.864C328.412 142.864 329.026 142.624 329.474 142.144C329.922 141.664 330.146 140.965 330.146 140.048V135.232H331.602ZM335.836 136.432V141.6C335.836 142.027 335.927 142.331 336.108 142.512C336.289 142.683 336.604 142.768 337.052 142.768H338.124V144H336.812C336.001 144 335.393 143.813 334.988 143.44C334.583 143.067 334.38 142.453 334.38 141.6V136.432H333.244V135.232H334.38V133.024H335.836V135.232H338.124V136.432H335.836ZM340.64 133.808C340.363 133.808 340.128 133.712 339.936 133.52C339.744 133.328 339.648 133.093 339.648 132.816C339.648 132.539 339.744 132.304 339.936 132.112C340.128 131.92 340.363 131.824 340.64 131.824C340.907 131.824 341.131 131.92 341.312 132.112C341.504 132.304 341.6 132.539 341.6 132.816C341.6 133.093 341.504 133.328 341.312 133.52C341.131 133.712 340.907 133.808 340.64 133.808ZM341.344 135.232V144H339.888V135.232H341.344ZM347.65 144.144C346.828 144.144 346.082 143.957 345.41 143.584C344.748 143.211 344.226 142.683 343.842 142C343.468 141.307 343.282 140.507 343.282 139.6C343.282 138.704 343.474 137.915 343.858 137.232C344.252 136.539 344.786 136.011 345.458 135.648C346.13 135.275 346.882 135.088 347.714 135.088C348.546 135.088 349.298 135.275 349.97 135.648C350.642 136.011 351.17 136.533 351.554 137.216C351.948 137.899 352.146 138.693 352.146 139.6C352.146 140.507 351.943 141.307 351.538 142C351.143 142.683 350.604 143.211 349.922 143.584C349.239 143.957 348.482 144.144 347.65 144.144ZM347.65 142.864C348.172 142.864 348.663 142.741 349.122 142.496C349.58 142.251 349.948 141.883 350.226 141.392C350.514 140.901 350.658 140.304 350.658 139.6C350.658 138.896 350.519 138.299 350.242 137.808C349.964 137.317 349.602 136.955 349.154 136.72C348.706 136.475 348.22 136.352 347.698 136.352C347.164 136.352 346.674 136.475 346.226 136.72C345.788 136.955 345.436 137.317 345.17 137.808C344.903 138.299 344.77 138.896 344.77 139.6C344.77 140.315 344.898 140.917 345.154 141.408C345.42 141.899 345.772 142.267 346.21 142.512C346.647 142.747 347.127 142.864 347.65 142.864ZM358.332 135.072C359.399 135.072 360.263 135.397 360.924 136.048C361.585 136.688 361.916 137.616 361.916 138.832V144H360.476V139.04C360.476 138.165 360.257 137.499 359.82 137.04C359.383 136.571 358.785 136.336 358.028 136.336C357.26 136.336 356.647 136.576 356.188 137.056C355.74 137.536 355.516 138.235 355.516 139.152V144H354.06V135.232H355.516V136.48C355.804 136.032 356.193 135.685 356.684 135.44C357.185 135.195 357.735 135.072 358.332 135.072ZM367.399 144.144C366.727 144.144 366.124 144.032 365.591 143.808C365.057 143.573 364.636 143.253 364.327 142.848C364.017 142.432 363.847 141.957 363.815 141.424H365.319C365.361 141.861 365.564 142.219 365.927 142.496C366.3 142.773 366.785 142.912 367.383 142.912C367.937 142.912 368.375 142.789 368.695 142.544C369.015 142.299 369.175 141.989 369.175 141.616C369.175 141.232 369.004 140.949 368.663 140.768C368.321 140.576 367.793 140.389 367.079 140.208C366.428 140.037 365.895 139.867 365.479 139.696C365.073 139.515 364.721 139.253 364.423 138.912C364.135 138.56 363.991 138.101 363.991 137.536C363.991 137.088 364.124 136.677 364.391 136.304C364.657 135.931 365.036 135.637 365.527 135.424C366.017 135.2 366.577 135.088 367.207 135.088C368.177 135.088 368.961 135.333 369.559 135.824C370.156 136.315 370.476 136.987 370.519 137.84H369.063C369.031 137.381 368.844 137.013 368.503 136.736C368.172 136.459 367.724 136.32 367.159 136.32C366.636 136.32 366.22 136.432 365.911 136.656C365.601 136.88 365.447 137.173 365.447 137.536C365.447 137.824 365.537 138.064 365.719 138.256C365.911 138.437 366.145 138.587 366.423 138.704C366.711 138.811 367.105 138.933 367.607 139.072C368.236 139.243 368.748 139.413 369.143 139.584C369.537 139.744 369.873 139.989 370.151 140.32C370.439 140.651 370.588 141.083 370.599 141.616C370.599 142.096 370.465 142.528 370.199 142.912C369.932 143.296 369.553 143.6 369.063 143.824C368.583 144.037 368.028 144.144 367.399 144.144Z" fill="#F5F7FA"/>
</g>
<g filter="url(#filter5_d_130_1077)">
<rect x="29" y="180" width="214" height="44" rx="22" fill="white" fill-opacity="0.2" shape-rendering="crispEdges"/>
<rect x="29.5" y="180.5" width="213" height="43" rx="21.5" stroke="white" stroke-opacity="0.2" shape-rendering="crispEdges"/>
<path d="M46.268 208.112C45.532 208.112 44.8707 207.984 44.284 207.728C43.708 207.461 43.2547 207.099 42.924 206.64C42.5933 206.171 42.4227 205.632 42.412 205.024H43.964C44.0173 205.547 44.2307 205.989 44.604 206.352C44.988 206.704 45.5427 206.88 46.268 206.88C46.9613 206.88 47.5053 206.709 47.9 206.368C48.3053 206.016 48.508 205.568 48.508 205.024C48.508 204.597 48.3907 204.251 48.156 203.984C47.9213 203.717 47.628 203.515 47.276 203.376C46.924 203.237 46.4493 203.088 45.852 202.928C45.116 202.736 44.524 202.544 44.076 202.352C43.6387 202.16 43.26 201.861 42.94 201.456C42.6307 201.04 42.476 200.485 42.476 199.792C42.476 199.184 42.6307 198.645 42.94 198.176C43.2493 197.707 43.6813 197.344 44.236 197.088C44.8013 196.832 45.4467 196.704 46.172 196.704C47.2173 196.704 48.0707 196.965 48.732 197.488C49.404 198.011 49.7827 198.704 49.868 199.568H48.268C48.2147 199.141 47.9907 198.768 47.596 198.448C47.2013 198.117 46.6787 197.952 46.028 197.952C45.42 197.952 44.924 198.112 44.54 198.432C44.156 198.741 43.964 199.179 43.964 199.744C43.964 200.149 44.076 200.48 44.3 200.736C44.5347 200.992 44.8173 201.189 45.148 201.328C45.4893 201.456 45.964 201.605 46.572 201.776C47.308 201.979 47.9 202.181 48.348 202.384C48.796 202.576 49.18 202.88 49.5 203.296C49.82 203.701 49.98 204.256 49.98 204.96C49.98 205.504 49.836 206.016 49.548 206.496C49.26 206.976 48.8333 207.365 48.268 207.664C47.7027 207.963 47.036 208.112 46.268 208.112ZM55.9466 208.144C55.1253 208.144 54.3786 207.957 53.7066 207.584C53.0453 207.211 52.5226 206.683 52.1386 206C51.7653 205.307 51.5786 204.507 51.5786 203.6C51.5786 202.704 51.7706 201.915 52.1546 201.232C52.5493 200.539 53.0826 200.011 53.7546 199.648C54.4266 199.275 55.1786 199.088 56.0106 199.088C56.8426 199.088 57.5946 199.275 58.2666 199.648C58.9386 200.011 59.4666 200.533 59.8506 201.216C60.2453 201.899 60.4426 202.693 60.4426 203.6C60.4426 204.507 60.24 205.307 59.8346 206C59.44 206.683 58.9013 207.211 58.2186 207.584C57.536 207.957 56.7786 208.144 55.9466 208.144ZM55.9466 206.864C56.4693 206.864 56.96 206.741 57.4186 206.496C57.8773 206.251 58.2453 205.883 58.5226 205.392C58.8106 204.901 58.9546 204.304 58.9546 203.6C58.9546 202.896 58.816 202.299 58.5386 201.808C58.2613 201.317 57.8986 200.955 57.4506 200.72C57.0026 200.475 56.5173 200.352 55.9946 200.352C55.4613 200.352 54.9706 200.475 54.5226 200.72C54.0853 200.955 53.7333 201.317 53.4666 201.808C53.2 202.299 53.0666 202.896 53.0666 203.6C53.0666 204.315 53.1946 204.917 53.4506 205.408C53.7173 205.899 54.0693 206.267 54.5066 206.512C54.944 206.747 55.424 206.864 55.9466 206.864ZM65.925 200.432H64.085V208H62.629V200.432H61.493V199.232H62.629V198.608C62.629 197.627 62.8797 196.912 63.381 196.464C63.893 196.005 64.709 195.776 65.829 195.776V196.992C65.189 196.992 64.7357 197.12 64.469 197.376C64.213 197.621 64.085 198.032 64.085 198.608V199.232H65.925V200.432ZM69.3986 200.432V205.6C69.3986 206.027 69.4893 206.331 69.6706 206.512C69.852 206.683 70.1666 206.768 70.6146 206.768H71.6866V208H70.3746C69.564 208 68.956 207.813 68.5506 207.44C68.1453 207.067 67.9426 206.453 67.9426 205.6V200.432H66.8066V199.232H67.9426V197.024H69.3986V199.232H71.6866V200.432H69.3986ZM85.1308 199.232L82.3948 208H80.8908L78.7788 201.04L76.6668 208H75.1628L72.4108 199.232H73.8988L75.9148 206.592L78.0908 199.232H79.5788L81.7068 206.608L83.6908 199.232H85.1308ZM86.0318 203.584C86.0318 202.688 86.2131 201.904 86.5758 201.232C86.9384 200.549 87.4344 200.021 88.0638 199.648C88.7038 199.275 89.4131 199.088 90.1918 199.088C90.9598 199.088 91.6264 199.253 92.1918 199.584C92.7571 199.915 93.1784 200.331 93.4558 200.832V199.232H94.9278V208H93.4558V206.368C93.1678 206.88 92.7358 207.307 92.1598 207.648C91.5944 207.979 90.9331 208.144 90.1758 208.144C89.3971 208.144 88.6931 207.952 88.0638 207.568C87.4344 207.184 86.9384 206.645 86.5758 205.952C86.2131 205.259 86.0318 204.469 86.0318 203.584ZM93.4558 203.6C93.4558 202.939 93.3224 202.363 93.0558 201.872C92.7891 201.381 92.4264 201.008 91.9678 200.752C91.5198 200.485 91.0238 200.352 90.4798 200.352C89.9358 200.352 89.4398 200.48 88.9918 200.736C88.5438 200.992 88.1864 201.365 87.9198 201.856C87.6531 202.347 87.5198 202.923 87.5198 203.584C87.5198 204.256 87.6531 204.843 87.9198 205.344C88.1864 205.835 88.5438 206.213 88.9918 206.48C89.4398 206.736 89.9358 206.864 90.4798 206.864C91.0238 206.864 91.5198 206.736 91.9678 206.48C92.4264 206.213 92.7891 205.835 93.0558 205.344C93.3224 204.843 93.4558 204.261 93.4558 203.6ZM98.8443 200.656C99.1003 200.155 99.4629 199.765 99.9323 199.488C100.412 199.211 100.994 199.072 101.676 199.072V200.576H101.292C99.6603 200.576 98.8443 201.461 98.8443 203.232V208H97.3883V199.232H98.8443V200.656ZM111.357 203.28C111.357 203.557 111.341 203.851 111.309 204.16H104.301C104.354 205.024 104.648 205.701 105.181 206.192C105.725 206.672 106.381 206.912 107.149 206.912C107.778 206.912 108.301 206.768 108.717 206.48C109.144 206.181 109.442 205.787 109.613 205.296H111.181C110.946 206.139 110.477 206.827 109.773 207.36C109.069 207.883 108.194 208.144 107.149 208.144C106.317 208.144 105.57 207.957 104.909 207.584C104.258 207.211 103.746 206.683 103.373 206C103 205.307 102.813 204.507 102.813 203.6C102.813 202.693 102.994 201.899 103.357 201.216C103.72 200.533 104.226 200.011 104.877 199.648C105.538 199.275 106.296 199.088 107.149 199.088C107.981 199.088 108.717 199.269 109.357 199.632C109.997 199.995 110.488 200.496 110.829 201.136C111.181 201.765 111.357 202.48 111.357 203.28ZM109.853 202.976C109.853 202.421 109.73 201.947 109.485 201.552C109.24 201.147 108.904 200.843 108.477 200.64C108.061 200.427 107.597 200.32 107.085 200.32C106.349 200.32 105.72 200.555 105.197 201.024C104.685 201.493 104.392 202.144 104.317 202.976H109.853ZM126.105 208L124.649 206.528C124.105 207.093 123.523 207.515 122.905 207.792C122.286 208.059 121.587 208.192 120.809 208.192C120.041 208.192 119.358 208.053 118.761 207.776C118.174 207.499 117.715 207.104 117.385 206.592C117.065 206.08 116.905 205.483 116.905 204.8C116.905 204.021 117.123 203.339 117.561 202.752C118.009 202.155 118.665 201.685 119.529 201.344C119.187 200.939 118.942 200.565 118.793 200.224C118.643 199.883 118.569 199.509 118.569 199.104C118.569 198.635 118.686 198.213 118.921 197.84C119.166 197.456 119.513 197.157 119.961 196.944C120.409 196.731 120.926 196.624 121.513 196.624C122.089 196.624 122.59 196.736 123.017 196.96C123.443 197.184 123.763 197.499 123.977 197.904C124.19 198.299 124.286 198.741 124.265 199.232H122.809C122.819 198.795 122.697 198.453 122.441 198.208C122.185 197.952 121.854 197.824 121.449 197.824C121.022 197.824 120.675 197.947 120.409 198.192C120.153 198.427 120.025 198.731 120.025 199.104C120.025 199.424 120.11 199.733 120.281 200.032C120.462 200.331 120.761 200.699 121.177 201.136L124.505 204.48L124.793 204.032L125.881 202.208H127.449L126.137 204.48C125.955 204.8 125.742 205.136 125.497 205.488L128.009 208H126.105ZM120.809 206.944C121.385 206.944 121.902 206.832 122.361 206.608C122.83 206.384 123.273 206.037 123.689 205.568L120.409 202.272C119.043 202.795 118.361 203.621 118.361 204.752C118.361 205.381 118.585 205.904 119.033 206.32C119.491 206.736 120.083 206.944 120.809 206.944ZM144.95 196.928V208H143.494V199.744L139.814 208H138.79L135.094 199.728V208H133.638V196.928H135.206L139.302 206.08L143.398 196.928H144.95ZM151.244 208.144C150.422 208.144 149.676 207.957 149.004 207.584C148.342 207.211 147.82 206.683 147.436 206C147.062 205.307 146.876 204.507 146.876 203.6C146.876 202.704 147.068 201.915 147.452 201.232C147.846 200.539 148.38 200.011 149.052 199.648C149.724 199.275 150.476 199.088 151.308 199.088C152.14 199.088 152.892 199.275 153.564 199.648C154.236 200.011 154.764 200.533 155.148 201.216C155.542 201.899 155.74 202.693 155.74 203.6C155.74 204.507 155.537 205.307 155.132 206C154.737 206.683 154.198 207.211 153.516 207.584C152.833 207.957 152.076 208.144 151.244 208.144ZM151.244 206.864C151.766 206.864 152.257 206.741 152.716 206.496C153.174 206.251 153.542 205.883 153.82 205.392C154.108 204.901 154.252 204.304 154.252 203.6C154.252 202.896 154.113 202.299 153.836 201.808C153.558 201.317 153.196 200.955 152.748 200.72C152.3 200.475 151.814 200.352 151.292 200.352C150.758 200.352 150.268 200.475 149.82 200.72C149.382 200.955 149.03 201.317 148.764 201.808C148.497 202.299 148.364 202.896 148.364 203.6C148.364 204.315 148.492 204.917 148.748 205.408C149.014 205.899 149.366 206.267 149.804 206.512C150.241 206.747 150.721 206.864 151.244 206.864ZM159.11 200.864C159.409 200.341 159.846 199.915 160.422 199.584C160.998 199.253 161.654 199.088 162.39 199.088C163.179 199.088 163.889 199.275 164.518 199.648C165.147 200.021 165.643 200.549 166.006 201.232C166.369 201.904 166.55 202.688 166.55 203.584C166.55 204.469 166.369 205.259 166.006 205.952C165.643 206.645 165.142 207.184 164.502 207.568C163.873 207.952 163.169 208.144 162.39 208.144C161.633 208.144 160.966 207.979 160.39 207.648C159.825 207.317 159.398 206.896 159.11 206.384V208H157.654V196.16H159.11V200.864ZM165.062 203.584C165.062 202.923 164.929 202.347 164.662 201.856C164.395 201.365 164.033 200.992 163.574 200.736C163.126 200.48 162.63 200.352 162.086 200.352C161.553 200.352 161.057 200.485 160.598 200.752C160.15 201.008 159.787 201.387 159.51 201.888C159.243 202.379 159.11 202.949 159.11 203.6C159.11 204.261 159.243 204.843 159.51 205.344C159.787 205.835 160.15 206.213 160.598 206.48C161.057 206.736 161.553 206.864 162.086 206.864C162.63 206.864 163.126 206.736 163.574 206.48C164.033 206.213 164.395 205.835 164.662 205.344C164.929 204.843 165.062 204.256 165.062 203.584ZM169.218 197.808C168.941 197.808 168.706 197.712 168.514 197.52C168.322 197.328 168.226 197.093 168.226 196.816C168.226 196.539 168.322 196.304 168.514 196.112C168.706 195.92 168.941 195.824 169.218 195.824C169.485 195.824 169.709 195.92 169.89 196.112C170.082 196.304 170.178 196.539 170.178 196.816C170.178 197.093 170.082 197.328 169.89 197.52C169.709 197.712 169.485 197.808 169.218 197.808ZM169.922 199.232V208H168.466V199.232H169.922ZM173.86 196.16V208H172.404V196.16H173.86ZM184.341 203.28C184.341 203.557 184.325 203.851 184.293 204.16H177.285C177.339 205.024 177.632 205.701 178.165 206.192C178.709 206.672 179.365 206.912 180.133 206.912C180.763 206.912 181.285 206.768 181.701 206.48C182.128 206.181 182.427 205.787 182.597 205.296H184.165C183.931 206.139 183.461 206.827 182.757 207.36C182.053 207.883 181.179 208.144 180.133 208.144C179.301 208.144 178.555 207.957 177.893 207.584C177.243 207.211 176.731 206.683 176.357 206C175.984 205.307 175.797 204.507 175.797 203.6C175.797 202.693 175.979 201.899 176.341 201.216C176.704 200.533 177.211 200.011 177.861 199.648C178.523 199.275 179.28 199.088 180.133 199.088C180.965 199.088 181.701 199.269 182.341 199.632C182.981 199.995 183.472 200.496 183.813 201.136C184.165 201.765 184.341 202.48 184.341 203.28ZM182.837 202.976C182.837 202.421 182.715 201.947 182.469 201.552C182.224 201.147 181.888 200.843 181.461 200.64C181.045 200.427 180.581 200.32 180.069 200.32C179.333 200.32 178.704 200.555 178.181 201.024C177.669 201.493 177.376 202.144 177.301 202.976H182.837ZM197.121 205.52H192.257L191.361 208H189.825L193.857 196.912H195.537L199.553 208H198.017L197.121 205.52ZM196.705 204.336L194.689 198.704L192.673 204.336H196.705ZM202.766 200.848C203.054 200.347 203.481 199.931 204.046 199.6C204.622 199.259 205.289 199.088 206.046 199.088C206.825 199.088 207.529 199.275 208.158 199.648C208.798 200.021 209.299 200.549 209.662 201.232C210.025 201.904 210.206 202.688 210.206 203.584C210.206 204.469 210.025 205.259 209.662 205.952C209.299 206.645 208.798 207.184 208.158 207.568C207.529 207.952 206.825 208.144 206.046 208.144C205.299 208.144 204.638 207.979 204.062 207.648C203.497 207.307 203.065 206.885 202.766 206.384V212.16H201.31V199.232H202.766V200.848ZM208.718 203.584C208.718 202.923 208.585 202.347 208.318 201.856C208.051 201.365 207.689 200.992 207.23 200.736C206.782 200.48 206.286 200.352 205.742 200.352C205.209 200.352 204.713 200.485 204.254 200.752C203.806 201.008 203.443 201.387 203.166 201.888C202.899 202.379 202.766 202.949 202.766 203.6C202.766 204.261 202.899 204.843 203.166 205.344C203.443 205.835 203.806 206.213 204.254 206.48C204.713 206.736 205.209 206.864 205.742 206.864C206.286 206.864 206.782 206.736 207.23 206.48C207.689 206.213 208.051 205.835 208.318 205.344C208.585 204.843 208.718 204.256 208.718 203.584ZM213.579 200.848C213.867 200.347 214.293 199.931 214.859 199.6C215.435 199.259 216.101 199.088 216.859 199.088C217.637 199.088 218.341 199.275 218.971 199.648C219.611 200.021 220.112 200.549 220.475 201.232C220.837 201.904 221.019 202.688 221.019 203.584C221.019 204.469 220.837 205.259 220.475 205.952C220.112 206.645 219.611 207.184 218.971 207.568C218.341 207.952 217.637 208.144 216.859 208.144C216.112 208.144 215.451 207.979 214.875 207.648C214.309 207.307 213.877 206.885 213.579 206.384V212.16H212.123V199.232H213.579V200.848ZM219.531 203.584C219.531 202.923 219.397 202.347 219.131 201.856C218.864 201.365 218.501 200.992 218.043 200.736C217.595 200.48 217.099 200.352 216.555 200.352C216.021 200.352 215.525 200.485 215.067 200.752C214.619 201.008 214.256 201.387 213.979 201.888C213.712 202.379 213.579 202.949 213.579 203.6C213.579 204.261 213.712 204.843 213.979 205.344C214.256 205.835 214.619 206.213 215.067 206.48C215.525 206.736 216.021 206.864 216.555 206.864C217.099 206.864 217.595 206.736 218.043 206.48C218.501 206.213 218.864 205.835 219.131 205.344C219.397 204.843 219.531 204.256 219.531 203.584ZM226.039 208.144C225.367 208.144 224.764 208.032 224.231 207.808C223.698 207.573 223.276 207.253 222.967 206.848C222.658 206.432 222.487 205.957 222.455 205.424H223.959C224.002 205.861 224.204 206.219 224.567 206.496C224.94 206.773 225.426 206.912 226.023 206.912C226.578 206.912 227.015 206.789 227.335 206.544C227.655 206.299 227.815 205.989 227.815 205.616C227.815 205.232 227.644 204.949 227.303 204.768C226.962 204.576 226.434 204.389 225.719 204.208C225.068 204.037 224.535 203.867 224.119 203.696C223.714 203.515 223.362 203.253 223.063 202.912C222.775 202.56 222.631 202.101 222.631 201.536C222.631 201.088 222.764 200.677 223.031 200.304C223.298 199.931 223.676 199.637 224.167 199.424C224.658 199.2 225.218 199.088 225.847 199.088C226.818 199.088 227.602 199.333 228.199 199.824C228.796 200.315 229.116 200.987 229.159 201.84H227.703C227.671 201.381 227.484 201.013 227.143 200.736C226.812 200.459 226.364 200.32 225.799 200.32C225.276 200.32 224.86 200.432 224.551 200.656C224.242 200.88 224.087 201.173 224.087 201.536C224.087 201.824 224.178 202.064 224.359 202.256C224.551 202.437 224.786 202.587 225.063 202.704C225.351 202.811 225.746 202.933 226.247 203.072C226.876 203.243 227.388 203.413 227.783 203.584C228.178 203.744 228.514 203.989 228.791 204.32C229.079 204.651 229.228 205.083 229.239 205.616C229.239 206.096 229.106 206.528 228.839 206.912C228.572 207.296 228.194 207.6 227.703 207.824C227.223 208.037 226.668 208.144 226.039 208.144Z" fill="#F5F7FA"/>
</g>
<g filter="url(#filter6_d_130_1077)">
<rect x="248" y="180" width="132" height="44" rx="22" fill="white" fill-opacity="0.2" shape-rendering="crispEdges"/>
<rect x="248.5" y="180.5" width="131" height="43" rx="21.5" stroke="white" stroke-opacity="0.2" shape-rendering="crispEdges"/>
<path d="M265.656 196.848V203.904C265.656 204.896 265.896 205.632 266.376 206.112C266.867 206.592 267.544 206.832 268.408 206.832C269.261 206.832 269.928 206.592 270.408 206.112C270.899 205.632 271.144 204.896 271.144 203.904V196.848H272.6V203.888C272.6 204.816 272.413 205.6 272.04 206.24C271.667 206.869 271.16 207.339 270.52 207.648C269.891 207.957 269.181 208.112 268.392 208.112C267.603 208.112 266.888 207.957 266.248 207.648C265.619 207.339 265.117 206.869 264.744 206.24C264.381 205.6 264.2 204.816 264.2 203.888V196.848H265.656ZM276.485 196.848V208H275.029V196.848H276.485ZM284.406 192.928L280.022 210.72H278.582L282.95 192.928H284.406ZM288 196.848V203.904C288 204.896 288.24 205.632 288.72 206.112C289.21 206.592 289.888 206.832 290.752 206.832C291.605 206.832 292.272 206.592 292.752 206.112C293.242 205.632 293.488 204.896 293.488 203.904V196.848H294.944V203.888C294.944 204.816 294.757 205.6 294.384 206.24C294.01 206.869 293.504 207.339 292.864 207.648C292.234 207.957 291.525 208.112 290.736 208.112C289.946 208.112 289.232 207.957 288.592 207.648C287.962 207.339 287.461 206.869 287.088 206.24C286.725 205.6 286.544 204.816 286.544 203.888V196.848H288ZM301.933 202.432L305.357 208H303.709L301.037 203.648L298.493 208H296.877L300.285 202.432L296.861 196.848H298.493L301.181 201.216L303.741 196.848H305.373L301.933 202.432ZM315.048 196.848C316.264 196.848 317.314 197.077 318.2 197.536C319.096 197.984 319.778 198.629 320.248 199.472C320.728 200.315 320.968 201.307 320.968 202.448C320.968 203.589 320.728 204.581 320.248 205.424C319.778 206.256 319.096 206.896 318.2 207.344C317.314 207.781 316.264 208 315.048 208H311.576V196.848H315.048ZM315.048 206.8C316.488 206.8 317.586 206.421 318.344 205.664C319.101 204.896 319.48 203.824 319.48 202.448C319.48 201.061 319.096 199.979 318.328 199.2C317.57 198.421 316.477 198.032 315.048 198.032H313.032V206.8H315.048ZM330.888 203.28C330.888 203.557 330.872 203.851 330.84 204.16H323.832C323.886 205.024 324.179 205.701 324.712 206.192C325.256 206.672 325.912 206.912 326.68 206.912C327.31 206.912 327.832 206.768 328.248 206.48C328.675 206.181 328.974 205.787 329.144 205.296H330.712C330.478 206.139 330.008 206.827 329.304 207.36C328.6 207.883 327.726 208.144 326.68 208.144C325.848 208.144 325.102 207.957 324.44 207.584C323.79 207.211 323.278 206.683 322.904 206C322.531 205.307 322.344 204.507 322.344 203.6C322.344 202.693 322.526 201.899 322.888 201.216C323.251 200.533 323.758 200.011 324.408 199.648C325.07 199.275 325.827 199.088 326.68 199.088C327.512 199.088 328.248 199.269 328.888 199.632C329.528 199.995 330.019 200.496 330.36 201.136C330.712 201.765 330.888 202.48 330.888 203.28ZM329.384 202.976C329.384 202.421 329.262 201.947 329.016 201.552C328.771 201.147 328.435 200.843 328.008 200.64C327.592 200.427 327.128 200.32 326.616 200.32C325.88 200.32 325.251 200.555 324.728 201.024C324.216 201.493 323.923 202.144 323.848 202.976H329.384ZM335.914 208.144C335.242 208.144 334.639 208.032 334.106 207.808C333.573 207.573 333.151 207.253 332.842 206.848C332.533 206.432 332.362 205.957 332.33 205.424H333.834C333.877 205.861 334.079 206.219 334.442 206.496C334.815 206.773 335.301 206.912 335.898 206.912C336.453 206.912 336.89 206.789 337.21 206.544C337.53 206.299 337.69 205.989 337.69 205.616C337.69 205.232 337.519 204.949 337.178 204.768C336.837 204.576 336.309 204.389 335.594 204.208C334.943 204.037 334.41 203.867 333.994 203.696C333.589 203.515 333.237 203.253 332.938 202.912C332.65 202.56 332.506 202.101 332.506 201.536C332.506 201.088 332.639 200.677 332.906 200.304C333.173 199.931 333.551 199.637 334.042 199.424C334.533 199.2 335.093 199.088 335.722 199.088C336.693 199.088 337.477 199.333 338.074 199.824C338.671 200.315 338.991 200.987 339.034 201.84H337.578C337.546 201.381 337.359 201.013 337.018 200.736C336.687 200.459 336.239 200.32 335.674 200.32C335.151 200.32 334.735 200.432 334.426 200.656C334.117 200.88 333.962 201.173 333.962 201.536C333.962 201.824 334.053 202.064 334.234 202.256C334.426 202.437 334.661 202.587 334.938 202.704C335.226 202.811 335.621 202.933 336.122 203.072C336.751 203.243 337.263 203.413 337.658 203.584C338.053 203.744 338.389 203.989 338.666 204.32C338.954 204.651 339.103 205.083 339.114 205.616C339.114 206.096 338.981 206.528 338.714 206.912C338.447 207.296 338.069 207.6 337.578 207.824C337.098 208.037 336.543 208.144 335.914 208.144ZM341.922 197.808C341.644 197.808 341.41 197.712 341.218 197.52C341.026 197.328 340.93 197.093 340.93 196.816C340.93 196.539 341.026 196.304 341.218 196.112C341.41 195.92 341.644 195.824 341.922 195.824C342.188 195.824 342.412 195.92 342.594 196.112C342.786 196.304 342.882 196.539 342.882 196.816C342.882 197.093 342.786 197.328 342.594 197.52C342.412 197.712 342.188 197.808 341.922 197.808ZM342.626 199.232V208H341.17V199.232H342.626ZM348.723 199.088C349.48 199.088 350.142 199.253 350.707 199.584C351.283 199.915 351.71 200.331 351.987 200.832V199.232H353.459V208.192C353.459 208.992 353.288 209.701 352.947 210.32C352.606 210.949 352.115 211.44 351.475 211.792C350.846 212.144 350.11 212.32 349.267 212.32C348.115 212.32 347.155 212.048 346.387 211.504C345.619 210.96 345.166 210.219 345.027 209.28H346.467C346.627 209.813 346.958 210.24 347.459 210.56C347.96 210.891 348.563 211.056 349.267 211.056C350.067 211.056 350.718 210.805 351.219 210.304C351.731 209.803 351.987 209.099 351.987 208.192V206.352C351.699 206.864 351.272 207.291 350.707 207.632C350.142 207.973 349.48 208.144 348.723 208.144C347.944 208.144 347.235 207.952 346.595 207.568C345.966 207.184 345.47 206.645 345.107 205.952C344.744 205.259 344.563 204.469 344.563 203.584C344.563 202.688 344.744 201.904 345.107 201.232C345.47 200.549 345.966 200.021 346.595 199.648C347.235 199.275 347.944 199.088 348.723 199.088ZM351.987 203.6C351.987 202.939 351.854 202.363 351.587 201.872C351.32 201.381 350.958 201.008 350.499 200.752C350.051 200.485 349.555 200.352 349.011 200.352C348.467 200.352 347.971 200.48 347.523 200.736C347.075 200.992 346.718 201.365 346.451 201.856C346.184 202.347 346.051 202.923 346.051 203.584C346.051 204.256 346.184 204.843 346.451 205.344C346.718 205.835 347.075 206.213 347.523 206.48C347.971 206.736 348.467 206.864 349.011 206.864C349.555 206.864 350.051 206.736 350.499 206.48C350.958 206.213 351.32 205.835 351.587 205.344C351.854 204.843 351.987 204.261 351.987 203.6ZM360.192 199.072C361.258 199.072 362.122 199.397 362.784 200.048C363.445 200.688 363.776 201.616 363.776 202.832V208H362.336V203.04C362.336 202.165 362.117 201.499 361.68 201.04C361.242 200.571 360.645 200.336 359.888 200.336C359.12 200.336 358.506 200.576 358.048 201.056C357.6 201.536 357.376 202.235 357.376 203.152V208H355.92V199.232H357.376V200.48C357.664 200.032 358.053 199.685 358.544 199.44C359.045 199.195 359.594 199.072 360.192 199.072Z" fill="#F5F7FA"/>
</g>
<g filter="url(#filter7_d_130_1077)">
<rect x="44" y="244" width="126" height="44" rx="22" fill="white" fill-opacity="0.2" shape-rendering="crispEdges"/>
<rect x="44.5" y="244.5" width="125" height="43" rx="21.5" stroke="white" stroke-opacity="0.2" shape-rendering="crispEdges"/>
<path d="M56.688 262.032V265.76H60.752V266.96H56.688V270.8H61.232V272H55.232V260.832H61.232V262.032H56.688ZM69.5151 265.52V266.752H63.1311V265.52H69.5151ZM71.7036 267.6C71.7036 266.693 71.885 265.904 72.2476 265.232C72.6103 264.549 73.1116 264.021 73.7516 263.648C74.4023 263.275 75.1436 263.088 75.9756 263.088C77.053 263.088 77.9383 263.349 78.6316 263.872C79.3356 264.395 79.7996 265.12 80.0236 266.048H78.4556C78.3063 265.515 78.013 265.093 77.5756 264.784C77.149 264.475 76.6156 264.32 75.9756 264.32C75.1436 264.32 74.4716 264.608 73.9596 265.184C73.4476 265.749 73.1916 266.555 73.1916 267.6C73.1916 268.656 73.4476 269.472 73.9596 270.048C74.4716 270.624 75.1436 270.912 75.9756 270.912C76.6156 270.912 77.149 270.763 77.5756 270.464C78.0023 270.165 78.2956 269.739 78.4556 269.184H80.0236C79.789 270.08 79.3196 270.8 78.6156 271.344C77.9116 271.877 77.0316 272.144 75.9756 272.144C75.1436 272.144 74.4023 271.957 73.7516 271.584C73.1116 271.211 72.6103 270.683 72.2476 270C71.885 269.317 71.7036 268.517 71.7036 267.6ZM85.7904 272.144C84.969 272.144 84.2224 271.957 83.5504 271.584C82.889 271.211 82.3664 270.683 81.9824 270C81.609 269.307 81.4224 268.507 81.4224 267.6C81.4224 266.704 81.6144 265.915 81.9984 265.232C82.393 264.539 82.9264 264.011 83.5984 263.648C84.2704 263.275 85.0224 263.088 85.8544 263.088C86.6864 263.088 87.4384 263.275 88.1104 263.648C88.7824 264.011 89.3104 264.533 89.6944 265.216C90.089 265.899 90.2864 266.693 90.2864 267.6C90.2864 268.507 90.0837 269.307 89.6784 270C89.2837 270.683 88.745 271.211 88.0624 271.584C87.3797 271.957 86.6224 272.144 85.7904 272.144ZM85.7904 270.864C86.313 270.864 86.8037 270.741 87.2624 270.496C87.721 270.251 88.089 269.883 88.3664 269.392C88.6544 268.901 88.7984 268.304 88.7984 267.6C88.7984 266.896 88.6597 266.299 88.3824 265.808C88.105 265.317 87.7424 264.955 87.2944 264.72C86.8464 264.475 86.361 264.352 85.8384 264.352C85.305 264.352 84.8144 264.475 84.3664 264.72C83.929 264.955 83.577 265.317 83.3104 265.808C83.0437 266.299 82.9104 266.896 82.9104 267.6C82.9104 268.315 83.0384 268.917 83.2944 269.408C83.561 269.899 83.913 270.267 84.3504 270.512C84.7877 270.747 85.2677 270.864 85.7904 270.864ZM102.745 263.072C103.427 263.072 104.035 263.216 104.569 263.504C105.102 263.781 105.523 264.203 105.833 264.768C106.142 265.333 106.297 266.021 106.297 266.832V272H104.857V267.04C104.857 266.165 104.638 265.499 104.201 265.04C103.774 264.571 103.193 264.336 102.457 264.336C101.699 264.336 101.097 264.581 100.649 265.072C100.201 265.552 99.9768 266.251 99.9768 267.168V272H98.5368V267.04C98.5368 266.165 98.3181 265.499 97.8808 265.04C97.4541 264.571 96.8728 264.336 96.1368 264.336C95.3794 264.336 94.7768 264.581 94.3288 265.072C93.8808 265.552 93.6568 266.251 93.6568 267.168V272H92.2008V263.232H93.6568V264.496C93.9448 264.037 94.3288 263.685 94.8088 263.44C95.2994 263.195 95.8381 263.072 96.4248 263.072C97.1608 263.072 97.8114 263.237 98.3768 263.568C98.9421 263.899 99.3634 264.384 99.6408 265.024C99.8861 264.405 100.291 263.925 100.857 263.584C101.422 263.243 102.051 263.072 102.745 263.072ZM119.229 263.072C119.912 263.072 120.52 263.216 121.053 263.504C121.586 263.781 122.008 264.203 122.317 264.768C122.626 265.333 122.781 266.021 122.781 266.832V272H121.341V267.04C121.341 266.165 121.122 265.499 120.685 265.04C120.258 264.571 119.677 264.336 118.941 264.336C118.184 264.336 117.581 264.581 117.133 265.072C116.685 265.552 116.461 266.251 116.461 267.168V272H115.021V267.04C115.021 266.165 114.802 265.499 114.365 265.04C113.938 264.571 113.357 264.336 112.621 264.336C111.864 264.336 111.261 264.581 110.813 265.072C110.365 265.552 110.141 266.251 110.141 267.168V272H108.685V263.232H110.141V264.496C110.429 264.037 110.813 263.685 111.293 263.44C111.784 263.195 112.322 263.072 112.909 263.072C113.645 263.072 114.296 263.237 114.861 263.568C115.426 263.899 115.848 264.384 116.125 265.024C116.37 264.405 116.776 263.925 117.341 263.584C117.906 263.243 118.536 263.072 119.229 263.072ZM133.17 267.28C133.17 267.557 133.154 267.851 133.122 268.16H126.114C126.167 269.024 126.46 269.701 126.994 270.192C127.538 270.672 128.194 270.912 128.962 270.912C129.591 270.912 130.114 270.768 130.53 270.48C130.956 270.181 131.255 269.787 131.426 269.296H132.994C132.759 270.139 132.29 270.827 131.586 271.36C130.882 271.883 130.007 272.144 128.962 272.144C128.13 272.144 127.383 271.957 126.722 271.584C126.071 271.211 125.559 270.683 125.186 270C124.812 269.307 124.626 268.507 124.626 267.6C124.626 266.693 124.807 265.899 125.17 265.216C125.532 264.533 126.039 264.011 126.69 263.648C127.351 263.275 128.108 263.088 128.962 263.088C129.794 263.088 130.53 263.269 131.17 263.632C131.81 263.995 132.3 264.496 132.642 265.136C132.994 265.765 133.17 266.48 133.17 267.28ZM131.666 266.976C131.666 266.421 131.543 265.947 131.298 265.552C131.052 265.147 130.716 264.843 130.29 264.64C129.874 264.427 129.41 264.32 128.898 264.32C128.162 264.32 127.532 264.555 127.01 265.024C126.498 265.493 126.204 266.144 126.13 266.976H131.666ZM136.547 264.656C136.803 264.155 137.166 263.765 137.635 263.488C138.115 263.211 138.697 263.072 139.379 263.072V264.576H138.995C137.363 264.576 136.547 265.461 136.547 267.232V272H135.091V263.232H136.547V264.656ZM140.516 267.6C140.516 266.693 140.697 265.904 141.06 265.232C141.423 264.549 141.924 264.021 142.564 263.648C143.215 263.275 143.956 263.088 144.788 263.088C145.865 263.088 146.751 263.349 147.444 263.872C148.148 264.395 148.612 265.12 148.836 266.048H147.268C147.119 265.515 146.825 265.093 146.388 264.784C145.961 264.475 145.428 264.32 144.788 264.32C143.956 264.32 143.284 264.608 142.772 265.184C142.26 265.749 142.004 266.555 142.004 267.6C142.004 268.656 142.26 269.472 142.772 270.048C143.284 270.624 143.956 270.912 144.788 270.912C145.428 270.912 145.961 270.763 146.388 270.464C146.815 270.165 147.108 269.739 147.268 269.184H148.836C148.601 270.08 148.132 270.8 147.428 271.344C146.724 271.877 145.844 272.144 144.788 272.144C143.956 272.144 143.215 271.957 142.564 271.584C141.924 271.211 141.423 270.683 141.06 270C140.697 269.317 140.516 268.517 140.516 267.6ZM158.779 267.28C158.779 267.557 158.763 267.851 158.731 268.16H151.723C151.776 269.024 152.07 269.701 152.603 270.192C153.147 270.672 153.803 270.912 154.571 270.912C155.2 270.912 155.723 270.768 156.139 270.48C156.566 270.181 156.864 269.787 157.035 269.296H158.603C158.368 270.139 157.899 270.827 157.195 271.36C156.491 271.883 155.616 272.144 154.571 272.144C153.739 272.144 152.992 271.957 152.331 271.584C151.68 271.211 151.168 270.683 150.795 270C150.422 269.307 150.235 268.507 150.235 267.6C150.235 266.693 150.416 265.899 150.779 265.216C151.142 264.533 151.648 264.011 152.299 263.648C152.96 263.275 153.718 263.088 154.571 263.088C155.403 263.088 156.139 263.269 156.779 263.632C157.419 263.995 157.91 264.496 158.251 265.136C158.603 265.765 158.779 266.48 158.779 267.28ZM157.275 266.976C157.275 266.421 157.152 265.947 156.907 265.552C156.662 265.147 156.326 264.843 155.899 264.64C155.483 264.427 155.019 264.32 154.507 264.32C153.771 264.32 153.142 264.555 152.619 265.024C152.107 265.493 151.814 266.144 151.739 266.976H157.275Z" fill="#F5F7FA"/>
</g>
<defs>
<filter id="filter0_d_130_1077" x="1" y="0" width="409" height="360" filterUnits="userSpaceOnUse" color-interpolation-filters="sRGB">
<feFlood flood-opacity="0" result="BackgroundImageFix"/>
<feColorMatrix in="SourceAlpha" type="matrix" values="0 0 0 0 0 0 0 0 0 0 0 0 0 0 0 0 0 0 127 0" result="hardAlpha"/>
<feOffset dy="4"/>
<feGaussianBlur stdDeviation="10"/>
<feComposite in2="hardAlpha" operator="out"/>
<feColorMatrix type="matrix" values="0 0 0 0 0 0 0 0 0 0 0 0 0 0 0 0 0 0 0.1 0"/>
<feBlend mode="normal" in2="BackgroundImageFix" result="effect1_dropShadow_130_1077"/>
<feBlend mode="normal" in="SourceGraphic" in2="effect1_dropShadow_130_1077" result="shape"/>
</filter>
<filter id="filter1_d_130_1077" x="156.472" y="232" width="253.017" height="128" filterUnits="userSpaceOnUse" color-interpolation-filters="sRGB">
<feFlood flood-opacity="0" result="BackgroundImageFix"/>
<feColorMatrix in="SourceAlpha" type="matrix" values="0 0 0 0 0 0 0 0 0 0 0 0 0 0 0 0 0 0 127 0" result="hardAlpha"/>
<feOffset dy="4"/>
<feGaussianBlur stdDeviation="10"/>
<feComposite in2="hardAlpha" operator="out"/>
<feColorMatrix type="matrix" values="0 0 0 0 0 0 0 0 0 0 0 0 0 0 0 0 0 0 0.1 0"/>
<feBlend mode="normal" in2="BackgroundImageFix" result="effect1_dropShadow_130_1077"/>
<feBlend mode="normal" in="SourceGraphic" in2="effect1_dropShadow_130_1077" result="shape"/>
</filter>
<filter id="filter2_d_130_1077" x="70" y="27" width="271" height="102" filterUnits="userSpaceOnUse" color-interpolation-filters="sRGB">
<feFlood flood-opacity="0" result="BackgroundImageFix"/>
<feColorMatrix in="SourceAlpha" type="matrix" values="0 0 0 0 0 0 0 0 0 0 0 0 0 0 0 0 0 0 127 0" result="hardAlpha"/>
<feOffset dy="4"/>
<feGaussianBlur stdDeviation="14.5"/>
<feComposite in2="hardAlpha" operator="out"/>
<feColorMatrix type="matrix" values="0 0 0 0 0 0 0 0 0 0 0 0 0 0 0 0 0 0 0.1 0"/>
<feBlend mode="normal" in2="BackgroundImageFix" result="effect1_dropShadow_130_1077"/>
<feBlend mode="normal" in="BackgroundImageFix" in2="effect1_dropShadow_130_1077" result="BackgroundImageFix"/>
<feBlend mode="normal" in="SourceGraphic" in2="BackgroundImageFix" result="shape"/>
</filter>
<filter id="filter3_d_130_1077" x="0" y="91" width="253" height="102" filterUnits="userSpaceOnUse" color-interpolation-filters="sRGB">
<feFlood flood-opacity="0" result="BackgroundImageFix"/>
<feColorMatrix in="SourceAlpha" type="matrix" values="0 0 0 0 0 0 0 0 0 0 0 0 0 0 0 0 0 0 127 0" result="hardAlpha"/>
<feOffset dy="4"/>
<feGaussianBlur stdDeviation="14.5"/>
<feComposite in2="hardAlpha" operator="out"/>
<feColorMatrix type="matrix" values="0 0 0 0 0 0 0 0 0 0 0 0 0 0 0 0 0 0 0.1 0"/>
<feBlend mode="normal" in2="BackgroundImageFix" result="effect1_dropShadow_130_1077"/>
<feBlend mode="normal" in="BackgroundImageFix" in2="effect1_dropShadow_130_1077" result="BackgroundImageFix"/>
<feBlend mode="normal" in="SourceGraphic" in2="BackgroundImageFix" result="shape"/>
</filter>
<filter id="filter4_d_130_1077" x="200" y="91" width="211" height="102" filterUnits="userSpaceOnUse" color-interpolation-filters="sRGB">
<feFlood flood-opacity="0" result="BackgroundImageFix"/>
<feColorMatrix in="SourceAlpha" type="matrix" values="0 0 0 0 0 0 0 0 0 0 0 0 0 0 0 0 0 0 127 0" result="hardAlpha"/>
<feOffset dy="4"/>
<feGaussianBlur stdDeviation="14.5"/>
<feComposite in2="hardAlpha" operator="out"/>
<feColorMatrix type="matrix" values="0 0 0 0 0 0 0 0 0 0 0 0 0 0 0 0 0 0 0.1 0"/>
<feBlend mode="normal" in2="BackgroundImageFix" result="effect1_dropShadow_130_1077"/>
<feBlend mode="normal" in="BackgroundImageFix" in2="effect1_dropShadow_130_1077" result="BackgroundImageFix"/>
<feBlend mode="normal" in="SourceGraphic" in2="BackgroundImageFix" result="shape"/>
</filter>
<filter id="filter5_d_130_1077" x="0" y="155" width="272" height="102" filterUnits="userSpaceOnUse" color-interpolation-filters="sRGB">
<feFlood flood-opacity="0" result="BackgroundImageFix"/>
<feColorMatrix in="SourceAlpha" type="matrix" values="0 0 0 0 0 0 0 0 0 0 0 0 0 0 0 0 0 0 127 0" result="hardAlpha"/>
<feOffset dy="4"/>
<feGaussianBlur stdDeviation="14.5"/>
<feComposite in2="hardAlpha" operator="out"/>
<feColorMatrix type="matrix" values="0 0 0 0 0 0 0 0 0 0 0 0 0 0 0 0 0 0 0.1 0"/>
<feBlend mode="normal" in2="BackgroundImageFix" result="effect1_dropShadow_130_1077"/>
<feBlend mode="normal" in="BackgroundImageFix" in2="effect1_dropShadow_130_1077" result="BackgroundImageFix"/>
<feBlend mode="normal" in="SourceGraphic" in2="BackgroundImageFix" result="shape"/>
</filter>
<filter id="filter6_d_130_1077" x="219" y="155" width="190" height="102" filterUnits="userSpaceOnUse" color-interpolation-filters="sRGB">
<feFlood flood-opacity="0" result="BackgroundImageFix"/>
<feColorMatrix in="SourceAlpha" type="matrix" values="0 0 0 0 0 0 0 0 0 0 0 0 0 0 0 0 0 0 127 0" result="hardAlpha"/>
<feOffset dy="4"/>
<feGaussianBlur stdDeviation="14.5"/>
<feComposite in2="hardAlpha" operator="out"/>
<feColorMatrix type="matrix" values="0 0 0 0 0 0 0 0 0 0 0 0 0 0 0 0 0 0 0.1 0"/>
<feBlend mode="normal" in2="BackgroundImageFix" result="effect1_dropShadow_130_1077"/>
<feBlend mode="normal" in="BackgroundImageFix" in2="effect1_dropShadow_130_1077" result="BackgroundImageFix"/>
<feBlend mode="normal" in="SourceGraphic" in2="BackgroundImageFix" result="shape"/>
</filter>
<filter id="filter7_d_130_1077" x="15" y="219" width="184" height="102" filterUnits="userSpaceOnUse" color-interpolation-filters="sRGB">
<feFlood flood-opacity="0" result="BackgroundImageFix"/>
<feColorMatrix in="SourceAlpha" type="matrix" values="0 0 0 0 0 0 0 0 0 0 0 0 0 0 0 0 0 0 127 0" result="hardAlpha"/>
<feOffset dy="4"/>
<feGaussianBlur stdDeviation="14.5"/>
<feComposite in2="hardAlpha" operator="out"/>
<feColorMatrix type="matrix" values="0 0 0 0 0 0 0 0 0 0 0 0 0 0 0 0 0 0 0.1 0"/>
<feBlend mode="normal" in2="BackgroundImageFix" result="effect1_dropShadow_130_1077"/>
<feBlend mode="normal" in="BackgroundImageFix" in2="effect1_dropShadow_130_1077" result="BackgroundImageFix"/>
<feBlend mode="normal" in="SourceGraphic" in2="BackgroundImageFix" result="shape"/>
</filter>
</defs>
</svg>
