<svg width="203" height="15" viewBox="0 0 203 15" fill="none" xmlns="http://www.w3.org/2000/svg">
<path d="M15.524 14H12.284L8.972 10.364H4.076V8.348H9.53C11.168 8.348 12.032 7.412 12.032 5.72C12.032 4.028 11.096 3.2 9.53 3.2H2.402V14H0.134V0.913999H9.53C12.518 0.913999 14.282 2.768 14.282 5.684C14.282 7.844 13.274 9.374 11.582 10.022L15.524 14ZM25.5733 14H22.3873C18.7333 14 16.0333 11.12 16.0333 7.322C16.0333 3.47 18.7333 0.913999 22.3873 0.913999H25.5733C29.3533 0.913999 31.9813 3.524 31.9813 7.322C31.9813 11.12 29.2993 14 25.5733 14ZM22.3873 11.714H25.5733C27.9853 11.714 29.6953 9.896 29.6953 7.43C29.6953 4.964 27.9853 3.2 25.5733 3.2H22.3873C20.0473 3.2 18.3193 4.946 18.3193 7.43C18.3193 9.896 20.0293 11.714 22.3873 11.714ZM42.9933 14H39.8073C36.1533 14 33.4533 11.12 33.4533 7.322C33.4533 3.47 36.1533 0.913999 39.8073 0.913999H42.9933C46.7733 0.913999 49.4013 3.524 49.4013 7.322C49.4013 11.12 46.7193 14 42.9933 14ZM39.8073 11.714H42.9933C45.4053 11.714 47.1153 9.896 47.1153 7.43C47.1153 4.964 45.4053 3.2 42.9933 3.2H39.8073C37.4673 3.2 35.7393 4.946 35.7393 7.43C35.7393 9.896 37.4493 11.714 39.8073 11.714ZM65.5252 14H62.0332L54.7072 8.24C54.3112 7.934 54.2392 7.646 54.2392 7.286C54.2392 6.89 54.3472 6.602 54.8152 6.242L61.7452 0.913999H65.2552L56.6872 7.304L65.5252 14ZM53.5372 14H51.2512V0.913999H53.5372V14ZM76.8112 14H67.0012V11.714H76.8112C78.0352 11.714 78.7192 11.03 78.7192 10.004C78.7192 8.888 78.0352 8.312 76.8112 8.312H70.7992C68.3332 8.312 66.8032 6.746 66.8032 4.586C66.8032 2.48 68.2252 0.913999 70.8352 0.913999H80.2312V3.2H70.8352C69.7912 3.2 69.1792 3.812 69.1792 4.802C69.1792 5.792 69.8092 6.386 70.8172 6.386H76.8112C79.4572 6.386 80.8792 7.628 80.8792 10.166C80.8792 12.362 79.5472 14 76.8112 14ZM92.1081 14.108C91.2921 14.108 90.5661 13.976 89.9301 13.712C89.2941 13.436 88.7901 13.058 88.4181 12.578C88.0581 12.098 87.8781 11.54 87.8781 10.904C87.8781 10.364 87.9981 9.872 88.2381 9.428C88.4781 8.972 88.8621 8.528 89.3901 8.096C89.9301 7.652 90.6441 7.19 91.5321 6.71C92.2881 6.29 92.8761 5.93 93.2961 5.63C93.7281 5.318 94.0341 5.024 94.2141 4.748C94.3941 4.46 94.4841 4.154 94.4841 3.83C94.4841 3.362 94.3221 2.984 93.9981 2.696C93.6861 2.408 93.2361 2.264 92.6481 2.264C92.0121 2.264 91.5201 2.426 91.1721 2.75C90.8241 3.062 90.6501 3.47 90.6501 3.974C90.6501 4.226 90.6861 4.466 90.7581 4.694C90.8421 4.922 90.9921 5.174 91.2081 5.45C91.4361 5.726 91.7481 6.074 92.1441 6.494L98.8041 13.352L98.0661 14.198L91.1181 7.052C90.6981 6.608 90.3621 6.224 90.1101 5.9C89.8701 5.564 89.7021 5.246 89.6061 4.946C89.5101 4.646 89.4621 4.328 89.4621 3.992C89.4621 3.452 89.5881 2.984 89.8401 2.588C90.1041 2.18 90.4761 1.868 90.9561 1.652C91.4361 1.424 92.0001 1.31 92.6481 1.31C93.2361 1.31 93.7461 1.412 94.1781 1.616C94.6221 1.808 94.9641 2.09 95.2041 2.462C95.4561 2.834 95.5821 3.284 95.5821 3.812C95.5821 4.268 95.4681 4.694 95.2401 5.09C95.0241 5.486 94.6641 5.876 94.1601 6.26C93.6561 6.632 92.9721 7.052 92.1081 7.52C91.3521 7.94 90.7521 8.324 90.3081 8.672C89.8761 9.02 89.5701 9.362 89.3901 9.698C89.2101 10.022 89.1201 10.382 89.1201 10.778C89.1201 11.234 89.2461 11.636 89.4981 11.984C89.7621 12.32 90.1221 12.584 90.5781 12.776C91.0461 12.956 91.5801 13.046 92.1801 13.046C93.0201 13.046 93.7701 12.872 94.4301 12.524C95.0901 12.176 95.6421 11.648 96.0861 10.94C96.5421 10.232 96.8721 9.344 97.0761 8.276L98.1021 8.6C97.8741 9.8 97.4841 10.808 96.9321 11.624C96.3801 12.44 95.6961 13.058 94.8801 13.478C94.0641 13.898 93.1401 14.108 92.1081 14.108ZM115.29 14H105.444V0.913999H115.02C117.576 0.913999 119.268 2.066 119.268 4.298C119.268 5.954 118.422 6.782 117.45 7.088C118.638 7.466 119.502 8.51 119.502 10.04C119.502 12.434 117.846 14 115.29 14ZM115.2 8.312H109.386V6.386H115.038C116.334 6.386 116.946 5.936 116.946 4.802C116.946 3.416 115.848 3.2 114.156 3.2H107.73V11.732H114.354C115.992 11.732 117.18 11.282 117.18 10.004C117.18 8.924 116.478 8.312 115.2 8.312ZM136.883 14H133.643L130.331 10.364H125.435V8.348H130.889C132.527 8.348 133.391 7.412 133.391 5.72C133.391 4.028 132.455 3.2 130.889 3.2H123.761V14H121.493V0.913999H130.889C133.877 0.913999 135.641 2.768 135.641 5.684C135.641 7.844 134.633 9.374 132.941 10.022L136.883 14ZM146.933 14H143.747C140.093 14 137.393 11.12 137.393 7.322C137.393 3.47 140.093 0.913999 143.747 0.913999H146.933C150.713 0.913999 153.341 3.524 153.341 7.322C153.341 11.12 150.659 14 146.933 14ZM143.747 11.714H146.933C149.345 11.714 151.055 9.896 151.055 7.43C151.055 4.964 149.345 3.2 146.933 3.2H143.747C141.407 3.2 139.679 4.946 139.679 7.43C139.679 9.896 141.389 11.714 143.747 11.714ZM164.353 14H161.167C157.513 14 154.813 11.12 154.813 7.322C154.813 3.47 157.513 0.913999 161.167 0.913999H164.353C168.133 0.913999 170.761 3.524 170.761 7.322C170.761 11.12 168.079 14 164.353 14ZM161.167 11.714H164.353C166.765 11.714 168.475 9.896 168.475 7.43C168.475 4.964 166.765 3.2 164.353 3.2H161.167C158.827 3.2 157.099 4.946 157.099 7.43C157.099 9.896 158.809 11.714 161.167 11.714ZM186.885 14H183.393L176.067 8.24C175.671 7.934 175.599 7.646 175.599 7.286C175.599 6.89 175.707 6.602 176.175 6.242L183.105 0.913999H186.615L178.047 7.304L186.885 14ZM174.897 14H172.611V0.913999H174.897V14ZM198.171 14H188.361V11.714H198.171C199.395 11.714 200.079 11.03 200.079 10.004C200.079 8.888 199.395 8.312 198.171 8.312H192.159C189.693 8.312 188.163 6.746 188.163 4.586C188.163 2.48 189.585 0.913999 192.195 0.913999H201.591V3.2H192.195C191.151 3.2 190.539 3.812 190.539 4.802C190.539 5.792 191.169 6.386 192.177 6.386H198.171C200.817 6.386 202.239 7.628 202.239 10.166C202.239 12.362 200.907 14 198.171 14Z" fill="#F5F7FA"/>
</svg>
