<svg width="99" height="157" viewBox="0 0 99 157" fill="none" xmlns="http://www.w3.org/2000/svg">
<path d="M35.7186 154.911C40.0976 152.383 40.0746 148.271 35.6686 145.727C31.2626 143.183 24.1406 143.17 19.7626 145.698C15.3836 148.226 15.4066 152.338 19.8126 154.882C24.2186 157.426 31.3406 157.439 35.7186 154.911Z" fill="#E0E0E0"/>
<path d="M12.1888 148.447L56.5808 122.817C58.1958 121.885 57.9928 120.257 56.1288 119.18L51.8588 116.715C49.9948 115.639 47.1738 115.522 45.5598 116.454L1.16683 142.084C-0.448168 143.016 -0.245172 144.644 1.61883 145.721L5.88883 148.186C7.75383 149.262 10.5748 149.379 12.1888 148.447Z" fill="#E0E0E0"/>
<path d="M52.417 151.196L68.154 142.11C69.018 141.611 68.91 140.74 67.912 140.164L65.627 138.845C64.629 138.269 63.12 138.206 62.256 138.705L46.519 147.791C45.655 148.29 45.763 149.161 46.761 149.737L49.046 151.056C50.044 151.632 51.553 151.695 52.417 151.196Z" fill="#E0E0E0"/>
<path d="M56.9757 4.42675C56.5637 1.85275 52.0837 -0.743255 49.1707 0.540745L49.1727 0.545746C48.7777 0.687746 48.3697 0.876746 47.9527 1.11675L10.8117 22.5597C7.58668 24.4217 4.97168 28.5457 4.97168 31.7707V140.563C4.97168 141.128 5.05668 141.629 5.21268 142.062L5.20569 142.065C5.79069 144.327 9.53768 146.123 11.4637 145.826L11.7497 142.616L48.0627 121.651C51.2877 119.789 53.9027 115.665 53.9027 112.44V6.15175L56.9757 4.42675Z" fill="url(#paint0_linear_202_5048)"/>
<path d="M8.26367 33.6728V142.465C8.26367 145.69 10.8787 146.795 14.1037 144.933L51.2447 123.49C54.4697 121.628 57.0847 117.504 57.0847 114.279V5.48575C57.0847 2.26075 54.4697 1.15576 51.2447 3.01776L14.1037 24.4608C10.8777 26.3238 8.26367 30.4478 8.26367 33.6728Z" fill="url(#paint1_linear_202_5048)"/>
<path d="M8.64844 34.4098V142.146C8.64844 145.34 11.2374 146.434 14.4314 144.59L51.1524 123.389C54.3464 121.545 56.9354 117.461 56.9354 114.267V6.53075C56.9354 3.33675 54.3464 2.24275 51.1524 4.08675L14.4314 25.2878C11.2374 27.1318 8.64844 31.2158 8.64844 34.4098Z" fill="#383838"/>
<path d="M9.69971 34.2237V141.737C9.69971 144.741 12.1347 145.77 15.1387 144.036L51.3277 123.142C54.3317 121.408 56.7667 117.567 56.7667 114.563V7.05073C56.7667 4.04673 54.3317 3.01773 51.3277 4.75173L15.1387 25.6457C12.1337 27.3797 9.69971 31.2207 9.69971 34.2237Z" fill="#7C78F0"/>
<path d="M51.1387 5.18275L18.7947 23.8548L14.9027 26.1028C12.0877 27.7288 9.80466 31.3278 9.80566 34.1418L9.80667 42.4328L9.80566 65.2718V98.9837V141.646C9.80566 144.462 12.0867 145.426 14.9027 143.801L45.0637 126.387L51.1367 122.88C53.9527 121.255 56.2337 117.657 56.2337 114.841V99.1237L56.2327 76.2838L56.2337 52.5168V7.33675C56.2347 4.52075 53.9527 3.55675 51.1387 5.18275Z" fill="#7C78F0"/>
<path d="M55.8607 8.07075V115.216C55.8607 117.664 53.8766 120.792 51.4286 122.205L15.1967 143.126C12.7487 144.539 10.7646 143.7 10.7646 141.252V34.1088C10.7646 31.6608 12.7487 28.5298 15.1967 27.1168L51.4286 6.19875C53.8766 4.78575 55.8607 5.62275 55.8607 8.07075Z" fill="#7C78F0"/>
<path d="M33.9487 19.7967L34.6087 19.4157C35.2477 19.0477 35.7887 18.2967 35.8797 17.6557L36.2507 15.0347C36.3587 14.2687 36.6007 13.3347 37.2707 12.9477L38.1077 12.4637L35.9987 13.5717L31.7187 16.0007L30.7207 16.7287L31.2957 16.4207C31.6077 16.2537 32.2047 16.7017 32.2637 17.0507L32.6797 19.5047C32.7687 20.0407 33.3107 20.1657 33.9487 19.7967Z" fill="#383838"/>
<path d="M33.3125 18.0578C33.3125 18.6748 33.7485 18.9228 34.2855 18.6128C34.8225 18.3028 35.2585 17.5508 35.2585 16.9348C35.2585 16.3188 34.8225 16.0698 34.2855 16.3798C33.7485 16.6898 33.3125 17.4408 33.3125 18.0578Z" fill="#484A90"/>
<path d="M33.6357 17.7297C33.6357 18.0447 33.8577 18.1717 34.1327 18.0127C34.4067 17.8547 34.6297 17.4707 34.6297 17.1557C34.6297 16.8407 34.4077 16.7137 34.1327 16.8727C33.8587 17.0317 33.6357 17.4147 33.6357 17.7297Z" fill="#6461AE"/>
<path d="M8.5396 138.007C8.5516 138.007 8.56259 138.007 8.57459 138.007L8.57059 137.62C8.55959 137.621 8.5496 137.621 8.5386 137.621C7.3636 137.621 6.1666 136.879 5.4956 136.138C5.1116 135.713 4.99259 135.395 5.00959 135.239L4.6256 135.196C4.5776 135.628 4.9706 136.135 5.2096 136.398C5.9366 137.202 7.2456 138.007 8.5396 138.007Z" fill="#807A93"/>
<path d="M8.5396 38.6438C8.5516 38.6438 8.56259 38.6438 8.57459 38.6438L8.57059 38.2568C8.55959 38.2578 8.5496 38.2578 8.5386 38.2578C7.3646 38.2578 6.1666 37.5158 5.4956 36.7748C5.1106 36.3498 4.99259 36.0308 5.00959 35.8748L4.6256 35.8318C4.5776 36.2648 4.9706 36.7708 5.2096 37.0348C5.9366 37.8388 7.2456 38.6438 8.5396 38.6438Z" fill="#807A93"/>
<path d="M44.6246 126.134L10.7646 99.5387V65.8257L55.8616 98.9087V115.214C55.8616 117.661 53.8777 120.791 51.4297 122.204L44.6246 126.134Z" fill="#858C9F"/>
<path d="M36.9238 111.198C36.9238 111.689 37.2698 111.886 37.6978 111.639C38.1258 111.392 38.4718 110.794 38.4718 110.304C38.4718 109.814 38.1258 109.616 37.6978 109.863C37.2698 110.11 36.9238 110.708 36.9238 111.198Z" fill="#8B98AE"/>
<path d="M32.0186 114.03C32.0186 114.521 32.3656 114.718 32.7926 114.471C33.2206 114.224 33.5666 113.626 33.5666 113.136C33.5666 112.645 33.2206 112.448 32.7926 112.695C32.3646 112.942 32.0186 113.54 32.0186 114.03Z" fill="white"/>
<path d="M27.1128 116.862C27.1128 117.353 27.4598 117.55 27.8868 117.303C28.3148 117.056 28.6608 116.458 28.6608 115.968C28.6608 115.477 28.3138 115.28 27.8868 115.527C27.4598 115.774 27.1128 116.372 27.1128 116.862Z" fill="#8B98AE"/>
<path d="M19.8206 24.4478L55.8616 52.3018V76.0688L10.7646 42.9858V34.1078C10.7646 31.6608 12.7486 28.5308 15.1956 27.1178L19.8206 24.4478Z" fill="#858C9F"/>
<path d="M54.2236 8.52673L53.9656 8.67573V8.98373C53.9656 9.25773 53.7536 9.60473 53.4946 9.75473L50.3826 11.5517C50.1236 11.7017 49.9116 11.5997 49.9116 11.3247V9.93173C49.9116 9.65773 50.1236 9.31073 50.3826 9.16073L53.4946 7.36373C53.7536 7.21373 53.9656 7.31573 53.9656 7.59073V7.89873L54.2236 7.74973C54.3296 7.68873 54.4166 7.73073 54.4166 7.84273V8.21173C54.4166 8.32373 54.3296 8.46573 54.2236 8.52673Z" fill="white"/>
<path d="M17.5018 30.0648L17.4528 30.0928C17.2648 30.2008 17.1118 30.1358 17.1118 29.9488V28.0338C17.1118 27.8458 17.2658 27.6038 17.4528 27.4958L17.5018 27.4678C17.6898 27.3598 17.8428 27.4248 17.8428 27.6118V29.5268C17.8428 29.7148 17.6888 29.9568 17.5018 30.0648Z" fill="white"/>
<path d="M18.5897 29.4368L18.5407 29.4648C18.3527 29.5728 18.1997 29.5078 18.1997 29.3208V27.9038C18.1997 27.7158 18.3527 27.4738 18.5407 27.3658L18.5897 27.3378C18.7777 27.2298 18.9307 27.2948 18.9307 27.4818V28.8988C18.9307 29.0868 18.7777 29.3288 18.5897 29.4368Z" fill="white"/>
<path d="M19.6459 28.8277L19.5969 28.8557C19.4089 28.9637 19.2559 28.8987 19.2559 28.7117V27.9107C19.2559 27.7227 19.4089 27.4807 19.5969 27.3727L19.6459 27.3447C19.8339 27.2367 19.9869 27.3017 19.9869 27.4887V28.2897C19.9869 28.4767 19.8339 28.7187 19.6459 28.8277Z" fill="white"/>
<path d="M15.2334 29.2948L15.6604 29.0488V31.2518L15.2334 31.4988V29.2948Z" fill="white"/>
<path d="M14.4116 30.7658V29.5678L15.6226 28.8688V30.4268L14.4116 30.7658ZM14.7616 29.7698V30.3028L15.2716 30.1598V29.4748L14.7616 29.7698Z" fill="white"/>
<path d="M15.2715 30.6798V29.0708L16.4825 28.3708V29.6198L15.2715 30.6798ZM15.6225 29.2728V29.9068L16.1325 29.4608V28.9788L15.6225 29.2728Z" fill="white"/>
<path d="M21.0889 37.0007L12.3319 42.0567C11.6709 42.4387 11.1299 43.3717 11.1299 44.1297V54.1777C11.1299 54.9367 11.6709 55.2447 12.3319 54.8627L21.0889 49.8067C21.7499 49.4247 22.2909 48.4917 22.2909 47.7337V37.6857C22.2909 36.9277 21.7499 36.6187 21.0889 37.0007Z" fill="#605CB5"/>
<path d="M37.7778 113.827L29.0208 118.883C28.3598 119.265 27.8188 120.198 27.8188 120.956V131.004C27.8188 131.762 28.3598 132.071 29.0208 131.689L37.7778 126.633C38.4388 126.251 38.9798 125.318 38.9798 124.56V114.512C38.9798 113.753 38.4388 113.445 37.7778 113.827Z" fill="#605CB5"/>
<path d="M21.0889 53.9337L12.3319 58.9897C11.6709 59.3717 11.1299 60.3047 11.1299 61.0627V71.1107C11.1299 71.8697 11.6709 72.1777 12.3319 71.7957L21.0889 66.7397C21.7499 66.3577 22.2909 65.4247 22.2909 64.6667V54.6187C22.2909 53.8597 21.7499 53.5517 21.0889 53.9337Z" fill="#605CB5"/>
<path d="M37.7778 95.0957L29.0208 100.152C28.3598 100.534 27.8188 101.467 27.8188 102.225V112.273C27.8188 113.032 28.3598 113.34 29.0208 112.958L37.7778 107.902C38.4388 107.52 38.9798 106.587 38.9798 105.829V95.7807C38.9798 95.0227 38.4388 94.7147 37.7778 95.0957Z" fill="#605CB5"/>
<path d="M21.0889 87.7987L12.3319 92.8547C11.6709 93.2367 11.1299 94.1697 11.1299 94.9277V104.976C11.1299 105.735 11.6709 106.043 12.3319 105.661L21.0889 100.605C21.7499 100.223 22.2909 99.2897 22.2909 98.5317V88.4837C22.2909 87.7247 21.7499 87.4167 21.0889 87.7987Z" fill="#680EB2"/>
<path d="M21.0889 104.732L12.3319 109.788C11.6709 110.17 11.1299 111.103 11.1299 111.861V121.909C11.1299 122.667 11.6709 122.976 12.3319 122.594L21.0889 117.538C21.7499 117.156 22.2909 116.223 22.2909 115.465V105.417C22.2909 104.658 21.7499 104.35 21.0889 104.732Z" fill="#605CB5"/>
<path d="M21.0889 70.8657L12.3319 75.9217C11.6709 76.3037 11.1299 77.2367 11.1299 77.9947V88.0427C11.1299 88.8017 11.6709 89.1097 12.3319 88.7277L21.0889 83.6717C21.7499 83.2897 22.2909 82.3567 22.2909 81.5987V71.5517C22.2909 70.7927 21.7499 70.4847 21.0889 70.8657Z" fill="#F9708C"/>
<path d="M21.0889 123.462L12.3319 128.518C11.6709 128.9 11.1299 129.833 11.1299 130.591V140.639C11.1299 141.398 11.6709 141.706 12.3319 141.324L21.0889 136.268C21.7499 135.886 22.2909 134.953 22.2909 134.195V124.147C22.2909 123.389 21.7499 123.08 21.0889 123.462Z" fill="#605CB5"/>
<path d="M37.7778 78.1637L29.0208 83.2197C28.3598 83.6017 27.8188 84.5347 27.8188 85.2927V95.3407C27.8188 96.0997 28.3598 96.4077 29.0208 96.0257L37.7778 90.9697C38.4388 90.5877 38.9798 89.6547 38.9798 88.8967V78.8487C38.9798 78.0897 38.4388 77.7817 37.7778 78.1637Z" fill="#383838"/>
<path d="M54.4658 17.7307L45.7088 22.7867C45.0478 23.1687 44.5068 24.1017 44.5068 24.8607V34.9087C44.5068 35.6677 45.0478 35.9757 45.7088 35.5937L54.4658 30.5377C55.1268 30.1557 55.6678 29.2227 55.6678 28.4647V18.4157C55.6678 17.6567 55.1278 17.3487 54.4658 17.7307Z" fill="#605CB5"/>
<path d="M54.4658 68.5277L45.7088 73.5837C45.0478 73.9657 44.5068 74.8987 44.5068 75.6567V85.7047C44.5068 86.4627 45.0478 86.7717 45.7088 86.3897L54.4658 81.3337C55.1268 80.9517 55.6678 80.0187 55.6678 79.2607V69.2137C55.6678 68.4547 55.1278 68.1467 54.4658 68.5277Z" fill="#605CB5"/>
<path d="M54.4658 85.4607L45.7088 90.5157C45.0478 90.8977 44.5068 91.8307 44.5068 92.5887V102.637C44.5068 103.396 45.0478 103.704 45.7088 103.322L54.4658 98.2657C55.1268 97.8837 55.6678 96.9507 55.6678 96.1927V86.1457C55.6678 85.3877 55.1278 85.0787 54.4658 85.4607Z" fill="#605CB5"/>
<path d="M54.4658 51.5957L45.7088 56.6517C45.0478 57.0337 44.5068 57.9667 44.5068 58.7247V68.7727C44.5068 69.5317 45.0478 69.8397 45.7088 69.4577L54.4658 64.4017C55.1268 64.0197 55.6678 63.0867 55.6678 62.3287V52.2807C55.6678 51.5227 55.1278 51.2137 54.4658 51.5957Z" fill="#605CB5"/>
<path d="M54.4658 34.6628L45.7088 39.7188C45.0478 40.1008 44.5068 41.0338 44.5068 41.7918V51.8398C44.5068 52.5988 45.0478 52.9068 45.7088 52.5248L54.4658 47.4688C55.1268 47.0868 55.6678 46.1538 55.6678 45.3958V35.3488C55.6678 34.5898 55.1278 34.2808 54.4658 34.6628Z" fill="#605CB5"/>
<path d="M54.4658 104.191L45.7088 109.247C45.0478 109.629 44.5068 110.562 44.5068 111.32V121.368C44.5068 122.126 45.0478 122.435 45.7088 122.053L54.4658 116.997C55.1268 116.615 55.6678 115.682 55.6678 114.924V104.876C55.6678 104.118 55.1278 103.81 54.4658 104.191Z" fill="#10C2BF"/>
<path d="M37.7778 44.2978L29.0208 49.3538C28.3598 49.7358 27.8188 50.6687 27.8188 51.4267V61.4748C27.8188 62.2338 28.3598 62.5417 29.0208 62.1597L37.7778 57.1038C38.4388 56.7218 38.9798 55.7888 38.9798 55.0308V44.9837C38.9798 44.2247 38.4388 43.9168 37.7778 44.2978Z" fill="#FF7F00"/>
<path d="M37.7778 61.2307L29.0208 66.2867C28.3598 66.6687 27.8188 67.6017 27.8188 68.3597V78.4077C27.8188 79.1667 28.3598 79.4747 29.0208 79.0927L37.7778 74.0367C38.4388 73.6547 38.9798 72.7217 38.9798 71.9637V61.9157C38.9798 61.1577 38.4388 60.8487 37.7778 61.2307Z" fill="#605CB5"/>
<path d="M37.7778 27.3657L29.0208 32.4217C28.3598 32.8037 27.8188 33.7367 27.8188 34.4947V44.5427C27.8188 45.3017 28.3598 45.6097 29.0208 45.2277L37.7778 40.1717C38.4388 39.7897 38.9798 38.8567 38.9798 38.0987V28.0507C38.9798 27.2917 38.4388 26.9837 37.7778 27.3657Z" fill="#605CB5"/>
<path d="M21.0889 37.0007L20.5779 37.2957V46.7457C20.5779 47.5047 20.0369 48.4377 19.3759 48.8187L11.1299 53.5797V54.1787C11.1299 54.9377 11.6709 55.2457 12.3319 54.8637L21.0889 49.8077C21.7499 49.4257 22.2909 48.4927 22.2909 47.7347V37.6857C22.2909 36.9277 21.7499 36.6187 21.0889 37.0007Z" fill="#6F6AD1"/>
<path d="M37.7778 113.827L37.2668 114.122V123.571C37.2668 124.33 36.7259 125.263 36.0648 125.644L27.8188 130.405V131.004C27.8188 131.762 28.3598 132.071 29.0208 131.689L37.7778 126.633C38.4388 126.251 38.9798 125.318 38.9798 124.56V114.512C38.9798 113.753 38.4388 113.445 37.7778 113.827Z" fill="#6F6AD1"/>
<path d="M21.0889 53.9337L20.5779 54.2287V63.6787C20.5779 64.4377 20.0369 65.3707 19.3759 65.7517L11.1299 70.5127V71.1117C11.1299 71.8707 11.6709 72.1787 12.3319 71.7967L21.0889 66.7407C21.7499 66.3587 22.2909 65.4257 22.2909 64.6677V54.6187C22.2909 53.8597 21.7499 53.5517 21.0889 53.9337Z" fill="#6F6AD1"/>
<path d="M37.7778 95.0957L37.2668 95.3907V104.841C37.2668 105.6 36.7259 106.533 36.0648 106.914L27.8188 111.675V112.274C27.8188 113.033 28.3598 113.341 29.0208 112.959L37.7778 107.903C38.4388 107.521 38.9798 106.588 38.9798 105.83V95.7817C38.9798 95.0227 38.4388 94.7147 37.7778 95.0957Z" fill="#6F6AD1"/>
<path d="M21.0889 104.732L20.5779 105.027V114.477C20.5779 115.236 20.0369 116.169 19.3759 116.55L11.1299 121.311V121.91C11.1299 122.668 11.6709 122.977 12.3319 122.595L21.0889 117.539C21.7499 117.157 22.2909 116.224 22.2909 115.466V105.418C22.2909 104.658 21.7499 104.35 21.0889 104.732Z" fill="#6F6AD1"/>
<path d="M21.0889 123.462L20.5779 123.757V133.207C20.5779 133.966 20.0369 134.899 19.3759 135.28L11.1299 140.041V140.64C11.1299 141.399 11.6709 141.707 12.3319 141.325L21.0889 136.269C21.7499 135.887 22.2909 134.954 22.2909 134.196V124.148C22.2909 123.389 21.7499 123.08 21.0889 123.462Z" fill="#6F6AD1"/>
<path d="M54.4658 51.5957L53.9548 51.8907V61.3397C53.9548 62.0987 53.4138 63.0317 52.7528 63.4127L44.5068 68.1737V68.7727C44.5068 69.5317 45.0478 69.8397 45.7088 69.4577L54.4658 64.4017C55.1268 64.0197 55.6678 63.0867 55.6678 62.3287V52.2807C55.6678 51.5227 55.1278 51.2137 54.4658 51.5957Z" fill="#6F6AD1"/>
<path d="M54.4658 68.5277L53.9548 68.8227V78.2727C53.9548 79.0317 53.4138 79.9647 52.7528 80.3457L44.5068 85.1067V85.7057C44.5068 86.4637 45.0478 86.7727 45.7088 86.3907L54.4658 81.3347C55.1268 80.9527 55.6678 80.0197 55.6678 79.2617V69.2137C55.6678 68.4547 55.1278 68.1467 54.4658 68.5277Z" fill="#6F6AD1"/>
<path d="M54.4658 34.6628L53.9548 34.9578V44.4078C53.9548 45.1668 53.4138 46.0998 52.7528 46.4808L44.5068 51.2418V51.8408C44.5068 52.5998 45.0478 52.9078 45.7088 52.5258L54.4658 47.4698C55.1268 47.0878 55.6678 46.1548 55.6678 45.3968V35.3488C55.6678 34.5898 55.1278 34.2808 54.4658 34.6628Z" fill="#6F6AD1"/>
<path d="M54.4658 17.7307L53.9548 18.0257V27.4747C53.9548 28.2337 53.4138 29.1667 52.7528 29.5477L44.5068 34.3087V34.9077C44.5068 35.6667 45.0478 35.9747 45.7088 35.5927L54.4658 30.5367C55.1268 30.1547 55.6678 29.2217 55.6678 28.4637V18.4157C55.6678 17.6567 55.1278 17.3487 54.4658 17.7307Z" fill="#6F6AD1"/>
<path d="M54.4658 85.4607L53.9548 85.7557V95.2057C53.9548 95.9647 53.4138 96.8977 52.7528 97.2787L44.5068 102.04V102.639C44.5068 103.398 45.0478 103.706 45.7088 103.324L54.4658 98.2677C55.1268 97.8857 55.6678 96.9527 55.6678 96.1947V86.1457C55.6678 85.3877 55.1278 85.0787 54.4658 85.4607Z" fill="#6F6AD1"/>
<path d="M37.7778 27.3657L37.2668 27.6607V37.1107C37.2668 37.8697 36.7259 38.8027 36.0648 39.1837L27.8188 43.9447V44.5437C27.8188 45.3027 28.3598 45.6107 29.0208 45.2287L37.7778 40.1727C38.4388 39.7907 38.9798 38.8577 38.9798 38.0997V28.0507C38.9798 27.2917 38.4388 26.9837 37.7778 27.3657Z" fill="#6F6AD1"/>
<path d="M37.7778 61.2307L37.2668 61.5257V70.9757C37.2668 71.7347 36.7259 72.6677 36.0648 73.0487L27.8188 77.8097V78.4087C27.8188 79.1677 28.3598 79.4757 29.0208 79.0937L37.7778 74.0377C38.4388 73.6557 38.9798 72.7227 38.9798 71.9647V61.9157C38.9798 61.1577 38.4388 60.8487 37.7778 61.2307Z" fill="#6F6AD1"/>
<path d="M65.6949 142.287L63.4729 141.541L47.7759 48.4417L49.9979 49.1877L65.6949 142.287Z" fill="#848484"/>
<path d="M49.9979 49.1877L47.7759 48.4417L48.8449 47.8237L51.0669 48.5697L49.9979 49.1877Z" fill="#A0A0A0"/>
<path d="M65.6951 142.287L49.998 49.1877L51.067 48.5697L66.7641 141.669L65.6951 142.287Z" fill="#AEAEAE"/>
<path d="M63.466 133.202C63.253 133.084 63.062 133.074 62.923 133.155L50.165 140.569C50.304 140.488 50.496 140.497 50.708 140.616C51.14 140.857 51.496 141.459 51.502 141.96C51.505 142.215 51.417 142.394 51.274 142.478L64.032 135.064C64.176 134.98 64.264 134.801 64.26 134.546C64.254 134.045 63.898 133.443 63.466 133.202Z" fill="#B5B6B6"/>
<path d="M51.5021 141.96C51.5081 142.461 51.1631 142.672 50.7301 142.431C50.2981 142.19 49.9421 141.589 49.9361 141.087C49.9301 140.586 50.2751 140.375 50.7081 140.616C51.1411 140.857 51.4961 141.459 51.5021 141.96Z" fill="#DFE1E1"/>
<path d="M61.9709 124.397C61.7579 124.279 61.5669 124.269 61.4279 124.35L48.6699 131.764C48.8089 131.683 49.0009 131.692 49.2129 131.811C49.6449 132.052 50.0009 132.654 50.0069 133.155C50.0099 133.41 49.9219 133.589 49.7779 133.673L62.5359 126.259C62.6799 126.175 62.7679 125.996 62.7639 125.741C62.7589 125.24 62.4039 124.638 61.9709 124.397Z" fill="#B5B6B6"/>
<path d="M50.008 133.155C50.014 133.656 49.669 133.867 49.236 133.626C48.804 133.385 48.448 132.783 48.442 132.282C48.436 131.781 48.782 131.57 49.214 131.811C49.646 132.052 50.002 132.654 50.008 133.155Z" fill="#DFE1E1"/>
<path d="M60.4768 115.592C60.2638 115.474 60.0728 115.464 59.9338 115.545L47.1758 122.959C47.3148 122.878 47.5068 122.887 47.7188 123.006C48.1508 123.247 48.5068 123.849 48.5128 124.35C48.5158 124.605 48.4278 124.784 48.2848 124.868L61.0428 117.454C61.1868 117.37 61.2738 117.191 61.2708 116.936C61.2648 116.435 60.9088 115.833 60.4768 115.592Z" fill="#B5B6B6"/>
<path d="M48.5128 124.35C48.5188 124.851 48.1738 125.062 47.7408 124.821C47.3088 124.58 46.9529 123.978 46.9469 123.477C46.9409 122.976 47.2858 122.765 47.7188 123.006C48.1518 123.247 48.5068 123.848 48.5128 124.35Z" fill="#DFE1E1"/>
<path d="M58.9817 106.787C58.7687 106.669 58.5777 106.659 58.4387 106.74L45.6807 114.154C45.8197 114.073 46.0117 114.082 46.2237 114.201C46.6557 114.442 47.0117 115.044 47.0177 115.545C47.0207 115.8 46.9327 115.98 46.7897 116.063L59.5477 108.649C59.6917 108.565 59.7797 108.386 59.7757 108.131C59.7697 107.629 59.4147 107.028 58.9817 106.787Z" fill="#B5B6B6"/>
<path d="M47.0187 115.545C47.0247 116.046 46.6797 116.257 46.2467 116.016C45.8147 115.775 45.4587 115.173 45.4527 114.672C45.4467 114.171 45.7917 113.96 46.2247 114.201C46.6567 114.442 47.0117 115.043 47.0187 115.545Z" fill="#DFE1E1"/>
<path d="M57.488 97.9817C57.275 97.8637 57.084 97.8537 56.944 97.9347L44.186 105.349C44.325 105.268 44.517 105.277 44.729 105.396C45.161 105.637 45.517 106.239 45.523 106.74C45.526 106.995 45.438 107.175 45.295 107.258L58.053 99.8437C58.197 99.7597 58.285 99.5807 58.281 99.3257C58.275 98.8237 57.92 98.2227 57.488 97.9817Z" fill="#B5B6B6"/>
<path d="M45.5241 106.739C45.5301 107.24 45.1851 107.451 44.7521 107.21C44.3201 106.969 43.9641 106.367 43.9581 105.866C43.9521 105.365 44.2971 105.154 44.7301 105.395C45.1621 105.637 45.5181 106.238 45.5241 106.739Z" fill="#DFE1E1"/>
<path d="M55.9929 89.1767C55.7799 89.0587 55.5889 89.0488 55.4499 89.1298L42.6919 96.5438C42.8309 96.4628 43.0229 96.4717 43.2349 96.5907C43.6669 96.8317 44.0229 97.4338 44.0289 97.9348C44.0319 98.1898 43.9439 98.3697 43.8009 98.4527L56.5589 91.0387C56.7029 90.9547 56.7909 90.7757 56.7869 90.5207C56.7809 90.0187 56.4259 89.4177 55.9929 89.1767Z" fill="#B5B6B6"/>
<path d="M44.029 97.9337C44.035 98.4347 43.69 98.6457 43.257 98.4047C42.825 98.1637 42.469 97.5617 42.463 97.0607C42.457 96.5597 42.802 96.3487 43.235 96.5897C43.668 96.8317 44.023 97.4327 44.029 97.9337Z" fill="#DFE1E1"/>
<path d="M54.4988 80.3718C54.2858 80.2538 54.0948 80.2438 53.9558 80.3248L41.1978 87.7388C41.3368 87.6578 41.5288 87.6668 41.7408 87.7858C42.1728 88.0268 42.5288 88.6288 42.5348 89.1298C42.5378 89.3848 42.4498 89.5648 42.3068 89.6478L55.0648 82.2338C55.2088 82.1498 55.2968 81.9708 55.2928 81.7158C55.2858 81.2138 54.9308 80.6128 54.4988 80.3718Z" fill="#B5B6B6"/>
<path d="M42.5348 89.1287C42.5408 89.6297 42.1958 89.8407 41.7628 89.5997C41.3308 89.3587 40.9748 88.7577 40.9688 88.2557C40.9628 87.7547 41.3088 87.5437 41.7408 87.7847C42.1728 88.0267 42.5288 88.6277 42.5348 89.1287Z" fill="#DFE1E1"/>
<path d="M53.0036 71.5667C52.7906 71.4487 52.5996 71.4387 52.4606 71.5197L39.7026 78.9337C39.8416 78.8527 40.0336 78.8617 40.2456 78.9807C40.6776 79.2217 41.0336 79.8237 41.0396 80.3247C41.0426 80.5797 40.9546 80.7587 40.8116 80.8427L53.5696 73.4287C53.7136 73.3457 53.8016 73.1657 53.7976 72.9107C53.7916 72.4087 53.4356 71.8077 53.0036 71.5667Z" fill="#B5B6B6"/>
<path d="M41.0397 80.3238C41.0457 80.8248 40.7007 81.0358 40.2677 80.7948C39.8357 80.5538 39.4797 79.9528 39.4737 79.4508C39.4677 78.9498 39.8127 78.7388 40.2457 78.9798C40.6787 79.2218 41.0337 79.8228 41.0397 80.3238Z" fill="#DFE1E1"/>
<path d="M51.509 62.7617C51.296 62.6437 51.105 62.6337 50.966 62.7147L38.208 70.1287C38.347 70.0477 38.539 70.0567 38.751 70.1757C39.183 70.4167 39.539 71.0187 39.545 71.5197C39.548 71.7747 39.46 71.9537 39.317 72.0377L52.075 64.6237C52.219 64.5407 52.307 64.3607 52.303 64.1057C52.297 63.6037 51.942 63.0017 51.509 62.7617Z" fill="#B5B6B6"/>
<path d="M39.5461 71.5188C39.5521 72.0198 39.2071 72.2308 38.7741 71.9898C38.3421 71.7488 37.9861 71.1478 37.9801 70.6458C37.9741 70.1448 38.3191 69.9338 38.7521 70.1748C39.1841 70.4158 39.5401 71.0178 39.5461 71.5188Z" fill="#DFE1E1"/>
<path d="M50.0149 53.9557C49.8019 53.8377 49.6109 53.8277 49.4719 53.9087L36.7139 61.3227C36.8529 61.2417 37.0449 61.2507 37.2569 61.3697C37.6889 61.6107 38.0449 62.2127 38.0509 62.7137C38.0539 62.9687 37.9659 63.1477 37.8229 63.2317L50.5809 55.8177C50.7249 55.7347 50.8129 55.5547 50.8089 55.2997C50.8029 54.7987 50.4469 54.1967 50.0149 53.9557Z" fill="#B5B6B6"/>
<path d="M38.0509 62.7137C38.0569 63.2147 37.7119 63.4257 37.2789 63.1847C36.8469 62.9437 36.4909 62.3417 36.4849 61.8407C36.4789 61.3397 36.8239 61.1287 37.2569 61.3697C37.6889 61.6107 38.0449 62.2127 38.0509 62.7137Z" fill="#DFE1E1"/>
<path d="M53.1666 149.523L50.9446 148.777L35.2466 55.6727L37.4686 56.4187L53.1666 149.523Z" fill="#848484"/>
<path d="M37.4686 56.4187L35.2466 55.6727L36.3116 55.0577L38.5346 55.8027L37.4686 56.4187Z" fill="#A0A0A0"/>
<path d="M53.1668 149.523L37.4688 56.4187L38.5348 55.8027L54.2328 148.907L53.1668 149.523Z" fill="#AEAEAE"/>
<path d="M50.139 88.2747C49.713 88.2657 49.592 88.2897 49.431 88.4827C49.27 88.6757 49.205 88.9487 49.205 88.9487C49.205 88.9487 49.14 89.5767 49.429 89.8017C49.718 90.0277 50.635 90.6887 51.294 90.7697C51.954 90.8507 52.935 90.9647 52.935 90.9647C52.935 90.9647 54.511 91.5787 55.155 91.7397C55.799 91.9017 56.781 91.6617 57.038 91.5007C57.296 91.3397 57.553 91.2917 57.667 90.7777C57.78 90.2627 57.717 89.8287 57.556 89.7477C57.395 89.6667 55.046 88.8917 55.046 88.8917L50.139 88.2747Z" fill="#323142"/>
<path d="M42.4846 73.1307C42.0516 73.4447 41.9326 73.2577 41.8156 73.6357C41.6986 74.0137 41.7406 74.2957 41.7896 74.5297C41.8386 74.7637 42.5386 75.3467 42.6596 75.4127C42.7806 75.4787 43.8626 75.6417 44.0786 75.7277C44.2936 75.8147 45.6916 76.6397 46.3816 76.7017C47.0716 76.7637 48.1606 76.2867 48.1606 76.2867L48.5736 75.7667C48.5736 75.7667 48.7676 75.1757 48.4516 74.8727C48.1356 74.5707 42.4846 73.1307 42.4846 73.1307Z" fill="#323142"/>
<path d="M52.6677 86.9267C52.4867 87.3607 51.6367 87.7017 51.6367 87.7017C51.6367 87.7017 50.3657 87.7767 49.8977 88.1137C49.4307 88.4507 49.4297 88.7247 49.4297 88.9497C49.4297 89.1747 49.7027 89.6417 49.7027 89.6417C49.7027 89.6417 51.4077 90.2877 52.1477 90.3367C52.8877 90.3857 54.1587 90.7257 54.1587 90.7257C54.1587 90.7257 55.9447 91.3237 56.6687 91.0667C57.3937 90.8097 57.7317 90.6337 57.5557 89.7487C57.3797 88.8637 57.1077 88.0497 56.8347 87.7077C56.5617 87.3657 55.0657 86.9287 55.0657 86.9287L52.6677 86.9267Z" fill="#F1F3F3"/>
<path d="M44.697 72.2797C44.382 72.0907 43.006 72.2917 43.006 72.2917C43.006 72.2917 42.03 72.7767 41.899 73.2617C41.768 73.7467 41.717 74.1137 42.055 74.6147C42.393 75.1157 43.791 75.3397 44.257 75.5007C44.722 75.6617 46.924 76.1907 47.368 76.1537C47.812 76.1167 48.563 75.7327 48.666 75.0967C48.769 74.4607 48.042 73.1267 48.042 73.1267C48.042 73.1267 46.933 72.6817 46.613 72.6467C46.292 72.6127 44.697 72.2797 44.697 72.2797Z" fill="#F1F3F3"/>
<path d="M50.1738 48.3657C50.1738 48.3657 49.4088 49.0138 49.2418 49.1328C49.0728 49.2498 48.0088 50.5008 47.8498 50.7498C47.6908 50.9988 45.9288 52.7928 45.9288 52.7928L44.0338 54.5368C44.0338 54.5368 41.3638 57.1118 41.3458 57.1848C41.3308 57.2448 41.3388 57.6007 41.3308 57.8057C41.3288 57.8437 41.3278 57.8777 41.3238 57.9027C41.3068 58.0597 41.0778 58.6797 41.0778 58.6797L40.8788 59.3467L40.7498 59.8118C40.7498 59.8118 40.7078 60.3847 40.7098 60.4177C40.7118 60.4497 40.6848 61.1178 40.6318 61.5387C40.6098 61.7157 40.5398 61.8027 40.4608 61.8347H40.4588C40.3538 61.8777 40.2378 61.8198 40.2228 61.7528C40.1958 61.6358 40.1548 60.5147 40.1548 60.5147L40.0728 60.0137L40.0698 59.9938L39.9498 60.1127L39.8278 61.3688C39.8278 61.3688 39.7708 62.2157 39.6788 62.4847C39.6108 62.6917 39.3868 62.5667 39.2858 62.4967V62.4948C39.2538 62.4728 39.2338 62.4567 39.2338 62.4567L39.2308 61.6828L39.2778 60.7838L39.2188 60.3498L39.1938 60.4597L39.0938 60.9108L39.0388 61.8177L38.9918 62.6838C38.9918 62.6838 38.8168 62.8577 38.6408 62.7738C38.6308 62.7688 38.6208 62.7618 38.6108 62.7558C38.6078 62.7538 38.6058 62.7527 38.6028 62.7507C38.4558 62.6437 38.4478 62.1308 38.4438 61.8668C38.4438 61.7948 38.4438 61.7417 38.4408 61.7217C38.4278 61.6217 38.3908 61.0268 38.4278 60.7878C38.4658 60.5487 38.6368 59.9437 38.6368 59.9437L38.5268 59.9368L38.4748 59.9338L38.1838 60.4788L38.1168 60.6038L37.8578 61.3108L37.7728 61.8617C37.7728 61.8617 37.5718 62.1328 37.3688 62.0868C37.1628 62.0438 37.2238 61.4837 37.2438 61.3337C37.2638 61.1847 37.3828 60.7578 37.4498 60.4748C37.4818 60.3378 37.5568 60.1558 37.6318 59.9938C37.7118 59.8188 37.7908 59.6677 37.8138 59.6257C37.8508 59.5557 37.9388 59.3648 37.9658 59.3098C37.9708 59.2998 37.9728 59.2948 37.9728 59.2948L38.4038 58.4457L39.4328 56.4238L39.9258 55.8307C39.9258 55.8307 41.5998 53.4837 41.8958 53.1657C42.1918 52.8487 44.5338 49.6168 44.8058 49.2978C45.0768 48.9768 46.4298 48.0247 46.7388 47.7537C47.0468 47.4817 47.6208 46.5258 47.8848 46.1878C48.1488 45.8508 49.5208 44.0127 50.0028 43.8307C50.0028 43.8307 50.2938 44.3098 50.5858 44.7918C50.7398 45.0438 50.8928 45.2977 51.0068 45.4837C51.3358 46.0227 50.1738 48.3657 50.1738 48.3657Z" fill="url(#paint2_linear_202_5048)"/>
<path d="M38.4459 61.8668L38.2539 60.8428C38.2989 60.5358 38.3629 60.2328 38.5109 59.9638C38.5159 59.9558 38.5209 59.9468 38.5279 59.9368C38.5759 59.8718 38.6729 59.7848 38.7129 59.8728C38.7359 59.9248 38.6409 60.0938 38.6289 60.1518C38.5599 60.4928 38.4889 60.8738 38.5199 61.2178C38.5549 61.5958 38.5899 61.9708 38.6239 62.3468C38.6369 62.4868 38.6339 62.6308 38.6419 62.7728C38.6319 62.7678 38.6219 62.7608 38.6119 62.7548C38.6089 62.7528 38.6069 62.7518 38.6039 62.7498C38.4579 62.6438 38.4489 62.1308 38.4459 61.8668Z" fill="#FFDFD1"/>
<path d="M39.3528 60.7027C39.3758 60.8727 39.3798 61.0347 39.3528 61.2017C39.2928 61.5747 39.3058 61.9717 39.2888 62.3507H39.2908C39.3038 62.3537 39.2988 62.3807 39.2878 62.3737V62.3507C39.2758 62.3527 39.2678 62.3637 39.2678 62.3777C39.2678 62.3907 39.2748 62.4047 39.2758 62.4177C39.2778 62.4397 39.2828 62.4667 39.2878 62.4947C39.2558 62.4727 39.2358 62.4567 39.2358 62.4567L39.2328 61.6827L39.2798 60.7837L39.2208 60.3497L39.1958 60.4597C39.2028 60.3707 39.2088 60.2847 39.2178 60.1957C39.2178 60.2557 39.2778 60.3597 39.2948 60.4177C39.3198 60.5117 39.3398 60.6067 39.3528 60.7027Z" fill="#FFDFD1"/>
<path d="M40.0418 58.1297C40.0438 58.3057 39.9298 58.4837 39.7978 58.5857C39.7008 58.6607 39.5768 58.6977 39.4638 58.7457C39.3088 58.8147 39.1648 58.9107 39.0048 58.9727C38.8898 59.0157 38.7678 59.0407 38.6558 59.0897C38.5358 59.1417 38.4288 59.2187 38.3298 59.3017C38.2198 59.3937 38.1198 59.4957 38.0208 59.5977L38.1858 60.4787L38.1188 60.6037L37.8598 61.3107L37.7747 61.8617C37.7747 61.8617 37.5738 62.1327 37.3708 62.0867C37.1648 62.0437 37.2258 61.4837 37.2458 61.3337C37.2658 61.1847 37.3848 60.7577 37.4518 60.4747C37.4838 60.3377 37.5588 60.1557 37.6338 59.9937C37.7138 59.8187 37.7927 59.6677 37.8157 59.6257C37.8527 59.5557 37.9408 59.3647 37.9678 59.3097L37.8738 58.8117C38.0428 58.6767 38.2218 58.5577 38.4048 58.4457C38.6788 58.2807 38.9628 58.1297 39.2418 57.9707C39.3188 57.9277 39.3968 57.8817 39.4838 57.8607C39.5628 57.8417 39.6458 57.8457 39.7278 57.8487C39.9328 57.8587 40.0378 57.9057 40.0418 58.1297Z" fill="#FFDFD1"/>
<path d="M40.4607 61.8347C40.3557 61.8777 40.2397 61.8197 40.2247 61.7527C40.1977 61.6357 40.1567 60.5147 40.1567 60.5147L40.0747 60.0137V60.0037C40.0747 59.9707 40.0927 59.9217 40.1267 59.9337C40.1917 60.1287 40.2017 60.3377 40.2107 60.5437C40.2277 60.9127 40.2437 61.2837 40.2607 61.6527C40.2627 61.6897 40.2637 61.7267 40.2827 61.7577C40.3147 61.8187 40.3867 61.8307 40.4607 61.8347Z" fill="#FFDFD1"/>
<path d="M44.3546 50.3828C43.1856 52.1528 41.6516 53.6728 40.6186 55.5248C40.5336 55.6778 40.4526 55.8728 40.5526 56.0168C40.6016 56.0878 40.6856 56.1278 40.7706 56.1438C41.0616 56.1968 41.3316 55.9988 41.5596 55.8108C42.8306 54.7628 44.0696 53.6768 45.2736 52.5528C45.7366 52.1208 46.1956 51.6818 46.5806 51.1798C46.7216 50.9968 46.8566 50.7918 46.8666 50.5618C46.8746 50.3758 46.8006 50.1978 46.7266 50.0278C46.5406 49.5998 46.1586 48.9758 45.5966 49.0828C45.0286 49.1888 44.6416 49.9488 44.3546 50.3828Z" fill="url(#paint3_linear_202_5048)"/>
<path d="M45.935 48.6577C45.762 48.8687 45.587 49.0947 45.539 49.3637C45.482 49.6787 45.608 49.9957 45.732 50.2907C45.823 50.5087 45.981 50.7667 46.215 50.7337C46.306 50.7207 46.384 50.6627 46.457 50.6067C46.63 50.4737 46.803 50.3397 46.976 50.2067C47.351 49.9177 47.727 49.6287 48.058 49.2897C48.879 48.4507 49.387 47.3457 49.668 46.2067C49.742 45.9097 49.78 45.3897 49.356 45.3297C49.072 45.2897 48.774 45.6857 48.588 45.8557C47.972 46.4177 47.384 47.0087 46.823 47.6267C46.519 47.9617 46.222 48.3067 45.935 48.6577Z" fill="url(#paint4_linear_202_5048)"/>
<path d="M50.1737 48.3657C50.1737 48.3657 49.4087 49.0137 49.2417 49.1327C49.0727 49.2497 48.0087 50.5007 47.8497 50.7497C47.6907 50.9987 45.9287 52.7927 45.9287 52.7927L44.0337 54.5367C44.0337 54.5367 41.3637 57.1117 41.3457 57.1847C41.3307 57.2447 41.3387 57.6007 41.3307 57.8057C41.3257 57.7037 41.3177 57.6017 41.2567 57.5237C41.2047 57.4547 41.1127 57.3987 41.1217 57.3127C41.1247 57.2877 41.1367 57.2647 41.1487 57.2427C41.2457 57.0557 41.3427 56.8547 41.4757 56.6927C42.3197 55.6687 43.3807 54.8467 44.2807 53.8707C44.8417 53.2627 45.4757 52.7297 46.0187 52.0997C46.4467 51.6087 46.8527 51.0387 46.8807 50.3887C46.8807 50.5737 47.3887 50.5487 47.4807 50.5177C47.7247 50.4337 47.8787 50.1597 48.0607 49.9897C48.5267 49.5567 48.9517 49.0627 49.1837 48.4627C49.3057 48.1447 49.3687 47.8107 49.4507 47.4807C49.6477 46.6757 49.9137 45.8097 50.2997 45.0737C50.3747 44.9297 50.4747 44.8397 50.5867 44.7927C50.7407 45.0447 50.8937 45.2987 51.0077 45.4847C51.3357 46.0227 50.1737 48.3657 50.1737 48.3657Z" fill="#FFDFD1"/>
<path d="M62.9358 60.5207C62.4208 62.4507 60.9558 63.9157 60.7038 64.4307C60.4518 64.9447 57.6768 71.5697 57.6768 71.5697C57.6768 71.5697 57.7558 75.1137 57.8158 76.1847C57.8748 77.2557 57.3078 83.6677 56.9088 87.8487C56.3808 88.2347 55.2448 88.1307 54.3078 87.8437C53.5008 87.5977 52.8408 87.2187 52.8328 86.9017C52.8178 86.2137 52.9398 74.3247 52.9748 73.6047C53.0078 72.9077 52.8078 63.1637 53.7868 60.7367C53.8148 60.6617 53.8468 60.5927 53.8798 60.5307C53.8798 60.5307 54.6228 56.2967 56.2308 54.9737C57.8378 53.6517 61.0928 55.2897 61.0928 55.2897C61.0928 55.2897 62.8988 56.2387 62.9388 56.5357C62.9788 56.8297 63.4498 58.5907 62.9358 60.5207Z" fill="#424C67"/>
<path d="M53.0779 87.3557H53.3349C53.3309 82.6647 53.3359 73.7027 53.3829 73.3547C53.4429 72.9067 53.7179 67.9947 53.7299 67.7857C53.7339 67.7597 54.1979 64.1747 54.9469 61.3317L54.6979 61.2657C53.9449 64.1257 53.4779 67.7257 53.4729 67.7617C53.4689 67.8217 53.1859 72.8817 53.1269 73.3207C53.0669 73.7727 53.0769 86.8017 53.0779 87.3557Z" fill="#4F5A7A"/>
<path d="M59.2918 62.8077C59.0078 63.5417 58.1318 64.4587 57.4688 64.8457C56.7738 65.2517 55.9768 65.4437 55.2088 65.6877C54.9828 65.7577 54.7528 65.8377 54.5808 65.9997C54.2618 66.3007 54.2348 66.7897 54.2268 67.2277C54.1718 70.4007 53.7338 73.7317 54.0628 76.8697C54.2388 78.5517 54.1278 80.3177 54.1598 82.0087C54.1928 83.7577 54.2248 85.5067 54.2588 87.2547C54.2638 87.1597 54.2688 87.0637 54.2738 86.9687C54.3008 87.2597 54.3118 87.5497 54.3078 87.8407C53.5008 87.5947 52.8408 87.2157 52.8328 86.8987C52.8178 86.2107 52.9398 74.3217 52.9748 73.6017C53.0078 72.9047 52.8078 63.1607 53.7868 60.7337C55.0798 60.3097 56.4968 60.2697 57.7898 60.7057C58.6278 60.9897 59.6938 61.7717 59.2918 62.8077Z" fill="#DEDDF5"/>
<path d="M57.3038 73.4817C56.5058 73.1677 55.5138 73.4507 55.0038 74.1397C54.6668 74.5937 54.5409 75.1707 54.4839 75.7337C54.3379 77.1797 54.5868 78.6337 54.6328 80.0867C54.6988 82.1807 54.3438 84.2987 54.7238 86.3587C54.7418 86.4567 54.7649 86.5607 54.8329 86.6337C54.9049 86.7117 55.0139 86.7407 55.1169 86.7667C55.3249 86.8187 55.5339 86.8697 55.7419 86.9217C55.8179 86.9407 55.8999 86.9597 55.9729 86.9317C56.0569 86.8997 56.1078 86.8147 56.1488 86.7347C56.5338 85.9937 56.7079 85.1637 56.8479 84.3397C57.2859 81.7657 57.4308 79.1517 57.5748 76.5437C57.5928 76.2427 57.4298 73.5307 57.3038 73.4817Z" fill="#454F6B"/>
<path d="M59.5697 67.2457C59.9487 66.3047 60.2887 65.3467 60.5727 64.3717C60.6147 64.2267 60.6497 64.0517 60.5467 63.9417C60.4697 63.8587 60.3437 63.8467 60.2307 63.8427C59.4877 63.8167 58.7417 63.8807 58.0137 64.0307C57.9117 64.0517 57.8077 64.0757 57.7207 64.1337C57.5997 64.2147 57.5297 64.3517 57.4597 64.4797C57.0467 65.2397 56.4677 65.9097 55.7737 66.4267C55.5347 66.6057 55.2757 66.7727 55.1127 67.0227C54.9097 67.3337 54.8857 67.7247 54.8677 68.0957C54.8057 69.4027 54.7427 70.7097 54.6807 72.0167C54.6367 72.9477 54.5917 73.8857 54.7237 74.8097C54.7337 74.8777 54.7467 74.9517 54.7987 74.9977C55.0967 75.2627 55.4417 74.9067 55.7277 74.8527C56.1927 74.7637 56.6187 74.7887 57.0927 74.6237C57.1587 74.6007 57.2267 74.5757 57.2717 74.5237C57.3277 74.4587 57.3357 74.3657 57.3397 74.2787C57.3677 73.7117 57.3467 73.0767 57.3667 72.4847C57.3887 71.8307 57.5577 71.5577 57.8477 70.9997C58.4797 69.7787 59.0557 68.5207 59.5697 67.2457Z" fill="#454F6B"/>
<path d="M60.7168 61.5377C59.9548 63.1447 58.6538 64.1137 58.1538 64.2847C57.6528 64.4537 55.8728 64.6437 53.1078 64.1127C51.5038 63.8057 49.4088 63.2707 47.9318 62.8767C46.8628 62.5907 46.1158 62.3767 46.1158 62.3767C46.1158 62.3767 47.7948 72.5487 47.7008 73.0767C47.6328 73.4527 47.2678 73.5917 46.8158 73.6677C46.6358 73.6977 46.4398 73.7197 46.2448 73.7427C45.5628 73.8227 44.6038 73.7127 44.0908 73.1877C43.5778 72.6627 43.0728 68.5867 41.9568 64.4067C40.8388 60.2247 41.1048 59.3947 41.1048 58.7667C41.1028 58.1387 41.5188 57.0037 43.0148 56.8407C44.5098 56.6767 51.8418 56.7507 51.8418 56.7507C51.8418 56.7507 52.3318 56.1897 52.5438 55.7417C56.3118 54.4817 60.2138 57.1387 60.9658 57.8267C61.7158 58.5117 61.4788 59.9307 60.7168 61.5377Z" fill="#424C67"/>
<path d="M43.519 57.0328C43.671 57.0388 43.823 57.0447 43.976 57.0517C43.46 57.0987 42.953 57.2467 42.492 57.4837C42.288 57.5887 42.089 57.7147 41.953 57.8988C41.685 58.2608 41.723 58.7808 41.929 59.1828C42.245 59.7988 42.891 60.1888 43.56 60.3708C44.228 60.5528 44.93 60.5558 45.621 60.5878C47.183 60.6618 48.733 60.8927 50.28 61.1237C50.774 61.1977 51.27 61.2717 51.749 61.4137C52.231 61.5567 52.749 61.7688 53.218 61.5868C53.712 61.3948 53.958 60.8047 53.91 60.2767C53.862 59.7487 53.583 59.2727 53.29 58.8307C52.911 58.2607 52.407 57.5077 51.762 57.2057C51.123 56.9057 50.234 57.0528 49.553 57.0508C47.546 57.0438 45.523 57.1138 43.519 57.0328Z" fill="#454F6B"/>
<path d="M44.4117 73.4447L44.6607 73.3787C44.6447 73.3207 43.1107 67.5407 42.5227 64.9597C41.9397 62.3977 41.9487 61.1527 41.9487 61.1397C41.9507 61.1357 41.9527 61.1077 41.9557 61.0727C41.9767 60.8067 42.0267 60.1837 42.5847 59.9697C42.8657 59.8617 44.1037 59.8987 45.4147 59.9397C47.2807 59.9957 49.3957 60.0607 50.2887 59.7937C51.8707 59.3207 52.9017 58.8277 53.8147 57.5777L53.6067 57.4267C52.7317 58.6237 51.7777 59.0807 50.2147 59.5477C49.3627 59.8037 47.1777 59.7377 45.4227 59.6827C43.8107 59.6347 42.8067 59.6107 42.4927 59.7297C41.7827 60.0017 41.7217 60.7657 41.6987 61.0527C41.6967 61.0817 41.6947 61.1047 41.6927 61.1207C41.6907 61.1877 41.6807 62.4197 42.2717 65.0177C42.8607 67.6027 44.3967 73.3867 44.4117 73.4447Z" fill="#4F5A7A"/>
<path d="M52.103 56.4258C52.19 56.5798 52.454 57.9808 55.062 58.8577C57.67 59.7347 60.216 60.1268 61.26 59.6198C62.304 59.1128 62.961 58.2927 62.961 58.2927C62.961 58.2927 62.714 57.0607 62.641 56.8057C62.568 56.5507 52.936 55.2318 52.936 55.2318L52.103 56.4258Z" fill="#323142"/>
<path d="M54.559 59.2968C54.953 58.6908 55.549 57.3637 55.74 56.6657L55.243 56.5287C55.065 57.1767 54.492 58.4547 54.127 59.0147L54.559 59.2968Z" fill="#424C67"/>
<path d="M61.1609 60.0597L61.6759 60.0447C61.6719 59.9117 61.7119 59.7707 61.7539 59.6227C61.8219 59.3837 61.8979 59.1137 61.8069 58.8147C61.6839 58.4077 61.5859 57.9937 61.4879 57.5787L61.4419 57.3847L60.9409 57.5037L60.9869 57.6977C61.0869 58.1227 61.1879 58.5477 61.3139 58.9647C61.3609 59.1207 61.3139 59.2887 61.2589 59.4827C61.2099 59.6537 61.1539 59.8477 61.1609 60.0597Z" fill="#424C67"/>
<path d="M46.1157 62.3767C46.1157 62.3767 47.7947 72.5487 47.7007 73.0767C47.6327 73.4527 47.2677 73.5917 46.8157 73.6677C46.7017 73.1547 46.6097 72.6367 46.5467 72.1157C46.4017 70.9427 46.3927 69.7537 46.1607 68.5937C45.9037 67.3227 45.3837 66.1297 44.9197 64.9247C44.5557 63.9807 43.6187 62.0527 44.0997 61.0567C44.9197 61.2657 45.7307 61.6617 46.5587 61.8987C47.1917 62.0787 47.6177 62.4297 47.9317 62.8757C46.8627 62.5907 46.1157 62.3767 46.1157 62.3767Z" fill="#DEDDF5"/>
<path d="M42.4667 60.7607C42.3617 60.7197 42.2418 60.6937 42.1388 60.7407C41.9568 60.8247 41.9408 61.0727 41.9528 61.2737C42.1648 64.7567 42.7888 68.2137 43.8078 71.5517C43.9718 72.0907 44.1498 72.6327 44.4458 73.1117C44.6008 73.3637 44.7957 73.6027 45.0597 73.7377C45.3237 73.8717 45.6677 73.8797 45.8977 73.6937C46.1977 73.4527 46.2058 73.0057 46.1748 72.6217C46.0218 70.7817 45.5498 68.9857 44.9448 67.2457C44.4218 65.7407 43.8248 64.4117 43.6248 62.8307C43.5288 62.0667 43.2637 61.0727 42.4667 60.7607Z" fill="#454F6B"/>
<path d="M51.9098 39.8197C51.0488 40.9537 49.6678 42.9737 49.5138 43.6187C49.3608 44.2637 50.0948 45.1927 51.2208 45.5097C52.3468 45.8267 53.5108 42.0707 53.5108 42.0707L51.9098 39.8197Z" fill="#FF7F00"/>
<path d="M61.3946 57.6887C58.1436 58.1277 56.6536 57.5157 55.3356 56.8587C54.0176 56.2017 53.2046 56.2857 52.5436 55.7397C51.8816 55.1947 51.5556 54.5697 51.4176 53.9957C51.2796 53.4217 50.1876 47.1647 50.1006 46.3737C50.0136 45.5817 49.3086 43.2977 50.1566 41.8547C51.0036 40.4117 52.2756 38.8747 52.5866 38.5057C52.8976 38.1367 53.8956 37.1687 54.5376 37.3867C55.1796 37.6047 56.8806 38.9417 58.1056 40.4307C59.3306 41.9197 60.4586 45.8647 60.7516 47.2037C61.0446 48.5437 61.3786 52.2707 61.3786 52.2707C61.3786 52.2707 62.5966 56.1847 62.5686 56.5487C62.5406 56.9147 61.6796 57.6507 61.3946 57.6887Z" fill="#FFA600"/>
<path d="M55.3139 47.9588C54.8389 49.6188 53.69 51.0838 53.555 52.8048C53.455 54.0838 53.9319 55.3398 53.9699 56.6218C53.9769 56.8398 53.9229 57.1188 53.7089 57.1628C53.5269 57.1998 53.374 57.0308 53.27 56.8778C52.542 55.7968 52.1199 54.5378 51.8289 53.2678C51.3369 51.1248 51.194 48.9028 51.408 46.7148C51.545 45.3168 52.95 44.3468 54.354 44.5458C55.96 44.7728 55.6349 46.8368 55.3139 47.9588Z" fill="#DEDDF5"/>
<path d="M50.4586 46.7657C49.8896 48.2297 48.9676 52.4357 48.8276 52.9797C48.6886 53.5237 47.7126 54.8737 47.2306 56.1397C46.7486 57.4057 44.8156 62.0307 44.5766 62.3547C44.3376 62.6797 44.0316 62.8977 44.0316 62.8977L43.5286 63.2517C43.5286 63.2517 42.1026 63.9417 42.0266 64.0207C41.9506 64.0997 41.6886 64.4127 41.6886 64.4127L40.9726 64.9567L40.2456 65.2227C40.2456 65.2227 40.2406 65.5547 40.6146 65.7287C40.9886 65.9017 41.5846 65.5857 41.7066 65.4637C41.8286 65.3427 42.3096 65.0347 42.3966 64.9897C42.4836 64.9447 42.6256 65.1587 42.6256 65.1587C42.6256 65.1587 42.5706 65.6777 42.4866 65.9357C42.4026 66.1937 41.7226 67.3017 41.7226 67.3017C41.7226 67.3017 41.0276 68.4007 41.0066 68.6167C40.9856 68.8327 41.3786 69.0407 41.5566 68.8707C41.7346 68.6997 42.4366 67.6597 42.4366 67.6597L43.1956 66.8617L42.7916 67.4397C42.7916 67.4397 41.9556 69.0957 41.9246 69.2627C41.8936 69.4287 42.0076 69.7207 42.1446 69.7317C42.2816 69.7427 42.4406 69.5857 42.4406 69.5857L43.3296 68.0747L43.7846 67.4307L43.3866 68.3677C43.3866 68.3677 42.9046 69.2767 42.8706 69.4097C42.8366 69.5427 43.1516 69.7897 43.2396 69.7367C43.3286 69.6837 43.4196 69.5497 43.4196 69.5497L44.2406 68.2407L44.6666 67.2027L44.5996 67.8107C44.5996 67.8107 44.2396 68.8417 44.3276 68.9677C44.4156 69.0937 44.6536 69.1987 44.7796 68.9887C44.9056 68.7787 45.2336 67.7517 45.2336 67.7517C45.2336 67.7517 45.4526 66.9857 45.4556 66.9047C45.4586 66.8237 46.1096 64.2657 46.1096 64.2657L46.4416 63.6777C46.4416 63.6777 49.7086 58.6837 50.0986 57.7867C50.4896 56.8897 51.3976 55.0647 51.3976 55.0647C51.3976 55.0647 53.7256 49.2107 53.8076 48.8567C53.8886 48.5027 53.7896 46.4987 53.4436 46.4107C53.0996 46.3197 50.4586 46.7657 50.4586 46.7657Z" fill="url(#paint5_linear_202_5048)"/>
<path d="M54.4158 37.3607L51.2258 40.4917C51.2258 40.4917 50.6398 39.5507 50.1628 39.3557C49.6858 39.1607 49.2738 37.6587 49.2738 37.6587C49.2738 37.6587 49.2148 32.2737 50.5678 32.8327C51.9208 33.3917 52.8218 34.8797 53.0188 35.4587C53.2168 36.0367 53.7188 37.0277 54.4158 37.3607Z" fill="url(#paint6_linear_202_5048)"/>
<path d="M46.4038 30.8637C45.4598 32.0667 45.0808 33.1677 45.1078 33.6267C45.1348 34.0847 45.5508 35.3767 45.6428 35.6497C45.7358 35.9227 46.1798 36.2327 46.1798 36.2327C46.1798 36.2327 46.1708 36.8347 46.1478 37.2377C46.1248 37.6407 45.9538 37.8857 46.1968 38.0077C46.4398 38.1307 46.9528 38.0627 46.9528 38.0627C46.9528 38.0627 46.9978 38.5077 47.1278 38.5657C47.2578 38.6237 47.4108 38.6937 47.4108 38.6937C47.4108 38.6937 47.3228 38.8607 47.3678 39.0047C47.4128 39.1487 47.7508 39.2357 47.7508 39.2357L47.9158 39.4527C47.9158 39.4527 48.0658 40.0747 48.5108 40.2087C48.9558 40.3427 50.0138 39.5537 50.1188 39.4947C50.2238 39.4357 51.2508 38.4067 51.4148 37.8037C51.5788 37.2007 51.5928 36.3827 51.2208 35.6007C50.8488 34.8187 50.2848 33.4827 49.8818 33.0377C49.4808 32.5927 46.4038 30.8637 46.4038 30.8637Z" fill="url(#paint7_linear_202_5048)"/>
<path d="M45.9107 33.1607C46.1737 32.9607 46.2617 32.9087 46.5457 32.9717C46.8297 33.0347 47.0777 33.4747 47.0777 33.4747L47.4187 34.4227L48.7227 35.1047L49.4017 35.6607L49.7477 35.3917C49.7477 35.3917 49.6677 34.6737 49.7937 34.4637C49.9197 34.2537 50.2417 33.7457 51.0727 34.0787C51.9047 34.4117 52.0827 34.9727 52.0827 34.9727L52.5817 35.3987L52.9437 35.2677C52.9437 35.2677 53.1337 34.7437 53.0757 34.1017C53.0177 33.4607 53.0227 32.7707 52.6107 31.4467C52.1987 30.1237 50.3667 29.6857 50.3437 29.6747C50.3207 29.6637 49.4547 29.4637 49.4547 29.4637C49.4547 29.4637 48.2537 29.2177 47.7177 29.3967C47.1817 29.5747 46.2667 30.0917 45.8057 30.6047C45.3457 31.1187 44.9807 31.9457 44.7897 32.3907C44.5987 32.8357 44.4917 33.3817 44.4917 33.3817C44.4917 33.3817 44.8147 33.8077 44.9427 33.7687C45.0697 33.7297 45.3617 33.2577 45.3617 33.2577L45.9107 33.1607Z" fill="#B2686B"/>
<path d="M50.461 34.9857C50.147 34.6097 50.147 34.3177 50.577 34.1407C51.007 33.9637 51.265 34.3977 51.444 34.7467C51.624 35.0957 51.465 35.8097 51.402 36.0787C51.339 36.3487 50.925 36.2267 50.925 36.2267L50.746 35.9887L50.729 35.4447L50.461 34.9857Z" fill="url(#paint8_linear_202_5048)"/>
<path d="M49.1326 53.7227C49.1226 53.7987 49.1126 53.8767 49.1326 53.9517C49.1586 54.0497 49.2356 54.1287 49.3246 54.1777C49.6596 54.3637 50.0726 54.1497 50.3746 53.9137C51.5776 52.9747 52.4156 51.5867 52.7176 50.0907C52.7576 49.8917 52.7887 49.6837 52.7357 49.4887C52.6677 49.2417 52.4706 49.0447 52.2426 48.9277C52.0146 48.8107 51.7566 48.7647 51.5016 48.7367C50.9096 48.6717 50.1826 48.8217 49.9646 49.4457C49.6696 50.2887 49.5386 51.2307 49.3826 52.1077C49.2866 52.6427 49.2036 53.1827 49.1326 53.7227Z" fill="url(#paint9_linear_202_5048)"/>
<path d="M47.7966 56.0627C47.0556 58.3337 45.9256 60.4547 44.9016 62.6127C44.8456 62.7297 44.7896 62.8517 44.7816 62.9807C44.7626 63.3047 45.0746 63.5787 45.3976 63.6147C45.4496 63.6207 45.5036 63.6217 45.5516 63.6017C45.6036 63.5807 45.6436 63.5367 45.6806 63.4947C46.8926 62.1127 47.5326 60.3377 48.3956 58.7147C49.0536 57.4767 49.8566 56.3047 50.3236 54.9837C50.4646 54.5847 50.5716 54.1407 50.3486 53.7507C50.2176 53.5207 49.9726 53.0897 49.6796 53.0557C48.9466 52.9707 48.4266 54.2597 48.2256 54.7807C48.0626 55.2007 47.9356 55.6337 47.7966 56.0627Z" fill="url(#paint10_linear_202_5048)"/>
<path d="M51.629 41.3857C52.747 41.2307 53.983 41.7517 54.776 42.9207C55.569 44.0897 55.629 45.0737 55.594 45.3287C55.559 45.5837 54.462 49.4837 54.384 49.5817C54.306 49.6797 50.298 49.3687 49.826 49.1747C49.355 48.9807 49.839 42.6377 49.901 42.4527C49.963 42.2667 50.922 41.4837 51.629 41.3857Z" fill="#FF7F00"/>
<path d="M39.2458 56.7948C39.4678 56.6118 39.5898 56.5477 39.8948 56.6377C40.1988 56.7277 40.4008 56.9748 40.3278 57.5088C40.2548 58.0428 39.8748 58.3237 39.7288 58.4417C39.5828 58.5597 39.1508 58.6878 39.0208 58.6858C38.8908 58.6838 38.6988 58.7227 38.6988 58.7227L38.2578 59.2148C38.2578 59.2148 37.8318 59.5378 37.4938 59.5158C37.1558 59.4938 36.8038 59.2748 36.8008 59.1208C36.7978 58.9658 37.2368 58.9048 37.3228 58.9238C37.4098 58.9438 37.5818 58.8698 37.5818 58.8698C37.5818 58.8698 37.9938 58.5278 37.9968 58.5038C37.9998 58.4798 38.3698 57.9778 38.5018 57.7848C38.6338 57.5918 39.1288 57.0218 39.1288 57.0218L39.2458 56.7948Z" fill="url(#paint11_linear_202_5048)"/>
<path d="M33.6259 146.036C34.2679 145.761 34.4299 145.728 34.6329 145.982C34.8359 146.236 35.0339 146.454 35.0479 147.261C35.0619 148.068 34.9859 148.257 34.6899 148.688C34.3939 149.119 34.0509 149.631 33.2779 150.037C32.5049 150.443 32.1529 150.809 32.1529 150.809C32.1529 150.809 30.7069 152.414 29.4509 152.472C28.1939 152.53 27.9309 151.999 27.7959 151.8C27.6609 151.601 27.6709 151.217 27.7219 150.988C27.7729 150.759 28.4759 150.055 28.6039 149.873C28.7319 149.69 33.6259 146.036 33.6259 146.036Z" fill="#323142"/>
<path d="M25.6281 147.811C26.0841 147.776 26.1841 147.758 26.3241 147.998C26.4641 148.239 26.6241 148.414 26.6421 148.705C26.6601 148.997 26.6651 149.747 26.4581 150.192C26.2511 150.638 25.5541 151.326 25.4721 151.457C25.3901 151.588 24.8361 152.974 24.7241 153.551C24.6121 154.129 24.2321 154.868 23.4721 155.168C22.7111 155.469 21.5611 155.277 21.4081 154.785C21.2541 154.293 21.1511 153.839 21.2211 153.636C21.2911 153.433 21.5261 152.438 21.6221 152.305C21.7181 152.173 25.6281 147.811 25.6281 147.811Z" fill="#323142"/>
<path d="M37.0952 75.4307L28.1192 70.2487C27.7782 70.0517 27.4682 70.0347 27.2442 70.1647L25.8662 70.9607L26.8872 72.7167V81.2507C26.8872 82.0287 27.4412 82.9847 28.1192 83.3757L35.6002 87.6947L36.6082 89.4277L37.9642 88.6447C38.1882 88.5177 38.3272 88.2437 38.3272 87.8547V77.5557C38.3272 76.7777 37.7732 75.8217 37.0952 75.4307Z" fill="#7112DE"/>
<path d="M35.729 76.2188L26.754 71.0368C26.076 70.6458 25.522 70.9618 25.522 71.7388V82.0388C25.522 82.8168 26.076 83.7728 26.754 84.1638L35.729 89.3458C36.407 89.7368 36.961 89.4208 36.961 88.6438V78.3438C36.962 77.5668 36.407 76.6098 35.729 76.2188Z" fill="#680EB2"/>
<path d="M34.6368 83.0297L33.4458 80.9757L33.8048 80.7607L35.3648 83.4517L33.8048 84.3407L33.4458 83.7137L34.6368 83.0297Z" fill="white"/>
<path d="M32.5286 84.1067L32.0596 84.1007L29.7266 77.3627L30.1956 77.3687L32.5286 84.1067Z" fill="white"/>
<path d="M28.8488 81.0577L28.4858 81.2677L26.9268 78.5777L28.4858 77.6877L28.8488 78.3197L27.6538 78.9967L28.8488 81.0577Z" fill="white"/>
<path d="M26.0907 83.4247C26.0787 83.6197 25.8957 84.1847 25.6477 84.3587C25.3987 84.5307 25.3807 84.7157 25.3807 84.7157C25.3807 84.7157 24.1077 91.4927 24.0947 92.9077C24.0897 93.4107 24.0447 94.4027 23.9757 95.4937C23.8517 97.4667 23.6547 99.7657 23.4927 100.07C23.2417 100.543 20.9047 101.712 20.9047 101.712C20.6027 101.304 20.4707 101.209 20.4367 100.551C20.4017 99.8937 20.9297 94.6267 21.1037 93.7157C21.2777 92.8037 21.5447 90.8317 21.6817 90.0437C21.8167 89.2567 24.0527 83.2837 24.1047 83.1567C24.1577 83.0317 24.2967 81.5247 24.5307 80.8247C24.7647 80.1247 25.0717 79.0967 25.1117 79.0087C25.1517 78.9187 25.5657 78.4807 25.5657 78.4807L25.5637 79.0117L25.5507 80.1447C25.5507 80.1447 25.7647 81.4847 25.9497 82.1227C25.9817 82.2327 26.0077 82.3387 26.0277 82.4367C26.1257 82.9137 26.1017 83.2627 26.0907 83.4247Z" fill="url(#paint12_linear_202_5048)"/>
<path d="M24.7359 81.5478C24.9119 81.2758 25.2219 80.9388 25.3389 80.6438C25.4559 80.3488 25.7889 79.8468 25.7889 79.8468C25.7889 79.8468 25.9199 79.3618 26.0829 79.3798C26.2459 79.3978 26.3489 79.4858 26.3679 79.7088C26.3879 79.9318 26.3809 80.2638 26.2929 80.4328C26.2049 80.6018 25.8829 81.2728 25.8829 81.2728L25.8579 81.6638C25.8579 81.6638 25.9879 82.1228 25.9739 82.5118C25.9599 82.9008 25.8629 83.3188 25.6079 83.5158C25.3529 83.7118 24.7009 83.6088 24.6069 82.9618C24.5139 82.3128 24.5199 82.0138 24.7359 81.5478Z" fill="url(#paint13_linear_202_5048)"/>
<path d="M26.091 83.4247C26.079 83.6197 25.896 84.1847 25.648 84.3587C25.399 84.5307 25.381 84.7157 25.381 84.7157C25.381 84.7157 24.108 91.4927 24.095 92.9077C24.09 93.4107 24.045 94.4027 23.976 95.4937C23.968 95.4257 23.958 95.3547 23.949 95.2867C23.86 94.5997 23.727 93.8347 23.167 93.4287C23.571 93.2697 23.844 92.8707 23.967 92.4527C24.092 92.0367 24.094 91.5937 24.112 91.1577C24.186 89.3287 24.557 87.5237 24.924 85.7297C25.001 85.3517 25.081 84.9717 25.242 84.6207C25.431 84.2097 25.73 83.8507 25.872 83.4207C25.93 83.2417 25.964 83.0587 25.992 82.8727C26.007 82.7757 25.997 82.5697 26.029 82.4367C26.126 82.9137 26.102 83.2627 26.091 83.4247Z" fill="#FFDFD1"/>
<path d="M24.0701 83.9127C24.1501 83.7937 24.2431 83.7137 24.3511 83.7097C24.4801 83.7067 24.5731 83.8327 24.6241 83.9517C24.8461 84.4647 24.7411 85.0537 24.6321 85.6027C24.2491 87.5337 23.8661 89.4657 23.4831 91.3967C23.4041 91.7957 23.3231 92.2007 23.1371 92.5637C22.8081 93.2087 21.7771 93.8457 21.6661 92.7237C21.5541 91.5877 21.8441 90.4537 22.1651 89.3577C22.4621 88.3447 22.7881 87.3407 23.1431 86.3467C23.3171 85.8577 23.4991 85.3717 23.6871 84.8877C23.7611 84.7007 23.8781 84.1977 24.0701 83.9127Z" fill="url(#paint14_linear_202_5048)"/>
<path d="M21.883 92.1897C21.983 91.9777 22.114 91.7517 22.337 91.6777C22.64 91.5777 22.968 91.8237 23.083 92.1217C23.198 92.4197 23.161 92.7517 23.143 93.0707C23.084 94.0987 23.234 95.1297 23.208 96.1597C23.177 97.3937 22.895 98.6057 22.588 99.8007C22.553 99.9387 22.515 100.081 22.428 100.193C22.348 100.297 22.233 100.367 22.119 100.429C21.764 100.622 21.383 100.767 20.989 100.857C20.818 100.543 20.793 100.172 20.783 99.8147C20.755 98.7667 20.834 97.7187 20.958 96.6777C21.075 95.6977 21.163 94.6728 21.369 93.7128C21.482 93.1878 21.654 92.6757 21.883 92.1897Z" fill="url(#paint15_linear_202_5048)"/>
<path d="M20.8469 100.544C21.6299 99.8417 22.1149 99.3797 23.0639 99.7847C24.0129 100.19 24.7159 101.974 24.7969 102.741C24.8779 103.508 22.2539 108.382 21.8609 107.18C21.4679 105.978 20.6819 104.678 20.4499 103.347C20.2179 102.016 20.2989 101.34 20.4239 101.114C20.5499 100.887 20.8469 100.544 20.8469 100.544Z" fill="#FF7F00"/>
<path d="M23.7718 148.07C24.1888 147.649 25.3148 147.332 25.9798 147.71C26.6448 148.087 26.6638 148.747 26.3008 149.675C25.9368 150.603 24.9728 151.82 24.8248 152.271C24.6778 152.722 24.3048 154.137 23.3388 154.442C22.3728 154.747 21.4948 154.507 21.4348 153.781C21.3748 153.055 21.4818 151.271 21.4818 151.271C21.4818 151.271 21.7868 149.985 22.1548 149.351C22.5228 148.715 23.7718 148.07 23.7718 148.07Z" fill="#F1F3F3"/>
<path d="M31.2141 146.679C31.5661 146.312 33.7481 145.662 33.7481 145.662C33.7481 145.662 34.4881 145.541 34.7431 146.383C34.9981 147.225 34.9611 147.54 34.7111 147.993C34.4611 148.446 34.0031 149.065 33.2321 149.397C32.4621 149.729 31.6421 150.481 31.4271 150.604C31.2121 150.727 30.3951 151.95 29.0291 151.967C27.6631 151.984 27.8681 150.802 27.8681 150.802C27.8681 150.802 27.7601 149.285 27.9821 148.973C28.2041 148.661 29.4561 147.54 29.4561 147.54L31.2141 146.679Z" fill="#F1F3F3"/>
<path d="M24.1688 147.976C24.4948 149.343 24.9778 148.874 24.9778 148.874C24.9778 148.874 25.5128 148.816 25.1338 149.923C24.7548 151.03 24.3248 151.733 23.3598 151.949C22.3938 152.165 21.6038 152.158 21.5868 151.546C21.5688 150.935 21.6678 149.634 21.6678 149.634L21.5518 147.724L24.1688 147.976Z" fill="url(#paint16_linear_202_5048)"/>
<path d="M31.2968 146.739C31.2968 146.739 31.2278 147.214 31.7638 147.432C32.2998 147.65 32.2318 147.954 31.8508 148.599C31.4698 149.243 30.3298 149.65 30.0478 149.726C29.7658 149.801 28.9768 149.842 28.8168 149.309C28.6558 148.776 28.8698 147.828 28.8698 147.828L31.2968 146.739Z" fill="url(#paint17_linear_202_5048)"/>
<path d="M30.5551 115.654L29.6181 122.182C29.6181 122.182 29.5361 122.872 29.4221 123.824C29.1731 125.912 28.7721 129.264 28.7551 129.357C28.7331 129.492 26.4741 137.664 26.4411 137.905C26.4061 138.146 26.4311 138.745 25.9981 140.244C25.5691 141.948 24.4211 148.17 24.3991 148.498C24.3811 148.797 24.0431 149.013 23.3611 149.35C23.2961 149.384 23.2291 149.417 23.1571 149.452C22.3381 149.85 21.1651 149.88 20.8951 148.76C20.6241 147.642 20.9381 144.337 21.0851 142.075C21.2301 139.815 21.7551 137.168 21.7931 136.764C21.8301 136.361 22.2761 133.681 22.3541 132.448C22.4331 131.213 22.2091 126.951 22.1251 126.537C22.0431 126.124 21.8631 125.197 21.9281 123.7C21.9931 122.201 23.2951 118.09 24.0901 115.839C24.8891 113.59 28.6841 114.561 30.5551 115.654Z" fill="#424C67"/>
<path d="M23.0907 125.461C22.8627 125.193 22.7517 124.845 22.6767 124.502C22.3297 122.913 22.6527 121.24 23.2527 119.728C23.5227 119.046 23.9387 118.311 24.6547 118.15C25.0437 118.062 25.4507 118.167 25.8227 118.312C26.0377 118.395 26.2547 118.497 26.4057 118.671C26.5527 118.84 26.6247 119.063 26.6637 119.284C26.8697 120.436 26.3127 121.573 26.1537 122.732C26.0617 123.405 26.1057 124.084 26.1607 124.757C26.1877 125.096 26.2207 125.435 26.2397 125.774C26.2607 126.158 26.3257 126.35 25.9077 126.426C25.3957 126.52 25.0067 126.286 24.5267 126.159C24.0097 126.023 23.4517 125.887 23.0907 125.461Z" fill="#454F6B"/>
<path d="M29.4218 123.823C29.1728 125.911 28.7718 129.263 28.7548 129.356C28.7328 129.491 26.4738 137.663 26.4408 137.904C26.4058 138.145 26.4308 138.744 25.9978 140.243C25.5688 141.947 24.4208 148.169 24.3988 148.497C24.3808 148.796 24.0428 149.012 23.3608 149.349C23.7098 146.704 24.6268 144.066 25.0848 141.411C25.2998 140.158 25.9898 139 26.0808 137.727C26.1648 136.567 26.7288 135.463 26.8908 134.289C27.0058 133.454 27.4208 132.732 27.6008 131.905C27.8178 130.916 27.6948 129.895 27.7158 128.894C27.7288 128.252 27.9398 127.691 27.5438 127.091C26.9688 126.219 26.6348 124.675 26.8868 123.641C27.1588 122.522 28.6358 123.182 29.2238 123.658C29.2938 123.711 29.3588 123.768 29.4218 123.823Z" fill="#DEDDF5"/>
<path d="M34.5649 114.705C34.7449 115.265 35.2499 117.552 35.5059 118.938C35.7619 120.324 35.6619 125.036 35.1699 127.796C34.6779 130.555 32.8069 137.676 32.7119 138.266C32.6169 138.856 31.6919 147.265 31.5669 147.491C31.4419 147.717 31.4179 148.472 30.2539 148.824C29.0899 149.176 28.2499 148.901 28.0959 148.499C27.9419 148.097 27.6499 137.914 27.6419 136.87C27.6339 135.826 28.5039 129.163 28.3619 128.289C28.2189 127.414 26.7759 126.148 26.5599 124.373C26.3439 122.598 26.8279 117.264 27.7179 116.22C28.6079 115.177 32.0069 113.636 32.2389 113.436C32.4709 113.236 34.5649 114.705 34.5649 114.705Z" fill="#424C67"/>
<path d="M28.1251 136.595C28.1541 136.245 28.2011 135.879 28.4001 135.589C28.6181 135.271 28.9981 135.088 29.3821 135.051C29.7661 135.015 30.1521 135.113 30.5051 135.268C30.7241 135.364 30.9351 135.484 31.1161 135.64C31.6731 136.117 31.9051 136.886 31.9151 137.62C31.9251 138.354 31.7441 139.075 31.6101 139.796C31.1581 142.217 31.2261 144.702 31.0201 147.157C31.0041 147.343 30.9861 147.535 30.9031 147.703C30.7011 148.112 30.1961 148.256 29.7441 148.318C29.4411 148.36 29.1351 148.385 28.8281 148.393C28.7451 148.395 28.6551 148.394 28.5881 148.344C28.4971 148.276 28.4841 148.148 28.4821 148.034C28.4381 146.071 28.3751 144.108 28.2741 142.147C28.1781 140.301 27.9721 138.444 28.1251 136.595Z" fill="#454F6B"/>
<path d="M28.8601 127.456C28.8731 127.022 28.8971 126.549 29.1851 126.225C29.4811 125.891 29.9661 125.818 30.4091 125.765C30.7441 125.725 31.0791 125.685 31.4151 125.645C32.0301 125.572 32.6951 125.509 33.2281 125.824C33.6451 126.071 33.9131 126.524 34.0191 126.997C34.1251 127.47 34.0851 127.965 33.9981 128.442C33.8411 129.309 33.5341 130.141 33.2991 130.991C32.7231 133.071 32.5731 135.249 32.0261 137.337C31.9071 137.791 31.7521 138.267 31.3911 138.568C31.1911 138.735 30.9421 138.833 30.6901 138.895C30.3221 138.986 29.9191 139.001 29.5751 138.84C29.3301 138.725 29.1331 138.531 28.9421 138.34C28.6551 138.055 28.3611 137.757 28.2181 137.379C27.9721 136.725 28.2191 136.012 28.3321 135.357C28.4391 134.735 28.4831 134.1 28.5001 133.47C28.5321 132.304 28.6501 131.151 28.7331 129.987C28.7911 129.144 28.8341 128.3 28.8601 127.456Z" fill="#454F6B"/>
<path d="M27.339 120.846C27.408 120.447 27.51 120.054 27.611 119.661C27.655 119.49 27.703 119.312 27.825 119.184C27.957 119.045 28.153 118.989 28.341 118.95C29.957 118.618 31.64 119.111 33.276 118.901C33.627 118.856 34.031 118.794 34.295 119.03C34.488 119.203 34.538 119.482 34.568 119.739C34.749 121.256 34.684 122.79 34.618 124.316C34.594 124.883 34.569 125.452 34.451 126.007C34.341 126.524 34.143 127.037 33.785 127.426C33.544 127.689 33.241 127.885 32.937 128.072C32.66 128.243 32.372 128.411 32.051 128.463C31.733 128.515 31.408 128.448 31.097 128.368C30.083 128.106 28.893 127.592 28.412 126.592C27.877 125.478 27.433 124.304 27.287 123.07C27.2 122.332 27.212 121.58 27.339 120.846Z" fill="#454F6B"/>
<path d="M35.0888 116.887C35.0888 116.887 35.4668 117.531 31.6348 117.862C27.8028 118.193 26.0668 117.475 25.2228 116.818C24.3798 116.161 24.0918 115.84 24.0918 115.84L24.1518 114.402L34.6648 115.063L35.0888 116.887Z" fill="#323142"/>
<path d="M34.3988 118.134C34.5648 117.392 34.5208 116.62 34.2728 115.902L33.6138 116.13C33.8168 116.717 33.8548 117.376 33.7188 117.982L34.3988 118.134Z" fill="#424C67"/>
<path d="M27.3898 115.37L27.0605 118.044L27.7523 118.129L28.0815 115.455L27.3898 115.37Z" fill="#424C67"/>
<path d="M34.6631 115.528C34.5731 115.596 34.4691 115.663 34.3541 115.727C33.0511 116.447 30.1951 116.846 28.1241 116.594C25.8681 116.322 24.7211 115.361 24.5451 115.117C24.3691 114.873 24.1711 113.75 23.7871 111.936C23.4031 110.122 22.7911 109.891 22.0851 107.996C21.3801 106.103 22.0581 104.314 22.8851 103.428C23.7121 102.542 24.7411 102.352 25.6301 102.118C26.5201 101.886 29.2371 102.435 29.5781 102.49C29.9171 102.545 30.3551 102.782 31.0821 102.906C31.4211 102.965 32.0731 103.529 32.7231 104.273C33.4731 105.128 34.2201 106.224 34.4741 107.057C34.9481 108.614 34.5861 109.092 34.4571 109.931C34.3271 110.768 34.8541 115.209 34.6631 115.528Z" fill="#FFA600"/>
<path d="M29.2799 100.265C29.2429 100.713 29.2289 101.035 29.4529 101.661C29.6769 102.287 29.7469 102.518 29.7609 102.604C29.7749 102.69 28.1369 102.869 27.6469 103.048C27.1569 103.227 25.8669 103.372 25.6639 103.206C25.4599 103.04 24.8809 102.671 24.8409 102.424C24.8009 102.177 24.8849 100.662 24.8849 100.662C24.8849 100.662 24.9159 93.3368 26.2089 93.4128C27.5019 93.4888 28.7289 94.5808 28.9359 94.8998C29.1429 95.2198 29.1959 95.8838 29.3119 95.9868C29.4279 96.0898 29.8979 96.4658 30.0289 96.8638C30.1599 97.2618 30.2779 98.9978 30.1759 99.3898C30.0739 99.7818 29.2969 100.03 29.2799 100.265Z" fill="url(#paint18_linear_202_5048)"/>
<path d="M27.99 94.3148C28.013 94.3888 28.87 95.6508 28.962 96.5518C29.054 97.4528 29.189 98.3478 29.189 98.3478L29.073 98.8528C29.073 98.8528 28.713 98.8788 28.557 99.4778C28.401 100.077 28.282 100.77 28.062 101.314C27.842 101.858 27.05 102.285 26.745 102.578C26.44 102.871 25.638 103.034 25.392 103.284C25.146 103.534 24.586 103.217 24.586 103.217C24.586 103.217 24.175 102.456 23.334 101.567C22.493 100.677 21.604 99.2878 21.743 97.5648C21.882 95.8418 23.417 93.9248 24.683 93.3428C26.036 92.9568 26.421 93.3718 26.421 93.3718C26.421 93.3718 27.342 93.1238 27.99 94.3148Z" fill="#B2686B"/>
<path d="M29.519 99.9497C29.519 99.9497 29.295 100.152 29.013 99.8447C28.731 99.5377 28.621 99.2017 28.714 98.8227C28.807 98.4427 29.085 98.8617 29.211 99.0287C29.338 99.1957 29.656 99.6187 29.519 99.9497Z" fill="url(#paint19_linear_202_5048)"/>
<path d="M39.8579 84.4307C39.8449 85.0287 39.7789 86.7947 39.7179 88.7147C39.6569 90.6347 39.2299 93.7067 39.0949 94.1717C38.9609 94.6347 38.3419 97.6037 37.7579 99.2587C37.1729 100.913 36.0219 103.869 35.1579 104.981L34.8669 104.904L33.0109 104.411C33.0109 104.411 32.7099 100.986 32.8889 100.685C33.0679 100.383 34.4959 98.4947 34.7229 97.9927C34.9519 97.4917 35.8929 94.3267 36.0449 93.9947C36.1949 93.6607 36.5979 90.7097 36.7869 90.1547C36.9769 89.6017 37.5609 87.0857 37.6539 86.6277C37.7489 86.1717 37.9009 84.7117 37.9009 84.7117L37.6569 84.0737C37.6569 84.0737 37.2339 83.6947 37.0339 83.3667C36.8329 83.0377 36.6749 82.5627 36.6749 82.5627L36.4059 81.5917C36.4059 81.5917 36.0799 80.9457 35.9769 80.6307C35.8749 80.3147 36.0759 80.1427 36.3189 80.2427C36.5629 80.3427 36.9439 80.9207 36.9439 80.9207L37.3519 81.9867L37.3839 82.0707L37.5809 81.9737C37.5809 81.9737 37.6459 81.4757 37.7249 81.1917C37.8029 80.9057 38.0289 79.3977 38.0289 79.3977C38.0289 79.3977 38.1079 79.1657 38.2059 78.9017C38.3099 78.6207 38.4369 78.3037 38.5169 78.1917C38.6569 77.9977 38.8559 77.9057 38.8949 77.8897C38.8999 77.8877 38.9019 77.8867 38.9019 77.8867C38.9019 77.8867 38.9119 77.8597 38.9249 77.8267C38.9469 77.7737 38.9779 77.6977 39.0029 77.6577C39.0449 77.5907 39.3609 77.4587 39.4189 77.5887C39.4779 77.7187 39.3219 78.0747 39.2819 78.2367C39.2589 78.3267 39.2739 78.8297 39.2939 79.2627C39.3089 79.5937 39.3269 79.8827 39.3359 79.9147C39.3539 79.9847 39.4879 80.1687 39.5149 80.3777C39.5419 80.5867 39.5899 81.6907 39.5899 81.6907C39.5899 81.6907 39.8639 81.9547 39.8709 82.2067C39.8779 82.4617 39.8689 83.8327 39.8579 84.4307Z" fill="url(#paint20_linear_202_5048)"/>
<path d="M28.8608 125.293L28.6948 120.428L34.2618 120.59L34.1238 125.138L31.3088 126.318L28.8608 125.293ZM33.9018 120.93L29.0548 120.789L29.2008 125.059L31.3068 125.941L33.7798 124.904L33.9018 120.93Z" fill="#4F5A7A"/>
<path d="M23.897 124.591L25.668 119.675L25.498 119.619C24.766 119.378 23.538 118.848 23.361 118.448L23.042 118.589C23.298 119.168 24.705 119.71 25.219 119.892L23.666 124.205L22.514 124.038L22.131 123.197L21.814 123.342L22.276 124.356L23.897 124.591Z" fill="#4F5A7A"/>
<path d="M27.5207 117.182C27.6157 117.222 27.3757 118.822 27.3757 118.822C27.3757 118.822 26.8657 122.194 26.7017 123.17C26.5367 124.147 26.9897 125.777 26.9897 125.777L27.5207 117.182Z" fill="#DEDDF5"/>
<path d="M29.5048 119.321C29.9288 119.321 30.4028 119.305 30.9358 119.269C34.5608 119.026 35.4468 118.538 35.4828 118.517L35.3108 118.214C35.3018 118.219 34.4168 118.686 30.9128 118.922C27.5508 119.145 26.6058 118.582 25.7738 118.082L25.4818 117.909C24.6988 117.451 24.3748 117.261 24.0418 116.392L23.7158 116.517C24.0928 117.5 24.4978 117.737 25.3058 118.209L25.5948 118.38C26.3368 118.826 27.1628 119.321 29.5048 119.321Z" fill="#4F5A7A"/>
<path d="M31.3709 148.269C31.3799 148.193 32.2589 140.635 32.5059 138.762C32.7479 136.926 32.9329 135.784 34.1859 131.804C35.1269 128.815 35.5679 125.288 35.4959 121.32C35.4519 118.889 34.8219 116.626 34.8159 116.604L34.4799 116.699C34.4859 116.721 35.1039 118.943 35.1469 121.327C35.2189 125.257 34.7829 128.747 33.8529 131.7C32.5909 135.707 32.4049 136.862 32.1599 138.717C31.9129 140.592 31.0329 148.153 31.0249 148.229L31.3709 148.269Z" fill="#4F5A7A"/>
<path d="M22.655 126.321C22.901 126.038 23.264 125.881 23.63 125.805C24.32 125.661 25.042 125.777 25.712 125.998C25.876 126.052 26.042 126.115 26.167 126.234C26.286 126.347 26.357 126.501 26.413 126.655C26.67 127.354 26.682 128.122 26.583 128.86C26.483 129.598 26.275 130.316 26.098 131.039C25.505 133.467 25.244 136.028 24.056 138.227C23.959 138.406 23.854 138.586 23.698 138.716C23.542 138.846 23.324 138.92 23.131 138.856C22.889 138.777 22.758 138.519 22.674 138.278C22.374 137.423 22.345 136.507 22.415 135.612C22.485 134.712 22.794 133.763 22.771 132.864C22.746 131.867 22.745 130.87 22.731 129.874C22.722 129.187 22.634 128.506 22.56 127.824C22.5 127.28 22.244 126.794 22.655 126.321Z" fill="#454F6B"/>
<path d="M22.5249 135.626C22.6079 135.346 22.7199 135.033 22.9889 134.919C23.1099 134.868 23.2459 134.866 23.3759 134.884C24.1379 134.987 24.6959 135.708 24.8599 136.458C25.0239 137.209 24.8759 137.988 24.7289 138.743C24.3589 140.64 24.1269 142.636 23.9639 144.556C23.8959 145.352 23.8289 146.148 23.7609 146.944C23.7019 147.637 23.7789 148.311 23.6929 149.005C23.0499 149.37 22.2489 149.443 21.5509 149.2C21.4599 149.168 21.3679 149.13 21.3019 149.06C21.2279 148.983 21.1949 148.877 21.1699 148.773C20.9999 148.068 21.1039 147.337 21.1649 146.626C21.2279 145.889 21.2669 145.143 21.3379 144.401C21.6199 141.444 21.6739 138.487 22.5249 135.626Z" fill="#454F6B"/>
<path d="M34.6629 115.528C34.5729 115.596 34.4689 115.663 34.3539 115.727C34.2199 115.266 34.0979 114.801 34.0169 114.327C33.7559 112.83 33.8969 111.296 34.0149 109.781C34.0619 109.181 34.0999 108.551 33.8579 107.998C33.6339 107.487 33.2009 107.114 32.8809 106.668C32.4769 106.107 32.0259 105.119 32.5239 104.479C32.5839 104.4 32.6509 104.332 32.7229 104.273C33.4729 105.128 34.2199 106.224 34.4739 107.057C34.9479 108.614 34.5859 109.092 34.4569 109.931C34.3269 110.768 34.8539 115.209 34.6629 115.528Z" fill="#DEDDF5"/>
<path d="M38.5451 84.9468C38.6821 84.7468 38.8721 84.6758 39.1521 84.9138C39.5691 85.2698 39.3561 86.2178 39.3131 86.6838C39.1171 88.7748 39.0421 90.8778 38.7511 92.9578C38.6961 93.3508 38.6301 93.7518 38.4411 94.1008C38.2521 94.4498 37.9161 94.7438 37.5201 94.7768C37.2921 94.7958 37.0431 94.7138 36.9191 94.5218C36.8491 94.4138 36.8251 94.2828 36.8071 94.1548C36.7091 93.4598 36.7471 92.7548 36.8321 92.0608C36.9281 91.2808 37.2591 90.5608 37.4251 89.8038C37.6091 88.9648 37.8661 88.1528 38.0091 87.3018C38.1391 86.5348 38.0871 85.6138 38.5451 84.9468Z" fill="url(#paint21_linear_202_5048)"/>
<path d="M34.692 103.569C34.646 103.601 34.598 103.618 34.549 103.611C34.461 103.6 34.372 103.425 34.304 103.373C34.183 103.281 34.029 103.235 33.901 103.153C33.63 102.979 33.384 102.755 33.208 102.502C33.099 102.345 33.005 102.173 32.977 101.985C32.9 101.469 33.319 101.03 33.652 100.627C34.317 99.8197 34.728 98.8487 35.15 97.9027C35.552 97.0037 36.07 96.1817 36.297 95.2167C36.364 94.9297 36.468 94.6507 36.604 94.3887C36.641 94.3167 36.683 94.2447 36.745 94.1927C36.853 94.1017 37.009 94.0867 37.149 94.1107C37.564 94.1807 37.883 94.5427 38.015 94.9417C38.259 95.6757 37.79 96.5127 37.555 97.2097C37.275 98.0397 36.982 98.8657 36.676 99.6867C36.541 100.049 36.404 100.41 36.25 100.764C35.93 101.497 35.538 102.194 35.134 102.883C35.049 103.025 34.886 103.434 34.692 103.569Z" fill="url(#paint22_linear_202_5048)"/>
<path d="M37.4101 82.1828C37.3851 82.1198 37.3671 82.0538 37.3511 81.9888L37.3831 82.0728L37.5801 81.9758C37.5801 81.9758 37.6451 81.4777 37.7241 81.1937C37.8021 80.9077 38.0281 79.3997 38.0281 79.3997C38.0281 79.3997 38.1071 79.1677 38.2051 78.9037C38.2071 78.9307 38.2081 78.9558 38.2101 78.9818C38.2371 79.4778 38.1051 80.0257 37.9731 80.5017C37.9261 80.6737 37.8741 80.8428 37.8391 81.0168C37.7591 81.4078 37.6821 81.8008 37.5981 82.1908C37.5951 82.1828 37.5781 82.1758 37.5731 82.1858C37.5651 82.2008 37.5731 82.2207 37.5731 82.2377C37.5711 82.2777 37.5141 82.2978 37.4791 82.2798C37.4431 82.2618 37.4231 82.2218 37.4101 82.1828Z" fill="#FFDFD1"/>
<path d="M38.715 81.2758C38.623 80.4088 38.581 79.5128 38.859 78.6878C38.901 78.5638 38.949 78.4418 38.959 78.3138C38.971 78.1698 38.934 78.0298 38.894 77.8908C38.899 77.8888 38.901 77.8878 38.901 77.8878C38.901 77.8878 38.911 77.8608 38.924 77.8278C38.977 77.9798 39.058 78.1188 39.036 78.3058C38.999 78.6128 38.917 78.9208 38.86 79.2248C38.827 79.3898 38.795 79.5568 38.78 79.7258C38.753 80.0268 38.78 80.3308 38.77 80.6328C38.763 80.8488 38.74 81.0618 38.715 81.2758Z" fill="#FFDFD1"/>
<path d="M39.8577 84.4308C39.8447 85.0288 39.7787 86.7948 39.7177 88.7148C39.6567 90.6348 39.2297 93.7068 39.0947 94.1718C38.9607 94.6348 38.3417 97.6038 37.7577 99.2588C37.1727 100.913 36.0217 103.869 35.1577 104.981L34.8667 104.904C35.1157 104.533 35.3817 104.172 35.5897 103.816C36.5287 102.207 37.1767 100.446 37.7687 98.6798C37.8837 98.3338 37.9977 97.9848 38.0677 97.6268C38.1317 97.3048 38.1597 96.9748 38.2547 96.6608C38.3287 96.4148 38.4417 96.1848 38.5387 95.9478C38.8647 95.1538 39.0097 94.2858 38.9597 93.4298C38.8727 91.9098 39.3127 90.5458 39.4657 89.0308C39.5227 88.4798 39.5797 87.9278 39.5857 87.3728C39.5927 86.8898 39.5707 86.4118 39.6687 85.9358C39.7237 85.6698 39.7107 85.3728 39.7307 85.0988C39.7557 84.7628 39.7807 84.4268 39.8057 84.0898C39.8357 83.8998 39.7257 83.6788 39.7327 83.4848C39.7407 83.2848 39.7397 83.2178 39.6107 83.0388C39.3807 82.7198 39.3487 82.2838 39.2967 81.9078C39.2297 81.4318 39.2677 80.9118 39.2667 80.4328C39.2647 80.0438 39.2717 79.6528 39.2917 79.2628C39.3067 79.5938 39.3247 79.8828 39.3337 79.9148C39.3517 79.9848 39.4857 80.1688 39.5127 80.3778C39.5397 80.5868 39.5877 81.6908 39.5877 81.6908C39.5877 81.6908 39.8617 81.9548 39.8687 82.2068C39.8777 82.4618 39.8687 83.8328 39.8577 84.4308Z" fill="#FFDFD1"/>
<path d="M26.5189 103.472C26.3809 103.694 26.2079 103.903 26.1409 104.156C26.0889 104.351 26.1049 104.557 26.1219 104.758C26.3019 106.822 26.6559 108.868 26.8499 110.931C27.0339 112.888 27.0729 114.858 26.9659 116.82C26.9629 116.88 26.9589 116.941 26.9289 116.993C26.8539 117.122 26.6509 117.114 26.5399 117.015C26.4289 116.916 26.3869 116.763 26.3529 116.618C25.9359 114.826 25.9699 112.963 25.7049 111.142C25.5189 109.867 25.1859 108.612 25.1019 107.327C25.0449 106.449 25.1049 105.568 25.0989 104.687C25.0949 104.09 25.0609 103.483 25.2099 102.905C25.3429 102.389 25.8459 101.433 26.5229 101.611C27.2929 101.814 26.7769 103.056 26.5189 103.472Z" fill="#DEDDF5"/>
<path d="M25.486 103.072C25.809 103.349 26.062 104.29 26.003 105.283C25.944 106.275 26.69 108.98 26.68 110.395C26.67 111.81 27.363 116.904 27.363 116.904C27.363 116.904 27.08 118.724 26.101 119.399C25.122 120.074 24.093 115.84 24.093 115.84C24.093 115.84 23.55 113.235 23.979 110.81C24.408 108.385 24.14 105.661 24.334 104.952C24.527 104.243 24.433 103.39 24.433 103.39L25.486 103.072Z" fill="#B2686B"/>
<path d="M30.499 103.268C30.499 103.268 30.774 104.548 31.845 105.698C32.916 106.848 34.528 107.245 34.528 107.245C34.528 107.245 34.55 105.765 35.286 105.137C35.378 103.532 32.797 100.707 32.657 100.664C32.518 100.62 30.499 103.268 30.499 103.268Z" fill="#FF7F00"/>
<path d="M85.372 121.285L76.818 126.223L76.438 126.004L84.992 121.066L85.372 121.285Z" fill="#FFDFD1"/>
<path d="M85.3719 127.984L76.8179 132.922V126.223L85.3719 121.285V127.984Z" fill="#E5BDA0"/>
<path d="M98.6197 135.633L84.9917 127.765V121.066L98.6197 128.934V135.633Z" fill="#E8BA9C"/>
<path d="M84.9917 121.066L98.6197 128.934L98.9997 128.715L85.3717 120.847L84.9917 121.066Z" fill="#FFDFD1"/>
<path d="M96.6549 120.034L87.2749 114.618C86.9179 114.412 86.5939 114.394 86.3609 114.53L84.9199 115.362L85.9879 117.197V126.116C85.9879 126.929 86.5669 127.928 87.2759 128.337L95.0939 132.851L96.1479 134.662L97.5649 133.844C97.7989 133.711 97.9439 133.425 97.9439 133.018V122.254C97.9429 121.442 97.3629 120.443 96.6549 120.034Z" fill="#DE12B5"/>
<path d="M95.2281 120.858L85.8481 115.442C85.1401 115.033 84.5601 115.364 84.5601 116.176V126.94C84.5601 127.753 85.1391 128.752 85.8481 129.161L95.2281 134.577C95.9361 134.986 96.5161 134.656 96.5161 133.843V123.079C96.5151 122.266 95.9361 121.267 95.2281 120.858Z" fill="#B20E7A"/>
<path d="M93.4909 121.861L84.1109 116.445C83.7539 116.239 83.4299 116.221 83.1969 116.358L81.7559 117.19L82.8239 119.025V127.944C82.8239 128.757 83.4029 129.756 84.1119 130.165L91.9299 134.679L92.9839 136.49L94.4009 135.672C94.6349 135.539 94.7799 135.253 94.7799 134.846V124.082C94.7789 123.269 94.1989 122.27 93.4909 121.861Z" fill="#7112DE"/>
<path d="M92.064 122.685L82.684 117.269C81.976 116.86 81.396 117.19 81.396 118.003V128.767C81.396 129.58 81.975 130.579 82.684 130.988L92.064 136.404C92.772 136.813 93.352 136.482 93.352 135.67V124.906C93.351 124.093 92.772 123.094 92.064 122.685Z" fill="#680EB2"/>
<path d="M90.853 130.627L91.159 130.804C91.229 130.844 91.278 130.856 91.304 130.839C91.33 130.821 91.343 130.771 91.343 130.691V129.719C91.343 129.651 91.354 129.593 91.376 129.547C91.398 129.5 91.426 129.464 91.46 129.438C91.494 129.412 91.533 129.4 91.577 129.399C91.622 129.398 91.668 129.407 91.717 129.426C91.62 129.349 91.533 129.244 91.458 129.111C91.382 128.978 91.343 128.839 91.343 128.696V127.724C91.343 127.642 91.33 127.578 91.304 127.529C91.278 127.482 91.23 127.437 91.159 127.397L90.853 127.22V126.795L91.159 126.972C91.24 127.019 91.315 127.079 91.383 127.151C91.451 127.223 91.51 127.302 91.558 127.387C91.606 127.473 91.644 127.562 91.671 127.655C91.698 127.748 91.711 127.842 91.711 127.937V128.909C91.711 129.037 91.742 129.137 91.805 129.209C91.867 129.28 91.961 129.352 92.084 129.423V129.849C91.961 129.777 91.868 129.742 91.805 129.743C91.743 129.745 91.711 129.808 91.711 129.933V130.905C91.711 131 91.698 131.079 91.671 131.14C91.644 131.203 91.606 131.248 91.558 131.278C91.509 131.308 91.451 131.319 91.383 131.311C91.314 131.302 91.24 131.275 91.159 131.228L90.853 131.051V130.627Z" fill="white"/>
<path d="M89.0532 128.586L89.5542 128.875V129.45L89.0532 129.161V128.586Z" fill="white"/>
<path d="M86.8281 127.301L87.3291 127.59V128.165L86.8281 127.876V127.301Z" fill="white"/>
<path d="M84.603 126.017L85.104 126.306V126.881L84.603 126.592V126.017Z" fill="white"/>
<path d="M83.3042 126.694L82.9972 126.517C82.9162 126.47 82.8422 126.411 82.7742 126.342C82.7062 126.271 82.6482 126.193 82.5992 126.107C82.5502 126.021 82.5122 125.931 82.4852 125.838C82.4582 125.745 82.4442 125.651 82.4442 125.556V124.575C82.4442 124.45 82.4132 124.351 82.3512 124.278C82.2882 124.205 82.1962 124.133 82.0742 124.063V123.639C82.1962 123.709 82.2882 123.744 82.3512 123.744C82.4132 123.745 82.4442 123.681 82.4442 123.553V122.58C82.4442 122.486 82.4582 122.408 82.4852 122.346C82.5122 122.284 82.5502 122.239 82.5992 122.211C82.6482 122.183 82.7072 122.173 82.7742 122.181C82.8422 122.188 82.9162 122.216 82.9972 122.262L83.3042 122.439V122.864L82.9972 122.687C82.9272 122.646 82.8782 122.633 82.8532 122.648C82.8272 122.663 82.8142 122.712 82.8142 122.794V123.766C82.8142 123.909 82.7762 124.003 82.7012 124.049C82.6252 124.094 82.5382 124.099 82.4402 124.063C82.4892 124.101 82.5362 124.145 82.5802 124.197C82.6252 124.249 82.6632 124.308 82.6972 124.373C82.7312 124.437 82.7592 124.505 82.7812 124.577C82.8032 124.649 82.8142 124.719 82.8142 124.787V125.768C82.8142 125.848 82.8272 125.914 82.8532 125.96C82.8792 126.008 82.9272 126.052 82.9972 126.093L83.3042 126.27V126.694Z" fill="white"/>
<path d="M98.62 128.934L90.066 133.872L89.686 133.653L98.24 128.715L98.62 128.934Z" fill="#FFDFD1"/>
<path d="M99 135.414L89.686 140.79V134.092L99 128.715V135.414Z" fill="#FFDFD1"/>
<path d="M89.6856 140.79L76.0576 132.922V126.223L89.6856 134.092V140.79Z" fill="#E5BDA0"/>
<path d="M89.6858 140.79H81.0948L68.0068 133.507L76.0578 128.934V132.922L89.6858 140.79Z" fill="#E0E0E0"/>
<path d="M76.0576 126.223L89.6856 134.092L90.0656 133.872L76.4376 126.004L76.0576 126.223Z" fill="#FFDFD1"/>
<defs>
<linearGradient id="paint0_linear_202_5048" x1="4.97228" y1="73.0307" x2="56.9762" y2="73.0307" gradientUnits="userSpaceOnUse">
<stop stop-color="#A8A4B5"/>
<stop offset="0.0043" stop-color="#ADA9B9"/>
<stop offset="0.0261" stop-color="#C1BBCB"/>
<stop offset="0.0508" stop-color="#D0C9D8"/>
<stop offset="0.0804" stop-color="#D8D1E0"/>
<stop offset="0.1282" stop-color="#DBD3E2"/>
</linearGradient>
<linearGradient id="paint1_linear_202_5048" x1="58.7565" y1="119.152" x2="6.59137" y2="28.7985" gradientUnits="userSpaceOnUse">
<stop stop-color="#A8A4B5"/>
<stop offset="0.0043" stop-color="#ADA9B9"/>
<stop offset="0.0261" stop-color="#C1BBCB"/>
<stop offset="0.0508" stop-color="#D0C9D8"/>
<stop offset="0.0804" stop-color="#D8D1E0"/>
<stop offset="0.1282" stop-color="#DBD3E2"/>
</linearGradient>
<linearGradient id="paint2_linear_202_5048" x1="37.2214" y1="53.315" x2="51.0661" y2="53.315" gradientUnits="userSpaceOnUse">
<stop stop-color="#FFDBA7"/>
<stop offset="1" stop-color="#FFC5A4"/>
</linearGradient>
<linearGradient id="paint3_linear_202_5048" x1="40.5073" y1="52.6106" x2="46.8667" y2="52.6106" gradientUnits="userSpaceOnUse">
<stop stop-color="#FFDFB0"/>
<stop offset="1" stop-color="#FFCBAD"/>
</linearGradient>
<linearGradient id="paint4_linear_202_5048" x1="45.5244" y1="48.0314" x2="49.7138" y2="48.0314" gradientUnits="userSpaceOnUse">
<stop stop-color="#FFDFB0"/>
<stop offset="1" stop-color="#FFCBAD"/>
</linearGradient>
<linearGradient id="paint5_linear_202_5048" x1="40.2456" y1="58.0684" x2="53.8355" y2="58.0684" gradientUnits="userSpaceOnUse">
<stop stop-color="#FFDBA7"/>
<stop offset="1" stop-color="#FFC5A4"/>
</linearGradient>
<linearGradient id="paint6_linear_202_5048" x1="49.2742" y1="36.641" x2="54.4167" y2="36.641" gradientUnits="userSpaceOnUse">
<stop stop-color="#FFDBA7"/>
<stop offset="1" stop-color="#FFC5A4"/>
</linearGradient>
<linearGradient id="paint7_linear_202_5048" x1="45.1062" y1="35.5441" x2="51.5251" y2="35.5441" gradientUnits="userSpaceOnUse">
<stop stop-color="#FFDBA7"/>
<stop offset="1" stop-color="#FFC5A4"/>
</linearGradient>
<linearGradient id="paint8_linear_202_5048" x1="50.2382" y1="35.1766" x2="51.5273" y2="35.1766" gradientUnits="userSpaceOnUse">
<stop stop-color="#FFDFB0"/>
<stop offset="1" stop-color="#FFCBAD"/>
</linearGradient>
<linearGradient id="paint9_linear_202_5048" x1="49.1216" y1="51.4845" x2="52.7643" y2="51.4845" gradientUnits="userSpaceOnUse">
<stop stop-color="#FFDFB0"/>
<stop offset="1" stop-color="#FFCBAD"/>
</linearGradient>
<linearGradient id="paint10_linear_202_5048" x1="44.7808" y1="58.335" x2="50.4761" y2="58.335" gradientUnits="userSpaceOnUse">
<stop stop-color="#FFDFB0"/>
<stop offset="1" stop-color="#FFCBAD"/>
</linearGradient>
<linearGradient id="paint11_linear_202_5048" x1="36.8005" y1="58.0576" x2="40.3425" y2="58.0576" gradientUnits="userSpaceOnUse">
<stop stop-color="#FFDBA7"/>
<stop offset="1" stop-color="#FFC5A4"/>
</linearGradient>
<linearGradient id="paint12_linear_202_5048" x1="20.4352" y1="90.0966" x2="26.1022" y2="90.0966" gradientUnits="userSpaceOnUse">
<stop stop-color="#FFDBA7"/>
<stop offset="1" stop-color="#FFC5A4"/>
</linearGradient>
<linearGradient id="paint13_linear_202_5048" x1="26.4563" y1="81.4537" x2="24.5084" y2="81.5497" gradientUnits="userSpaceOnUse">
<stop stop-color="#FFDFB0"/>
<stop offset="1" stop-color="#FFCBAD"/>
</linearGradient>
<linearGradient id="paint14_linear_202_5048" x1="24.9449" y1="88.44" x2="21.4589" y2="88.6117" gradientUnits="userSpaceOnUse">
<stop stop-color="#FFDFB0"/>
<stop offset="1" stop-color="#FFCBAD"/>
</linearGradient>
<linearGradient id="paint15_linear_202_5048" x1="23.3401" y1="96.1767" x2="20.608" y2="96.3113" gradientUnits="userSpaceOnUse">
<stop stop-color="#FFDFB0"/>
<stop offset="1" stop-color="#FFCBAD"/>
</linearGradient>
<linearGradient id="paint16_linear_202_5048" x1="25.2929" y1="149.74" x2="21.5064" y2="149.926" gradientUnits="userSpaceOnUse">
<stop stop-color="#FFDBA7"/>
<stop offset="1" stop-color="#FFC5A4"/>
</linearGradient>
<linearGradient id="paint17_linear_202_5048" x1="32.1666" y1="148.172" x2="28.7304" y2="148.341" gradientUnits="userSpaceOnUse">
<stop stop-color="#FFDBA7"/>
<stop offset="1" stop-color="#FFC5A4"/>
</linearGradient>
<linearGradient id="paint18_linear_202_5048" x1="30.1915" y1="98.1488" x2="24.6405" y2="98.4223" gradientUnits="userSpaceOnUse">
<stop stop-color="#FFDBA7"/>
<stop offset="1" stop-color="#FFC5A4"/>
</linearGradient>
<linearGradient id="paint19_linear_202_5048" x1="29.5316" y1="99.3197" x2="28.6947" y2="99.361" gradientUnits="userSpaceOnUse">
<stop stop-color="#FFDFB0"/>
<stop offset="1" stop-color="#FFCBAD"/>
</linearGradient>
<linearGradient id="paint20_linear_202_5048" x1="32.8328" y1="91.2577" x2="39.8729" y2="91.2577" gradientUnits="userSpaceOnUse">
<stop stop-color="#FFDBA7"/>
<stop offset="1" stop-color="#FFC5A4"/>
</linearGradient>
<linearGradient id="paint21_linear_202_5048" x1="39.6058" y1="89.6997" x2="36.5724" y2="89.8491" gradientUnits="userSpaceOnUse">
<stop stop-color="#FFDFB0"/>
<stop offset="1" stop-color="#FFCBAD"/>
</linearGradient>
<linearGradient id="paint22_linear_202_5048" x1="38.2489" y1="98.7362" x2="32.8258" y2="99.0034" gradientUnits="userSpaceOnUse">
<stop stop-color="#FFDFB0"/>
<stop offset="1" stop-color="#FFCBAD"/>
</linearGradient>
</defs>
</svg>
